G04*
G04 #@! TF.GenerationSoftware,Altium Limited,Altium Designer,22.7.1 (60)*
G04*
G04 Layer_Color=8388736*
%FSLAX44Y44*%
%MOMM*%
G71*
G04*
G04 #@! TF.SameCoordinates,C2A282E5-0786-4D7F-951A-2C12EB248FEB*
G04*
G04*
G04 #@! TF.FilePolarity,Negative*
G04*
G01*
G75*
%ADD25R,1.3000X1.3000*%
%ADD30R,1.6032X1.2032*%
%ADD31R,1.0032X0.7532*%
%ADD32R,0.6932X0.5532*%
%ADD33R,0.5532X0.6932*%
%ADD34R,0.6932X0.5032*%
%ADD35R,0.7000X1.0000*%
%ADD36R,1.0000X0.7000*%
%ADD37R,1.5032X1.5032*%
%ADD38R,1.5032X1.5032*%
%ADD39O,1.6032X0.5032*%
%ADD40R,0.4000X1.7000*%
%ADD41R,1.6032X0.5032*%
%ADD42R,1.2032X1.6032*%
%ADD43C,2.2032*%
%ADD44C,1.7032*%
%ADD45C,1.3000*%
%ADD46C,1.6012*%
%ADD47R,1.7032X1.7032*%
%ADD48C,0.8032*%
D25*
X450600Y356200D02*
D03*
D30*
X73000Y236000D02*
D03*
X51000Y261000D02*
D03*
Y211000D02*
D03*
D31*
X319000Y400000D02*
D03*
X303000D02*
D03*
Y391000D02*
D03*
X319000D02*
D03*
D32*
X127400Y219000D02*
D03*
Y214000D02*
D03*
Y209000D02*
D03*
Y204000D02*
D03*
Y199000D02*
D03*
X152600D02*
D03*
Y204000D02*
D03*
Y209000D02*
D03*
Y214000D02*
D03*
D33*
X135000Y196400D02*
D03*
X140000D02*
D03*
X145000D02*
D03*
Y221600D02*
D03*
X135000D02*
D03*
X140000D02*
D03*
D34*
X152600Y219000D02*
D03*
D35*
X241500Y46000D02*
D03*
X226500D02*
D03*
X110500Y260000D02*
D03*
X125500D02*
D03*
X287500Y211000D02*
D03*
Y188000D02*
D03*
X227500Y212000D02*
D03*
X125000Y238000D02*
D03*
X242500Y212000D02*
D03*
X272500Y211000D02*
D03*
Y188000D02*
D03*
X110000Y238000D02*
D03*
D36*
X335000Y349500D02*
D03*
Y334500D02*
D03*
X311000Y349500D02*
D03*
Y334500D02*
D03*
X287000Y349500D02*
D03*
Y334500D02*
D03*
X446000Y102500D02*
D03*
Y87500D02*
D03*
X146000Y252000D02*
D03*
X109000Y202500D02*
D03*
X137000Y104500D02*
D03*
Y119500D02*
D03*
X240000Y190500D02*
D03*
Y175500D02*
D03*
X109000Y217500D02*
D03*
X162000Y104500D02*
D03*
Y119500D02*
D03*
X146000Y237000D02*
D03*
D37*
X244000Y90000D02*
D03*
X224000Y70000D02*
D03*
Y90000D02*
D03*
D38*
X244000Y70000D02*
D03*
D39*
X405000Y160000D02*
D03*
Y175000D02*
D03*
Y240000D02*
D03*
Y130000D02*
D03*
Y135000D02*
D03*
Y140000D02*
D03*
Y145000D02*
D03*
Y155000D02*
D03*
Y165000D02*
D03*
Y170000D02*
D03*
Y180000D02*
D03*
Y185000D02*
D03*
Y190000D02*
D03*
Y195000D02*
D03*
Y205000D02*
D03*
Y210000D02*
D03*
Y215000D02*
D03*
Y220000D02*
D03*
Y225000D02*
D03*
Y230000D02*
D03*
Y235000D02*
D03*
D40*
X283000Y244000D02*
D03*
X233000D02*
D03*
X238000D02*
D03*
X243000D02*
D03*
X248000D02*
D03*
X253000D02*
D03*
X273000D02*
D03*
X268000D02*
D03*
X263000D02*
D03*
X258000D02*
D03*
X293000D02*
D03*
X288000D02*
D03*
X278000D02*
D03*
X313000D02*
D03*
X308000D02*
D03*
X303000D02*
D03*
X298000D02*
D03*
X323000D02*
D03*
X318000D02*
D03*
Y300000D02*
D03*
X323000D02*
D03*
X298000D02*
D03*
X303000D02*
D03*
X308000D02*
D03*
X313000D02*
D03*
X278000D02*
D03*
X283000D02*
D03*
X288000D02*
D03*
X293000D02*
D03*
X258000D02*
D03*
X263000D02*
D03*
X268000D02*
D03*
X273000D02*
D03*
X253000D02*
D03*
X248000D02*
D03*
X243000D02*
D03*
X238000D02*
D03*
X233000D02*
D03*
D41*
X405000Y150000D02*
D03*
Y200000D02*
D03*
Y245000D02*
D03*
D42*
X268000Y154000D02*
D03*
X318000D02*
D03*
X293000Y132000D02*
D03*
X365000Y103000D02*
D03*
X415000D02*
D03*
X390000Y81000D02*
D03*
D43*
X137270Y380270D02*
D03*
X183270Y45270D02*
D03*
X422780Y470336D02*
D03*
D44*
X170885Y200000D02*
D03*
X268000Y372000D02*
D03*
X137000Y161000D02*
D03*
X162000Y162000D02*
D03*
X179000Y307800D02*
D03*
Y282400D02*
D03*
Y257000D02*
D03*
D45*
X450600Y254600D02*
D03*
X476000Y356200D02*
D03*
Y330800D02*
D03*
X450600D02*
D03*
X476000Y305400D02*
D03*
X450600D02*
D03*
X476000Y280000D02*
D03*
X450600D02*
D03*
X476000Y254600D02*
D03*
Y229200D02*
D03*
X450600D02*
D03*
X476000Y203800D02*
D03*
X450600D02*
D03*
D46*
X279000Y470000D02*
D03*
X229000D02*
D03*
D47*
X179000Y231600D02*
D03*
D48*
X421000Y175000D02*
D03*
X338000Y215000D02*
D03*
X341000Y244000D02*
D03*
X436000Y129000D02*
D03*
X298000Y168000D02*
D03*
X191000Y214000D02*
D03*
X202000Y84000D02*
D03*
X93000Y219000D02*
D03*
X134000Y249000D02*
D03*
X341247Y320627D02*
D03*
X349000Y326000D02*
D03*
X374920Y123000D02*
D03*
X382000Y58000D02*
D03*
X252000Y286460D02*
D03*
M02*
