G04*
G04 #@! TF.GenerationSoftware,Altium Limited,Altium Designer,22.7.1 (60)*
G04*
G04 Layer_Physical_Order=2*
G04 Layer_Color=16711680*
%FSLAX44Y44*%
%MOMM*%
G71*
G04*
G04 #@! TF.SameCoordinates,C2A282E5-0786-4D7F-951A-2C12EB248FEB*
G04*
G04*
G04 #@! TF.FilePolarity,Positive*
G04*
G01*
G75*
%ADD16C,0.2540*%
%ADD22R,0.6000X0.9000*%
%ADD23R,0.9000X0.6000*%
%ADD29R,1.0000X1.4000*%
%ADD52C,1.5000*%
%ADD53C,1.3980*%
%ADD54R,1.5000X1.5000*%
%ADD55C,0.6000*%
G04:AMPARAMS|DCode=56|XSize=0.67mm|YSize=1.17mm|CornerRadius=0.0402mm|HoleSize=0mm|Usage=FLASHONLY|Rotation=90.000|XOffset=0mm|YOffset=0mm|HoleType=Round|Shape=RoundedRectangle|*
%AMROUNDEDRECTD56*
21,1,0.6700,1.0896,0,0,90.0*
21,1,0.5896,1.1700,0,0,90.0*
1,1,0.0804,0.5448,0.2948*
1,1,0.0804,0.5448,-0.2948*
1,1,0.0804,-0.5448,-0.2948*
1,1,0.0804,-0.5448,0.2948*
%
%ADD56ROUNDEDRECTD56*%
%ADD57R,1.2700X3.3000*%
%ADD58R,1.0000X1.0500*%
%ADD59R,1.0500X2.2000*%
%ADD60R,3.4000X1.5000*%
%ADD61R,1.0000X2.0000*%
%ADD62R,2.0000X1.0000*%
%ADD63R,2.3000X1.0000*%
%ADD64R,1.0000X2.3000*%
%ADD65O,3.4000X1.5000*%
%ADD66R,1.1000X1.0000*%
%ADD67C,2.0000*%
G36*
X297694Y544053D02*
X312745Y542357D01*
X327676Y539820D01*
X342442Y536450D01*
X356995Y532257D01*
X371291Y527255D01*
X385283Y521459D01*
X398929Y514888D01*
X412185Y507562D01*
X425009Y499504D01*
X437361Y490740D01*
X449202Y481297D01*
X460495Y471204D01*
X471204Y460495D01*
X481297Y449202D01*
X490740Y437361D01*
X499504Y425009D01*
X507561Y412185D01*
X514888Y398929D01*
X521459Y385283D01*
X527255Y371291D01*
X532257Y356995D01*
X536450Y342442D01*
X539820Y327676D01*
X542357Y312745D01*
X544053Y297694D01*
X544902Y282573D01*
Y275000D01*
Y267427D01*
X544053Y252306D01*
X542357Y237255D01*
X539820Y222324D01*
X536450Y207558D01*
X532257Y193005D01*
X527255Y178709D01*
X521459Y164717D01*
X514888Y151071D01*
X507562Y137815D01*
X499504Y124991D01*
X490740Y112639D01*
X481297Y100798D01*
X471204Y89505D01*
X460495Y78795D01*
X449202Y68703D01*
X437361Y59260D01*
X425009Y50496D01*
X412185Y42439D01*
X398929Y35112D01*
X385283Y28541D01*
X371291Y22745D01*
X356995Y17743D01*
X342442Y13550D01*
X327676Y10180D01*
X312745Y7643D01*
X297694Y5947D01*
X282573Y5098D01*
X267427D01*
X252306Y5947D01*
X237255Y7643D01*
X222324Y10180D01*
X207558Y13550D01*
X193005Y17743D01*
X178709Y22745D01*
X164717Y28541D01*
X151071Y35112D01*
X137815Y42438D01*
X124991Y50496D01*
X112639Y59260D01*
X100798Y68703D01*
X89505Y78796D01*
X78795Y89505D01*
X68703Y100798D01*
X62410Y108690D01*
X63022Y109960D01*
X79730D01*
Y118730D01*
X61460D01*
Y111918D01*
X60190Y111474D01*
X59260Y112639D01*
X50496Y124991D01*
X42439Y137815D01*
X35112Y151071D01*
X28541Y164717D01*
X22745Y178709D01*
X17743Y193005D01*
X13550Y207558D01*
X10180Y222324D01*
X7643Y237255D01*
X5947Y252306D01*
X5098Y267427D01*
Y275000D01*
Y282573D01*
X5947Y297694D01*
X7643Y312745D01*
X10180Y327676D01*
X13550Y342442D01*
X17743Y356995D01*
X22745Y371291D01*
X28541Y385283D01*
X35112Y398929D01*
X42438Y412185D01*
X50496Y425009D01*
X59260Y437361D01*
X68703Y449202D01*
X78796Y460495D01*
X89505Y471204D01*
X100798Y481297D01*
X112639Y490740D01*
X124991Y499504D01*
X137815Y507561D01*
X151071Y514888D01*
X164717Y521459D01*
X178709Y527255D01*
X193005Y532257D01*
X207558Y536450D01*
X222324Y539820D01*
X237255Y542357D01*
X252306Y544053D01*
X267427Y544902D01*
X282573D01*
X297694Y544053D01*
D02*
G37*
%LPC*%
G36*
X270230Y500040D02*
X265960D01*
Y494270D01*
X270230D01*
Y500040D01*
D02*
G37*
G36*
Y491730D02*
X265960D01*
Y485960D01*
X270230D01*
Y491730D01*
D02*
G37*
G36*
X374540Y482730D02*
X368270D01*
Y474460D01*
X374540D01*
Y482730D01*
D02*
G37*
G36*
X365730D02*
X359460D01*
Y474460D01*
X365730D01*
Y482730D01*
D02*
G37*
G36*
X424430Y482876D02*
X424049D01*
Y471606D01*
X435320D01*
Y471987D01*
X434465Y475177D01*
X432814Y478036D01*
X430479Y480371D01*
X427620Y482022D01*
X424430Y482876D01*
D02*
G37*
G36*
X421510D02*
X421129D01*
X417939Y482022D01*
X415080Y480371D01*
X412745Y478036D01*
X411094Y475177D01*
X410239Y471987D01*
Y471606D01*
X421510D01*
Y482876D01*
D02*
G37*
G36*
X277730Y479526D02*
X275322Y478881D01*
X273148Y477626D01*
X271374Y475852D01*
X270119Y473679D01*
X269474Y471270D01*
X277730D01*
Y479526D01*
D02*
G37*
G36*
X435320Y469066D02*
X424049D01*
Y457796D01*
X424430D01*
X427620Y458651D01*
X430479Y460302D01*
X432814Y462637D01*
X434465Y465496D01*
X435320Y468685D01*
Y469066D01*
D02*
G37*
G36*
X421510D02*
X410239D01*
Y468685D01*
X411094Y465496D01*
X412745Y462637D01*
X415080Y460302D01*
X417939Y458651D01*
X421129Y457796D01*
X421510D01*
Y469066D01*
D02*
G37*
G36*
X114040Y453040D02*
X108270D01*
Y448770D01*
X114040D01*
Y453040D01*
D02*
G37*
G36*
X105730D02*
X99960D01*
Y448770D01*
X105730D01*
Y453040D01*
D02*
G37*
G36*
X114040Y446230D02*
X108270D01*
Y441960D01*
X114040D01*
Y446230D01*
D02*
G37*
G36*
X105730D02*
X99960D01*
Y441960D01*
X105730D01*
Y446230D01*
D02*
G37*
G36*
X223540Y443540D02*
X217020D01*
Y431270D01*
X223540D01*
Y443540D01*
D02*
G37*
G36*
X214480D02*
X207960D01*
Y431270D01*
X214480D01*
Y443540D01*
D02*
G37*
G36*
X337540Y434540D02*
X331270D01*
Y426270D01*
X337540D01*
Y434540D01*
D02*
G37*
G36*
X328730D02*
X322460D01*
Y426270D01*
X328730D01*
Y434540D01*
D02*
G37*
G36*
X250040Y428730D02*
X243520D01*
Y416460D01*
X250040D01*
Y428730D01*
D02*
G37*
G36*
X337540Y423730D02*
X331270D01*
Y415460D01*
X337540D01*
Y423730D01*
D02*
G37*
G36*
X328730D02*
X322460D01*
Y415460D01*
X328730D01*
Y423730D01*
D02*
G37*
G36*
X322040Y393540D02*
X316270D01*
Y389270D01*
X322040D01*
Y393540D01*
D02*
G37*
G36*
X346040Y393040D02*
X340270D01*
Y388770D01*
X346040D01*
Y393040D01*
D02*
G37*
G36*
X337730D02*
X331960D01*
Y388770D01*
X337730D01*
Y393040D01*
D02*
G37*
G36*
X200890Y454040D02*
X183110D01*
Y415960D01*
X200890D01*
Y416833D01*
X202063Y417318D01*
X206399Y412983D01*
X207659Y412141D01*
X209146Y411845D01*
X221460D01*
Y406960D01*
X231046D01*
X232115Y405891D01*
Y394540D01*
X228960D01*
Y383460D01*
X243040D01*
Y394540D01*
X239885D01*
Y407500D01*
X239589Y408987D01*
X238747Y410247D01*
X236540Y412454D01*
Y416460D01*
X240980D01*
Y428730D01*
X234460D01*
Y422540D01*
X223540D01*
Y428730D01*
X215750D01*
Y430000D01*
D01*
Y428730D01*
X207960D01*
Y424069D01*
X206787Y423583D01*
X200890Y429479D01*
Y454040D01*
D02*
G37*
G36*
X322040Y386730D02*
X316270D01*
Y382460D01*
X322040D01*
Y386730D01*
D02*
G37*
G36*
X346040Y386230D02*
X340270D01*
Y381960D01*
X346040D01*
Y386230D01*
D02*
G37*
G36*
X337730D02*
X331960D01*
Y381960D01*
X337730D01*
Y386230D01*
D02*
G37*
G36*
X234730Y359040D02*
X228460D01*
Y347770D01*
X234730D01*
Y359040D01*
D02*
G37*
G36*
X477322Y366240D02*
X474678D01*
X472125Y365556D01*
X469835Y364234D01*
X467966Y362365D01*
X466644Y360075D01*
X465960Y357522D01*
Y354878D01*
X466644Y352325D01*
X467966Y350035D01*
X469835Y348166D01*
X472125Y346844D01*
X474678Y346160D01*
X477322D01*
X479875Y346844D01*
X482165Y348166D01*
X484034Y350035D01*
X485356Y352325D01*
X486040Y354878D01*
Y357522D01*
X485356Y360075D01*
X484034Y362365D01*
X482165Y364234D01*
X479875Y365556D01*
X477322Y366240D01*
D02*
G37*
G36*
X366011Y520155D02*
X297646D01*
X296159Y519859D01*
X294899Y519017D01*
X277483Y501601D01*
X276641Y500341D01*
X276581Y500040D01*
X272770D01*
Y493000D01*
Y485960D01*
X276581D01*
X276641Y485659D01*
X277483Y484399D01*
X281323Y480558D01*
X280666Y479420D01*
X280270Y479526D01*
Y470000D01*
X279000D01*
Y468730D01*
X269474D01*
X270119Y466321D01*
X271374Y464148D01*
X273148Y462374D01*
X275322Y461119D01*
X277515Y460532D01*
X278115Y459335D01*
X269479Y450700D01*
X238521D01*
X229885Y459335D01*
X230485Y460532D01*
X232679Y461119D01*
X234852Y462374D01*
X236626Y464148D01*
X237881Y466321D01*
X238530Y468745D01*
Y471255D01*
X237881Y473679D01*
X236626Y475852D01*
X234852Y477626D01*
X232679Y478881D01*
X230255Y479530D01*
X227745D01*
X225322Y478881D01*
X223148Y477626D01*
X221374Y475852D01*
X220119Y473679D01*
X219470Y471255D01*
Y468745D01*
X219725Y467792D01*
X218952Y466785D01*
X141290D01*
Y481940D01*
X123510D01*
Y466385D01*
X114040D01*
Y468040D01*
X99960D01*
Y456960D01*
X114040D01*
Y458615D01*
X123510D01*
Y443860D01*
X141290D01*
Y459015D01*
X219217D01*
X233727Y444506D01*
X234460Y443540D01*
Y431270D01*
X242250D01*
X250040D01*
Y442930D01*
X258576D01*
X272460Y429046D01*
Y415460D01*
X287540D01*
Y434540D01*
X277954D01*
X270678Y441816D01*
X271315Y442975D01*
X272575Y443226D01*
X273835Y444068D01*
X298579Y468811D01*
X298747Y469063D01*
X308287Y478603D01*
X309460Y478117D01*
Y474460D01*
X324540D01*
Y493540D01*
X317069D01*
X316583Y494713D01*
X318255Y496385D01*
X338270D01*
X338645Y496460D01*
X345355D01*
X345730Y496385D01*
X365745D01*
X367417Y494713D01*
X366931Y493540D01*
X359460D01*
Y485270D01*
X367000D01*
X374540D01*
Y485931D01*
X375713Y486418D01*
X381115Y481015D01*
Y335072D01*
X380540Y334040D01*
X355540D01*
Y359040D01*
X340810D01*
X340460Y359040D01*
X339540D01*
X339190Y359040D01*
X335885D01*
Y365391D01*
X337454Y366960D01*
X346040D01*
Y378040D01*
X331960D01*
Y376635D01*
X322040D01*
Y378540D01*
X313454D01*
X310707Y381287D01*
X311193Y382460D01*
X313730D01*
Y388000D01*
Y393540D01*
X308885D01*
Y437460D01*
X312540D01*
Y456540D01*
X297460D01*
Y437460D01*
X301115D01*
Y381500D01*
X301411Y380013D01*
X302253Y378753D01*
X307960Y373046D01*
Y367460D01*
X316546D01*
X323807Y360200D01*
X323170Y359040D01*
X308810D01*
X308460Y359040D01*
X307540D01*
X307190Y359040D01*
X292810D01*
X292460Y359040D01*
X291540D01*
X291190Y359040D01*
X276810D01*
X276460Y359040D01*
X275540D01*
X275190Y359040D01*
X271885D01*
Y362650D01*
X274165Y363966D01*
X276034Y365835D01*
X277356Y368125D01*
X278040Y370678D01*
Y373322D01*
X277356Y375875D01*
X276034Y378165D01*
X274165Y380034D01*
X271875Y381356D01*
X269322Y382040D01*
X266678D01*
X264125Y381356D01*
X261835Y380034D01*
X259966Y378165D01*
X258644Y375875D01*
X257960Y373322D01*
Y370678D01*
X258644Y368125D01*
X259966Y365835D01*
X261835Y363966D01*
X264115Y362650D01*
Y359040D01*
X260810D01*
X260460Y359040D01*
X259540D01*
X259190Y359040D01*
X252155D01*
Y363230D01*
X251859Y364717D01*
X251017Y365977D01*
X243040Y373954D01*
Y379540D01*
X228960D01*
Y368460D01*
X237546D01*
X244385Y361621D01*
Y359960D01*
X243540Y359040D01*
X243115Y359040D01*
X237270D01*
Y346500D01*
Y333960D01*
X243190D01*
X243540Y333960D01*
X244460Y333115D01*
Y330960D01*
X259190D01*
X259540Y330960D01*
X260460D01*
X260810Y330960D01*
X275190D01*
X275540Y330960D01*
X276460D01*
X276810Y330960D01*
X291190D01*
X291540Y330960D01*
X292460D01*
X292810Y330960D01*
X307190D01*
X307540Y330960D01*
X308460D01*
X308810Y330960D01*
X317307D01*
X317793Y329787D01*
X317093Y329087D01*
X316251Y327827D01*
X315955Y326340D01*
Y214660D01*
X316251Y213173D01*
X317093Y211913D01*
X317793Y211213D01*
X317307Y210040D01*
X308810D01*
X308460Y210040D01*
X307540D01*
X307190Y210040D01*
X292810D01*
X292460Y210040D01*
X291540D01*
X291190Y210040D01*
X276810D01*
X276460Y210040D01*
X275540D01*
X275190Y210040D01*
X269270D01*
Y196000D01*
Y181960D01*
X275190D01*
X275540Y181960D01*
X276460D01*
X276810Y181960D01*
X291190D01*
X291540Y181960D01*
X292460D01*
X292810Y181960D01*
X307190D01*
X307540Y181960D01*
X308460D01*
X308810Y181960D01*
X323540D01*
Y181960D01*
X324460D01*
Y181960D01*
X339190D01*
X339540Y181960D01*
X340460D01*
X340810Y181960D01*
X347931D01*
X348417Y180787D01*
X329745Y162115D01*
X301587D01*
X301255Y162995D01*
X301219Y163385D01*
X302697Y164862D01*
X303470Y166730D01*
X292530D01*
X293303Y164862D01*
X294781Y163385D01*
X294745Y162995D01*
X294413Y162115D01*
X242040D01*
Y173040D01*
X240385D01*
Y181960D01*
X243190D01*
X243540Y181960D01*
X244460D01*
X244810Y181960D01*
X259190D01*
X259540Y181960D01*
X260460D01*
X260810Y181960D01*
X266730D01*
Y196000D01*
Y210040D01*
X260810D01*
X260460Y210040D01*
X259540D01*
X259190Y210040D01*
X244460D01*
Y207885D01*
X243540Y207040D01*
X243190Y207040D01*
X229697D01*
X228540Y207040D01*
X228540Y208197D01*
Y221690D01*
X228540Y222040D01*
X229385Y222960D01*
X231540D01*
Y229230D01*
X217500D01*
X203460D01*
Y223310D01*
X203460Y222960D01*
Y222040D01*
X203460Y221690D01*
Y206960D01*
X227303D01*
X228460Y206960D01*
X228460Y205803D01*
Y181960D01*
X232615D01*
Y173534D01*
X231359Y173341D01*
X230517Y174601D01*
X217636Y187482D01*
X216376Y188324D01*
X214889Y188620D01*
X187759D01*
X180243Y196135D01*
X180925Y198678D01*
Y201322D01*
X180240Y203875D01*
X178919Y206165D01*
X177049Y208034D01*
X174760Y209356D01*
X172206Y210040D01*
X169563D01*
X167009Y209356D01*
X164720Y208034D01*
X162851Y206165D01*
X161529Y203875D01*
X161464Y203635D01*
X157040D01*
Y205040D01*
X142960D01*
Y203385D01*
X140888D01*
X139402Y203089D01*
X138141Y202247D01*
X136213Y200319D01*
X135040Y200805D01*
Y205040D01*
X120960D01*
Y203835D01*
X113551D01*
X113419Y204496D01*
X112769Y205469D01*
X111796Y206119D01*
X110648Y206348D01*
X99752D01*
X98604Y206119D01*
X97631Y205469D01*
X96981Y204496D01*
X96752Y203348D01*
Y197452D01*
X96981Y196304D01*
X97631Y195331D01*
X98604Y194681D01*
X99752Y194452D01*
X110648D01*
X111796Y194681D01*
X112769Y195331D01*
X113260Y196065D01*
X119387D01*
X119914Y194795D01*
X115644Y190526D01*
X114802Y189266D01*
X114506Y187779D01*
X113277Y186642D01*
X112769Y186669D01*
X111796Y187319D01*
X110648Y187548D01*
X99752D01*
X98604Y187319D01*
X97631Y186669D01*
X96981Y185696D01*
X96752Y184548D01*
Y178652D01*
X96981Y177504D01*
X97631Y176531D01*
X98604Y175881D01*
X99752Y175652D01*
X110648D01*
X111796Y175881D01*
X112769Y176531D01*
X113419Y177504D01*
X113461Y177715D01*
X114860D01*
X116347Y178011D01*
X117607Y178853D01*
X119787Y181033D01*
X120960Y180547D01*
Y178960D01*
X126730D01*
Y184500D01*
X128000D01*
Y185770D01*
X135040D01*
Y188997D01*
X135565Y189101D01*
X136825Y189943D01*
X141690Y194808D01*
X142960Y194282D01*
Y193960D01*
X157040D01*
Y195865D01*
X161679D01*
X162851Y193835D01*
X164720Y191966D01*
X167009Y190644D01*
X169563Y189960D01*
X172206D01*
X174750Y190641D01*
X183403Y181988D01*
X184663Y181146D01*
X186149Y180851D01*
X213280D01*
X219917Y174213D01*
X219431Y173040D01*
X215960D01*
Y158960D01*
X225922D01*
X229399Y155483D01*
X230659Y154641D01*
X232146Y154345D01*
X331354D01*
X332841Y154641D01*
X334101Y155483D01*
X392287Y213669D01*
X393129Y214929D01*
X393425Y216416D01*
Y339115D01*
X442921D01*
X443447Y337845D01*
X442566Y336965D01*
X441244Y334675D01*
X440560Y332122D01*
Y329478D01*
X441244Y326925D01*
X442566Y324635D01*
X444435Y322766D01*
X446725Y321444D01*
X449278Y320760D01*
X451922D01*
X454475Y321444D01*
X456765Y322766D01*
X458634Y324635D01*
X459956Y326925D01*
X460640Y329478D01*
Y329602D01*
X461813Y330088D01*
X461943Y329958D01*
X463203Y329116D01*
X464690Y328820D01*
X466136D01*
X466644Y326925D01*
X467966Y324635D01*
X469835Y322766D01*
X472125Y321444D01*
X474678Y320760D01*
X477322D01*
X479875Y321444D01*
X482165Y322766D01*
X484034Y324635D01*
X485356Y326925D01*
X486040Y329478D01*
Y332122D01*
X485356Y334675D01*
X484034Y336965D01*
X482165Y338834D01*
X479875Y340156D01*
X477322Y340840D01*
X474678D01*
X472125Y340156D01*
X469835Y338834D01*
X467966Y336965D01*
X467749Y336589D01*
X466299D01*
X457998Y344890D01*
X458525Y346160D01*
X460640D01*
Y366240D01*
X440560D01*
Y346885D01*
X393425D01*
Y492741D01*
X393129Y494227D01*
X392287Y495488D01*
X368758Y519017D01*
X367497Y519859D01*
X366011Y520155D01*
D02*
G37*
G36*
X234730Y345230D02*
X228460D01*
Y335197D01*
X228460Y334040D01*
X227303Y334040D01*
X217270D01*
Y327770D01*
X228540D01*
Y332803D01*
X228540Y333960D01*
X229697Y333960D01*
X234730D01*
Y345230D01*
D02*
G37*
G36*
X214730Y334040D02*
X203460D01*
Y327770D01*
X214730D01*
Y334040D01*
D02*
G37*
G36*
X180322Y317840D02*
X177678D01*
X175125Y317156D01*
X172835Y315834D01*
X170966Y313965D01*
X169644Y311675D01*
X168960Y309122D01*
Y306478D01*
X169644Y303925D01*
X170966Y301635D01*
X172835Y299766D01*
X175125Y298444D01*
X177678Y297760D01*
X180322D01*
X182875Y298444D01*
X185165Y299766D01*
X187034Y301635D01*
X188356Y303925D01*
X189040Y306478D01*
Y309122D01*
X188356Y311675D01*
X187034Y313965D01*
X185165Y315834D01*
X182875Y317156D01*
X180322Y317840D01*
D02*
G37*
G36*
X228540Y325230D02*
X216000D01*
X203460D01*
Y319310D01*
X203460Y318960D01*
Y318040D01*
X203460Y317690D01*
Y303310D01*
X203460Y302960D01*
Y302040D01*
X203460Y301690D01*
Y295770D01*
X217500D01*
X231540D01*
Y301690D01*
X231540Y302040D01*
Y302960D01*
X231540Y303310D01*
Y318040D01*
X229385D01*
X228540Y318960D01*
X228540Y319310D01*
Y325230D01*
D02*
G37*
G36*
X477322Y315440D02*
X474678D01*
X472125Y314756D01*
X469835Y313434D01*
X467966Y311565D01*
X466644Y309275D01*
X465960Y306722D01*
Y304078D01*
X466644Y301525D01*
X467966Y299235D01*
X469835Y297366D01*
X472125Y296044D01*
X474678Y295360D01*
X477322D01*
X479875Y296044D01*
X482165Y297366D01*
X484034Y299235D01*
X485356Y301525D01*
X486040Y304078D01*
Y306722D01*
X485356Y309275D01*
X484034Y311565D01*
X482165Y313434D01*
X479875Y314756D01*
X477322Y315440D01*
D02*
G37*
G36*
X451922D02*
X449278D01*
X446725Y314756D01*
X444435Y313434D01*
X442566Y311565D01*
X441244Y309275D01*
X440560Y306722D01*
Y304078D01*
X441244Y301525D01*
X442566Y299235D01*
X444435Y297366D01*
X446725Y296044D01*
X449278Y295360D01*
X451922D01*
X454475Y296044D01*
X456765Y297366D01*
X458634Y299235D01*
X459956Y301525D01*
X460640Y304078D01*
Y306722D01*
X459956Y309275D01*
X458634Y311565D01*
X456765Y313434D01*
X454475Y314756D01*
X451922Y315440D01*
D02*
G37*
G36*
X180322Y292440D02*
X177678D01*
X175125Y291756D01*
X172835Y290434D01*
X170966Y288565D01*
X169644Y286275D01*
X168960Y283722D01*
Y281078D01*
X169644Y278525D01*
X170966Y276235D01*
X172835Y274366D01*
X175125Y273044D01*
X177678Y272360D01*
X180322D01*
X182875Y273044D01*
X185165Y274366D01*
X187034Y276235D01*
X188356Y278525D01*
X189040Y281078D01*
Y283722D01*
X188356Y286275D01*
X187034Y288565D01*
X185165Y290434D01*
X182875Y291756D01*
X180322Y292440D01*
D02*
G37*
G36*
X477322Y290040D02*
X474678D01*
X472125Y289356D01*
X469835Y288034D01*
X467966Y286165D01*
X466644Y283875D01*
X465960Y281322D01*
Y278678D01*
X466644Y276125D01*
X467966Y273835D01*
X469835Y271966D01*
X472125Y270644D01*
X474678Y269960D01*
X477322D01*
X479875Y270644D01*
X482165Y271966D01*
X484034Y273835D01*
X485356Y276125D01*
X486040Y278678D01*
Y281322D01*
X485356Y283875D01*
X484034Y286165D01*
X482165Y288034D01*
X479875Y289356D01*
X477322Y290040D01*
D02*
G37*
G36*
X451922D02*
X449278D01*
X446725Y289356D01*
X444435Y288034D01*
X442566Y286165D01*
X441244Y283875D01*
X440560Y281322D01*
Y278678D01*
X441244Y276125D01*
X442566Y273835D01*
X444435Y271966D01*
X446725Y270644D01*
X449278Y269960D01*
X451922D01*
X454475Y270644D01*
X456765Y271966D01*
X458634Y273835D01*
X459956Y276125D01*
X460640Y278678D01*
Y281322D01*
X459956Y283875D01*
X458634Y286165D01*
X456765Y288034D01*
X454475Y289356D01*
X451922Y290040D01*
D02*
G37*
G36*
Y264640D02*
X451870D01*
Y255870D01*
X460640D01*
Y255922D01*
X459956Y258475D01*
X458634Y260765D01*
X456765Y262634D01*
X454475Y263956D01*
X451922Y264640D01*
D02*
G37*
G36*
X449330D02*
X449278D01*
X446725Y263956D01*
X444435Y262634D01*
X442566Y260765D01*
X441244Y258475D01*
X440560Y255922D01*
Y255870D01*
X449330D01*
Y264640D01*
D02*
G37*
G36*
X135270Y254470D02*
Y250270D01*
X139470D01*
X138697Y252138D01*
X137138Y253697D01*
X135270Y254470D01*
D02*
G37*
G36*
X132730D02*
X130862Y253697D01*
X129303Y252138D01*
X128530Y250270D01*
X132730D01*
Y254470D01*
D02*
G37*
G36*
X180322Y267040D02*
X177678D01*
X175125Y266356D01*
X172835Y265034D01*
X170966Y263165D01*
X169644Y260875D01*
X168960Y258322D01*
Y255678D01*
X169644Y253125D01*
X170966Y250835D01*
X172835Y248966D01*
X175125Y247644D01*
X177678Y246960D01*
X180322D01*
X182875Y247644D01*
X185165Y248966D01*
X187034Y250835D01*
X188356Y253125D01*
X189040Y255678D01*
Y258322D01*
X188356Y260875D01*
X187034Y263165D01*
X185165Y265034D01*
X182875Y266356D01*
X180322Y267040D01*
D02*
G37*
G36*
X477322Y264640D02*
X474678D01*
X472125Y263956D01*
X469835Y262634D01*
X467966Y260765D01*
X466644Y258475D01*
X465960Y255922D01*
Y253278D01*
X466644Y250725D01*
X467966Y248435D01*
X469835Y246566D01*
X472125Y245244D01*
X474678Y244560D01*
X477322D01*
X479875Y245244D01*
X482165Y246566D01*
X484034Y248435D01*
X485356Y250725D01*
X486040Y253278D01*
Y255922D01*
X485356Y258475D01*
X484034Y260765D01*
X482165Y262634D01*
X479875Y263956D01*
X477322Y264640D01*
D02*
G37*
G36*
X460640Y253330D02*
X451870D01*
Y244560D01*
X451922D01*
X454475Y245244D01*
X456765Y246566D01*
X458634Y248435D01*
X459956Y250725D01*
X460640Y253278D01*
Y253330D01*
D02*
G37*
G36*
X449330D02*
X440560D01*
Y253278D01*
X441244Y250725D01*
X442566Y248435D01*
X444435Y246566D01*
X446725Y245244D01*
X449278Y244560D01*
X449330D01*
Y253330D01*
D02*
G37*
G36*
X139470Y247730D02*
X135270D01*
Y243530D01*
X137138Y244303D01*
X138697Y245862D01*
X139470Y247730D01*
D02*
G37*
G36*
X132730D02*
X128530D01*
X129303Y245862D01*
X130862Y244303D01*
X132730Y243530D01*
Y247730D01*
D02*
G37*
G36*
X231540Y293230D02*
X217500D01*
X203460D01*
Y287310D01*
X203460Y286960D01*
Y286040D01*
X203460Y285690D01*
Y270960D01*
X203460D01*
Y270040D01*
X203460D01*
Y255310D01*
X203460Y254960D01*
Y254040D01*
X203460Y253690D01*
Y239310D01*
X203460Y238960D01*
Y238040D01*
X203460Y237690D01*
Y231770D01*
X217500D01*
X231540D01*
Y237690D01*
X231540Y238040D01*
Y238960D01*
X231540Y239310D01*
Y253690D01*
X231540Y254040D01*
Y254960D01*
X231540Y255310D01*
Y262345D01*
X231770D01*
X233257Y262641D01*
X234517Y263483D01*
X251954Y280920D01*
X253102D01*
X255138Y281763D01*
X256697Y283322D01*
X257540Y285358D01*
Y287562D01*
X256697Y289598D01*
X255138Y291157D01*
X253102Y292000D01*
X250898D01*
X248862Y291157D01*
X247303Y289598D01*
X246460Y287562D01*
Y286414D01*
X232713Y272667D01*
X231540Y273153D01*
Y285690D01*
X231540Y286040D01*
Y286960D01*
X231540Y287310D01*
Y293230D01*
D02*
G37*
G36*
X189040Y241640D02*
X168960D01*
Y221560D01*
X189040D01*
Y241640D01*
D02*
G37*
G36*
X94270Y224470D02*
Y220270D01*
X98470D01*
X97697Y222138D01*
X96138Y223697D01*
X94270Y224470D01*
D02*
G37*
G36*
X91730D02*
X89862Y223697D01*
X88303Y222138D01*
X87530Y220270D01*
X91730D01*
Y224470D01*
D02*
G37*
G36*
X477322Y239240D02*
X474678D01*
X472125Y238556D01*
X469835Y237234D01*
X467966Y235365D01*
X466644Y233075D01*
X465960Y230522D01*
Y227878D01*
X466644Y225325D01*
X467966Y223035D01*
X469835Y221166D01*
X472125Y219844D01*
X474678Y219160D01*
X477322D01*
X479875Y219844D01*
X482165Y221166D01*
X484034Y223035D01*
X485356Y225325D01*
X486040Y227878D01*
Y230522D01*
X485356Y233075D01*
X484034Y235365D01*
X482165Y237234D01*
X479875Y238556D01*
X477322Y239240D01*
D02*
G37*
G36*
X451922D02*
X449278D01*
X446725Y238556D01*
X444435Y237234D01*
X442566Y235365D01*
X441244Y233075D01*
X440560Y230522D01*
Y227878D01*
X441244Y225325D01*
X442566Y223035D01*
X444435Y221166D01*
X446725Y219844D01*
X449278Y219160D01*
X451922D01*
X454475Y219844D01*
X456765Y221166D01*
X458634Y223035D01*
X459956Y225325D01*
X460640Y227878D01*
Y230522D01*
X459956Y233075D01*
X458634Y235365D01*
X456765Y237234D01*
X454475Y238556D01*
X451922Y239240D01*
D02*
G37*
G36*
X192270Y219470D02*
Y215270D01*
X196470D01*
X195697Y217138D01*
X194138Y218697D01*
X192270Y219470D01*
D02*
G37*
G36*
X189730D02*
X187862Y218697D01*
X186303Y217138D01*
X185530Y215270D01*
X189730D01*
Y219470D01*
D02*
G37*
G36*
X98470Y217730D02*
X94270D01*
Y213530D01*
X96138Y214303D01*
X97697Y215862D01*
X98470Y217730D01*
D02*
G37*
G36*
X91730D02*
X87530D01*
X88303Y215862D01*
X89862Y214303D01*
X91730Y213530D01*
Y217730D01*
D02*
G37*
G36*
X196470Y212730D02*
X192270D01*
Y208530D01*
X194138Y209303D01*
X195697Y210862D01*
X196470Y212730D01*
D02*
G37*
G36*
X189730D02*
X185530D01*
X186303Y210862D01*
X187862Y209303D01*
X189730Y208530D01*
Y212730D01*
D02*
G37*
G36*
X86248Y206348D02*
X75352D01*
X74204Y206119D01*
X73231Y205469D01*
X72581Y204496D01*
X72539Y204285D01*
X67310D01*
X65823Y203989D01*
X64563Y203147D01*
X63801Y202385D01*
X62040D01*
Y204040D01*
X47960D01*
Y192960D01*
X62040D01*
Y194615D01*
X65410D01*
X66897Y194911D01*
X68157Y195753D01*
X68919Y196515D01*
X72093D01*
X72735Y195327D01*
X72581Y195096D01*
X72352Y193948D01*
Y192270D01*
X80800D01*
X89248D01*
Y193948D01*
X89019Y195096D01*
X88616Y195700D01*
X89019Y196304D01*
X89248Y197452D01*
Y203348D01*
X89019Y204496D01*
X88369Y205469D01*
X87396Y206119D01*
X86248Y206348D01*
D02*
G37*
G36*
X477322Y213840D02*
X474678D01*
X472125Y213156D01*
X469835Y211834D01*
X467966Y209965D01*
X466644Y207675D01*
X465960Y205122D01*
Y202478D01*
X466644Y199925D01*
X467966Y197635D01*
X469835Y195766D01*
X472125Y194444D01*
X474678Y193760D01*
X477322D01*
X479875Y194444D01*
X482165Y195766D01*
X484034Y197635D01*
X485356Y199925D01*
X486040Y202478D01*
Y205122D01*
X485356Y207675D01*
X484034Y209965D01*
X482165Y211834D01*
X479875Y213156D01*
X477322Y213840D01*
D02*
G37*
G36*
X451922D02*
X449278D01*
X446725Y213156D01*
X444435Y211834D01*
X442566Y209965D01*
X441244Y207675D01*
X440560Y205122D01*
Y202478D01*
X441244Y199925D01*
X442566Y197635D01*
X444435Y195766D01*
X446725Y194444D01*
X449278Y193760D01*
X451922D01*
X454475Y194444D01*
X456765Y195766D01*
X458634Y197635D01*
X459956Y199925D01*
X460640Y202478D01*
Y205122D01*
X459956Y207675D01*
X458634Y209965D01*
X456765Y211834D01*
X454475Y213156D01*
X451922Y213840D01*
D02*
G37*
G36*
X157040Y190040D02*
X151270D01*
Y185770D01*
X157040D01*
Y190040D01*
D02*
G37*
G36*
X148730D02*
X142960D01*
Y185770D01*
X148730D01*
Y190040D01*
D02*
G37*
G36*
X89248Y189730D02*
X80800D01*
X72352D01*
Y188052D01*
X72581Y186904D01*
X72735Y186673D01*
X72093Y185485D01*
X62040D01*
Y189040D01*
X47960D01*
Y177960D01*
X57170D01*
X58400Y177715D01*
X72539D01*
X72581Y177504D01*
X73231Y176531D01*
X74204Y175881D01*
X75352Y175652D01*
X76915D01*
Y150127D01*
X71500D01*
X68879Y149782D01*
X66437Y148770D01*
X64339Y147161D01*
X62730Y145063D01*
X61718Y142621D01*
X61373Y140000D01*
X61718Y137379D01*
X62730Y134937D01*
X64339Y132839D01*
X66333Y131310D01*
X66334Y131168D01*
X65482Y130040D01*
X61460D01*
Y121270D01*
X81000D01*
X100540D01*
Y130040D01*
X96518D01*
X95666Y131168D01*
X95667Y131310D01*
X97661Y132839D01*
X99270Y134937D01*
X99758Y136115D01*
X106960D01*
Y132960D01*
X108615D01*
Y123540D01*
X103460D01*
Y108460D01*
X119190D01*
X119540Y108460D01*
X120460D01*
X120810Y108460D01*
X136540D01*
Y112115D01*
X145000D01*
X146487Y112411D01*
X147747Y113253D01*
X149454Y114960D01*
X158040D01*
Y126040D01*
X143960D01*
Y120454D01*
X143391Y119885D01*
X136540D01*
Y123540D01*
X120810D01*
X120460Y123540D01*
X119540D01*
X119190Y123540D01*
X116385D01*
Y132960D01*
X118040D01*
Y147040D01*
X106960D01*
Y143885D01*
X99758D01*
X99270Y145063D01*
X97661Y147161D01*
X95563Y148770D01*
X93121Y149782D01*
X90500Y150127D01*
X84685D01*
Y175652D01*
X86248D01*
X87396Y175881D01*
X88369Y176531D01*
X89019Y177504D01*
X89248Y178652D01*
Y184548D01*
X89019Y185696D01*
X88616Y186300D01*
X89019Y186904D01*
X89248Y188052D01*
Y189730D01*
D02*
G37*
G36*
X157040Y183230D02*
X151270D01*
Y178960D01*
X157040D01*
Y183230D01*
D02*
G37*
G36*
X148730D02*
X142960D01*
Y178960D01*
X148730D01*
Y183230D01*
D02*
G37*
G36*
X135040D02*
X129270D01*
Y178960D01*
X135040D01*
Y183230D01*
D02*
G37*
G36*
X419270Y180470D02*
Y176270D01*
X423470D01*
X422697Y178138D01*
X421138Y179697D01*
X419270Y180470D01*
D02*
G37*
G36*
X416730D02*
X414862Y179697D01*
X413303Y178138D01*
X412530Y176270D01*
X416730D01*
Y180470D01*
D02*
G37*
G36*
X423470Y173730D02*
X419270D01*
Y169530D01*
X421138Y170303D01*
X422697Y171862D01*
X423470Y173730D01*
D02*
G37*
G36*
X416730D02*
X412530D01*
X413303Y171862D01*
X414862Y170303D01*
X416730Y169530D01*
Y173730D01*
D02*
G37*
G36*
X299270Y173470D02*
Y169270D01*
X303470D01*
X302697Y171138D01*
X301138Y172697D01*
X299270Y173470D01*
D02*
G37*
G36*
X296730D02*
X294862Y172697D01*
X293303Y171138D01*
X292530Y169270D01*
X296730D01*
Y173470D01*
D02*
G37*
G36*
X163322Y172040D02*
X160678D01*
X158125Y171356D01*
X155835Y170034D01*
X153966Y168165D01*
X152644Y165875D01*
X151960Y163322D01*
Y160678D01*
X152644Y158125D01*
X153966Y155835D01*
X155835Y153966D01*
X158125Y152644D01*
X160678Y151960D01*
X163322D01*
X165875Y152644D01*
X168165Y153966D01*
X170034Y155835D01*
X171356Y158125D01*
X172040Y160678D01*
Y163322D01*
X171356Y165875D01*
X170034Y168165D01*
X168165Y170034D01*
X165875Y171356D01*
X163322Y172040D01*
D02*
G37*
G36*
X138322Y171040D02*
X135678D01*
X133125Y170356D01*
X130835Y169034D01*
X128966Y167165D01*
X127644Y164875D01*
X126960Y162322D01*
Y159678D01*
X127644Y157125D01*
X128966Y154835D01*
X130835Y152966D01*
X133125Y151644D01*
X135678Y150960D01*
X138322D01*
X140875Y151644D01*
X143165Y152966D01*
X145034Y154835D01*
X146356Y157125D01*
X147040Y159678D01*
Y162322D01*
X146356Y164875D01*
X145034Y167165D01*
X143165Y169034D01*
X140875Y170356D01*
X138322Y171040D01*
D02*
G37*
G36*
X133040Y147040D02*
X128770D01*
Y141270D01*
X133040D01*
Y147040D01*
D02*
G37*
G36*
X126230D02*
X121960D01*
Y141270D01*
X126230D01*
Y147040D01*
D02*
G37*
G36*
X158040Y141040D02*
X152270D01*
Y136770D01*
X158040D01*
Y141040D01*
D02*
G37*
G36*
X149730D02*
X143960D01*
Y136770D01*
X149730D01*
Y141040D01*
D02*
G37*
G36*
X133040Y138730D02*
X128770D01*
Y132960D01*
X133040D01*
Y138730D01*
D02*
G37*
G36*
X126230D02*
X121960D01*
Y132960D01*
X126230D01*
Y138730D01*
D02*
G37*
G36*
X437270Y134470D02*
Y130270D01*
X441470D01*
X440697Y132138D01*
X439138Y133697D01*
X437270Y134470D01*
D02*
G37*
G36*
X434730D02*
X432862Y133697D01*
X431303Y132138D01*
X430530Y130270D01*
X434730D01*
Y134470D01*
D02*
G37*
G36*
X158040Y134230D02*
X152270D01*
Y129960D01*
X158040D01*
Y134230D01*
D02*
G37*
G36*
X149730D02*
X143960D01*
Y129960D01*
X149730D01*
Y134230D01*
D02*
G37*
G36*
X441470Y127730D02*
X437270D01*
Y123530D01*
X439138Y124303D01*
X440697Y125862D01*
X441470Y127730D01*
D02*
G37*
G36*
X434730D02*
X430530D01*
X431303Y125862D01*
X432862Y124303D01*
X434730Y123530D01*
Y127730D01*
D02*
G37*
G36*
X100540Y118730D02*
X82270D01*
Y109960D01*
X100540D01*
Y118730D01*
D02*
G37*
G36*
X203270Y89470D02*
Y85270D01*
X207470D01*
X206697Y87138D01*
X205138Y88697D01*
X203270Y89470D01*
D02*
G37*
G36*
X200730D02*
X198862Y88697D01*
X197303Y87138D01*
X196530Y85270D01*
X200730D01*
Y89470D01*
D02*
G37*
G36*
X207470Y82730D02*
X203270D01*
Y78530D01*
X205138Y79303D01*
X206697Y80862D01*
X207470Y82730D01*
D02*
G37*
G36*
X200730D02*
X196530D01*
X197303Y80862D01*
X198862Y79303D01*
X200730Y78530D01*
Y82730D01*
D02*
G37*
G36*
X376022Y128540D02*
X373818D01*
X371782Y127697D01*
X370223Y126138D01*
X369380Y124102D01*
Y121898D01*
X370223Y119862D01*
X371035Y119050D01*
Y64701D01*
X371331Y63215D01*
X372173Y61954D01*
X373661Y60467D01*
X374802Y59704D01*
X376460Y58046D01*
Y56898D01*
X377303Y54862D01*
X378862Y53303D01*
X380898Y52460D01*
X383102D01*
X385138Y53303D01*
X386697Y54862D01*
X387540Y56898D01*
Y59102D01*
X386697Y61138D01*
X385138Y62697D01*
X383102Y63540D01*
X381954D01*
X379533Y65960D01*
X378805Y66447D01*
Y119050D01*
X379617Y119862D01*
X380460Y121898D01*
Y124102D01*
X379617Y126138D01*
X378058Y127697D01*
X376022Y128540D01*
D02*
G37*
%LPD*%
G36*
X345115Y329950D02*
X344303Y329138D01*
X343460Y327102D01*
Y326850D01*
X342404Y326144D01*
X342349Y326167D01*
X340145D01*
X338109Y325323D01*
X336550Y323765D01*
X335707Y321729D01*
Y319525D01*
X336550Y317489D01*
X338109Y315930D01*
X340145Y315087D01*
X342349D01*
X343118Y315405D01*
X343620Y315305D01*
X352460D01*
Y302960D01*
X352460D01*
Y302040D01*
X352460D01*
Y287310D01*
X352460Y286960D01*
Y286040D01*
X352460Y285690D01*
Y271310D01*
X352460Y270960D01*
Y270040D01*
X352460Y269690D01*
Y255310D01*
X352460Y254960D01*
Y254040D01*
X352460Y253690D01*
Y239310D01*
X352460Y238960D01*
Y238040D01*
X352460Y237690D01*
Y231770D01*
X366500D01*
X380540D01*
Y237690D01*
X380540Y238040D01*
Y238960D01*
X380540Y239310D01*
Y253690D01*
X380540Y254040D01*
Y254960D01*
X380540Y255310D01*
Y269690D01*
X380540Y270040D01*
Y270960D01*
X380540Y271310D01*
Y285690D01*
X380540Y286040D01*
Y286960D01*
X380540Y287310D01*
Y296546D01*
X384482Y300488D01*
X385655Y300002D01*
Y218025D01*
X381713Y214083D01*
X380540Y214569D01*
Y221690D01*
X380540Y222040D01*
Y222960D01*
X380540Y223310D01*
Y229230D01*
X366500D01*
X352460D01*
Y222960D01*
X354615D01*
X355460Y222040D01*
X355460Y221690D01*
Y207040D01*
X340810D01*
X340460Y207040D01*
X339540Y207885D01*
Y209641D01*
X341138Y210303D01*
X342697Y211862D01*
X343470Y213730D01*
X332530D01*
X333303Y211862D01*
X333855Y211310D01*
X333329Y210040D01*
X329954D01*
X323725Y216269D01*
Y324731D01*
X329954Y330960D01*
X339540D01*
Y333115D01*
X340460Y333960D01*
X340810Y333960D01*
X345115D01*
Y329950D01*
D02*
G37*
%LPC*%
G36*
X342270Y249470D02*
Y245270D01*
X346470D01*
X345697Y247138D01*
X344138Y248697D01*
X342270Y249470D01*
D02*
G37*
G36*
X339730D02*
X337862Y248697D01*
X336303Y247138D01*
X335530Y245270D01*
X339730D01*
Y249470D01*
D02*
G37*
G36*
X346470Y242730D02*
X342270D01*
Y238530D01*
X344138Y239303D01*
X345697Y240862D01*
X346470Y242730D01*
D02*
G37*
G36*
X339730D02*
X335530D01*
X336303Y240862D01*
X337862Y239303D01*
X339730Y238530D01*
Y242730D01*
D02*
G37*
G36*
X339270Y220470D02*
Y216270D01*
X343470D01*
X342697Y218138D01*
X341138Y219697D01*
X339270Y220470D01*
D02*
G37*
G36*
X336730D02*
X334862Y219697D01*
X333303Y218138D01*
X332530Y216270D01*
X336730D01*
Y220470D01*
D02*
G37*
%LPD*%
D16*
X107000Y462500D02*
X132000D01*
X132400Y462900D01*
X389540Y343000D02*
Y492741D01*
Y216416D02*
Y343000D01*
X454395D02*
X464690Y332705D01*
X389540Y343000D02*
X454395D01*
X474095Y332705D02*
X476000Y330800D01*
X464690Y332705D02*
X474095D01*
X331354Y158230D02*
X389540Y216416D01*
X227770Y162606D02*
X232146Y158230D01*
X366011Y516270D02*
X389540Y492741D01*
X227770Y162606D02*
Y171854D01*
X232146Y158230D02*
X331354D01*
X214889Y184735D02*
X227770Y171854D01*
X186149Y184735D02*
X214889D01*
X170885Y200000D02*
X186149Y184735D01*
X280230Y487146D02*
X295817Y471558D01*
X280230Y487146D02*
Y498854D01*
X295817Y471558D02*
X295832D01*
X280230Y498854D02*
X297646Y516270D01*
X366011D01*
X295832Y471642D02*
X308190Y484000D01*
X271089Y446815D02*
X295832Y471558D01*
X308190Y484000D02*
X317000D01*
X295832Y471558D02*
Y471642D01*
X260185Y446815D02*
X271089D01*
X236912D02*
X260185D01*
X280000Y427000D01*
X132400Y462900D02*
X220826D01*
X236912Y446815D01*
X280000Y425000D02*
Y427000D01*
X305000Y381500D02*
X313500Y373000D01*
X305000Y381500D02*
Y447000D01*
X313500Y373000D02*
X315000D01*
X309375Y493000D02*
X316646Y500270D01*
X338270D01*
X286500Y493000D02*
X309375D01*
X338270Y500270D02*
X342000Y504000D01*
Y506000D01*
Y504000D02*
X345730Y500270D01*
X367355D01*
X385000Y482625D01*
Y306500D02*
Y482625D01*
X150000Y199500D02*
X152000D01*
X140888D02*
X150000D01*
X56500Y183500D02*
X58400Y181600D01*
X80800D01*
X55000Y183500D02*
X56500D01*
X80800Y140200D02*
Y181600D01*
Y140200D02*
X81000Y140000D01*
X112500Y117000D02*
Y140000D01*
X111500Y116000D02*
X112500Y117000D01*
X81000Y140000D02*
X112500D01*
X349000Y326000D02*
Y345500D01*
X348000Y346500D02*
X349000Y345500D01*
X355690Y319190D02*
X363000Y326500D01*
X342183Y320627D02*
X343620Y319190D01*
X341247Y320627D02*
X342183D01*
X363000Y326500D02*
X368000D01*
X343620Y319190D02*
X355690D01*
X374920Y64701D02*
Y123000D01*
X376408Y63213D02*
X376787D01*
X374920Y64701D02*
X376408Y63213D01*
X376787D02*
X382000Y58000D01*
X231770Y266230D02*
X252000Y286460D01*
X221230Y266230D02*
X231770D01*
X217500Y262500D02*
X221230Y266230D01*
X105650Y199950D02*
X127550D01*
X67310Y200400D02*
X80800D01*
X55000Y198500D02*
X65410D01*
X67310Y200400D01*
X114860Y181600D02*
X118391Y185131D01*
X166750Y199750D02*
X167000Y200000D01*
X134078Y192690D02*
X140888Y199500D01*
X118391Y185131D02*
Y187779D01*
X123302Y192690D01*
X134078D01*
X152250Y199750D02*
X166750D01*
X105200Y181600D02*
X114860D01*
X152000Y199500D02*
X152250Y199750D01*
X319840Y214660D02*
X332000Y202500D01*
Y196000D02*
Y202500D01*
Y367000D02*
X337500Y372500D01*
X332000Y345000D02*
Y367000D01*
Y338500D02*
Y345000D01*
X319840Y326340D02*
X332000Y338500D01*
X319840Y214660D02*
Y326340D01*
X236500Y166000D02*
Y194000D01*
X236000Y194500D02*
X236500Y194000D01*
X209146Y415730D02*
X228020D01*
X191230Y433646D02*
X209146Y415730D01*
X228020D02*
X229000Y414750D01*
X191230Y433646D02*
Y437770D01*
X190000Y439000D02*
X191230Y437770D01*
X229000Y414500D02*
X236000Y407500D01*
Y389000D02*
Y407500D01*
X229000Y414500D02*
Y414750D01*
X237500Y374000D02*
X248270Y363230D01*
X236000Y374000D02*
X237500D01*
X248270Y348730D02*
X252000Y345000D01*
X248270Y348730D02*
Y363230D01*
X268000Y345000D02*
Y372000D01*
X373000Y294500D02*
X385000Y306500D01*
X366500Y294500D02*
X373000D01*
X316750Y372750D02*
X338750D01*
X328270Y348730D02*
Y361230D01*
X316750Y372750D02*
X328270Y361230D01*
Y348730D02*
X332000Y345000D01*
X128500Y116000D02*
X145000D01*
X149500Y120500D01*
X151000D01*
D22*
X271500Y493000D02*
D03*
X127500Y140000D02*
D03*
X286500Y493000D02*
D03*
X221500Y166000D02*
D03*
X236500D02*
D03*
X112500Y140000D02*
D03*
D23*
X150000Y199500D02*
D03*
Y184500D02*
D03*
X128000Y199500D02*
D03*
Y184500D02*
D03*
X55000Y198500D02*
D03*
Y183500D02*
D03*
X107000Y462500D02*
D03*
Y447500D02*
D03*
X151000Y135500D02*
D03*
X339000Y387500D02*
D03*
X315000Y388000D02*
D03*
X236000Y389000D02*
D03*
Y374000D02*
D03*
X315000Y373000D02*
D03*
X339000Y372500D02*
D03*
X151000Y120500D02*
D03*
D29*
X317000Y484000D02*
D03*
X367000D02*
D03*
X342000Y506000D02*
D03*
X280000Y425000D02*
D03*
X330000D02*
D03*
X305000Y447000D02*
D03*
D52*
X170885Y200000D02*
D03*
X450600Y254600D02*
D03*
X268000Y372000D02*
D03*
X137000Y161000D02*
D03*
X162000Y162000D02*
D03*
X179000Y307800D02*
D03*
Y282400D02*
D03*
Y257000D02*
D03*
X476000Y356200D02*
D03*
Y330800D02*
D03*
X450600D02*
D03*
X476000Y305400D02*
D03*
X450600D02*
D03*
X476000Y280000D02*
D03*
X450600D02*
D03*
X476000Y254600D02*
D03*
Y229200D02*
D03*
X450600D02*
D03*
X476000Y203800D02*
D03*
X450600D02*
D03*
D53*
X279000Y470000D02*
D03*
X229000D02*
D03*
D54*
X179000Y231600D02*
D03*
X450600Y356200D02*
D03*
D55*
X421000Y175000D02*
D03*
X338000Y215000D02*
D03*
X341000Y244000D02*
D03*
X436000Y129000D02*
D03*
X298000Y168000D02*
D03*
X191000Y214000D02*
D03*
X202000Y84000D02*
D03*
X93000Y219000D02*
D03*
X134000Y249000D02*
D03*
X341247Y320627D02*
D03*
X349000Y326000D02*
D03*
X374920Y123000D02*
D03*
X382000Y58000D02*
D03*
X252000Y286460D02*
D03*
D56*
X105200Y181600D02*
D03*
X80800D02*
D03*
Y200400D02*
D03*
X105200D02*
D03*
X80800Y191000D02*
D03*
D57*
X132400Y462900D02*
D03*
X192000Y435000D02*
D03*
D58*
X229000Y414750D02*
D03*
D59*
X242250Y430000D02*
D03*
X215750D02*
D03*
D60*
X81000Y120000D02*
D03*
D61*
X236000Y346500D02*
D03*
X348000D02*
D03*
X236000Y194500D02*
D03*
X348000D02*
D03*
D62*
X216000Y326500D02*
D03*
Y214500D02*
D03*
X368000D02*
D03*
Y326500D02*
D03*
D63*
X217500Y294500D02*
D03*
Y230500D02*
D03*
X366500D02*
D03*
X217500Y310500D02*
D03*
Y278500D02*
D03*
Y262500D02*
D03*
Y246500D02*
D03*
X366500D02*
D03*
Y262500D02*
D03*
Y278500D02*
D03*
Y294500D02*
D03*
Y310500D02*
D03*
D64*
X268000Y196000D02*
D03*
X332000Y345000D02*
D03*
X316000D02*
D03*
X300000D02*
D03*
X284000D02*
D03*
X268000D02*
D03*
X252000D02*
D03*
Y196000D02*
D03*
X284000D02*
D03*
X300000D02*
D03*
X316000D02*
D03*
X332000D02*
D03*
D65*
X81000Y140000D02*
D03*
D66*
X128500Y116000D02*
D03*
X111500D02*
D03*
D67*
X137270Y380270D02*
D03*
X183270Y45270D02*
D03*
X422780Y470336D02*
D03*
M02*
