M48
;Layer_Color=9474304
;FILE_FORMAT=2:4
METRIC,LZ
;TYPE=PLATED
T1F00S00C0.4000
T2F00S00C0.6000
T3F00S00C0.7112
T4F00S00C0.8000
T5F00S00C0.8900
T6F00S00C0.9000
T7F00S00C1.0000
T8F00S00C1.0500
%
T01
X182Y327
X377Y325
X386
X3595Y2305
X35Y231
T02
X157Y065
T03
X111Y182
X175Y132
X285Y15
X342Y09
X094Y295
T04
X439Y493
X287
T05
X334Y472
X384
T06
X20453Y1046
Y13
Y1554
Y1808
Y2062
Y2316
Y257
Y2824
Y3078
Y3332
Y3586
Y384
X264Y3794
Y354
Y3286
Y3032
Y2778
Y2524
Y227
Y2016
X266Y135
Y115
X135Y322
Y3496
Y375
X409Y384
Y3586
Y3332
Y3078
Y2824
Y257
Y2316
Y2062
Y1808
Y1554
Y13
Y1046
X4616Y213
Y2384
Y2638
Y2892
Y3146
Y34
Y3654
X487
Y34
Y3146
Y2892
Y2638
Y2384
Y213
X409Y4094
Y4348
Y4602
Y4856
T07
X067Y3226
Y348
Y3734
T08
X04Y282
X0654
X2996Y168
X325
M30
