G04*
G04 #@! TF.GenerationSoftware,Altium Limited,Altium Designer,22.7.1 (60)*
G04*
G04 Layer_Physical_Order=4*
G04 Layer_Color=16711680*
%FSLAX44Y44*%
%MOMM*%
G71*
G04*
G04 #@! TF.SameCoordinates,445EDDF3-7DE9-4779-8E76-6141CBC7C01E*
G04*
G04*
G04 #@! TF.FilePolarity,Positive*
G04*
G01*
G75*
%ADD16C,0.2540*%
%ADD24R,0.6000X0.9000*%
%ADD25R,0.9000X0.6000*%
%ADD28R,1.0000X1.4000*%
%ADD55C,1.5240*%
%ADD56C,1.5000*%
%ADD57C,1.3980*%
%ADD58R,1.5240X1.5240*%
%ADD59R,1.5000X1.5000*%
%ADD60C,1.2700*%
%ADD71R,1.2700X3.3000*%
%ADD72R,1.0000X1.0500*%
%ADD73R,1.0500X2.2000*%
%ADD74R,3.4000X1.5000*%
G04:AMPARAMS|DCode=75|XSize=0.67mm|YSize=1.17mm|CornerRadius=0.0402mm|HoleSize=0mm|Usage=FLASHONLY|Rotation=90.000|XOffset=0mm|YOffset=0mm|HoleType=Round|Shape=RoundedRectangle|*
%AMROUNDEDRECTD75*
21,1,0.6700,1.0896,0,0,90.0*
21,1,0.5896,1.1700,0,0,90.0*
1,1,0.0804,0.5448,0.2948*
1,1,0.0804,0.5448,-0.2948*
1,1,0.0804,-0.5448,-0.2948*
1,1,0.0804,-0.5448,0.2948*
%
%ADD75ROUNDEDRECTD75*%
%ADD76R,1.0000X2.0000*%
%ADD77R,2.0000X1.0000*%
%ADD78R,2.3000X1.0000*%
%ADD79R,1.0000X2.3000*%
%ADD80O,3.4000X1.5000*%
%ADD81R,1.1000X1.0000*%
G36*
X297694Y544053D02*
X312745Y542357D01*
X327676Y539820D01*
X342442Y536450D01*
X356995Y532257D01*
X371291Y527255D01*
X385283Y521459D01*
X398929Y514888D01*
X412185Y507562D01*
X425009Y499504D01*
X437361Y490740D01*
X449202Y481297D01*
X460495Y471204D01*
X471204Y460495D01*
X481297Y449202D01*
X488000Y440796D01*
Y429479D01*
Y412983D01*
Y407500D01*
Y394356D01*
Y385283D01*
Y373046D01*
Y361504D01*
Y348166D01*
Y338834D01*
Y326090D01*
X486730Y325564D01*
X485359Y326935D01*
X486040Y329478D01*
Y332122D01*
X485356Y334675D01*
X484034Y336965D01*
X482165Y338834D01*
X479875Y340156D01*
X477322Y340840D01*
X474678D01*
X472125Y340156D01*
X469835Y338834D01*
X467966Y336965D01*
X466644Y334675D01*
X465960Y332122D01*
Y329478D01*
X466644Y326925D01*
X467966Y324635D01*
X469835Y322766D01*
X472125Y321444D01*
X474678Y320760D01*
X477322D01*
X479865Y321441D01*
X483425Y317881D01*
Y313833D01*
X482252Y313347D01*
X482165Y313434D01*
X479875Y314756D01*
X477322Y315440D01*
X474678D01*
X472125Y314756D01*
X469835Y313434D01*
X467966Y311565D01*
X466644Y309275D01*
X465960Y306722D01*
Y304078D01*
X466644Y301525D01*
X467966Y299235D01*
X469835Y297366D01*
X472125Y296044D01*
X474678Y295360D01*
X477322D01*
X479875Y296044D01*
X482165Y297366D01*
X482252Y297453D01*
X483425Y296967D01*
Y288433D01*
X482252Y287947D01*
X482165Y288034D01*
X479875Y289356D01*
X477322Y290040D01*
X474678D01*
X472125Y289356D01*
X469835Y288034D01*
X467966Y286165D01*
X466644Y283875D01*
X465960Y281322D01*
Y278678D01*
X466644Y276125D01*
X467966Y273835D01*
X469835Y271966D01*
X472125Y270644D01*
X474678Y269960D01*
X477322D01*
X479875Y270644D01*
X482165Y271966D01*
X482252Y272053D01*
X483425Y271567D01*
Y263033D01*
X482252Y262547D01*
X482165Y262634D01*
X479875Y263956D01*
X477322Y264640D01*
X474678D01*
X472125Y263956D01*
X469835Y262634D01*
X467966Y260765D01*
X466644Y258475D01*
X465960Y255922D01*
Y253278D01*
X466644Y250725D01*
X467966Y248435D01*
X469835Y246566D01*
X472125Y245244D01*
X474678Y244560D01*
X477322D01*
X479875Y245244D01*
X482165Y246566D01*
X482252Y246653D01*
X483425Y246167D01*
Y237633D01*
X482252Y237147D01*
X482165Y237234D01*
X479875Y238556D01*
X477322Y239240D01*
X474678D01*
X472125Y238556D01*
X469835Y237234D01*
X467966Y235365D01*
X466644Y233075D01*
X465960Y230522D01*
Y227878D01*
X466644Y225325D01*
X467966Y223035D01*
X469835Y221166D01*
X472125Y219844D01*
X474678Y219160D01*
X477322D01*
X479875Y219844D01*
X482165Y221166D01*
X482252Y221253D01*
X483425Y220767D01*
Y212233D01*
X482252Y211747D01*
X482165Y211834D01*
X479875Y213156D01*
X477322Y213840D01*
X474678D01*
X472125Y213156D01*
X469835Y211834D01*
X467966Y209965D01*
X466644Y207675D01*
X465960Y205122D01*
Y202478D01*
X466644Y199925D01*
X467966Y197635D01*
X469835Y195766D01*
X472125Y194444D01*
X474678Y193760D01*
X474802D01*
X475288Y192587D01*
X436276Y153575D01*
X267885D01*
Y154978D01*
X269459Y155886D01*
X271114Y157541D01*
X272284Y159569D01*
X272890Y161830D01*
Y164170D01*
X272284Y166431D01*
X271114Y168459D01*
X269459Y170114D01*
X267431Y171284D01*
X265170Y171890D01*
X262830D01*
X260569Y171284D01*
X258541Y170114D01*
X256886Y168459D01*
X255716Y166431D01*
X255110Y164170D01*
Y161830D01*
X255716Y159569D01*
X256886Y157541D01*
X258541Y155886D01*
X260115Y154978D01*
Y153575D01*
X169569D01*
X169043Y154845D01*
X170034Y155835D01*
X171356Y158125D01*
X172040Y160678D01*
Y163322D01*
X171356Y165875D01*
X170034Y168165D01*
X168165Y170034D01*
X165875Y171356D01*
X163322Y172040D01*
X160678D01*
X158125Y171356D01*
X155835Y170034D01*
X153966Y168165D01*
X152644Y165875D01*
X151960Y163322D01*
Y160678D01*
X152644Y158125D01*
X153966Y155835D01*
X154957Y154845D01*
X154431Y153575D01*
X145433D01*
X144947Y154748D01*
X145034Y154835D01*
X146356Y157125D01*
X147040Y159678D01*
Y162322D01*
X146356Y164875D01*
X145034Y167165D01*
X143165Y169034D01*
X140875Y170356D01*
X138322Y171040D01*
X135678D01*
X133125Y170356D01*
X130835Y169034D01*
X128966Y167165D01*
X127644Y164875D01*
X126960Y162322D01*
Y159678D01*
X127010Y159490D01*
X125872Y158833D01*
X106226Y178479D01*
X106712Y179652D01*
X112648D01*
X113796Y179881D01*
X114769Y180531D01*
X115419Y181504D01*
X115461Y181715D01*
X116600D01*
X118087Y182011D01*
X119347Y182853D01*
X121787Y185293D01*
X122960Y184807D01*
Y181960D01*
X128730D01*
Y187500D01*
X130000D01*
Y188770D01*
X137040D01*
Y191997D01*
X137565Y192101D01*
X138825Y192943D01*
X144497Y198615D01*
X145960D01*
Y196960D01*
X160040D01*
X160040Y196960D01*
X161173Y196629D01*
X162835Y194966D01*
X165125Y193644D01*
X167678Y192960D01*
X170322D01*
X172875Y193644D01*
X175165Y194966D01*
X177034Y196835D01*
X178356Y199125D01*
X179040Y201678D01*
Y204322D01*
X178356Y206875D01*
X177034Y209165D01*
X175165Y211034D01*
X172885Y212350D01*
Y247396D01*
X181787Y256298D01*
X182960Y255812D01*
Y244160D01*
X202190D01*
X203040Y244160D01*
X203460Y243064D01*
Y239310D01*
X203460Y238960D01*
Y238040D01*
X203460Y237690D01*
Y233277D01*
X202190Y232962D01*
X201034Y234965D01*
X199165Y236834D01*
X196875Y238156D01*
X194322Y238840D01*
X191678D01*
X189125Y238156D01*
X186835Y236834D01*
X184966Y234965D01*
X183644Y232675D01*
X182960Y230122D01*
Y227478D01*
X183644Y224925D01*
X184966Y222635D01*
X186835Y220766D01*
X189125Y219444D01*
X191678Y218760D01*
X194322D01*
X196875Y219444D01*
X199165Y220766D01*
X201034Y222635D01*
X202190Y224638D01*
X203460Y224323D01*
X203460Y222040D01*
X203460Y221690D01*
Y208108D01*
X203460Y208100D01*
X203460Y208100D01*
X203460Y207877D01*
X202654Y207677D01*
X201716Y208384D01*
X201034Y209565D01*
X199165Y211434D01*
X196875Y212756D01*
X194322Y213440D01*
X191678D01*
X189125Y212756D01*
X186835Y211434D01*
X184966Y209565D01*
X183644Y207275D01*
X182960Y204722D01*
Y202078D01*
X183644Y199525D01*
X184966Y197235D01*
X186835Y195366D01*
X189125Y194044D01*
X191678Y193360D01*
X194322D01*
X196875Y194044D01*
X199165Y195366D01*
X201034Y197235D01*
X202356Y199525D01*
X203040Y202078D01*
Y204722D01*
X202880Y205319D01*
X203267Y206521D01*
Y206521D01*
X203267Y206521D01*
Y206521D01*
X203755Y206960D01*
X204312Y206960D01*
X227303D01*
X228460Y206960D01*
X228460Y205803D01*
Y181960D01*
X232615D01*
Y173040D01*
X230960D01*
Y158960D01*
X242040D01*
Y173040D01*
X240385D01*
Y181960D01*
X243190D01*
X243540Y181960D01*
X244460D01*
X244810Y181960D01*
X259190D01*
X259540Y181960D01*
X260460D01*
X260810Y181960D01*
X266730D01*
Y196000D01*
Y210040D01*
X260810D01*
X260460Y210040D01*
X259540D01*
X259190Y210040D01*
X244460D01*
Y207885D01*
X243540Y207040D01*
X243190Y207040D01*
X229697D01*
X228540Y207040D01*
X228540Y208197D01*
Y221690D01*
X228540Y222040D01*
X229385Y222960D01*
X231540D01*
Y229230D01*
X217500D01*
Y231770D01*
X231540D01*
Y237690D01*
X231540Y238040D01*
Y238960D01*
X231540Y239310D01*
Y253690D01*
X231540Y254040D01*
Y254960D01*
X231540Y255310D01*
Y269690D01*
X231540Y270040D01*
Y270960D01*
X231540Y271310D01*
Y285690D01*
X231540Y286040D01*
Y286960D01*
X231540Y287310D01*
Y293230D01*
X217500D01*
X203460D01*
Y287310D01*
X203460Y286960D01*
Y286040D01*
X203460Y285690D01*
Y271310D01*
X203460Y270960D01*
Y270040D01*
X203460Y269690D01*
Y265336D01*
X203040Y264240D01*
X202190Y264240D01*
X185575D01*
Y300954D01*
X188057Y303436D01*
X188899Y304697D01*
X189195Y306183D01*
Y389685D01*
X188899Y391171D01*
X188057Y392432D01*
X151991Y428497D01*
X218463Y494970D01*
X261345D01*
Y447770D01*
X261641Y446283D01*
X262483Y445023D01*
X263253Y444253D01*
X264513Y443411D01*
X266000Y443115D01*
X297460D01*
Y437460D01*
X312540D01*
Y456540D01*
X297460D01*
Y450885D01*
X269115D01*
Y465522D01*
X270385Y465862D01*
X271374Y464148D01*
X273148Y462374D01*
X275322Y461119D01*
X277730Y460474D01*
Y470000D01*
Y479526D01*
X275322Y478881D01*
X273148Y477626D01*
X271374Y475852D01*
X270385Y474138D01*
X269115Y474478D01*
Y485960D01*
X270230D01*
Y493000D01*
X271500D01*
Y494270D01*
X277040D01*
Y500040D01*
X273569D01*
X273083Y501213D01*
X273985Y502115D01*
X334460D01*
Y496460D01*
X349540D01*
Y515540D01*
X334460D01*
Y509885D01*
X272376D01*
X270889Y509589D01*
X269629Y508747D01*
X263621Y502739D01*
X216854D01*
X215368Y502443D01*
X214108Y501601D01*
X146497Y433991D01*
X137802Y442687D01*
X138288Y443860D01*
X141290D01*
Y481940D01*
X123510D01*
Y466785D01*
X114040D01*
Y468040D01*
X99960D01*
Y456960D01*
X105440D01*
X105513Y456911D01*
X107000Y456615D01*
X108500D01*
X109987Y456911D01*
X110060Y456960D01*
X114040D01*
Y459015D01*
X123510D01*
Y443860D01*
X128515D01*
Y442595D01*
X128811Y441108D01*
X129653Y439848D01*
X143750Y425751D01*
X173288Y396213D01*
X172802Y395040D01*
X172678D01*
X170125Y394356D01*
X167835Y393034D01*
X165966Y391165D01*
X165317Y390040D01*
X151960D01*
Y388385D01*
X145888D01*
X144402Y388089D01*
X143141Y387247D01*
X141213Y385319D01*
X140040Y385805D01*
Y390040D01*
X125960D01*
Y388335D01*
X116451D01*
X116419Y388496D01*
X115769Y389469D01*
X114796Y390119D01*
X113648Y390348D01*
X102752D01*
X101604Y390119D01*
X100631Y389469D01*
X99981Y388496D01*
X99752Y387348D01*
Y381452D01*
X99981Y380304D01*
X100631Y379331D01*
X101604Y378681D01*
X102752Y378452D01*
X113648D01*
X114796Y378681D01*
X115769Y379331D01*
X116419Y380304D01*
X116471Y380565D01*
X123887D01*
X124413Y379295D01*
X119644Y374526D01*
X118802Y373266D01*
X118506Y371779D01*
Y371740D01*
X117352Y370586D01*
X115769Y370669D01*
X114796Y371319D01*
X113648Y371548D01*
X102752D01*
X101604Y371319D01*
X100631Y370669D01*
X99981Y369696D01*
X99752Y368548D01*
Y362652D01*
X99981Y361504D01*
X100631Y360531D01*
X101604Y359881D01*
X102752Y359652D01*
X113648D01*
X114796Y359881D01*
X115769Y360531D01*
X116419Y361504D01*
X116461Y361715D01*
X117860D01*
X119347Y362011D01*
X120607Y362853D01*
X124690Y366936D01*
X125960Y366410D01*
Y363960D01*
X131730D01*
Y369500D01*
X133000D01*
Y370770D01*
X140040D01*
Y373997D01*
X140565Y374101D01*
X141825Y374943D01*
X147497Y380615D01*
X151960D01*
Y378960D01*
X165894D01*
X165966Y378835D01*
X167835Y376966D01*
X170125Y375644D01*
X172678Y374960D01*
X175322D01*
X177875Y375644D01*
X180165Y376966D01*
X180252Y377053D01*
X181425Y376567D01*
Y333433D01*
X180252Y332947D01*
X180165Y333034D01*
X177875Y334356D01*
X175322Y335040D01*
X172678D01*
X170125Y334356D01*
X167835Y333034D01*
X165966Y331165D01*
X164644Y328875D01*
X164580Y328635D01*
X162040D01*
Y329540D01*
X147960D01*
Y328385D01*
X146500D01*
X145013Y328089D01*
X143753Y327247D01*
X140213Y323707D01*
X139040Y324193D01*
Y330040D01*
X124960D01*
Y328835D01*
X115551D01*
X115419Y329496D01*
X114769Y330469D01*
X113796Y331119D01*
X112648Y331348D01*
X101752D01*
X100604Y331119D01*
X99631Y330469D01*
X98981Y329496D01*
X98752Y328348D01*
Y322452D01*
X98981Y321304D01*
X99631Y320331D01*
X100604Y319681D01*
X101752Y319452D01*
X112648D01*
X113796Y319681D01*
X114769Y320331D01*
X115260Y321065D01*
X123552D01*
X123938Y319795D01*
X123865Y319747D01*
X118644Y314526D01*
X117802Y313266D01*
X117745Y312979D01*
X116352Y311586D01*
X114769Y311669D01*
X113796Y312319D01*
X112648Y312548D01*
X101752D01*
X100604Y312319D01*
X99631Y311669D01*
X98981Y310696D01*
X98752Y309548D01*
Y303652D01*
X98981Y302504D01*
X99631Y301531D01*
X100604Y300881D01*
X101752Y300652D01*
X112648D01*
X113796Y300881D01*
X114769Y301531D01*
X115419Y302504D01*
X115461Y302715D01*
X116860D01*
X118347Y303011D01*
X119607Y303853D01*
X123690Y307936D01*
X124960Y307410D01*
Y303960D01*
X130730D01*
Y309500D01*
X132000D01*
Y310770D01*
X139040D01*
Y313123D01*
X140487Y313411D01*
X141747Y314253D01*
X146787Y319293D01*
X147960Y318807D01*
Y318460D01*
X162040D01*
Y320865D01*
X164794D01*
X165966Y318835D01*
X167835Y316966D01*
X170125Y315644D01*
X172678Y314960D01*
X175322D01*
X177875Y315644D01*
X180165Y316966D01*
X180252Y317053D01*
X181425Y316567D01*
Y307792D01*
X178943Y305310D01*
X178101Y304050D01*
X177805Y302563D01*
Y272189D01*
X176535Y271663D01*
X175165Y273034D01*
X172875Y274356D01*
X170322Y275040D01*
X167678D01*
X165125Y274356D01*
X162835Y273034D01*
X160966Y271165D01*
X160310Y270028D01*
X159040Y270040D01*
Y270040D01*
X144960D01*
Y268385D01*
X142888D01*
X141402Y268089D01*
X140141Y267247D01*
X138213Y265319D01*
X137040Y265805D01*
Y270040D01*
X122960D01*
Y268835D01*
X115551D01*
X115419Y269496D01*
X114769Y270469D01*
X113796Y271119D01*
X112648Y271348D01*
X101752D01*
X100604Y271119D01*
X99631Y270469D01*
X98981Y269496D01*
X98752Y268348D01*
Y262452D01*
X98981Y261304D01*
X99631Y260331D01*
X100604Y259681D01*
X101752Y259452D01*
X112648D01*
X113796Y259681D01*
X114769Y260331D01*
X115260Y261065D01*
X121387D01*
X121913Y259795D01*
X117644Y255526D01*
X116802Y254266D01*
X116506Y252779D01*
X115277Y251642D01*
X114769Y251669D01*
X113796Y252319D01*
X112648Y252548D01*
X101752D01*
X100604Y252319D01*
X99631Y251669D01*
X98981Y250696D01*
X98752Y249548D01*
Y243652D01*
X98981Y242504D01*
X99631Y241531D01*
X100604Y240881D01*
X101752Y240652D01*
X103315D01*
Y219598D01*
X95333Y211616D01*
X94491Y210356D01*
X94195Y208869D01*
Y181131D01*
X94491Y179644D01*
X95333Y178384D01*
X125504Y148213D01*
X125018Y147040D01*
X121960D01*
Y141270D01*
X127500D01*
X133040D01*
Y145805D01*
X210410D01*
X210578Y144535D01*
X209578Y144268D01*
X207262Y142930D01*
X205370Y141038D01*
X204032Y138722D01*
X203340Y136138D01*
Y133462D01*
X204032Y130878D01*
X205370Y128562D01*
X207262Y126670D01*
X209578Y125332D01*
X212162Y124640D01*
X214838D01*
X217422Y125332D01*
X219738Y126670D01*
X221630Y128562D01*
X222968Y130878D01*
X223660Y133462D01*
Y136138D01*
X222968Y138722D01*
X221630Y141038D01*
X219738Y142930D01*
X217422Y144268D01*
X216422Y144535D01*
X216590Y145805D01*
X235810D01*
X235978Y144535D01*
X234978Y144268D01*
X232662Y142930D01*
X230770Y141038D01*
X229432Y138722D01*
X228740Y136138D01*
Y133462D01*
X229432Y130878D01*
X230770Y128562D01*
X232662Y126670D01*
X234978Y125332D01*
X237562Y124640D01*
X240238D01*
X242822Y125332D01*
X245138Y126670D01*
X246845Y128377D01*
X248115Y128116D01*
Y126609D01*
X243926Y122420D01*
X242170Y122890D01*
X239830D01*
X237569Y122284D01*
X235541Y121114D01*
X233886Y119459D01*
X232716Y117431D01*
X232110Y115170D01*
Y112830D01*
X232716Y110569D01*
X233886Y108541D01*
X235541Y106886D01*
X237569Y105716D01*
X239830Y105110D01*
X242170D01*
X244431Y105716D01*
X246459Y106886D01*
X248114Y108541D01*
X249284Y110569D01*
X249890Y112830D01*
Y115170D01*
X249420Y116926D01*
X254747Y122253D01*
X255589Y123513D01*
X255885Y125000D01*
Y127051D01*
X257155Y127577D01*
X258062Y126670D01*
X260378Y125332D01*
X262962Y124640D01*
X265638D01*
X268222Y125332D01*
X270538Y126670D01*
X272430Y128562D01*
X273768Y130878D01*
X274460Y133462D01*
Y136138D01*
X273768Y138722D01*
X272430Y141038D01*
X270538Y142930D01*
X268222Y144268D01*
X267222Y144535D01*
X267390Y145805D01*
X286610D01*
X286778Y144535D01*
X285778Y144268D01*
X283462Y142930D01*
X281570Y141038D01*
X280232Y138722D01*
X279540Y136138D01*
Y136070D01*
X289700D01*
X299860D01*
Y136138D01*
X299168Y138722D01*
X297830Y141038D01*
X295938Y142930D01*
X293622Y144268D01*
X292622Y144535D01*
X292790Y145805D01*
X312010D01*
X312178Y144535D01*
X311178Y144268D01*
X308862Y142930D01*
X306970Y141038D01*
X305632Y138722D01*
X304940Y136138D01*
Y133462D01*
X305632Y130878D01*
X306970Y128562D01*
X308862Y126670D01*
X311178Y125332D01*
X313762Y124640D01*
X316438D01*
X319022Y125332D01*
X321338Y126670D01*
X323230Y128562D01*
X324568Y130878D01*
X325260Y133462D01*
Y136138D01*
X324568Y138722D01*
X323230Y141038D01*
X321338Y142930D01*
X319022Y144268D01*
X318022Y144535D01*
X318190Y145805D01*
X329420D01*
X330340Y144960D01*
X330340Y144535D01*
Y124640D01*
X350660D01*
Y144535D01*
X350660Y144960D01*
X351580Y145805D01*
X437885D01*
X439371Y146101D01*
X440632Y146943D01*
X486827Y193138D01*
X488000Y192652D01*
Y109204D01*
X481457Y101000D01*
X68542D01*
X62410Y108690D01*
X63022Y109960D01*
X79730D01*
Y118730D01*
X61460D01*
Y111918D01*
X60190Y111474D01*
X59260Y112639D01*
X50496Y124991D01*
X42439Y137815D01*
X35112Y151071D01*
X28541Y164717D01*
X22745Y178709D01*
X17743Y193005D01*
X13550Y207558D01*
X10180Y222324D01*
X7643Y237255D01*
X5947Y252306D01*
X5098Y267427D01*
Y275000D01*
Y282573D01*
X5947Y297694D01*
X7643Y312745D01*
X10180Y327676D01*
X13550Y342442D01*
X17743Y356995D01*
X22745Y371291D01*
X28541Y385283D01*
X35112Y398929D01*
X42438Y412185D01*
X50496Y425009D01*
X59260Y437361D01*
X68703Y449202D01*
X78796Y460495D01*
X89505Y471204D01*
X100798Y481297D01*
X112639Y490740D01*
X124991Y499504D01*
X137815Y507561D01*
X151071Y514888D01*
X164717Y521459D01*
X178709Y527255D01*
X193005Y532257D01*
X207558Y536450D01*
X222324Y539820D01*
X237255Y542357D01*
X252306Y544053D01*
X267427Y544902D01*
X282573D01*
X297694Y544053D01*
D02*
G37*
G36*
X160966Y258835D02*
X162835Y256966D01*
X165125Y255644D01*
X167678Y254960D01*
X167802D01*
X168288Y253787D01*
X166253Y251752D01*
X165411Y250492D01*
X165115Y249005D01*
Y212350D01*
X162835Y211034D01*
X160966Y209165D01*
X160840Y208946D01*
X160040Y208040D01*
Y208040D01*
X160040Y208040D01*
X145960D01*
Y206385D01*
X142888D01*
X141402Y206089D01*
X140141Y205247D01*
X138213Y203319D01*
X137040Y203805D01*
Y208040D01*
X127830D01*
X126600Y208285D01*
X115461D01*
X115419Y208496D01*
X114769Y209469D01*
X113796Y210119D01*
X112648Y210348D01*
X106712D01*
X106226Y211521D01*
X109947Y215242D01*
X110789Y216502D01*
X111085Y217989D01*
Y240652D01*
X112648D01*
X113796Y240881D01*
X114769Y241531D01*
X115419Y242504D01*
X115461Y242715D01*
X116860D01*
X118347Y243011D01*
X119607Y243853D01*
X121787Y246033D01*
X122960Y245547D01*
Y243960D01*
X128730D01*
Y249500D01*
X130000D01*
Y250770D01*
X137040D01*
Y253997D01*
X137565Y254101D01*
X138825Y254943D01*
X143690Y259808D01*
X144960Y259282D01*
Y258960D01*
X159040D01*
Y259631D01*
X160310Y259972D01*
X160966Y258835D01*
D02*
G37*
%LPC*%
G36*
X277040Y491730D02*
X272770D01*
Y485960D01*
X277040D01*
Y491730D01*
D02*
G37*
G36*
X374540Y493540D02*
X359460D01*
Y474460D01*
X374540D01*
Y493540D01*
D02*
G37*
G36*
X280270Y479526D02*
Y471270D01*
X288526D01*
X287881Y473679D01*
X286626Y475852D01*
X284852Y477626D01*
X282679Y478881D01*
X280270Y479526D01*
D02*
G37*
G36*
X288526Y468730D02*
X280270D01*
Y460474D01*
X282679Y461119D01*
X284852Y462374D01*
X286626Y464148D01*
X287881Y466321D01*
X288526Y468730D01*
D02*
G37*
G36*
X230255Y479530D02*
X227745D01*
X225322Y478881D01*
X223148Y477626D01*
X221374Y475852D01*
X220119Y473679D01*
X219470Y471255D01*
Y468745D01*
X220119Y466321D01*
X221374Y464148D01*
X223148Y462374D01*
X225322Y461119D01*
X227745Y460470D01*
X230255D01*
X232679Y461119D01*
X234852Y462374D01*
X236626Y464148D01*
X237881Y466321D01*
X238530Y468745D01*
Y471255D01*
X237881Y473679D01*
X236626Y475852D01*
X234852Y477626D01*
X232679Y478881D01*
X230255Y479530D01*
D02*
G37*
G36*
X114040Y453040D02*
X108270D01*
Y448770D01*
X114040D01*
Y453040D01*
D02*
G37*
G36*
X105730D02*
X99960D01*
Y448770D01*
X105730D01*
Y453040D01*
D02*
G37*
G36*
X114040Y446230D02*
X108270D01*
Y441960D01*
X114040D01*
Y446230D01*
D02*
G37*
G36*
X105730D02*
X99960D01*
Y441960D01*
X105730D01*
Y446230D01*
D02*
G37*
G36*
X223540Y443540D02*
X217020D01*
Y431270D01*
X223540D01*
Y443540D01*
D02*
G37*
G36*
X250040D02*
X243520D01*
Y431270D01*
X250040D01*
Y443540D01*
D02*
G37*
G36*
X214480D02*
X207960D01*
Y431270D01*
X214480D01*
Y443540D01*
D02*
G37*
G36*
X240980D02*
X234460D01*
Y431270D01*
X240980D01*
Y443540D01*
D02*
G37*
G36*
X250040Y428730D02*
X243520D01*
Y416460D01*
X250040D01*
Y428730D01*
D02*
G37*
G36*
X337540Y434540D02*
X322460D01*
Y415460D01*
X337540D01*
Y434540D01*
D02*
G37*
G36*
X322040Y393540D02*
X316270D01*
Y389270D01*
X322040D01*
Y393540D01*
D02*
G37*
G36*
X313730D02*
X307960D01*
Y389270D01*
X313730D01*
Y393540D01*
D02*
G37*
G36*
X346040Y393040D02*
X340270D01*
Y388770D01*
X346040D01*
Y393040D01*
D02*
G37*
G36*
X337730D02*
X331960D01*
Y388770D01*
X337730D01*
Y393040D01*
D02*
G37*
G36*
X200890Y454040D02*
X183110D01*
Y415960D01*
X200890D01*
Y416833D01*
X202063Y417318D01*
X206399Y412983D01*
X207659Y412141D01*
X209146Y411845D01*
X221460D01*
Y406960D01*
X231046D01*
X232115Y405891D01*
Y394540D01*
X228960D01*
Y383460D01*
X243040D01*
Y394540D01*
X239885D01*
Y407500D01*
X239589Y408987D01*
X238747Y410247D01*
X236540Y412454D01*
Y416460D01*
X240980D01*
Y428730D01*
X234460D01*
Y422540D01*
X223540D01*
Y428730D01*
X215750D01*
X207960D01*
Y424069D01*
X206787Y423583D01*
X200890Y429479D01*
Y454040D01*
D02*
G37*
G36*
X322040Y386730D02*
X316270D01*
Y382460D01*
X322040D01*
Y386730D01*
D02*
G37*
G36*
X346040Y386230D02*
X340270D01*
Y381960D01*
X346040D01*
Y386230D01*
D02*
G37*
G36*
X337730D02*
X331960D01*
Y381960D01*
X337730D01*
Y386230D01*
D02*
G37*
G36*
X62040Y391040D02*
X47960D01*
Y379960D01*
X62040D01*
Y381065D01*
X75429D01*
X75581Y380304D01*
X75984Y379700D01*
X75581Y379096D01*
X75352Y377948D01*
Y376270D01*
X83800D01*
X92248D01*
Y377948D01*
X92019Y379096D01*
X91616Y379700D01*
X92019Y380304D01*
X92248Y381452D01*
Y387348D01*
X92019Y388496D01*
X91369Y389469D01*
X90396Y390119D01*
X89248Y390348D01*
X78352D01*
X77204Y390119D01*
X76231Y389469D01*
X75807Y388835D01*
X62040D01*
Y391040D01*
D02*
G37*
G36*
X166040Y375040D02*
X160270D01*
Y370770D01*
X166040D01*
Y375040D01*
D02*
G37*
G36*
X157730D02*
X151960D01*
Y370770D01*
X157730D01*
Y375040D01*
D02*
G37*
G36*
X166040Y368230D02*
X160270D01*
Y363960D01*
X166040D01*
Y368230D01*
D02*
G37*
G36*
X157730D02*
X151960D01*
Y363960D01*
X157730D01*
Y368230D01*
D02*
G37*
G36*
X140040D02*
X134270D01*
Y363960D01*
X140040D01*
Y368230D01*
D02*
G37*
G36*
X62040Y376040D02*
X47960D01*
Y364960D01*
X51115D01*
Y350610D01*
X43943Y343438D01*
X43101Y342178D01*
X42805Y340691D01*
Y320922D01*
X43101Y319435D01*
X43943Y318175D01*
X46175Y315943D01*
X47435Y315101D01*
X47960Y314997D01*
Y304960D01*
X51115D01*
Y288610D01*
X45943Y283438D01*
X45101Y282178D01*
X44805Y280691D01*
Y258922D01*
X45101Y257435D01*
X45943Y256175D01*
X48175Y253943D01*
X49435Y253101D01*
X49960Y252997D01*
Y242960D01*
X53115D01*
Y227610D01*
X45943Y220438D01*
X45101Y219177D01*
X44805Y217691D01*
Y196922D01*
X45101Y195435D01*
X45943Y194175D01*
X48175Y191943D01*
X49435Y191101D01*
X49960Y190997D01*
Y180960D01*
X53115D01*
Y171321D01*
X53411Y169834D01*
X54253Y168574D01*
X68885Y153942D01*
Y149782D01*
X68879Y149782D01*
X66437Y148770D01*
X64339Y147161D01*
X62730Y145063D01*
X61718Y142621D01*
X61373Y140000D01*
X61718Y137379D01*
X62730Y134937D01*
X64339Y132839D01*
X66333Y131310D01*
X66334Y131168D01*
X65482Y130040D01*
X61460D01*
Y121270D01*
X81000D01*
X100540D01*
Y130040D01*
X96518D01*
X95666Y131168D01*
X95667Y131310D01*
X97661Y132839D01*
X99270Y134937D01*
X99758Y136115D01*
X106960D01*
Y132960D01*
X108615D01*
Y123540D01*
X103460D01*
Y108460D01*
X119190D01*
X119540Y108460D01*
X120460D01*
X120810Y108460D01*
X136540D01*
Y112115D01*
X145000D01*
X146487Y112411D01*
X147747Y113253D01*
X149454Y114960D01*
X158040D01*
Y126040D01*
X143960D01*
Y120454D01*
X143391Y119885D01*
X136540D01*
Y123540D01*
X120810D01*
X120460Y123540D01*
X119540D01*
X119190Y123540D01*
X116385D01*
Y132960D01*
X118040D01*
Y147040D01*
X106960D01*
Y143885D01*
X99758D01*
X99270Y145063D01*
X97661Y147161D01*
X95563Y148770D01*
X93121Y149782D01*
X90500Y150127D01*
X76655D01*
Y155551D01*
X76359Y157037D01*
X75517Y158298D01*
X60885Y172930D01*
Y180960D01*
X64040D01*
Y182165D01*
X74449D01*
X74581Y181504D01*
X75231Y180531D01*
X76204Y179881D01*
X77352Y179652D01*
X88248D01*
X89396Y179881D01*
X90369Y180531D01*
X91019Y181504D01*
X91248Y182652D01*
Y188548D01*
X91019Y189696D01*
X90616Y190300D01*
X91019Y190904D01*
X91248Y192052D01*
Y193730D01*
X82800D01*
Y196270D01*
X91248D01*
Y197948D01*
X91019Y199096D01*
X90616Y199700D01*
X91019Y200304D01*
X91248Y201452D01*
Y207348D01*
X91019Y208496D01*
X90369Y209469D01*
X89396Y210119D01*
X88248Y210348D01*
X77352D01*
X76204Y210119D01*
X75231Y209469D01*
X74581Y208496D01*
X74539Y208285D01*
X71715D01*
X70228Y207989D01*
X68968Y207147D01*
X67206Y205385D01*
X64040D01*
Y207040D01*
X52575D01*
Y216082D01*
X59747Y223254D01*
X60589Y224514D01*
X60885Y226001D01*
Y242960D01*
X64040D01*
Y243665D01*
X74352D01*
Y243652D01*
X74581Y242504D01*
X75231Y241531D01*
X76204Y240881D01*
X77352Y240652D01*
X88248D01*
X89396Y240881D01*
X90369Y241531D01*
X91019Y242504D01*
X91248Y243652D01*
Y249548D01*
X91019Y250696D01*
X90616Y251300D01*
X91019Y251904D01*
X91248Y253052D01*
Y254730D01*
X82800D01*
Y257270D01*
X91248D01*
Y258948D01*
X91019Y260096D01*
X90616Y260700D01*
X91019Y261304D01*
X91248Y262452D01*
Y268348D01*
X91019Y269496D01*
X90369Y270469D01*
X89396Y271119D01*
X88248Y271348D01*
X77352D01*
X76204Y271119D01*
X75231Y270469D01*
X74581Y269496D01*
X74539Y269285D01*
X69310D01*
X67823Y268989D01*
X66563Y268147D01*
X65801Y267385D01*
X64040D01*
Y269040D01*
X52575D01*
Y279082D01*
X57747Y284254D01*
X58589Y285514D01*
X58885Y287001D01*
Y304960D01*
X62040D01*
Y306615D01*
X65706D01*
X68468Y303853D01*
X69728Y303011D01*
X71215Y302715D01*
X74539D01*
X74581Y302504D01*
X75231Y301531D01*
X76204Y300881D01*
X77352Y300652D01*
X88248D01*
X89396Y300881D01*
X90369Y301531D01*
X91019Y302504D01*
X91248Y303652D01*
Y309548D01*
X91019Y310696D01*
X90616Y311300D01*
X91019Y311904D01*
X91248Y313052D01*
Y314730D01*
X82800D01*
Y317270D01*
X91248D01*
Y318948D01*
X91019Y320096D01*
X90616Y320700D01*
X91019Y321304D01*
X91248Y322452D01*
Y328348D01*
X91019Y329496D01*
X90369Y330469D01*
X89396Y331119D01*
X88248Y331348D01*
X77352D01*
X76204Y331119D01*
X75231Y330469D01*
X74581Y329496D01*
X74549Y329335D01*
X62040D01*
Y331040D01*
X50575D01*
Y339082D01*
X57747Y346254D01*
X58589Y347514D01*
X58885Y349001D01*
Y364960D01*
X62040D01*
Y366615D01*
X65706D01*
X69468Y362853D01*
X70729Y362011D01*
X72215Y361715D01*
X75539D01*
X75581Y361504D01*
X76231Y360531D01*
X77204Y359881D01*
X78352Y359652D01*
X89248D01*
X90396Y359881D01*
X91369Y360531D01*
X92019Y361504D01*
X92248Y362652D01*
Y368548D01*
X92019Y369696D01*
X91616Y370300D01*
X92019Y370904D01*
X92248Y372052D01*
Y373730D01*
X83800D01*
X75352D01*
Y372052D01*
X75581Y370904D01*
X75735Y370673D01*
X75093Y369485D01*
X73824D01*
X70062Y373247D01*
X68802Y374089D01*
X67315Y374385D01*
X62040D01*
Y376040D01*
D02*
G37*
G36*
X234730Y359040D02*
X228460D01*
Y347770D01*
X234730D01*
Y359040D01*
D02*
G37*
G36*
X477322Y366240D02*
X474678D01*
X472125Y365556D01*
X469835Y364234D01*
X467966Y362365D01*
X466644Y360075D01*
X465960Y357522D01*
Y354878D01*
X466644Y352325D01*
X467966Y350035D01*
X469835Y348166D01*
X472125Y346844D01*
X474678Y346160D01*
X477322D01*
X479875Y346844D01*
X482165Y348166D01*
X484034Y350035D01*
X485356Y352325D01*
X486040Y354878D01*
Y357522D01*
X485356Y360075D01*
X484034Y362365D01*
X482165Y364234D01*
X479875Y365556D01*
X477322Y366240D01*
D02*
G37*
G36*
X460640D02*
X440560D01*
Y346160D01*
X460640D01*
Y366240D01*
D02*
G37*
G36*
X292040Y500040D02*
X280960D01*
Y485960D01*
X292040D01*
Y489115D01*
X306391D01*
X308523Y486983D01*
X309460Y486357D01*
Y474460D01*
X319046D01*
X337253Y456253D01*
X338513Y455411D01*
X340000Y455115D01*
X381115D01*
Y335072D01*
X380540Y334040D01*
X355540D01*
Y359040D01*
X340810D01*
X340460Y359040D01*
Y359040D01*
X339540D01*
Y359040D01*
X335885D01*
Y365391D01*
X337454Y366960D01*
X346040D01*
Y378040D01*
X331960D01*
Y376635D01*
X322040D01*
Y378540D01*
X313454D01*
X310707Y381287D01*
X311193Y382460D01*
X313730D01*
Y386730D01*
X307960D01*
Y385693D01*
X306787Y385207D01*
X283885Y408109D01*
Y415460D01*
X287540D01*
Y434540D01*
X272460D01*
Y415460D01*
X276115D01*
Y406500D01*
X276411Y405013D01*
X277253Y403753D01*
X307960Y373046D01*
Y367460D01*
X316546D01*
X323807Y360200D01*
X323170Y359040D01*
X308810D01*
X308460Y359040D01*
X307540D01*
X307190Y359040D01*
X292810D01*
X292460Y359040D01*
X291540D01*
X291190Y359040D01*
X276810D01*
X276460Y359040D01*
X275540D01*
X275190Y359040D01*
X271885D01*
Y362650D01*
X274165Y363966D01*
X276034Y365835D01*
X277356Y368125D01*
X278040Y370678D01*
Y373322D01*
X277356Y375875D01*
X276034Y378165D01*
X274165Y380034D01*
X271875Y381356D01*
X269322Y382040D01*
X266678D01*
X264125Y381356D01*
X261835Y380034D01*
X259966Y378165D01*
X258644Y375875D01*
X257960Y373322D01*
Y370678D01*
X258644Y368125D01*
X259966Y365835D01*
X261835Y363966D01*
X264115Y362650D01*
Y359040D01*
X260810D01*
X260460Y359040D01*
X259540D01*
X259190Y359040D01*
X252155D01*
Y363230D01*
X251859Y364717D01*
X251017Y365977D01*
X243040Y373954D01*
Y379540D01*
X228960D01*
Y368460D01*
X237546D01*
X244385Y361621D01*
Y359960D01*
X243540Y359040D01*
X243115Y359040D01*
X237270D01*
Y346500D01*
Y333960D01*
X243190D01*
X243540Y333960D01*
X244460Y333115D01*
Y330960D01*
X259190D01*
X259540Y330960D01*
X260460D01*
X260810Y330960D01*
X275190D01*
X275540Y330960D01*
X276460D01*
X276810Y330960D01*
X291190D01*
X291540Y330960D01*
X292460D01*
X292810Y330960D01*
X307190D01*
X307540Y330960D01*
X308460D01*
X308810Y330960D01*
X317307D01*
X317793Y329787D01*
X317093Y329087D01*
X316251Y327827D01*
X315955Y326340D01*
Y214660D01*
X316251Y213173D01*
X317093Y211913D01*
X317793Y211213D01*
X317307Y210040D01*
X308810D01*
X308460Y210040D01*
X307540D01*
X307190Y210040D01*
X292810D01*
X292460Y210040D01*
X291540D01*
X291190Y210040D01*
X276810D01*
X276460Y210040D01*
X275540D01*
X275190Y210040D01*
X269270D01*
Y196000D01*
Y181960D01*
X275190D01*
X275540Y181960D01*
X276460D01*
X276810Y181960D01*
X291190D01*
X291540Y181960D01*
X292460D01*
X292810Y181960D01*
X307190D01*
X307540Y181960D01*
X308460D01*
X308810Y181960D01*
X323540D01*
Y181960D01*
X324460D01*
Y181960D01*
X339190D01*
X339540Y181960D01*
X340460D01*
X340810Y181960D01*
X355540D01*
Y205803D01*
X355540Y206960D01*
X356697Y206960D01*
X380540D01*
Y221690D01*
X380540Y222040D01*
Y222960D01*
X380540Y223310D01*
Y229230D01*
X366500D01*
X352460D01*
Y222960D01*
X354615D01*
X355460Y222040D01*
X355460Y221690D01*
Y208197D01*
X355460Y207040D01*
X354303Y207040D01*
X340810D01*
X340460Y207040D01*
X339540Y207885D01*
Y210040D01*
X329954D01*
X323725Y216269D01*
Y313023D01*
X324995Y313624D01*
X326569Y312716D01*
X328830Y312110D01*
X331170D01*
X332403Y312440D01*
X333440Y311403D01*
X333110Y310170D01*
Y307830D01*
X333716Y305569D01*
X334886Y303541D01*
X336541Y301886D01*
X338569Y300716D01*
X340830Y300110D01*
X343170D01*
X345431Y300716D01*
X347459Y301886D01*
X349114Y303541D01*
X350284Y305569D01*
X350890Y307830D01*
Y310170D01*
X350420Y311926D01*
X351287Y312793D01*
X352460Y312307D01*
Y302960D01*
X352460D01*
Y302040D01*
X352460D01*
Y287310D01*
X352460Y286960D01*
Y286040D01*
X352460Y285690D01*
Y271310D01*
X352460Y270960D01*
Y270040D01*
X352460Y269690D01*
Y255310D01*
X352460Y254960D01*
Y254040D01*
X352460Y253690D01*
Y239310D01*
X352460Y238960D01*
Y238040D01*
X352460Y237690D01*
Y231770D01*
X366500D01*
X380540D01*
Y237690D01*
X380540Y238040D01*
Y238960D01*
X380540Y239310D01*
Y253690D01*
X380540Y254040D01*
Y254960D01*
X380540Y255310D01*
Y269690D01*
X380540Y270040D01*
Y270960D01*
X380540Y271310D01*
Y285690D01*
X380540Y286040D01*
Y286960D01*
X380540Y287310D01*
Y296546D01*
X387747Y303753D01*
X388589Y305013D01*
X388885Y306500D01*
Y457512D01*
X388589Y458999D01*
X387747Y460259D01*
X386259Y461747D01*
X384999Y462589D01*
X383512Y462885D01*
X341609D01*
X324540Y479954D01*
Y493540D01*
X313645D01*
X313270Y493615D01*
X312879D01*
X310747Y495747D01*
X309487Y496589D01*
X308000Y496885D01*
X292040D01*
Y500040D01*
D02*
G37*
G36*
X234730Y345230D02*
X228460D01*
Y335197D01*
X228460Y334040D01*
X227303Y334040D01*
X217270D01*
Y327770D01*
X228540D01*
Y332803D01*
X228540Y333960D01*
X229697Y333960D01*
X234730D01*
Y345230D01*
D02*
G37*
G36*
X214730Y334040D02*
X203460D01*
Y327770D01*
X214730D01*
Y334040D01*
D02*
G37*
G36*
X451922Y340840D02*
X449278D01*
X446725Y340156D01*
X444435Y338834D01*
X442566Y336965D01*
X441244Y334675D01*
X440560Y332122D01*
Y329478D01*
X441244Y326925D01*
X442566Y324635D01*
X444435Y322766D01*
X446725Y321444D01*
X449278Y320760D01*
X451922D01*
X454475Y321444D01*
X456765Y322766D01*
X458634Y324635D01*
X459956Y326925D01*
X460640Y329478D01*
Y332122D01*
X459956Y334675D01*
X458634Y336965D01*
X456765Y338834D01*
X454475Y340156D01*
X451922Y340840D01*
D02*
G37*
G36*
X162040Y314540D02*
X156270D01*
Y310270D01*
X162040D01*
Y314540D01*
D02*
G37*
G36*
X153730D02*
X147960D01*
Y310270D01*
X153730D01*
Y314540D01*
D02*
G37*
G36*
X139040Y308230D02*
X133270D01*
Y303960D01*
X139040D01*
Y308230D01*
D02*
G37*
G36*
X162040Y307730D02*
X156270D01*
Y303460D01*
X162040D01*
Y307730D01*
D02*
G37*
G36*
X153730D02*
X147960D01*
Y303460D01*
X153730D01*
Y307730D01*
D02*
G37*
G36*
X228540Y325230D02*
X216000D01*
X203460D01*
Y319310D01*
X203460Y318960D01*
Y318040D01*
X203460Y317690D01*
Y303310D01*
X203460Y302960D01*
Y302040D01*
X203460Y301690D01*
Y295770D01*
X217500D01*
X231540D01*
Y301690D01*
X231540Y302040D01*
Y302960D01*
X231540Y303310D01*
Y318040D01*
X229385D01*
X228540Y318960D01*
X228540Y319310D01*
Y325230D01*
D02*
G37*
G36*
X451922Y315440D02*
X449278D01*
X446725Y314756D01*
X444435Y313434D01*
X442566Y311565D01*
X441244Y309275D01*
X440560Y306722D01*
Y304078D01*
X441244Y301525D01*
X442566Y299235D01*
X444435Y297366D01*
X446725Y296044D01*
X449278Y295360D01*
X451922D01*
X454475Y296044D01*
X456765Y297366D01*
X458634Y299235D01*
X459956Y301525D01*
X460640Y304078D01*
Y306722D01*
X459956Y309275D01*
X458634Y311565D01*
X456765Y313434D01*
X454475Y314756D01*
X451922Y315440D01*
D02*
G37*
G36*
Y290040D02*
X449278D01*
X446725Y289356D01*
X444435Y288034D01*
X442566Y286165D01*
X441244Y283875D01*
X440560Y281322D01*
Y278678D01*
X441244Y276125D01*
X442566Y273835D01*
X444435Y271966D01*
X446725Y270644D01*
X449278Y269960D01*
X451922D01*
X454475Y270644D01*
X456765Y271966D01*
X458634Y273835D01*
X459956Y276125D01*
X460640Y278678D01*
Y281322D01*
X459956Y283875D01*
X458634Y286165D01*
X456765Y288034D01*
X454475Y289356D01*
X451922Y290040D01*
D02*
G37*
G36*
Y264640D02*
X451870D01*
Y255870D01*
X460640D01*
Y255922D01*
X459956Y258475D01*
X458634Y260765D01*
X456765Y262634D01*
X454475Y263956D01*
X451922Y264640D01*
D02*
G37*
G36*
X449330D02*
X449278D01*
X446725Y263956D01*
X444435Y262634D01*
X442566Y260765D01*
X441244Y258475D01*
X440560Y255922D01*
Y255870D01*
X449330D01*
Y264640D01*
D02*
G37*
G36*
X460640Y253330D02*
X451870D01*
Y244560D01*
X451922D01*
X454475Y245244D01*
X456765Y246566D01*
X458634Y248435D01*
X459956Y250725D01*
X460640Y253278D01*
Y253330D01*
D02*
G37*
G36*
X449330D02*
X440560D01*
Y253278D01*
X441244Y250725D01*
X442566Y248435D01*
X444435Y246566D01*
X446725Y245244D01*
X449278Y244560D01*
X449330D01*
Y253330D01*
D02*
G37*
G36*
X451922Y239240D02*
X449278D01*
X446725Y238556D01*
X444435Y237234D01*
X442566Y235365D01*
X441244Y233075D01*
X440560Y230522D01*
Y227878D01*
X441244Y225325D01*
X442566Y223035D01*
X444435Y221166D01*
X446725Y219844D01*
X449278Y219160D01*
X451922D01*
X454475Y219844D01*
X456765Y221166D01*
X458634Y223035D01*
X459956Y225325D01*
X460640Y227878D01*
Y230522D01*
X459956Y233075D01*
X458634Y235365D01*
X456765Y237234D01*
X454475Y238556D01*
X451922Y239240D01*
D02*
G37*
G36*
Y213840D02*
X449278D01*
X446725Y213156D01*
X444435Y211834D01*
X442566Y209965D01*
X441244Y207675D01*
X440560Y205122D01*
Y202478D01*
X441244Y199925D01*
X442566Y197635D01*
X444435Y195766D01*
X446725Y194444D01*
X449278Y193760D01*
X451922D01*
X454475Y194444D01*
X456765Y195766D01*
X458634Y197635D01*
X459956Y199925D01*
X460640Y202478D01*
Y205122D01*
X459956Y207675D01*
X458634Y209965D01*
X456765Y211834D01*
X454475Y213156D01*
X451922Y213840D01*
D02*
G37*
G36*
X160040Y193040D02*
X154270D01*
Y188770D01*
X160040D01*
Y193040D01*
D02*
G37*
G36*
X151730D02*
X145960D01*
Y188770D01*
X151730D01*
Y193040D01*
D02*
G37*
G36*
X160040Y186230D02*
X154270D01*
Y181960D01*
X160040D01*
Y186230D01*
D02*
G37*
G36*
X151730D02*
X145960D01*
Y181960D01*
X151730D01*
Y186230D01*
D02*
G37*
G36*
X137040D02*
X131270D01*
Y181960D01*
X137040D01*
Y186230D01*
D02*
G37*
G36*
X194322Y188040D02*
X191678D01*
X189125Y187356D01*
X186835Y186034D01*
X184966Y184165D01*
X183644Y181875D01*
X182960Y179322D01*
Y176678D01*
X183644Y174125D01*
X184966Y171835D01*
X186835Y169966D01*
X189125Y168644D01*
X191678Y167960D01*
X194322D01*
X196875Y168644D01*
X199165Y169966D01*
X201034Y171835D01*
X202356Y174125D01*
X203040Y176678D01*
Y179322D01*
X202356Y181875D01*
X201034Y184165D01*
X199165Y186034D01*
X196875Y187356D01*
X194322Y188040D01*
D02*
G37*
G36*
X227040Y173040D02*
X215960D01*
Y158960D01*
X227040D01*
Y173040D01*
D02*
G37*
G36*
X158040Y141040D02*
X152270D01*
Y136770D01*
X158040D01*
Y141040D01*
D02*
G37*
G36*
X149730D02*
X143960D01*
Y136770D01*
X149730D01*
Y141040D01*
D02*
G37*
G36*
X133040Y138730D02*
X128770D01*
Y132960D01*
X133040D01*
Y138730D01*
D02*
G37*
G36*
X126230D02*
X121960D01*
Y132960D01*
X126230D01*
Y138730D01*
D02*
G37*
G36*
X158040Y134230D02*
X152270D01*
Y129960D01*
X158040D01*
Y134230D01*
D02*
G37*
G36*
X149730D02*
X143960D01*
Y129960D01*
X149730D01*
Y134230D01*
D02*
G37*
G36*
X299860Y133530D02*
X290970D01*
Y124640D01*
X291038D01*
X293622Y125332D01*
X295938Y126670D01*
X297830Y128562D01*
X299168Y130878D01*
X299860Y133462D01*
Y133530D01*
D02*
G37*
G36*
X288430D02*
X279540D01*
Y133462D01*
X280232Y130878D01*
X281570Y128562D01*
X283462Y126670D01*
X285778Y125332D01*
X288362Y124640D01*
X288430D01*
Y133530D01*
D02*
G37*
G36*
X100540Y118730D02*
X82270D01*
Y109960D01*
X100540D01*
Y118730D01*
D02*
G37*
G36*
X159040Y255040D02*
X153270D01*
Y250770D01*
X159040D01*
Y255040D01*
D02*
G37*
G36*
X150730D02*
X144960D01*
Y250770D01*
X150730D01*
Y255040D01*
D02*
G37*
G36*
X159040Y248230D02*
X153270D01*
Y243960D01*
X159040D01*
Y248230D01*
D02*
G37*
G36*
X137040D02*
X131270D01*
Y243960D01*
X137040D01*
Y248230D01*
D02*
G37*
G36*
X150730D02*
X144960D01*
Y244725D01*
X143787Y243725D01*
X143270Y243863D01*
Y236270D01*
X150863D01*
X150284Y238431D01*
X149114Y240459D01*
X147459Y242114D01*
X146461Y242690D01*
X146801Y243960D01*
X150730D01*
Y248230D01*
D02*
G37*
G36*
X140730Y243863D02*
X138569Y243284D01*
X136541Y242114D01*
X134886Y240459D01*
X133716Y238431D01*
X133137Y236270D01*
X140730D01*
Y243863D01*
D02*
G37*
G36*
X150863Y233730D02*
X143270D01*
Y226137D01*
X145431Y226716D01*
X147459Y227886D01*
X149114Y229541D01*
X150284Y231569D01*
X150863Y233730D01*
D02*
G37*
G36*
X140730D02*
X133137D01*
X133716Y231569D01*
X134886Y229541D01*
X136541Y227886D01*
X138569Y226716D01*
X140730Y226137D01*
Y233730D01*
D02*
G37*
%LPD*%
D16*
X216854Y498854D02*
X265230D01*
X272376Y506000D01*
X265230Y447770D02*
Y498854D01*
X272376Y506000D02*
X342000D01*
X146497Y428497D02*
X185310Y389685D01*
X132400Y442595D02*
X146497Y428497D01*
X216854Y498854D01*
X132400Y442595D02*
Y462900D01*
X108500Y460500D02*
X110900Y462900D01*
X132400D01*
X107000Y460500D02*
X108500D01*
X264000Y149690D02*
Y163000D01*
X241000Y114000D02*
X252000Y125000D01*
Y149690D01*
X129521D02*
X252000D01*
X264000D01*
X437885D01*
X319840Y214660D02*
X332000Y202500D01*
Y196000D02*
Y202500D01*
Y367000D02*
X337500Y372500D01*
X332000Y345000D02*
Y367000D01*
X476000Y330800D02*
X487310Y319490D01*
Y199115D02*
Y319490D01*
X437885Y149690D02*
X487310Y199115D01*
X98080Y181131D02*
X129521Y149690D01*
X98080Y181131D02*
Y208869D01*
X107200Y217989D01*
Y246600D01*
X116600Y185600D02*
X120951Y189951D01*
Y191339D02*
X125302Y195690D01*
X136078D02*
X142888Y202500D01*
X125302Y195690D02*
X136078D01*
X120951Y189951D02*
Y191339D01*
X142888Y202500D02*
X153000D01*
X107200Y185600D02*
X116600D01*
X153000Y202500D02*
X153250Y202750D01*
X332000Y338500D02*
Y345000D01*
X319840Y326340D02*
X332000Y338500D01*
X319840Y214660D02*
Y326340D01*
X340270Y333770D02*
X348000Y341500D01*
X340270Y331270D02*
Y333770D01*
X330000Y321000D02*
X340270Y331270D01*
X348000Y341500D02*
Y346500D01*
X266000Y447000D02*
X305000D01*
X265230Y447770D02*
X266000Y447000D01*
X181690Y302563D02*
X185310Y306183D01*
X181690Y261695D02*
Y302563D01*
X185310Y306183D02*
Y389685D01*
X169000Y249005D02*
X181690Y261695D01*
X169000Y203000D02*
Y249005D01*
X153250Y202750D02*
X168750D01*
X169000Y203000D01*
X154250Y264750D02*
X168750D01*
X154000Y264500D02*
X154250Y264750D01*
X168750D02*
X169000Y265000D01*
X173750Y324750D02*
X174000Y325000D01*
X159000Y324500D02*
X159250Y324750D01*
X173750D01*
X159250Y384750D02*
X173750D01*
X159000Y384500D02*
X159250Y384750D01*
X173750D02*
X174000Y385000D01*
X355270Y318770D02*
X363000Y326500D01*
X351770Y318770D02*
X355270D01*
X342000Y309000D02*
X351770Y318770D01*
X363000Y326500D02*
X368000D01*
X236500Y166000D02*
Y194000D01*
X236000Y194500D02*
X236500Y194000D01*
X209146Y415730D02*
X228020D01*
X191230Y433646D02*
X209146Y415730D01*
X228020D02*
X229000Y414750D01*
X191230Y433646D02*
Y437770D01*
X190000Y439000D02*
X191230Y437770D01*
X229000Y414500D02*
X236000Y407500D01*
Y389000D02*
Y407500D01*
X229000Y414500D02*
Y414750D01*
X237500Y374000D02*
X248270Y363230D01*
X236000Y374000D02*
X237500D01*
X248270Y348730D02*
X252000Y345000D01*
X248270Y348730D02*
Y363230D01*
X268000Y345000D02*
Y372000D01*
X311270Y489730D02*
X313270D01*
X286500Y493000D02*
X308000D01*
X317000Y484000D02*
Y486000D01*
X313270Y489730D02*
X317000Y486000D01*
X308000Y493000D02*
X311270Y489730D01*
X317000Y482000D02*
X340000Y459000D01*
X383512D01*
X317000Y482000D02*
Y484000D01*
X385000Y306500D02*
Y457512D01*
X383512Y459000D02*
X385000Y457512D01*
X373000Y294500D02*
X385000Y306500D01*
X366500Y294500D02*
X373000D01*
X280000Y406500D02*
X313500Y373000D01*
X315000D01*
X280000Y406500D02*
Y425000D01*
X316750Y372750D02*
X338750D01*
X328270Y348730D02*
Y361230D01*
X316750Y372750D02*
X328270Y361230D01*
Y348730D02*
X332000Y345000D01*
X128500Y116000D02*
X145000D01*
X149500Y120500D01*
X151000D01*
X111500Y116000D02*
X112500Y117000D01*
Y140000D01*
X126600Y204400D02*
X128500Y202500D01*
X107200Y204400D02*
X126600D01*
X128500Y202500D02*
X130000D01*
X116860Y246600D02*
X120391Y250131D01*
Y252779D01*
X125302Y257690D01*
X136078D01*
X142888Y264500D02*
X154000D01*
X107200Y246600D02*
X116860D01*
X136078Y257690D02*
X142888Y264500D01*
X146500Y324500D02*
X159000D01*
X139000Y317000D02*
X146500Y324500D01*
X116860Y306600D02*
X121391Y311131D01*
Y311779D01*
X126612Y317000D02*
X139000D01*
X107200Y306600D02*
X116860D01*
X121391Y311779D02*
X126612Y317000D01*
X131550Y324950D02*
X132000Y324500D01*
X107200Y325400D02*
X107650Y324950D01*
X131550D01*
X145888Y384500D02*
X159000D01*
X139078Y377690D02*
X145888Y384500D01*
X128302Y377690D02*
X139078D01*
X122391Y371779D02*
X128302Y377690D01*
X122391Y370131D02*
Y371779D01*
X117860Y365600D02*
X122391Y370131D01*
X108200Y365600D02*
X117860D01*
X108250Y384450D02*
X132950D01*
X108200Y384400D02*
X108250Y384450D01*
X132950D02*
X133000Y384500D01*
X55512Y194690D02*
X57000Y193202D01*
X50922Y194690D02*
X55512D01*
X48690Y196922D02*
X50922Y194690D01*
X48690Y196922D02*
Y217691D01*
X57000Y226001D01*
X57000Y186500D02*
Y193202D01*
X57000Y226001D02*
Y248500D01*
X57000Y186500D02*
X57450Y186050D01*
X82350D01*
X82800Y185600D01*
X57000Y201500D02*
X68815D01*
X71715Y204400D01*
X82800D01*
X48690Y280691D02*
X55000Y287001D01*
X48690Y258922D02*
X50922Y256690D01*
X55000D01*
X57000Y254690D01*
Y248500D02*
Y254690D01*
X55000Y287001D02*
Y310500D01*
X48690Y258922D02*
Y280691D01*
X46690Y340691D02*
X55000Y349001D01*
X46690Y320922D02*
X48922Y318690D01*
X55000Y349001D02*
Y370500D01*
X46690Y320922D02*
Y340691D01*
X48922Y318690D02*
X53512D01*
X55000Y317202D01*
Y310500D02*
Y317202D01*
X83250Y384950D02*
X83800Y384400D01*
X55000Y385500D02*
X55550Y384950D01*
X83250D01*
X67315Y370500D02*
X72215Y365600D01*
X55000Y370500D02*
X67315D01*
X72215Y365600D02*
X83800D01*
X67315Y310500D02*
X71215Y306600D01*
X55000Y310500D02*
X67315D01*
X71215Y306600D02*
X82800D01*
X55000Y325500D02*
X55050Y325450D01*
X82750D01*
X82800Y325400D01*
X57000Y171321D02*
Y186500D01*
X78526Y140000D02*
X81000D01*
X72770Y145756D02*
X78526Y140000D01*
X72770Y145756D02*
Y155551D01*
X57000Y171321D02*
X72770Y155551D01*
X81000Y140000D02*
X112500D01*
X107200Y265400D02*
X107650Y264950D01*
X129550D01*
X130000Y264500D01*
X57000Y248500D02*
X57950Y247550D01*
X81850D01*
X82800Y246600D01*
X57000Y263500D02*
X67410D01*
X69310Y265400D01*
X82800D01*
D24*
X271500Y493000D02*
D03*
X127500Y140000D02*
D03*
X286500Y493000D02*
D03*
X221500Y166000D02*
D03*
X236500D02*
D03*
X112500Y140000D02*
D03*
D25*
X153000Y202500D02*
D03*
Y187500D02*
D03*
X107000Y462500D02*
D03*
Y447500D02*
D03*
X151000Y135500D02*
D03*
X339000Y387500D02*
D03*
X315000Y388000D02*
D03*
X159000Y369500D02*
D03*
X133000D02*
D03*
X155000Y309000D02*
D03*
X132000Y309500D02*
D03*
X152000Y249500D02*
D03*
X130000D02*
D03*
Y187500D02*
D03*
X236000Y389000D02*
D03*
Y374000D02*
D03*
X315000Y373000D02*
D03*
X339000Y372500D02*
D03*
X155000Y324000D02*
D03*
X132000Y324500D02*
D03*
X152000Y264500D02*
D03*
X130000D02*
D03*
Y202500D02*
D03*
X159000Y384500D02*
D03*
X133000D02*
D03*
X55000Y370500D02*
D03*
Y385500D02*
D03*
Y310500D02*
D03*
Y325500D02*
D03*
X57000Y248500D02*
D03*
Y263500D02*
D03*
X57000Y186500D02*
D03*
Y201500D02*
D03*
X151000Y120500D02*
D03*
D28*
X317000Y484000D02*
D03*
X367000D02*
D03*
X342000Y506000D02*
D03*
X280000Y425000D02*
D03*
X330000D02*
D03*
X305000Y447000D02*
D03*
D55*
X289700Y134800D02*
D03*
Y33200D02*
D03*
X315100Y134800D02*
D03*
X264300D02*
D03*
X238900D02*
D03*
X213500D02*
D03*
X315100Y33200D02*
D03*
X264300D02*
D03*
X238900D02*
D03*
X213500D02*
D03*
D56*
X450600Y254600D02*
D03*
X268000Y372000D02*
D03*
X137000Y161000D02*
D03*
X162000Y162000D02*
D03*
X193000Y178000D02*
D03*
Y203400D02*
D03*
Y228800D02*
D03*
X169000Y203000D02*
D03*
Y265000D02*
D03*
X174000Y325000D02*
D03*
Y385000D02*
D03*
X476000Y356200D02*
D03*
Y330800D02*
D03*
X450600D02*
D03*
X476000Y305400D02*
D03*
X450600D02*
D03*
X476000Y280000D02*
D03*
X450600D02*
D03*
X476000Y254600D02*
D03*
Y229200D02*
D03*
X450600D02*
D03*
X476000Y203800D02*
D03*
X450600D02*
D03*
D57*
X279000Y470000D02*
D03*
X229000D02*
D03*
D58*
X340500Y134800D02*
D03*
Y33200D02*
D03*
D59*
X193000Y254200D02*
D03*
X450600Y356200D02*
D03*
D60*
X142000Y235000D02*
D03*
X241000Y114000D02*
D03*
X264000Y163000D02*
D03*
X330000Y321000D02*
D03*
X342000Y309000D02*
D03*
D71*
X132400Y462900D02*
D03*
X192000Y435000D02*
D03*
D72*
X229000Y414750D02*
D03*
D73*
X242250Y430000D02*
D03*
X215750D02*
D03*
D74*
X81000Y120000D02*
D03*
D75*
X83800Y375000D02*
D03*
X82800Y316000D02*
D03*
Y256000D02*
D03*
Y195000D02*
D03*
X108200Y384400D02*
D03*
X83800D02*
D03*
Y365600D02*
D03*
X108200D02*
D03*
X107200Y325400D02*
D03*
X82800D02*
D03*
Y306600D02*
D03*
X107200D02*
D03*
Y265400D02*
D03*
X82800D02*
D03*
Y246600D02*
D03*
X107200D02*
D03*
Y204400D02*
D03*
X82800D02*
D03*
Y185600D02*
D03*
X107200D02*
D03*
D76*
X236000Y346500D02*
D03*
X348000D02*
D03*
X236000Y194500D02*
D03*
X348000D02*
D03*
D77*
X216000Y326500D02*
D03*
Y214500D02*
D03*
X368000D02*
D03*
Y326500D02*
D03*
D78*
X217500Y294500D02*
D03*
Y230500D02*
D03*
X366500D02*
D03*
X217500Y310500D02*
D03*
Y278500D02*
D03*
Y262500D02*
D03*
Y246500D02*
D03*
X366500D02*
D03*
Y262500D02*
D03*
Y278500D02*
D03*
Y294500D02*
D03*
Y310500D02*
D03*
D79*
X268000Y196000D02*
D03*
X332000Y345000D02*
D03*
X316000D02*
D03*
X300000D02*
D03*
X284000D02*
D03*
X268000D02*
D03*
X252000D02*
D03*
Y196000D02*
D03*
X284000D02*
D03*
X300000D02*
D03*
X316000D02*
D03*
X332000D02*
D03*
D80*
X81000Y140000D02*
D03*
D81*
X128500Y116000D02*
D03*
X111500D02*
D03*
M02*
