G04*
G04 #@! TF.GenerationSoftware,Altium Limited,Altium Designer,22.7.1 (60)*
G04*
G04 Layer_Color=16711935*
%FSLAX44Y44*%
%MOMM*%
G71*
G04*
G04 #@! TF.SameCoordinates,445EDDF3-7DE9-4779-8E76-6141CBC7C01E*
G04*
G04*
G04 #@! TF.FilePolarity,Negative*
G04*
G01*
G75*
%ADD18R,1.3000X1.3000*%
%ADD37R,0.7000X1.0000*%
%ADD38R,1.0000X0.7000*%
%ADD41R,1.2032X1.6032*%
%ADD43C,2.2032*%
%ADD44C,1.7272*%
%ADD45C,1.3000*%
%ADD46C,1.6012*%
%ADD47C,1.7032*%
%ADD48R,1.7272X1.7272*%
%ADD49R,1.7032X1.7032*%
%ADD50C,1.4732*%
%ADD82R,1.4732X3.5032*%
%ADD83R,1.2032X1.2532*%
%ADD84R,1.2532X2.4032*%
%ADD85R,3.6032X1.7032*%
G04:AMPARAMS|DCode=86|XSize=0.8732mm|YSize=1.3732mm|CornerRadius=0.1418mm|HoleSize=0mm|Usage=FLASHONLY|Rotation=90.000|XOffset=0mm|YOffset=0mm|HoleType=Round|Shape=RoundedRectangle|*
%AMROUNDEDRECTD86*
21,1,0.8732,1.0896,0,0,90.0*
21,1,0.5896,1.3732,0,0,90.0*
1,1,0.2836,0.5448,0.2948*
1,1,0.2836,0.5448,-0.2948*
1,1,0.2836,-0.5448,-0.2948*
1,1,0.2836,-0.5448,0.2948*
%
%ADD86ROUNDEDRECTD86*%
%ADD87R,1.2000X2.2000*%
%ADD88R,2.2000X1.2000*%
%ADD89R,2.5000X1.2000*%
%ADD90R,1.2000X2.5000*%
%ADD91O,3.6032X1.7032*%
%ADD92R,1.3032X1.2032*%
D18*
X450600Y356200D02*
D03*
D37*
X271500Y493000D02*
D03*
X127500Y140000D02*
D03*
X286500Y493000D02*
D03*
X221500Y166000D02*
D03*
X236500D02*
D03*
X112500Y140000D02*
D03*
D38*
X153000Y202500D02*
D03*
Y187500D02*
D03*
X107000Y462500D02*
D03*
Y447500D02*
D03*
X151000Y135500D02*
D03*
X339000Y387500D02*
D03*
X315000Y388000D02*
D03*
X159000Y369500D02*
D03*
X133000D02*
D03*
X155000Y309000D02*
D03*
X132000Y309500D02*
D03*
X152000Y249500D02*
D03*
X130000D02*
D03*
Y187500D02*
D03*
X236000Y389000D02*
D03*
Y374000D02*
D03*
X315000Y373000D02*
D03*
X339000Y372500D02*
D03*
X155000Y324000D02*
D03*
X132000Y324500D02*
D03*
X152000Y264500D02*
D03*
X130000D02*
D03*
Y202500D02*
D03*
X159000Y384500D02*
D03*
X133000D02*
D03*
X55000Y370500D02*
D03*
Y385500D02*
D03*
Y310500D02*
D03*
Y325500D02*
D03*
X57000Y248500D02*
D03*
Y263500D02*
D03*
X57000Y186500D02*
D03*
Y201500D02*
D03*
X151000Y120500D02*
D03*
D41*
X317000Y484000D02*
D03*
X367000D02*
D03*
X342000Y506000D02*
D03*
X280000Y425000D02*
D03*
X330000D02*
D03*
X305000Y447000D02*
D03*
D43*
X422780Y470336D02*
D03*
D44*
X289700Y134800D02*
D03*
Y33200D02*
D03*
X315100Y134800D02*
D03*
X264300D02*
D03*
X238900D02*
D03*
X213500D02*
D03*
X315100Y33200D02*
D03*
X264300D02*
D03*
X238900D02*
D03*
X213500D02*
D03*
D45*
X450600Y254600D02*
D03*
X476000Y356200D02*
D03*
Y330800D02*
D03*
X450600D02*
D03*
X476000Y305400D02*
D03*
X450600D02*
D03*
X476000Y280000D02*
D03*
X450600D02*
D03*
X476000Y254600D02*
D03*
Y229200D02*
D03*
X450600D02*
D03*
X476000Y203800D02*
D03*
X450600D02*
D03*
D46*
X279000Y470000D02*
D03*
X229000D02*
D03*
D47*
X268000Y372000D02*
D03*
X137000Y161000D02*
D03*
X162000Y162000D02*
D03*
X193000Y178000D02*
D03*
Y203400D02*
D03*
Y228800D02*
D03*
X169000Y203000D02*
D03*
Y265000D02*
D03*
X174000Y325000D02*
D03*
Y385000D02*
D03*
D48*
X340500Y134800D02*
D03*
Y33200D02*
D03*
D49*
X193000Y254200D02*
D03*
D50*
X142000Y235000D02*
D03*
X241000Y114000D02*
D03*
X264000Y163000D02*
D03*
X330000Y321000D02*
D03*
X342000Y309000D02*
D03*
D82*
X132400Y462900D02*
D03*
X192000Y435000D02*
D03*
D83*
X229000Y414750D02*
D03*
D84*
X242250Y430000D02*
D03*
X215750D02*
D03*
D85*
X81000Y120000D02*
D03*
D86*
X83800Y375000D02*
D03*
X82800Y316000D02*
D03*
Y256000D02*
D03*
Y195000D02*
D03*
X108200Y384400D02*
D03*
X83800D02*
D03*
Y365600D02*
D03*
X108200D02*
D03*
X107200Y325400D02*
D03*
X82800D02*
D03*
Y306600D02*
D03*
X107200D02*
D03*
Y265400D02*
D03*
X82800D02*
D03*
Y246600D02*
D03*
X107200D02*
D03*
Y204400D02*
D03*
X82800D02*
D03*
Y185600D02*
D03*
X107200D02*
D03*
D87*
X236000Y346500D02*
D03*
X348000D02*
D03*
X236000Y194500D02*
D03*
X348000D02*
D03*
D88*
X216000Y326500D02*
D03*
Y214500D02*
D03*
X368000D02*
D03*
Y326500D02*
D03*
D89*
X217500Y294500D02*
D03*
Y230500D02*
D03*
X366500D02*
D03*
X217500Y310500D02*
D03*
Y278500D02*
D03*
Y262500D02*
D03*
Y246500D02*
D03*
X366500D02*
D03*
Y262500D02*
D03*
Y278500D02*
D03*
Y294500D02*
D03*
Y310500D02*
D03*
D90*
X268000Y196000D02*
D03*
X332000Y345000D02*
D03*
X316000D02*
D03*
X300000D02*
D03*
X284000D02*
D03*
X268000D02*
D03*
X252000D02*
D03*
Y196000D02*
D03*
X284000D02*
D03*
X300000D02*
D03*
X316000D02*
D03*
X332000D02*
D03*
D91*
X81000Y140000D02*
D03*
D92*
X128500Y116000D02*
D03*
X111500D02*
D03*
M02*
