G04*
G04 #@! TF.GenerationSoftware,Altium Limited,Altium Designer,22.7.1 (60)*
G04*
G04 Layer_Physical_Order=1*
G04 Layer_Color=255*
%FSLAX44Y44*%
%MOMM*%
G71*
G04*
G04 #@! TF.SameCoordinates,C2A282E5-0786-4D7F-951A-2C12EB248FEB*
G04*
G04*
G04 #@! TF.FilePolarity,Positive*
G04*
G01*
G75*
%ADD13C,0.2000*%
%ADD16C,0.2540*%
%ADD17R,1.4000X1.0000*%
%ADD18R,0.8000X0.5500*%
%ADD19R,0.4900X0.3500*%
%ADD20R,0.3500X0.4900*%
%ADD21R,0.4900X0.3000*%
%ADD22R,0.6000X0.9000*%
%ADD23R,0.9000X0.6000*%
%ADD24R,1.3000X1.3000*%
%ADD25R,1.3000X1.3000*%
%ADD26O,1.4000X0.3000*%
%ADD28R,1.4000X0.3000*%
%ADD29R,1.0000X1.4000*%
%ADD49R,0.3000X1.6000*%
%ADD50C,0.1500*%
%ADD51C,0.5000*%
%ADD52C,1.5000*%
%ADD53C,1.3980*%
%ADD54R,1.5000X1.5000*%
%ADD55C,0.6000*%
G36*
X297694Y544053D02*
X312745Y542357D01*
X327676Y539820D01*
X342442Y536450D01*
X356995Y532257D01*
X371291Y527255D01*
X385283Y521459D01*
X398929Y514888D01*
X412185Y507562D01*
X425009Y499504D01*
X437361Y490740D01*
X449202Y481297D01*
X460495Y471204D01*
X471204Y460495D01*
X481297Y449202D01*
X490740Y437361D01*
X499504Y425009D01*
X507561Y412185D01*
X514888Y398929D01*
X521459Y385283D01*
X527255Y371291D01*
X532257Y356995D01*
X536450Y342442D01*
X539820Y327676D01*
X542357Y312745D01*
X544053Y297694D01*
X544902Y282573D01*
Y275000D01*
Y267427D01*
X544053Y252306D01*
X542357Y237255D01*
X539820Y222324D01*
X536450Y207558D01*
X532257Y193005D01*
X527255Y178709D01*
X521459Y164717D01*
X514888Y151071D01*
X507562Y137815D01*
X499504Y124991D01*
X490740Y112639D01*
X481297Y100798D01*
X471204Y89505D01*
X463465Y81765D01*
X462195Y82291D01*
Y148130D01*
X461899Y149617D01*
X461057Y150877D01*
X443175Y168759D01*
Y195367D01*
X444348Y195853D01*
X444435Y195766D01*
X446725Y194444D01*
X449278Y193760D01*
X451922D01*
X454475Y194444D01*
X456765Y195766D01*
X458634Y197635D01*
X459956Y199925D01*
X460640Y202478D01*
Y205122D01*
X459956Y207675D01*
X458634Y209965D01*
X456765Y211834D01*
X454475Y213156D01*
X451922Y213840D01*
X449278D01*
X446725Y213156D01*
X444435Y211834D01*
X444348Y211747D01*
X443175Y212233D01*
Y220767D01*
X444348Y221253D01*
X444435Y221166D01*
X446725Y219844D01*
X449278Y219160D01*
X451922D01*
X454475Y219844D01*
X456765Y221166D01*
X458634Y223035D01*
X459956Y225325D01*
X460640Y227878D01*
Y230522D01*
X459956Y233075D01*
X458634Y235365D01*
X456765Y237234D01*
X454475Y238556D01*
X451922Y239240D01*
X449278D01*
X446735Y238559D01*
X419782Y265512D01*
X420268Y266685D01*
X440821D01*
X441563Y265943D01*
X442823Y265101D01*
X444310Y264805D01*
X445656D01*
X445996Y263535D01*
X444435Y262634D01*
X442566Y260765D01*
X441244Y258475D01*
X440560Y255922D01*
Y255870D01*
X450600D01*
X460640D01*
Y255922D01*
X459956Y258475D01*
X458634Y260765D01*
X456765Y262634D01*
X455204Y263535D01*
X455255Y264333D01*
X455477Y264844D01*
X456771Y265101D01*
X458032Y265943D01*
X466299Y274211D01*
X467749D01*
X467966Y273835D01*
X469835Y271966D01*
X472125Y270644D01*
X474678Y269960D01*
X477322D01*
X479875Y270644D01*
X482165Y271966D01*
X484034Y273835D01*
X485356Y276125D01*
X486040Y278678D01*
Y281322D01*
X485356Y283875D01*
X484034Y286165D01*
X482165Y288034D01*
X479875Y289356D01*
X477322Y290040D01*
X474678D01*
X472125Y289356D01*
X469835Y288034D01*
X467966Y286165D01*
X466644Y283875D01*
X466136Y281980D01*
X464690D01*
X463203Y281684D01*
X461943Y280842D01*
X461813Y280712D01*
X460640Y281198D01*
Y281322D01*
X459956Y283875D01*
X458634Y286165D01*
X456765Y288034D01*
X454475Y289356D01*
X451922Y290040D01*
X449278D01*
X446725Y289356D01*
X444435Y288034D01*
X442566Y286165D01*
X441244Y283875D01*
X440560Y281322D01*
Y278995D01*
X393389D01*
X392903Y280168D01*
X414730Y301995D01*
X441118D01*
X441244Y301525D01*
X442566Y299235D01*
X444435Y297366D01*
X446725Y296044D01*
X449278Y295360D01*
X451922D01*
X454475Y296044D01*
X456765Y297366D01*
X458634Y299235D01*
X459956Y301525D01*
X460640Y304078D01*
Y306722D01*
X459956Y309275D01*
X458634Y311565D01*
X456765Y313434D01*
X454475Y314756D01*
X451922Y315440D01*
X449278D01*
X446725Y314756D01*
X444435Y313434D01*
X442566Y311565D01*
X441526Y309764D01*
X417738D01*
X417252Y310938D01*
X433230Y326915D01*
X441250D01*
X442566Y324635D01*
X444435Y322766D01*
X446725Y321444D01*
X449278Y320760D01*
X451922D01*
X454475Y321444D01*
X456765Y322766D01*
X458634Y324635D01*
X459956Y326925D01*
X460640Y329478D01*
Y332122D01*
X459956Y334675D01*
X458634Y336965D01*
X456765Y338834D01*
X454475Y340156D01*
X451922Y340840D01*
X449278D01*
X446725Y340156D01*
X444435Y338834D01*
X442566Y336965D01*
X441250Y334685D01*
X436238D01*
X435752Y335858D01*
X446054Y346160D01*
X460640D01*
Y348433D01*
X461910Y348818D01*
X461943Y348768D01*
X470211Y340501D01*
Y339051D01*
X469835Y338834D01*
X467966Y336965D01*
X466644Y334675D01*
X465960Y332122D01*
Y329478D01*
X466644Y326925D01*
X467966Y324635D01*
X469835Y322766D01*
X472125Y321444D01*
X474678Y320760D01*
X477322D01*
X479875Y321444D01*
X482165Y322766D01*
X484034Y324635D01*
X485356Y326925D01*
X486040Y329478D01*
Y332122D01*
X485356Y334675D01*
X484034Y336965D01*
X482165Y338834D01*
X479875Y340156D01*
X477980Y340664D01*
Y342110D01*
X477684Y343597D01*
X476842Y344857D01*
X476712Y344987D01*
X477198Y346160D01*
X477322D01*
X479875Y346844D01*
X482165Y348166D01*
X484034Y350035D01*
X485356Y352325D01*
X486040Y354878D01*
Y357522D01*
X485356Y360075D01*
X484034Y362365D01*
X482165Y364234D01*
X479875Y365556D01*
X477322Y366240D01*
X474678D01*
X472125Y365556D01*
X469835Y364234D01*
X469494Y363892D01*
X468083Y364278D01*
X467437Y365245D01*
X429935Y402747D01*
X428675Y403589D01*
X427188Y403885D01*
X325540D01*
Y405290D01*
X312460D01*
Y394710D01*
Y389943D01*
X311287Y389457D01*
X309540Y391204D01*
Y405290D01*
X296460D01*
Y401308D01*
X296399Y401267D01*
X284253Y389121D01*
X283411Y387861D01*
X283115Y386375D01*
Y355040D01*
X279960D01*
Y343960D01*
X294040D01*
Y355040D01*
X290885D01*
Y384765D01*
X295287Y389167D01*
X296460Y388681D01*
Y385710D01*
X304046D01*
X307115Y382641D01*
Y355040D01*
X303960D01*
Y343960D01*
X318040D01*
Y355040D01*
X314885D01*
Y384250D01*
X314847Y384440D01*
X315889Y385710D01*
X320046D01*
X331115Y374641D01*
Y355040D01*
X327960D01*
Y343960D01*
X342040D01*
Y355040D01*
X338885D01*
Y376250D01*
X338589Y377737D01*
X337747Y378997D01*
X325540Y391204D01*
Y396115D01*
X425579D01*
X454281Y367413D01*
X453795Y366240D01*
X440560D01*
Y351654D01*
X381521Y292615D01*
X327040D01*
Y296115D01*
X330251D01*
X331737Y296411D01*
X332998Y297253D01*
X351747Y316002D01*
X352589Y317263D01*
X352885Y318749D01*
Y322050D01*
X353697Y322862D01*
X354540Y324898D01*
Y327102D01*
X353697Y329138D01*
X352138Y330697D01*
X350102Y331540D01*
X347898D01*
X345862Y330697D01*
X344303Y329138D01*
X343460Y327102D01*
Y326850D01*
X342404Y326144D01*
X342349Y326167D01*
X340145D01*
X338109Y325323D01*
X337297Y324511D01*
X329502D01*
X328016Y324216D01*
X326755Y323374D01*
X315483Y312101D01*
X314641Y310841D01*
X314581Y310540D01*
X311569D01*
X311082Y311713D01*
X328299Y328930D01*
X333315D01*
X333466Y328960D01*
X342040D01*
Y340040D01*
X327960D01*
Y336699D01*
X326690D01*
X325203Y336403D01*
X323943Y335561D01*
X319213Y330831D01*
X318040Y331317D01*
Y340040D01*
X303960D01*
Y334454D01*
X298058Y328552D01*
X296885Y329038D01*
Y330000D01*
X296589Y331487D01*
X295747Y332747D01*
X294040Y334454D01*
Y340040D01*
X279960D01*
Y328960D01*
X288546D01*
X289115Y328391D01*
Y310540D01*
X241885D01*
Y382202D01*
X241589Y383689D01*
X240747Y384949D01*
X232885Y392811D01*
Y461239D01*
X234852Y462374D01*
X236626Y464148D01*
X237881Y466321D01*
X238530Y468745D01*
Y471255D01*
X237881Y473679D01*
X236626Y475852D01*
X234852Y477626D01*
X232679Y478881D01*
X230255Y479530D01*
X227745D01*
X225322Y478881D01*
X223148Y477626D01*
X221374Y475852D01*
X220119Y473679D01*
X219470Y471255D01*
Y468745D01*
X220119Y466321D01*
X221374Y464148D01*
X223148Y462374D01*
X225115Y461239D01*
Y391202D01*
X225411Y389716D01*
X226253Y388455D01*
X234115Y380593D01*
Y310540D01*
X228960D01*
Y289460D01*
X239115D01*
Y288488D01*
X239382Y287146D01*
X239029Y286570D01*
X238540Y286019D01*
X238180Y286091D01*
X206203D01*
X188359Y303935D01*
X189040Y306478D01*
Y309122D01*
X188356Y311675D01*
X187034Y313965D01*
X185165Y315834D01*
X182875Y317156D01*
X180322Y317840D01*
X177678D01*
X175125Y317156D01*
X172835Y315834D01*
X170966Y313965D01*
X169644Y311675D01*
X168960Y309122D01*
Y306478D01*
X169644Y303925D01*
X170966Y301635D01*
X172835Y299766D01*
X175125Y298444D01*
X177678Y297760D01*
X180322D01*
X182865Y298441D01*
X201847Y279459D01*
X203107Y278617D01*
X204594Y278321D01*
X236571D01*
X239294Y275598D01*
X238808Y274425D01*
X189069D01*
X187116Y276378D01*
X188356Y278525D01*
X189040Y281078D01*
Y283722D01*
X188356Y286275D01*
X187034Y288565D01*
X185165Y290434D01*
X182875Y291756D01*
X180322Y292440D01*
X177678D01*
X175125Y291756D01*
X172835Y290434D01*
X170966Y288565D01*
X169644Y286275D01*
X168960Y283722D01*
Y281078D01*
X169644Y278525D01*
X170966Y276235D01*
X172835Y274366D01*
X175125Y273044D01*
X177678Y272360D01*
X180146D01*
X184506Y268000D01*
X182865Y266359D01*
X180322Y267040D01*
X177678D01*
X175125Y266356D01*
X172835Y265034D01*
X170966Y263165D01*
X169644Y260875D01*
X168960Y258322D01*
Y255678D01*
X169644Y253125D01*
X170966Y250835D01*
X172835Y248966D01*
X175125Y247644D01*
X177678Y246960D01*
X180322D01*
X182875Y247644D01*
X185165Y248966D01*
X187034Y250835D01*
X188356Y253125D01*
X189040Y255678D01*
Y258322D01*
X188359Y260865D01*
X189609Y262115D01*
X239936D01*
X240993Y261058D01*
X240507Y259885D01*
X203400D01*
X201913Y259589D01*
X200653Y258747D01*
X183546Y241640D01*
X168960D01*
Y228405D01*
X167787Y227919D01*
X164062Y231643D01*
Y249947D01*
X163766Y251434D01*
X162924Y252694D01*
X145101Y270517D01*
X143841Y271359D01*
X142354Y271655D01*
X88146D01*
X86659Y271359D01*
X85399Y270517D01*
X53983Y239101D01*
X53141Y237841D01*
X52845Y236355D01*
Y218540D01*
X41460D01*
Y203460D01*
X47115D01*
Y189000D01*
X47411Y187513D01*
X48253Y186253D01*
X129960Y104546D01*
Y98960D01*
X144040D01*
Y100615D01*
X154960D01*
Y98960D01*
X161345D01*
Y95146D01*
X161641Y93659D01*
X162483Y92399D01*
X219399Y35483D01*
X220659Y34641D01*
X222146Y34345D01*
X235230D01*
X236717Y34641D01*
X237977Y35483D01*
X241454Y38960D01*
X247040D01*
Y47692D01*
X247589Y48513D01*
X247885Y50000D01*
Y60960D01*
X253040D01*
Y75885D01*
X255201D01*
X267643Y63443D01*
X268903Y62601D01*
X270389Y62305D01*
X376674D01*
X377073Y61565D01*
X377261Y61035D01*
X376460Y59102D01*
Y56898D01*
X377303Y54862D01*
X378862Y53303D01*
X380898Y52460D01*
X383102D01*
X385138Y53303D01*
X386697Y54862D01*
X387540Y56898D01*
Y59102D01*
X386739Y61035D01*
X386927Y61565D01*
X387326Y62305D01*
X439256D01*
X439676Y61107D01*
X437361Y59260D01*
X425009Y50496D01*
X412185Y42439D01*
X398929Y35112D01*
X385283Y28541D01*
X371291Y22745D01*
X356995Y17743D01*
X342442Y13550D01*
X327676Y10180D01*
X312745Y7643D01*
X297694Y5947D01*
X282573Y5098D01*
X267427D01*
X252306Y5947D01*
X237255Y7643D01*
X222324Y10180D01*
X207558Y13550D01*
X193005Y17743D01*
X178709Y22745D01*
X164717Y28541D01*
X151071Y35112D01*
X137815Y42438D01*
X124991Y50496D01*
X112639Y59260D01*
X100798Y68703D01*
X89505Y78796D01*
X78795Y89505D01*
X68703Y100798D01*
X59260Y112639D01*
X50496Y124991D01*
X42439Y137815D01*
X35112Y151071D01*
X28541Y164717D01*
X22745Y178709D01*
X17743Y193005D01*
X13550Y207558D01*
X10180Y222324D01*
X7643Y237255D01*
X5947Y252306D01*
X5098Y267427D01*
Y275000D01*
Y282573D01*
X5228Y284899D01*
X192563Y532103D01*
X193005Y532257D01*
X207558Y536450D01*
X222324Y539820D01*
X237255Y542357D01*
X252306Y544053D01*
X267427Y544902D01*
X282573D01*
X297694Y544053D01*
D02*
G37*
G36*
X308478Y260972D02*
X305253Y257747D01*
X304411Y256486D01*
X304115Y255000D01*
Y254540D01*
X283960D01*
Y244000D01*
X282069D01*
X282115Y244230D01*
X282041Y244605D01*
Y254540D01*
X280148D01*
X279662Y255713D01*
X286094Y262145D01*
X307992D01*
X308478Y260972D01*
D02*
G37*
G36*
X407417Y250213D02*
X406931Y249040D01*
X395460D01*
Y240960D01*
X395460D01*
X395460Y240959D01*
X405000D01*
Y239119D01*
X399500D01*
X397924Y238806D01*
X397810Y238730D01*
X395634D01*
X395694Y238424D01*
X396312Y237500D01*
X395694Y236576D01*
X395381Y235000D01*
X395694Y233424D01*
X396312Y232500D01*
X395694Y231576D01*
X395381Y230000D01*
X395694Y228424D01*
X396312Y227500D01*
X395694Y226576D01*
X395381Y225000D01*
X395467Y224566D01*
X394661Y223584D01*
X365159D01*
X353372Y235372D01*
X352284Y236099D01*
X351000Y236354D01*
X327040D01*
Y251385D01*
X406245D01*
X407417Y250213D01*
D02*
G37*
G36*
X63460Y235931D02*
Y228460D01*
X82540D01*
Y232115D01*
X104460D01*
Y230960D01*
X110436D01*
X115763Y225633D01*
X116934Y224850D01*
X118315Y224576D01*
X125704D01*
X125715Y224560D01*
X125036Y223290D01*
X122410D01*
Y222609D01*
X116040D01*
Y223040D01*
X101960D01*
Y211960D01*
X114341D01*
Y208040D01*
X110270D01*
Y202500D01*
X109000D01*
D01*
X110270D01*
Y196960D01*
X114341D01*
Y180662D01*
X114615Y179280D01*
X115398Y178110D01*
X128006Y165502D01*
X127644Y164875D01*
X126960Y162322D01*
Y159678D01*
X127644Y157125D01*
X128966Y154835D01*
X130835Y152966D01*
X133115Y151650D01*
Y125040D01*
X129960D01*
Y117193D01*
X128787Y116707D01*
X54885Y190609D01*
Y203460D01*
X60540D01*
Y214355D01*
X60615Y214730D01*
Y234745D01*
X62287Y236417D01*
X63460Y235931D01*
D02*
G37*
G36*
X228960Y233460D02*
X264431D01*
X264918Y232287D01*
X249310Y216679D01*
X248040Y217205D01*
Y219040D01*
X236960D01*
Y204960D01*
X238615D01*
Y196040D01*
X232960D01*
Y188193D01*
X231787Y187707D01*
X216747Y202747D01*
X215487Y203589D01*
X214000Y203885D01*
X180235D01*
X178919Y206165D01*
X177049Y208034D01*
X174769Y209350D01*
Y219327D01*
X174578Y220290D01*
X175386Y221560D01*
X189040D01*
Y236146D01*
X205009Y252115D01*
X228960D01*
Y233460D01*
D02*
G37*
G36*
X295713Y219628D02*
X296801Y218901D01*
X298085Y218645D01*
X332151D01*
X332988Y217376D01*
X332530Y216270D01*
X343470D01*
X343219Y216878D01*
X343968Y218079D01*
X344950Y218160D01*
X388396Y174715D01*
Y171740D01*
X388651Y170456D01*
X389378Y169368D01*
X395368Y163378D01*
X396013Y162947D01*
X396312Y162500D01*
X395694Y161576D01*
X395381Y160000D01*
X395694Y158424D01*
X396312Y157500D01*
X395694Y156576D01*
X395441Y155302D01*
X395381Y155000D01*
X395460Y154040D01*
X395460D01*
Y148885D01*
X395000D01*
X393513Y148589D01*
X392253Y147747D01*
X372835Y128329D01*
X372654Y128058D01*
X371782Y127697D01*
X370223Y126138D01*
X369380Y124102D01*
Y121898D01*
X370223Y119862D01*
X371782Y118303D01*
X373818Y117460D01*
X376022D01*
X376789Y117778D01*
X377845Y117072D01*
Y74615D01*
X273879D01*
X255747Y92747D01*
X254487Y93589D01*
X253040Y93877D01*
Y99040D01*
X240454D01*
X217247Y122247D01*
X215986Y123089D01*
X214500Y123385D01*
X169040D01*
Y125040D01*
X165885D01*
Y152650D01*
X168165Y153966D01*
X170034Y155835D01*
X171356Y158125D01*
X172040Y160678D01*
Y163322D01*
X171356Y165875D01*
X170034Y168165D01*
X168165Y170034D01*
X165875Y171356D01*
X163322Y172040D01*
X160678D01*
X158125Y171356D01*
X157886Y171218D01*
X152552Y176552D01*
X151381Y177335D01*
X150000Y177609D01*
X132495D01*
X125559Y184545D01*
Y189863D01*
X126733Y190349D01*
X129149Y187933D01*
X130409Y187091D01*
X131896Y186795D01*
X153104D01*
X154591Y187091D01*
X155851Y187933D01*
X161649Y193731D01*
X162955D01*
X164720Y191966D01*
X167009Y190644D01*
X169563Y189960D01*
X172206D01*
X174760Y190644D01*
X177049Y191966D01*
X178919Y193835D01*
X180235Y196115D01*
X212391D01*
X232960Y175546D01*
Y169960D01*
X241546D01*
X254523Y156983D01*
X255783Y156141D01*
X257270Y155845D01*
X260460D01*
Y144460D01*
X264115D01*
Y140375D01*
X264411Y138889D01*
X265253Y137629D01*
X296899Y105983D01*
X298159Y105141D01*
X299646Y104845D01*
X357460D01*
Y93460D01*
X372540D01*
Y112540D01*
X361645D01*
X361270Y112615D01*
X301255D01*
X292582Y121287D01*
X293069Y122460D01*
X300540D01*
Y141540D01*
X296885D01*
Y151000D01*
X296589Y152487D01*
X295747Y153747D01*
X276385Y173109D01*
Y180960D01*
X278040D01*
Y195040D01*
X276385D01*
Y203960D01*
X278040D01*
Y212546D01*
X280690Y215196D01*
X280933Y215181D01*
X281960Y214783D01*
Y212270D01*
X287500D01*
X293040D01*
Y218040D01*
X291385D01*
Y218500D01*
X291089Y219987D01*
X290247Y221247D01*
X286885Y224609D01*
Y226797D01*
X288058Y227283D01*
X295713Y219628D01*
D02*
G37*
G36*
X119960Y261270D02*
X125500D01*
Y260000D01*
X126770D01*
Y252960D01*
X128466D01*
X129118Y251690D01*
X128530Y250270D01*
X134000D01*
Y249000D01*
X135270D01*
Y243530D01*
X137138Y244303D01*
X138246Y245411D01*
X138299Y245464D01*
X138299Y245464D01*
X138697Y245862D01*
X138919Y246397D01*
X138960Y246460D01*
X140119Y246460D01*
X144730D01*
Y252000D01*
X147270D01*
Y246460D01*
X153040D01*
Y249931D01*
X154213Y250417D01*
X156293Y248338D01*
Y230034D01*
X156588Y228548D01*
X157431Y227288D01*
X167000Y217718D01*
Y209350D01*
X164720Y208034D01*
X162851Y206165D01*
X161529Y203875D01*
X160893Y201501D01*
X160040D01*
X158860Y201266D01*
X157590Y201972D01*
Y202730D01*
X152600D01*
X147610D01*
Y201390D01*
X146270D01*
Y196400D01*
X144291D01*
Y201390D01*
X132390D01*
Y204710D01*
Y209710D01*
Y214710D01*
Y216610D01*
X139291D01*
Y221600D01*
Y226590D01*
X135114D01*
X130967Y230737D01*
X130540Y231023D01*
Y236730D01*
X125000D01*
X119460D01*
Y233804D01*
X118287Y233318D01*
X115540Y236064D01*
Y245040D01*
X114135D01*
Y252960D01*
X116040D01*
Y263885D01*
X119960D01*
Y261270D01*
D02*
G37*
G36*
X426115Y141609D02*
X415553Y131047D01*
X414338Y131415D01*
X414306Y131576D01*
X413688Y132500D01*
X414306Y133424D01*
X414619Y135000D01*
X414306Y136576D01*
X413688Y137500D01*
X414306Y138424D01*
X414619Y140000D01*
X414306Y141576D01*
X413688Y142500D01*
X414306Y143424D01*
X414559Y144698D01*
X414619Y145000D01*
X414540Y145960D01*
X414540D01*
Y154040D01*
X414540D01*
X414619Y155000D01*
X414564Y155278D01*
X414306Y156576D01*
X413688Y157500D01*
X414306Y158424D01*
X414619Y160000D01*
X414306Y161576D01*
X413688Y162500D01*
X414306Y163424D01*
X414619Y165000D01*
X414306Y166576D01*
X413688Y167500D01*
X414306Y168424D01*
X414441Y169103D01*
X415835Y169900D01*
X416730Y169530D01*
Y175000D01*
Y180470D01*
X415835Y180100D01*
X414441Y180897D01*
X414306Y181576D01*
X413688Y182500D01*
X414306Y183424D01*
X414619Y185000D01*
X414306Y186576D01*
X413688Y187500D01*
X414306Y188424D01*
X414619Y190000D01*
X414593Y190134D01*
X415398Y191115D01*
X426115D01*
Y141609D01*
D02*
G37*
G36*
X449885Y144641D02*
Y108040D01*
X447270D01*
Y102500D01*
Y96960D01*
X449885D01*
Y93040D01*
X438960D01*
Y91385D01*
X394500D01*
X393885Y91890D01*
Y98391D01*
X406287Y110793D01*
X407460Y110307D01*
Y104270D01*
X413730D01*
Y112540D01*
X409693D01*
X409207Y113713D01*
X432747Y137253D01*
X433589Y138513D01*
X433885Y140000D01*
Y158982D01*
X435058Y159468D01*
X449885Y144641D01*
D02*
G37*
G36*
X214885Y107200D02*
Y95230D01*
X214960Y94855D01*
Y80960D01*
X227380D01*
X227948Y80251D01*
X227415Y79040D01*
X225270D01*
Y71270D01*
X233040D01*
Y74659D01*
X234160Y75484D01*
X234960Y75193D01*
Y60960D01*
X240115D01*
Y53040D01*
X235960D01*
Y44454D01*
X233621Y42115D01*
X232040D01*
Y44730D01*
X226500D01*
Y46000D01*
X225230D01*
Y53040D01*
X220960D01*
Y46569D01*
X219787Y46083D01*
X169115Y96755D01*
Y102770D01*
X169040Y103145D01*
Y109345D01*
X212740D01*
X214885Y107200D01*
D02*
G37*
%LPC*%
G36*
X424598Y484146D02*
X424049D01*
Y471606D01*
X436590D01*
Y472155D01*
X435648Y475667D01*
X433830Y478816D01*
X431259Y481387D01*
X428110Y483205D01*
X424598Y484146D01*
D02*
G37*
G36*
X421510D02*
X420961D01*
X417449Y483205D01*
X414300Y481387D01*
X411729Y478816D01*
X409911Y475667D01*
X408969Y472155D01*
Y471606D01*
X421510D01*
Y484146D01*
D02*
G37*
G36*
X280270Y479526D02*
Y471270D01*
X288526D01*
X287881Y473679D01*
X286626Y475852D01*
X284852Y477626D01*
X282679Y478881D01*
X280270Y479526D01*
D02*
G37*
G36*
X277730D02*
X275322Y478881D01*
X273148Y477626D01*
X271374Y475852D01*
X270119Y473679D01*
X269474Y471270D01*
X277730D01*
Y479526D01*
D02*
G37*
G36*
Y468730D02*
X269474D01*
X270119Y466321D01*
X271374Y464148D01*
X273148Y462374D01*
X275322Y461119D01*
X277730Y460474D01*
Y468730D01*
D02*
G37*
G36*
X288526D02*
X280270D01*
Y460474D01*
X282679Y461119D01*
X284852Y462374D01*
X286626Y464148D01*
X287881Y466321D01*
X288526Y468730D01*
D02*
G37*
G36*
X436590Y469066D02*
X424049D01*
Y456526D01*
X424598D01*
X428110Y457467D01*
X431259Y459286D01*
X433830Y461857D01*
X435648Y465006D01*
X436590Y468518D01*
Y469066D01*
D02*
G37*
G36*
X421510D02*
X408969D01*
Y468518D01*
X409911Y465006D01*
X411729Y461857D01*
X414300Y459286D01*
X417449Y457467D01*
X420961Y456526D01*
X421510D01*
Y469066D01*
D02*
G37*
G36*
X269322Y382040D02*
X266678D01*
X264125Y381356D01*
X261835Y380034D01*
X259966Y378165D01*
X258644Y375875D01*
X257960Y373322D01*
Y370678D01*
X258644Y368125D01*
X259966Y365835D01*
X261835Y363966D01*
X264125Y362644D01*
X266678Y361960D01*
X269322D01*
X271875Y362644D01*
X274165Y363966D01*
X276034Y365835D01*
X277356Y368125D01*
X278040Y370678D01*
Y373322D01*
X277356Y375875D01*
X276034Y378165D01*
X274165Y380034D01*
X271875Y381356D01*
X269322Y382040D01*
D02*
G37*
G36*
X477322Y315440D02*
X474678D01*
X472125Y314756D01*
X469835Y313434D01*
X467966Y311565D01*
X466644Y309275D01*
X465960Y306722D01*
Y304078D01*
X466644Y301525D01*
X467966Y299235D01*
X469835Y297366D01*
X472125Y296044D01*
X474678Y295360D01*
X477322D01*
X479875Y296044D01*
X482165Y297366D01*
X484034Y299235D01*
X485356Y301525D01*
X486040Y304078D01*
Y306722D01*
X485356Y309275D01*
X484034Y311565D01*
X482165Y313434D01*
X479875Y314756D01*
X477322Y315440D01*
D02*
G37*
G36*
X60540Y268540D02*
X52270D01*
Y262270D01*
X60540D01*
Y268540D01*
D02*
G37*
G36*
X49730D02*
X41460D01*
Y262270D01*
X49730D01*
Y268540D01*
D02*
G37*
G36*
X60540Y259730D02*
X52270D01*
Y253460D01*
X60540D01*
Y259730D01*
D02*
G37*
G36*
X49730D02*
X41460D01*
Y253460D01*
X49730D01*
Y259730D01*
D02*
G37*
G36*
X477322Y264640D02*
X474678D01*
X472125Y263956D01*
X469835Y262634D01*
X467966Y260765D01*
X466644Y258475D01*
X465960Y255922D01*
Y253278D01*
X466644Y250725D01*
X467966Y248435D01*
X469835Y246566D01*
X472125Y245244D01*
X474678Y244560D01*
X477322D01*
X479875Y245244D01*
X482165Y246566D01*
X484034Y248435D01*
X485356Y250725D01*
X486040Y253278D01*
Y255922D01*
X485356Y258475D01*
X484034Y260765D01*
X482165Y262634D01*
X479875Y263956D01*
X477322Y264640D01*
D02*
G37*
G36*
X460640Y253330D02*
X451870D01*
Y244560D01*
X451922D01*
X454475Y245244D01*
X456765Y246566D01*
X458634Y248435D01*
X459956Y250725D01*
X460640Y253278D01*
Y253330D01*
D02*
G37*
G36*
X449330D02*
X440560D01*
Y253278D01*
X441244Y250725D01*
X442566Y248435D01*
X444435Y246566D01*
X446725Y245244D01*
X449278Y244560D01*
X449330D01*
Y253330D01*
D02*
G37*
G36*
X477322Y239240D02*
X474678D01*
X472125Y238556D01*
X469835Y237234D01*
X467966Y235365D01*
X466644Y233075D01*
X465960Y230522D01*
Y227878D01*
X466644Y225325D01*
X467966Y223035D01*
X469835Y221166D01*
X472125Y219844D01*
X474678Y219160D01*
X477322D01*
X479875Y219844D01*
X482165Y221166D01*
X484034Y223035D01*
X485356Y225325D01*
X486040Y227878D01*
Y230522D01*
X485356Y233075D01*
X484034Y235365D01*
X482165Y237234D01*
X479875Y238556D01*
X477322Y239240D01*
D02*
G37*
G36*
Y213840D02*
X474678D01*
X472125Y213156D01*
X469835Y211834D01*
X467966Y209965D01*
X466644Y207675D01*
X465960Y205122D01*
Y202478D01*
X466644Y199925D01*
X467966Y197635D01*
X469835Y195766D01*
X472125Y194444D01*
X474678Y193760D01*
X477322D01*
X479875Y194444D01*
X482165Y195766D01*
X484034Y197635D01*
X485356Y199925D01*
X486040Y202478D01*
Y205122D01*
X485356Y207675D01*
X484034Y209965D01*
X482165Y211834D01*
X479875Y213156D01*
X477322Y213840D01*
D02*
G37*
G36*
X342270Y249470D02*
Y245270D01*
X346470D01*
X345697Y247138D01*
X344138Y248697D01*
X342270Y249470D01*
D02*
G37*
G36*
X339730D02*
X337862Y248697D01*
X336303Y247138D01*
X335530Y245270D01*
X339730D01*
Y249470D01*
D02*
G37*
G36*
X346470Y242730D02*
X342270D01*
Y238530D01*
X344138Y239303D01*
X345697Y240862D01*
X346470Y242730D01*
D02*
G37*
G36*
X339730D02*
X335530D01*
X336303Y240862D01*
X337862Y239303D01*
X339730Y238530D01*
Y242730D01*
D02*
G37*
G36*
X94270Y224470D02*
Y220270D01*
X98470D01*
X97697Y222138D01*
X96138Y223697D01*
X94270Y224470D01*
D02*
G37*
G36*
X91730D02*
X89862Y223697D01*
X88303Y222138D01*
X87530Y220270D01*
X91730D01*
Y224470D01*
D02*
G37*
G36*
X98470Y217730D02*
X94270D01*
Y213530D01*
X96138Y214303D01*
X97697Y215862D01*
X98470Y217730D01*
D02*
G37*
G36*
X91730D02*
X87530D01*
X88303Y215862D01*
X89862Y214303D01*
X91730Y213530D01*
Y217730D01*
D02*
G37*
G36*
X107730Y208040D02*
X101960D01*
Y203770D01*
X107730D01*
Y208040D01*
D02*
G37*
G36*
Y201230D02*
X101960D01*
Y196960D01*
X107695D01*
X107730Y196953D01*
Y201230D01*
D02*
G37*
G36*
X192270Y219470D02*
Y215270D01*
X196470D01*
X195697Y217138D01*
X194138Y218697D01*
X192270Y219470D01*
D02*
G37*
G36*
X189730D02*
X187862Y218697D01*
X186303Y217138D01*
X185530Y215270D01*
X189730D01*
Y219470D01*
D02*
G37*
G36*
X233040Y219040D02*
X228770D01*
Y213270D01*
X233040D01*
Y219040D01*
D02*
G37*
G36*
X226230D02*
X221960D01*
Y213270D01*
X226230D01*
Y219040D01*
D02*
G37*
G36*
X196470Y212730D02*
X192270D01*
Y208530D01*
X194138Y209303D01*
X195697Y210862D01*
X196470Y212730D01*
D02*
G37*
G36*
X189730D02*
X185530D01*
X186303Y210862D01*
X187862Y209303D01*
X189730Y208530D01*
Y212730D01*
D02*
G37*
G36*
X233040Y210730D02*
X228770D01*
Y204960D01*
X233040D01*
Y210730D01*
D02*
G37*
G36*
X226230D02*
X221960D01*
Y204960D01*
X226230D01*
Y210730D01*
D02*
G37*
G36*
X343470Y213730D02*
X339270D01*
Y209530D01*
X341138Y210303D01*
X342697Y211862D01*
X343470Y213730D01*
D02*
G37*
G36*
X336730D02*
X332530D01*
X333303Y211862D01*
X334862Y210303D01*
X336730Y209530D01*
Y213730D01*
D02*
G37*
G36*
X293040Y209730D02*
X288770D01*
Y203960D01*
X293040D01*
Y209730D01*
D02*
G37*
G36*
X286230D02*
X281960D01*
Y203960D01*
X286230D01*
Y209730D01*
D02*
G37*
G36*
X293040Y195040D02*
X288770D01*
Y189270D01*
X293040D01*
Y195040D01*
D02*
G37*
G36*
X286230D02*
X281960D01*
Y189270D01*
X286230D01*
Y195040D01*
D02*
G37*
G36*
X293040Y186730D02*
X288770D01*
Y180960D01*
X293040D01*
Y186730D01*
D02*
G37*
G36*
X286230D02*
X281960D01*
Y180960D01*
X286230D01*
Y186730D01*
D02*
G37*
G36*
X299270Y173470D02*
Y169270D01*
X303470D01*
X302697Y171138D01*
X301138Y172697D01*
X299270Y173470D01*
D02*
G37*
G36*
X296730D02*
X294862Y172697D01*
X293303Y171138D01*
X292530Y169270D01*
X296730D01*
Y173470D01*
D02*
G37*
G36*
X303470Y166730D02*
X299270D01*
Y162530D01*
X301138Y163303D01*
X302697Y164862D01*
X303470Y166730D01*
D02*
G37*
G36*
X296730D02*
X292530D01*
X293303Y164862D01*
X294862Y163303D01*
X296730Y162530D01*
Y166730D01*
D02*
G37*
G36*
X325540Y163540D02*
X319270D01*
Y155270D01*
X325540D01*
Y163540D01*
D02*
G37*
G36*
X316730D02*
X310460D01*
Y155270D01*
X316730D01*
Y163540D01*
D02*
G37*
G36*
X325540Y152730D02*
X319270D01*
Y144460D01*
X325540D01*
Y152730D01*
D02*
G37*
G36*
X316730D02*
X310460D01*
Y144460D01*
X316730D01*
Y152730D01*
D02*
G37*
G36*
X124230Y258730D02*
X119960D01*
Y252960D01*
X124230D01*
Y258730D01*
D02*
G37*
G36*
X132730Y247730D02*
X128530D01*
X129118Y246310D01*
X128466Y245040D01*
X126270D01*
Y239270D01*
X130540D01*
Y243062D01*
X131810Y243911D01*
X132730Y243530D01*
Y247730D01*
D02*
G37*
G36*
X123730Y245040D02*
X119460D01*
Y239270D01*
X123730D01*
Y245040D01*
D02*
G37*
G36*
X157590Y223040D02*
X153870D01*
Y220270D01*
X157590D01*
Y223040D01*
D02*
G37*
G36*
X153040Y242540D02*
X138960D01*
Y231460D01*
X141391D01*
Y226590D01*
X140709D01*
Y221600D01*
Y216610D01*
X147610D01*
Y215270D01*
X152600D01*
X157590D01*
Y217730D01*
X152600D01*
Y219000D01*
X151330D01*
Y223040D01*
X149290D01*
Y226590D01*
X148609D01*
Y231460D01*
X153040D01*
Y242540D01*
D02*
G37*
G36*
X157590Y212730D02*
X152600D01*
X147610D01*
Y210270D01*
X152600D01*
X157590D01*
Y212730D01*
D02*
G37*
G36*
Y207730D02*
X152600D01*
X147610D01*
Y205270D01*
X152600D01*
X157590D01*
Y207730D01*
D02*
G37*
G36*
X419270Y180470D02*
Y176270D01*
X423470D01*
X422697Y178138D01*
X421138Y179697D01*
X419270Y180470D01*
D02*
G37*
G36*
X423470Y173730D02*
X419270D01*
Y169530D01*
X421138Y170303D01*
X422697Y171862D01*
X423470Y173730D01*
D02*
G37*
G36*
X437270Y134470D02*
Y130270D01*
X441470D01*
X440697Y132138D01*
X439138Y133697D01*
X437270Y134470D01*
D02*
G37*
G36*
X434730D02*
X432862Y133697D01*
X431303Y132138D01*
X430530Y130270D01*
X434730D01*
Y134470D01*
D02*
G37*
G36*
X441470Y127730D02*
X437270D01*
Y123530D01*
X439138Y124303D01*
X440697Y125862D01*
X441470Y127730D01*
D02*
G37*
G36*
X434730D02*
X430530D01*
X431303Y125862D01*
X432862Y124303D01*
X434730Y123530D01*
Y127730D01*
D02*
G37*
G36*
X422540Y112540D02*
X416270D01*
Y103000D01*
Y93460D01*
X422540D01*
Y98615D01*
X438960D01*
Y96960D01*
X444730D01*
Y102500D01*
Y108040D01*
X438960D01*
Y106385D01*
X422540D01*
Y112540D01*
D02*
G37*
G36*
X413730Y101730D02*
X407460D01*
Y93460D01*
X413730D01*
Y101730D01*
D02*
G37*
G36*
X203270Y89470D02*
Y85270D01*
X207470D01*
X206697Y87138D01*
X205138Y88697D01*
X203270Y89470D01*
D02*
G37*
G36*
X200730D02*
X198862Y88697D01*
X197303Y87138D01*
X196530Y85270D01*
X200730D01*
Y89470D01*
D02*
G37*
G36*
X207470Y82730D02*
X203270D01*
Y78530D01*
X205138Y79303D01*
X206697Y80862D01*
X207470Y82730D01*
D02*
G37*
G36*
X200730D02*
X196530D01*
X197303Y80862D01*
X198862Y79303D01*
X200730Y78530D01*
Y82730D01*
D02*
G37*
G36*
X222730Y79040D02*
X214960D01*
Y71270D01*
X222730D01*
Y79040D01*
D02*
G37*
G36*
X233040Y68730D02*
X225270D01*
Y60960D01*
X233040D01*
Y68730D01*
D02*
G37*
G36*
X222730D02*
X214960D01*
Y60960D01*
X222730D01*
Y68730D01*
D02*
G37*
G36*
X232040Y53040D02*
X227770D01*
Y47270D01*
X232040D01*
Y53040D01*
D02*
G37*
%LPD*%
D13*
X117950Y180662D02*
X137000Y161612D01*
X121950Y183050D02*
Y206993D01*
X117950Y180662D02*
Y212390D01*
X121950Y183050D02*
X131000Y174000D01*
X123707Y208750D02*
X127150D01*
X127400Y209000D01*
X121950Y206993D02*
X123707Y208750D01*
X117950Y212390D02*
X119560Y214000D01*
X127400D01*
X110500Y219000D02*
X127400D01*
X131000Y174000D02*
X150000D01*
X162000Y162000D01*
X145000Y221600D02*
Y236000D01*
X110000Y236500D02*
X118315Y228185D01*
X128415D01*
X135000Y221600D01*
D16*
X405000Y175000D02*
X421000D01*
X405000Y175000D02*
X405000Y175000D01*
X405000Y195000D02*
X415000D01*
X405230Y199770D02*
X413512D01*
X415000Y198282D01*
Y195000D02*
Y198282D01*
Y195000D02*
X430000D01*
X405000Y200000D02*
X405230Y199770D01*
X430000Y195000D02*
X430000Y195000D01*
Y212246D01*
Y140000D02*
Y195000D01*
X412334Y229912D02*
X430000Y212246D01*
X407854Y255270D02*
X434750Y228374D01*
X453770Y83146D02*
Y146250D01*
X390000Y100000D02*
X430000Y140000D01*
X434750Y165270D02*
X453770Y146250D01*
X409735Y259810D02*
X439290Y230255D01*
Y167150D02*
X458310Y148130D01*
X434750Y165270D02*
Y228374D01*
X458310Y81265D02*
Y148130D01*
X439290Y167150D02*
Y230255D01*
X390000Y83000D02*
Y100000D01*
X312623Y270570D02*
X442430D01*
X444310Y268690D02*
X455285D01*
X442430Y270570D02*
X444310Y268690D01*
X314504Y275110D02*
X442882D01*
X447772Y280000D02*
X450600D01*
X442882Y275110D02*
X447772Y280000D01*
X405088Y229912D02*
X412334D01*
X405000Y230000D02*
X405088Y229912D01*
X151900Y204000D02*
X152600D01*
Y209000D01*
Y199000D02*
Y204000D01*
Y209000D02*
Y214000D01*
Y219000D01*
X427188Y400000D02*
X464690Y362498D01*
Y351515D02*
Y362498D01*
Y351515D02*
X474095Y342110D01*
X319000Y400000D02*
X427188D01*
X474095Y332705D02*
Y342110D01*
Y332705D02*
X476000Y330800D01*
X165230Y95146D02*
Y102770D01*
Y95146D02*
X222146Y38230D01*
X235230D02*
X241500Y44500D01*
X162000Y104500D02*
X163500D01*
X165230Y102770D01*
X222146Y38230D02*
X235230D01*
X241500Y44500D02*
Y46000D01*
X137000Y104500D02*
X162000D01*
X51000Y189000D02*
X135500Y104500D01*
X137000D01*
X51000Y189000D02*
Y211000D01*
X127648Y194928D02*
Y198520D01*
X127567D02*
X127648D01*
Y194928D02*
X131896Y190680D01*
X153104D01*
X160040Y197616D01*
X168500D01*
X170885Y200000D01*
X51000Y211000D02*
X53000D01*
X56730Y214730D01*
Y236355D02*
X88146Y267770D01*
X142354D01*
X56730Y214730D02*
Y236355D01*
X142354Y267770D02*
X160177Y249947D01*
Y230034D02*
Y249947D01*
Y230034D02*
X170885Y219327D01*
Y200000D02*
Y219327D01*
X268000Y140375D02*
X299646Y108730D01*
X361270D02*
X365000Y105000D01*
X268000Y140375D02*
Y154000D01*
X299646Y108730D02*
X361270D01*
X365000Y103000D02*
Y105000D01*
X238500Y175500D02*
X240000D01*
X170885Y200000D02*
X214000D01*
X238500Y175500D01*
X304250Y391000D02*
X311000Y384250D01*
Y349500D02*
Y384250D01*
X303000Y391000D02*
X304250D01*
X287000Y349500D02*
Y386375D01*
X299146Y398520D01*
X301520D01*
X303000Y400000D01*
X320250Y391000D02*
X335000Y376250D01*
X319000Y391000D02*
X320250D01*
X335000Y349500D02*
Y376250D01*
X323000Y300000D02*
X330251D01*
X349000Y318749D01*
Y326000D01*
X318230Y300230D02*
Y309354D01*
X329502Y320627D01*
X341247D01*
X318000Y300000D02*
X318230Y300230D01*
X375582Y123662D02*
Y125582D01*
X395000Y145000D01*
X374920Y123000D02*
X375582Y123662D01*
X381730Y123976D02*
X397666Y139912D01*
X381730Y72646D02*
X383646Y70730D01*
X381730Y72646D02*
Y123976D01*
X395000Y145000D02*
X405000D01*
X382000Y58000D02*
Y66190D01*
X270389D02*
X381000D01*
X382000D01*
X443235D01*
X272270Y70730D02*
X383646D01*
X253000Y90000D02*
X272270Y70730D01*
X244000Y90000D02*
X253000D01*
X234230Y79770D02*
X256810D01*
X270389Y66190D01*
X224000Y90000D02*
X234230Y79770D01*
X214500Y119500D02*
X244000Y90000D01*
X312810Y259810D02*
X409735D01*
X383646Y70730D02*
X441354D01*
X308000Y255000D02*
X312810Y259810D01*
X441354Y70730D02*
X453770Y83146D01*
X308000Y244000D02*
Y255000D01*
X443235Y66190D02*
X458310Y81265D01*
X315145Y255270D02*
X407854D01*
X404912Y139912D02*
X405000Y140000D01*
X397666Y139912D02*
X404912D01*
X313230Y253354D02*
X315145Y255270D01*
X313230Y244230D02*
Y253354D01*
X313000Y244000D02*
X313230Y244230D01*
X162000Y119500D02*
X214500D01*
X214349Y113230D02*
X218770Y108809D01*
X156145Y113230D02*
X214349D01*
X218770Y95230D02*
Y108809D01*
Y95230D02*
X224000Y90000D01*
X390000Y81000D02*
Y83000D01*
X264270Y159730D02*
X268000Y156000D01*
X241500Y175500D02*
X257270Y159730D01*
X240000Y175500D02*
X241500D01*
X268000Y154000D02*
Y156000D01*
X257270Y159730D02*
X264270D01*
X272500Y171500D02*
X293000Y151000D01*
Y132000D02*
Y151000D01*
X272500Y171500D02*
Y188000D01*
X303230Y300230D02*
Y309354D01*
X326690Y332814D02*
X333315D01*
X303230Y309354D02*
X326690Y332814D01*
X333315D02*
X335000Y334500D01*
X303000Y300000D02*
X303230Y300230D01*
X298000Y323000D02*
X309500Y334500D01*
X298000Y300000D02*
Y323000D01*
X309500Y334500D02*
X311000D01*
X287000D02*
X288500D01*
X293000Y300000D02*
Y330000D01*
X288500Y334500D02*
X293000Y330000D01*
X241545Y266000D02*
X252770Y254775D01*
X188000Y266000D02*
X241545D01*
X243425Y270540D02*
X258000Y255965D01*
X187460Y270540D02*
X243425D01*
X204594Y282206D02*
X238180D01*
X263000Y257386D01*
X245028Y286460D02*
X252000D01*
X243000Y288488D02*
Y300000D01*
Y288488D02*
X245028Y286460D01*
X263000Y244000D02*
Y257386D01*
X182757Y275243D02*
X187460Y270540D01*
X179000Y257000D02*
X188000Y266000D01*
X179000Y307800D02*
X204594Y282206D01*
X179000Y279028D02*
Y282400D01*
X182757Y275243D02*
Y275271D01*
X179000Y279028D02*
X182757Y275271D01*
X245124Y256000D02*
X247770Y253354D01*
Y251934D02*
X247770Y251934D01*
Y244230D02*
Y251934D01*
X252770Y244230D02*
Y254775D01*
X247770Y244230D02*
X248000Y244000D01*
X203400Y256000D02*
X245124D01*
X258000Y244000D02*
Y255965D01*
X247770Y251934D02*
Y253354D01*
X179000Y231600D02*
X203400Y256000D01*
X252770Y244230D02*
X253000Y244000D01*
X390000Y83000D02*
X394500Y87500D01*
X446000D01*
X415000Y103000D02*
X415500Y102500D01*
X446000D01*
X244000Y50000D02*
Y70000D01*
X241500Y47500D02*
X244000Y50000D01*
X241500Y46000D02*
Y47500D01*
X226500Y46000D02*
Y47500D01*
X108750Y202250D02*
X109000Y202500D01*
X149875Y119500D02*
X156145Y113230D01*
X283000Y223000D02*
X287500Y218500D01*
Y211000D02*
Y218500D01*
X283000Y223000D02*
Y244000D01*
X109000Y217500D02*
X110500Y219000D01*
X383130Y288730D02*
X450600Y356200D01*
X320145Y288730D02*
X383130D01*
X285146Y288730D02*
X320145D01*
X272770Y243770D02*
X273230Y244230D01*
X284485Y266030D02*
X413770D01*
X282605Y270570D02*
X312623D01*
X278000Y244000D02*
X278230Y244230D01*
X268000Y255965D02*
X282605Y270570D01*
X268000Y244000D02*
Y255965D01*
X273230Y244230D02*
Y254775D01*
X284485Y266030D01*
X312623Y270570D02*
X312623Y270570D01*
X413770Y266030D02*
X450600Y229200D01*
X318265Y284190D02*
X385010D01*
X431620Y330800D01*
X386891Y279650D02*
X413120Y305879D01*
X316384Y279650D02*
X386891D01*
X318265Y284190D02*
X318265Y284190D01*
X283230Y290646D02*
X285146Y288730D01*
X281384Y279650D02*
X316384D01*
X279504Y275110D02*
X314504D01*
X320145Y288730D02*
X320145Y288730D01*
X316384Y279650D02*
X316384Y279650D01*
X273000Y288034D02*
X281384Y279650D01*
X278230Y289225D02*
X283265Y284190D01*
X314504Y275110D02*
X314504Y275110D01*
X283265Y284190D02*
X318265D01*
X283230Y290646D02*
Y299770D01*
X268000Y286614D02*
X279504Y275110D01*
X278230Y289225D02*
Y299770D01*
X283000Y300000D02*
X283230Y299770D01*
X413120Y305879D02*
X450121D01*
X431620Y330800D02*
X450600D01*
X464690Y278095D02*
X474095D01*
X455285Y268690D02*
X464690Y278095D01*
X474095D02*
X476000Y280000D01*
X268000Y286614D02*
Y300000D01*
X450121Y305879D02*
X450600Y305400D01*
X273000Y288034D02*
Y300000D01*
X278000D02*
X278230Y299770D01*
X229000Y391202D02*
X238000Y382202D01*
Y300000D02*
Y382202D01*
X229000Y391202D02*
Y470000D01*
X240000Y190500D02*
X240770D01*
X242500Y192230D02*
Y212000D01*
X240770Y190500D02*
X242500Y192230D01*
Y212000D02*
X250124D01*
X272770Y234646D01*
Y243770D01*
X137000Y119500D02*
X149875D01*
X137000Y161000D02*
Y161612D01*
Y119500D02*
Y161000D01*
X162000Y119500D02*
Y162000D01*
X145000Y236000D02*
X146000Y237000D01*
X110000Y236500D02*
Y237730D01*
X108270Y236000D02*
X110000Y237730D01*
Y238000D01*
X73000Y236000D02*
X108270D01*
X110250Y238250D02*
Y259750D01*
X110000Y238000D02*
X110250Y238250D01*
Y259750D02*
X110500Y260000D01*
X272500Y188000D02*
Y211000D01*
Y212500D02*
X278000Y218000D01*
X272500Y211000D02*
Y212500D01*
X278000Y218000D02*
Y244000D01*
D17*
X73000Y236000D02*
D03*
X51000Y261000D02*
D03*
Y211000D02*
D03*
D18*
X319000Y400000D02*
D03*
X303000D02*
D03*
Y391000D02*
D03*
X319000D02*
D03*
D19*
X127400Y219000D02*
D03*
Y214000D02*
D03*
Y209000D02*
D03*
Y204000D02*
D03*
Y199000D02*
D03*
X152600D02*
D03*
Y204000D02*
D03*
Y209000D02*
D03*
Y214000D02*
D03*
D20*
X135000Y196400D02*
D03*
X140000D02*
D03*
X145000D02*
D03*
Y221600D02*
D03*
X135000D02*
D03*
X140000D02*
D03*
D21*
X152600Y219000D02*
D03*
D22*
X241500Y46000D02*
D03*
X226500D02*
D03*
X110500Y260000D02*
D03*
X125500D02*
D03*
X287500Y211000D02*
D03*
Y188000D02*
D03*
X227500Y212000D02*
D03*
X125000Y238000D02*
D03*
X242500Y212000D02*
D03*
X272500Y211000D02*
D03*
Y188000D02*
D03*
X110000Y238000D02*
D03*
D23*
X335000Y349500D02*
D03*
Y334500D02*
D03*
X311000Y349500D02*
D03*
Y334500D02*
D03*
X287000Y349500D02*
D03*
Y334500D02*
D03*
X446000Y102500D02*
D03*
Y87500D02*
D03*
X146000Y252000D02*
D03*
X109000Y202500D02*
D03*
X137000Y104500D02*
D03*
Y119500D02*
D03*
X240000Y190500D02*
D03*
Y175500D02*
D03*
X109000Y217500D02*
D03*
X162000Y104500D02*
D03*
Y119500D02*
D03*
X146000Y237000D02*
D03*
D24*
X244000Y90000D02*
D03*
X224000Y70000D02*
D03*
Y90000D02*
D03*
D25*
X244000Y70000D02*
D03*
D26*
X405000Y160000D02*
D03*
Y175000D02*
D03*
Y240000D02*
D03*
Y130000D02*
D03*
Y135000D02*
D03*
Y140000D02*
D03*
Y145000D02*
D03*
Y155000D02*
D03*
Y165000D02*
D03*
Y170000D02*
D03*
Y180000D02*
D03*
Y185000D02*
D03*
Y190000D02*
D03*
Y195000D02*
D03*
Y205000D02*
D03*
Y210000D02*
D03*
Y215000D02*
D03*
Y220000D02*
D03*
Y225000D02*
D03*
Y230000D02*
D03*
Y235000D02*
D03*
D28*
Y150000D02*
D03*
Y200000D02*
D03*
Y245000D02*
D03*
D29*
X268000Y154000D02*
D03*
X318000D02*
D03*
X293000Y132000D02*
D03*
X365000Y103000D02*
D03*
X415000D02*
D03*
X390000Y81000D02*
D03*
D49*
X283000Y244000D02*
D03*
X233000D02*
D03*
X238000D02*
D03*
X243000D02*
D03*
X248000D02*
D03*
X253000D02*
D03*
X273000D02*
D03*
X268000D02*
D03*
X263000D02*
D03*
X258000D02*
D03*
X293000D02*
D03*
X288000D02*
D03*
X278000D02*
D03*
X313000D02*
D03*
X308000D02*
D03*
X303000D02*
D03*
X298000D02*
D03*
X323000D02*
D03*
X318000D02*
D03*
Y300000D02*
D03*
X323000D02*
D03*
X298000D02*
D03*
X303000D02*
D03*
X308000D02*
D03*
X313000D02*
D03*
X278000D02*
D03*
X283000D02*
D03*
X288000D02*
D03*
X293000D02*
D03*
X258000D02*
D03*
X263000D02*
D03*
X268000D02*
D03*
X273000D02*
D03*
X253000D02*
D03*
X248000D02*
D03*
X243000D02*
D03*
X238000D02*
D03*
X233000D02*
D03*
D50*
X304876Y233000D02*
X351000D01*
X363770Y220230D02*
X398945D01*
X351000Y233000D02*
X363770Y220230D01*
X404912Y180088D02*
X405000Y180000D01*
X347304Y225500D02*
X395250Y177554D01*
Y173240D02*
Y177554D01*
X391750Y171740D02*
Y176105D01*
X298085Y222000D02*
X345855D01*
X397666Y180088D02*
X404912D01*
X302455Y229000D02*
X348754D01*
X299534Y225500D02*
X347304D01*
X345855Y222000D02*
X391750Y176105D01*
X348754Y229000D02*
X397666Y180088D01*
X391750Y171740D02*
X397740Y165750D01*
X397871D01*
X397871Y165750D01*
X398344D01*
X399094Y165000D02*
X405000D01*
X398344Y165750D02*
X399094Y165000D01*
X397871Y170750D02*
X397871Y170750D01*
X397740Y170750D02*
X397871D01*
X398344Y170750D02*
X399094Y170000D01*
X397871Y170750D02*
X398344D01*
X395250Y173240D02*
X397740Y170750D01*
X399094Y170000D02*
X405000D01*
X288750Y231335D02*
X298085Y222000D01*
X293230Y231805D02*
X299534Y225500D01*
X293230Y231805D02*
Y243770D01*
X293000Y244000D02*
X293230Y243770D01*
X298230Y233225D02*
X302455Y229000D01*
X303230Y234646D02*
X304876Y233000D01*
X303230Y234646D02*
Y243770D01*
X303000Y244000D02*
X303230Y243770D01*
X288750Y231335D02*
Y243250D01*
X288000Y244000D02*
X288750Y243250D01*
X398945Y220230D02*
X399146D01*
X399375Y220000D01*
X405000D01*
X398945Y220230D02*
X398945Y220230D01*
X298230Y233225D02*
Y243770D01*
X298000Y244000D02*
X298230Y243770D01*
D51*
X108191Y202000D02*
X108441Y202250D01*
X108750D01*
D52*
X170885Y200000D02*
D03*
X450600Y254600D02*
D03*
X268000Y372000D02*
D03*
X137000Y161000D02*
D03*
X162000Y162000D02*
D03*
X179000Y307800D02*
D03*
Y282400D02*
D03*
Y257000D02*
D03*
X476000Y356200D02*
D03*
Y330800D02*
D03*
X450600D02*
D03*
X476000Y305400D02*
D03*
X450600D02*
D03*
X476000Y280000D02*
D03*
X450600D02*
D03*
X476000Y254600D02*
D03*
Y229200D02*
D03*
X450600D02*
D03*
X476000Y203800D02*
D03*
X450600D02*
D03*
D53*
X279000Y470000D02*
D03*
X229000D02*
D03*
D54*
X179000Y231600D02*
D03*
X450600Y356200D02*
D03*
D55*
X421000Y175000D02*
D03*
X338000Y215000D02*
D03*
X341000Y244000D02*
D03*
X436000Y129000D02*
D03*
X298000Y168000D02*
D03*
X191000Y214000D02*
D03*
X202000Y84000D02*
D03*
X93000Y219000D02*
D03*
X134000Y249000D02*
D03*
X341247Y320627D02*
D03*
X349000Y326000D02*
D03*
X374920Y123000D02*
D03*
X382000Y58000D02*
D03*
X252000Y286460D02*
D03*
M02*
