G04*
G04 #@! TF.GenerationSoftware,Altium Limited,Altium Designer,22.7.1 (60)*
G04*
G04 Layer_Color=128*
%FSLAX44Y44*%
%MOMM*%
G71*
G04*
G04 #@! TF.SameCoordinates,445EDDF3-7DE9-4779-8E76-6141CBC7C01E*
G04*
G04*
G04 #@! TF.FilePolarity,Positive*
G04*
G01*
G75*
%ADD24R,0.6000X0.9000*%
%ADD25R,0.9000X0.6000*%
%ADD28R,1.0000X1.4000*%
%ADD71R,1.2700X3.3000*%
%ADD72R,1.0000X1.0500*%
%ADD73R,1.0500X2.2000*%
%ADD74R,3.4000X1.5000*%
G04:AMPARAMS|DCode=75|XSize=0.67mm|YSize=1.17mm|CornerRadius=0.0402mm|HoleSize=0mm|Usage=FLASHONLY|Rotation=90.000|XOffset=0mm|YOffset=0mm|HoleType=Round|Shape=RoundedRectangle|*
%AMROUNDEDRECTD75*
21,1,0.6700,1.0896,0,0,90.0*
21,1,0.5896,1.1700,0,0,90.0*
1,1,0.0804,0.5448,0.2948*
1,1,0.0804,0.5448,-0.2948*
1,1,0.0804,-0.5448,-0.2948*
1,1,0.0804,-0.5448,0.2948*
%
%ADD75ROUNDEDRECTD75*%
%ADD76R,1.0000X2.0000*%
%ADD77R,2.0000X1.0000*%
%ADD78R,2.3000X1.0000*%
%ADD79R,1.0000X2.3000*%
%ADD80O,3.4000X1.5000*%
%ADD81R,1.1000X1.0000*%
D24*
X271500Y493000D02*
D03*
X127500Y140000D02*
D03*
X286500Y493000D02*
D03*
X221500Y166000D02*
D03*
X236500D02*
D03*
X112500Y140000D02*
D03*
D25*
X153000Y202500D02*
D03*
Y187500D02*
D03*
X107000Y462500D02*
D03*
Y447500D02*
D03*
X151000Y135500D02*
D03*
X339000Y387500D02*
D03*
X315000Y388000D02*
D03*
X159000Y369500D02*
D03*
X133000D02*
D03*
X155000Y309000D02*
D03*
X132000Y309500D02*
D03*
X152000Y249500D02*
D03*
X130000D02*
D03*
Y187500D02*
D03*
X236000Y389000D02*
D03*
Y374000D02*
D03*
X315000Y373000D02*
D03*
X339000Y372500D02*
D03*
X155000Y324000D02*
D03*
X132000Y324500D02*
D03*
X152000Y264500D02*
D03*
X130000D02*
D03*
Y202500D02*
D03*
X159000Y384500D02*
D03*
X133000D02*
D03*
X55000Y370500D02*
D03*
Y385500D02*
D03*
Y310500D02*
D03*
Y325500D02*
D03*
X57000Y248500D02*
D03*
Y263500D02*
D03*
X57000Y186500D02*
D03*
Y201500D02*
D03*
X151000Y120500D02*
D03*
D28*
X317000Y484000D02*
D03*
X367000D02*
D03*
X342000Y506000D02*
D03*
X280000Y425000D02*
D03*
X330000D02*
D03*
X305000Y447000D02*
D03*
D71*
X132400Y462900D02*
D03*
X192000Y435000D02*
D03*
D72*
X229000Y414750D02*
D03*
D73*
X242250Y430000D02*
D03*
X215750D02*
D03*
D74*
X81000Y120000D02*
D03*
D75*
X83800Y375000D02*
D03*
X82800Y316000D02*
D03*
Y256000D02*
D03*
Y195000D02*
D03*
X108200Y384400D02*
D03*
X83800D02*
D03*
Y365600D02*
D03*
X108200D02*
D03*
X107200Y325400D02*
D03*
X82800D02*
D03*
Y306600D02*
D03*
X107200D02*
D03*
Y265400D02*
D03*
X82800D02*
D03*
Y246600D02*
D03*
X107200D02*
D03*
Y204400D02*
D03*
X82800D02*
D03*
Y185600D02*
D03*
X107200D02*
D03*
D76*
X236000Y346500D02*
D03*
X348000D02*
D03*
X236000Y194500D02*
D03*
X348000D02*
D03*
D77*
X216000Y326500D02*
D03*
Y214500D02*
D03*
X368000D02*
D03*
Y326500D02*
D03*
D78*
X217500Y294500D02*
D03*
Y230500D02*
D03*
X366500D02*
D03*
X217500Y310500D02*
D03*
Y278500D02*
D03*
Y262500D02*
D03*
Y246500D02*
D03*
X366500D02*
D03*
Y262500D02*
D03*
Y278500D02*
D03*
Y294500D02*
D03*
Y310500D02*
D03*
D79*
X268000Y196000D02*
D03*
X332000Y345000D02*
D03*
X316000D02*
D03*
X300000D02*
D03*
X284000D02*
D03*
X268000D02*
D03*
X252000D02*
D03*
Y196000D02*
D03*
X284000D02*
D03*
X300000D02*
D03*
X316000D02*
D03*
X332000D02*
D03*
D80*
X81000Y140000D02*
D03*
D81*
X128500Y116000D02*
D03*
X111500D02*
D03*
M02*
