G04*
G04 #@! TF.GenerationSoftware,Altium Limited,Altium Designer,22.7.1 (60)*
G04*
G04 Layer_Color=32896*
%FSLAX44Y44*%
%MOMM*%
G71*
G04*
G04 #@! TF.SameCoordinates,445EDDF3-7DE9-4779-8E76-6141CBC7C01E*
G04*
G04*
G04 #@! TF.FilePolarity,Positive*
G04*
G01*
G75*
%ADD10C,0.1270*%
%ADD11C,0.1524*%
%ADD13C,0.2000*%
%ADD14C,0.1000*%
%ADD16C,0.2540*%
G36*
X91873Y402302D02*
Y402020D01*
X91859Y401752D01*
X91845Y401499D01*
X91817Y401259D01*
X91789Y401048D01*
X91760Y400850D01*
X91718Y400667D01*
X91690Y400498D01*
X91662Y400343D01*
X91619Y400216D01*
X91591Y400103D01*
X91563Y400019D01*
X91535Y399948D01*
X91521Y399892D01*
X91507Y399863D01*
Y399849D01*
X91352Y399539D01*
X91154Y399257D01*
X90957Y399032D01*
X90745Y398834D01*
X90562Y398679D01*
X90407Y398567D01*
X90351Y398538D01*
X90308Y398510D01*
X90280Y398482D01*
X90266D01*
X89914Y398327D01*
X89547Y398214D01*
X89166Y398130D01*
X88814Y398073D01*
X88659Y398059D01*
X88504Y398045D01*
X88363Y398031D01*
X88250D01*
X88152Y398017D01*
X88025D01*
X87517Y398045D01*
X87292Y398073D01*
X87080Y398101D01*
X86869Y398144D01*
X86685Y398186D01*
X86516Y398228D01*
X86361Y398285D01*
X86220Y398341D01*
X86108Y398383D01*
X85995Y398425D01*
X85910Y398468D01*
X85840Y398510D01*
X85797Y398524D01*
X85769Y398552D01*
X85755D01*
X85445Y398764D01*
X85191Y399003D01*
X84994Y399229D01*
X84825Y399455D01*
X84698Y399652D01*
X84613Y399807D01*
X84585Y399863D01*
X84557Y399906D01*
X84543Y399934D01*
Y399948D01*
X84486Y400117D01*
X84430Y400300D01*
X84345Y400681D01*
X84289Y401076D01*
X84247Y401456D01*
X84233Y401626D01*
X84219Y401795D01*
Y401936D01*
X84204Y402063D01*
Y402161D01*
Y402232D01*
Y402288D01*
Y402302D01*
Y407941D01*
X85501D01*
Y402302D01*
Y401978D01*
X85529Y401668D01*
X85558Y401400D01*
X85600Y401146D01*
X85642Y400921D01*
X85699Y400709D01*
X85741Y400526D01*
X85797Y400371D01*
X85854Y400244D01*
X85910Y400117D01*
X85967Y400033D01*
X86009Y399948D01*
X86051Y399892D01*
X86079Y399849D01*
X86093Y399835D01*
X86108Y399821D01*
X86234Y399708D01*
X86375Y399610D01*
X86685Y399455D01*
X87010Y399342D01*
X87348Y399271D01*
X87658Y399215D01*
X87785Y399201D01*
X87912D01*
X87997Y399187D01*
X88138D01*
X88434Y399201D01*
X88701Y399243D01*
X88955Y399286D01*
X89152Y399356D01*
X89322Y399412D01*
X89448Y399455D01*
X89519Y399497D01*
X89547Y399511D01*
X89745Y399638D01*
X89914Y399793D01*
X90055Y399948D01*
X90153Y400089D01*
X90238Y400230D01*
X90308Y400329D01*
X90337Y400399D01*
X90351Y400427D01*
X90393Y400554D01*
X90421Y400681D01*
X90478Y400977D01*
X90520Y401287D01*
X90548Y401597D01*
X90562Y401865D01*
Y401992D01*
X90576Y402091D01*
Y402175D01*
Y402246D01*
Y402288D01*
Y402302D01*
Y407941D01*
X91873D01*
Y402302D01*
D02*
G37*
G36*
X79595Y407969D02*
X79820Y407955D01*
X80215Y407870D01*
X80398Y407814D01*
X80567Y407758D01*
X80722Y407687D01*
X80863Y407617D01*
X80976Y407546D01*
X81089Y407476D01*
X81188Y407419D01*
X81258Y407363D01*
X81314Y407321D01*
X81357Y407279D01*
X81385Y407264D01*
X81399Y407250D01*
X81526Y407109D01*
X81653Y406968D01*
X81751Y406813D01*
X81836Y406658D01*
X81977Y406362D01*
X82062Y406080D01*
X82118Y405841D01*
X82132Y405728D01*
X82146Y405643D01*
X82160Y405559D01*
Y405502D01*
Y405474D01*
Y405460D01*
X82146Y405206D01*
X82104Y404967D01*
X82048Y404755D01*
X81977Y404572D01*
X81921Y404431D01*
X81864Y404318D01*
X81822Y404262D01*
X81808Y404234D01*
X81653Y404064D01*
X81484Y403909D01*
X81300Y403768D01*
X81117Y403656D01*
X80948Y403571D01*
X80821Y403515D01*
X80765Y403486D01*
X80722Y403472D01*
X80708Y403458D01*
X80694D01*
X81018Y403359D01*
X81286Y403233D01*
X81526Y403078D01*
X81723Y402937D01*
X81878Y402796D01*
X81991Y402683D01*
X82048Y402612D01*
X82076Y402598D01*
Y402584D01*
X82231Y402330D01*
X82358Y402063D01*
X82442Y401809D01*
X82499Y401555D01*
X82527Y401329D01*
X82541Y401231D01*
Y401146D01*
X82555Y401090D01*
Y401034D01*
Y401005D01*
Y400991D01*
X82541Y400766D01*
X82513Y400540D01*
X82471Y400329D01*
X82414Y400117D01*
X82273Y399765D01*
X82203Y399596D01*
X82118Y399455D01*
X82034Y399314D01*
X81963Y399201D01*
X81878Y399102D01*
X81822Y399018D01*
X81766Y398947D01*
X81723Y398905D01*
X81695Y398877D01*
X81681Y398862D01*
X81512Y398708D01*
X81329Y398581D01*
X81131Y398468D01*
X80934Y398369D01*
X80751Y398299D01*
X80553Y398228D01*
X80173Y398130D01*
X80003Y398087D01*
X79848Y398059D01*
X79707Y398045D01*
X79581Y398031D01*
X79482Y398017D01*
X79341D01*
X79073Y398031D01*
X78833Y398059D01*
X78594Y398101D01*
X78368Y398144D01*
X78171Y398214D01*
X77973Y398285D01*
X77790Y398355D01*
X77635Y398440D01*
X77494Y398524D01*
X77367Y398595D01*
X77269Y398665D01*
X77170Y398736D01*
X77099Y398778D01*
X77057Y398820D01*
X77029Y398848D01*
X77015Y398862D01*
X76860Y399032D01*
X76719Y399201D01*
X76606Y399370D01*
X76507Y399553D01*
X76409Y399723D01*
X76338Y399906D01*
X76240Y400230D01*
X76197Y400385D01*
X76169Y400526D01*
X76155Y400653D01*
X76141Y400751D01*
X76127Y400836D01*
Y400907D01*
Y400949D01*
Y400963D01*
X76141Y401287D01*
X76197Y401583D01*
X76282Y401851D01*
X76367Y402077D01*
X76451Y402260D01*
X76536Y402401D01*
X76592Y402486D01*
X76606Y402500D01*
Y402514D01*
X76803Y402739D01*
X77015Y402937D01*
X77241Y403092D01*
X77452Y403233D01*
X77649Y403331D01*
X77818Y403402D01*
X77875Y403430D01*
X77917Y403444D01*
X77945Y403458D01*
X77959D01*
X77706Y403571D01*
X77494Y403698D01*
X77311Y403825D01*
X77156Y403952D01*
X77043Y404064D01*
X76958Y404149D01*
X76902Y404205D01*
X76888Y404234D01*
X76761Y404431D01*
X76677Y404628D01*
X76606Y404826D01*
X76564Y405023D01*
X76536Y405178D01*
X76522Y405305D01*
Y405390D01*
Y405404D01*
Y405418D01*
X76536Y405615D01*
X76550Y405798D01*
X76648Y406151D01*
X76775Y406461D01*
X76916Y406729D01*
X77057Y406940D01*
X77128Y407025D01*
X77184Y407109D01*
X77241Y407166D01*
X77283Y407208D01*
X77297Y407222D01*
X77311Y407236D01*
X77466Y407363D01*
X77621Y407490D01*
X77790Y407589D01*
X77959Y407673D01*
X78298Y407800D01*
X78636Y407885D01*
X78777Y407927D01*
X78918Y407941D01*
X79045Y407955D01*
X79158Y407969D01*
X79242Y407983D01*
X79369D01*
X79595Y407969D01*
D02*
G37*
G36*
X82358Y343817D02*
X81230Y343662D01*
X81131Y343817D01*
X81004Y343944D01*
X80892Y344071D01*
X80779Y344169D01*
X80666Y344240D01*
X80582Y344310D01*
X80525Y344338D01*
X80511Y344352D01*
X80328Y344437D01*
X80145Y344507D01*
X79975Y344550D01*
X79806Y344592D01*
X79665Y344606D01*
X79552Y344620D01*
X79285D01*
X79115Y344592D01*
X78819Y344522D01*
X78566Y344423D01*
X78340Y344324D01*
X78171Y344212D01*
X78044Y344113D01*
X77973Y344042D01*
X77945Y344028D01*
Y344014D01*
X77748Y343774D01*
X77607Y343521D01*
X77508Y343253D01*
X77438Y342985D01*
X77396Y342760D01*
X77382Y342661D01*
Y342576D01*
X77367Y342506D01*
Y342449D01*
Y342421D01*
Y342407D01*
Y342210D01*
X77396Y342026D01*
X77466Y341674D01*
X77565Y341378D01*
X77663Y341138D01*
X77776Y340941D01*
X77875Y340786D01*
X77917Y340744D01*
X77945Y340701D01*
X77959Y340687D01*
X77973Y340673D01*
X78086Y340560D01*
X78199Y340462D01*
X78453Y340293D01*
X78692Y340180D01*
X78932Y340109D01*
X79130Y340053D01*
X79299Y340039D01*
X79355Y340025D01*
X79440D01*
X79707Y340039D01*
X79947Y340095D01*
X80159Y340166D01*
X80328Y340250D01*
X80483Y340335D01*
X80596Y340405D01*
X80652Y340462D01*
X80680Y340476D01*
X80849Y340673D01*
X80990Y340885D01*
X81103Y341124D01*
X81188Y341336D01*
X81244Y341547D01*
X81286Y341702D01*
X81300Y341773D01*
X81314Y341815D01*
Y341843D01*
Y341857D01*
X82569Y341759D01*
X82541Y341533D01*
X82499Y341322D01*
X82372Y340927D01*
X82217Y340588D01*
X82132Y340434D01*
X82048Y340307D01*
X81977Y340180D01*
X81892Y340067D01*
X81822Y339982D01*
X81751Y339912D01*
X81695Y339855D01*
X81667Y339799D01*
X81639Y339785D01*
X81625Y339771D01*
X81455Y339644D01*
X81286Y339531D01*
X81103Y339433D01*
X80920Y339348D01*
X80567Y339221D01*
X80215Y339137D01*
X80060Y339094D01*
X79905Y339080D01*
X79778Y339066D01*
X79665Y339052D01*
X79566Y339038D01*
X79440D01*
X79144Y339052D01*
X78862Y339094D01*
X78594Y339151D01*
X78354Y339221D01*
X78129Y339320D01*
X77917Y339418D01*
X77720Y339517D01*
X77551Y339630D01*
X77396Y339743D01*
X77255Y339841D01*
X77142Y339954D01*
X77043Y340039D01*
X76973Y340109D01*
X76916Y340166D01*
X76888Y340208D01*
X76874Y340222D01*
X76733Y340405D01*
X76620Y340603D01*
X76507Y340786D01*
X76423Y340983D01*
X76282Y341364D01*
X76197Y341730D01*
X76169Y341885D01*
X76141Y342040D01*
X76127Y342167D01*
X76113Y342280D01*
X76099Y342379D01*
Y342449D01*
Y342492D01*
Y342506D01*
X76113Y342760D01*
X76141Y342999D01*
X76183Y343239D01*
X76240Y343450D01*
X76310Y343648D01*
X76381Y343845D01*
X76465Y344014D01*
X76536Y344169D01*
X76620Y344310D01*
X76705Y344437D01*
X76775Y344536D01*
X76846Y344634D01*
X76902Y344705D01*
X76944Y344747D01*
X76973Y344775D01*
X76987Y344789D01*
X77156Y344944D01*
X77325Y345085D01*
X77508Y345198D01*
X77692Y345297D01*
X77875Y345396D01*
X78058Y345466D01*
X78396Y345565D01*
X78552Y345607D01*
X78692Y345635D01*
X78819Y345649D01*
X78932Y345663D01*
X79017Y345677D01*
X79327D01*
X79496Y345649D01*
X79834Y345579D01*
X80145Y345480D01*
X80426Y345367D01*
X80652Y345255D01*
X80751Y345198D01*
X80835Y345156D01*
X80906Y345114D01*
X80948Y345085D01*
X80976Y345071D01*
X80990Y345057D01*
X80469Y347693D01*
X76564D01*
Y348835D01*
X81413D01*
X82358Y343817D01*
D02*
G37*
G36*
X91901Y343323D02*
Y343041D01*
X91887Y342774D01*
X91873Y342520D01*
X91845Y342280D01*
X91817Y342069D01*
X91789Y341871D01*
X91746Y341688D01*
X91718Y341519D01*
X91690Y341364D01*
X91648Y341237D01*
X91619Y341124D01*
X91591Y341040D01*
X91563Y340969D01*
X91549Y340913D01*
X91535Y340885D01*
Y340871D01*
X91380Y340560D01*
X91182Y340278D01*
X90985Y340053D01*
X90774Y339855D01*
X90590Y339700D01*
X90435Y339588D01*
X90379Y339559D01*
X90337Y339531D01*
X90308Y339503D01*
X90294D01*
X89942Y339348D01*
X89575Y339235D01*
X89195Y339151D01*
X88842Y339094D01*
X88687Y339080D01*
X88532Y339066D01*
X88391Y339052D01*
X88278D01*
X88180Y339038D01*
X88053D01*
X87545Y339066D01*
X87320Y339094D01*
X87108Y339122D01*
X86897Y339165D01*
X86714Y339207D01*
X86545Y339249D01*
X86389Y339306D01*
X86249Y339362D01*
X86136Y339404D01*
X86023Y339447D01*
X85938Y339489D01*
X85868Y339531D01*
X85826Y339545D01*
X85797Y339574D01*
X85783D01*
X85473Y339785D01*
X85219Y340025D01*
X85022Y340250D01*
X84853Y340476D01*
X84726Y340673D01*
X84641Y340828D01*
X84613Y340885D01*
X84585Y340927D01*
X84571Y340955D01*
Y340969D01*
X84515Y341138D01*
X84458Y341322D01*
X84374Y341702D01*
X84317Y342097D01*
X84275Y342477D01*
X84261Y342647D01*
X84247Y342816D01*
Y342957D01*
X84233Y343084D01*
Y343182D01*
Y343253D01*
Y343309D01*
Y343323D01*
Y348962D01*
X85529D01*
Y343323D01*
Y342999D01*
X85558Y342689D01*
X85586Y342421D01*
X85628Y342167D01*
X85670Y341942D01*
X85727Y341730D01*
X85769Y341547D01*
X85826Y341392D01*
X85882Y341265D01*
X85938Y341138D01*
X85995Y341054D01*
X86037Y340969D01*
X86079Y340913D01*
X86108Y340871D01*
X86122Y340856D01*
X86136Y340842D01*
X86263Y340729D01*
X86404Y340631D01*
X86714Y340476D01*
X87038Y340363D01*
X87376Y340293D01*
X87686Y340236D01*
X87813Y340222D01*
X87940D01*
X88025Y340208D01*
X88166D01*
X88462Y340222D01*
X88729Y340264D01*
X88983Y340307D01*
X89181Y340377D01*
X89350Y340434D01*
X89477Y340476D01*
X89547Y340518D01*
X89575Y340532D01*
X89773Y340659D01*
X89942Y340814D01*
X90083Y340969D01*
X90182Y341110D01*
X90266Y341251D01*
X90337Y341350D01*
X90365Y341420D01*
X90379Y341448D01*
X90421Y341575D01*
X90449Y341702D01*
X90506Y341998D01*
X90548Y342308D01*
X90576Y342618D01*
X90590Y342886D01*
Y343013D01*
X90604Y343112D01*
Y343196D01*
Y343267D01*
Y343309D01*
Y343323D01*
Y348962D01*
X91901D01*
Y343323D01*
D02*
G37*
G36*
X92845Y283323D02*
Y283041D01*
X92831Y282774D01*
X92817Y282520D01*
X92789Y282280D01*
X92760Y282069D01*
X92732Y281871D01*
X92690Y281688D01*
X92662Y281519D01*
X92633Y281364D01*
X92591Y281237D01*
X92563Y281124D01*
X92535Y281040D01*
X92507Y280969D01*
X92493Y280913D01*
X92479Y280885D01*
Y280870D01*
X92323Y280560D01*
X92126Y280278D01*
X91929Y280053D01*
X91717Y279855D01*
X91534Y279700D01*
X91379Y279588D01*
X91322Y279559D01*
X91280Y279531D01*
X91252Y279503D01*
X91238D01*
X90885Y279348D01*
X90519Y279235D01*
X90138Y279151D01*
X89786Y279094D01*
X89631Y279080D01*
X89476Y279066D01*
X89335Y279052D01*
X89222D01*
X89123Y279038D01*
X88996D01*
X88489Y279066D01*
X88264Y279094D01*
X88052Y279122D01*
X87840Y279165D01*
X87657Y279207D01*
X87488Y279249D01*
X87333Y279306D01*
X87192Y279362D01*
X87079Y279404D01*
X86966Y279447D01*
X86882Y279489D01*
X86812Y279531D01*
X86769Y279545D01*
X86741Y279573D01*
X86727D01*
X86417Y279785D01*
X86163Y280025D01*
X85966Y280250D01*
X85796Y280476D01*
X85670Y280673D01*
X85585Y280828D01*
X85557Y280885D01*
X85529Y280927D01*
X85514Y280955D01*
Y280969D01*
X85458Y281138D01*
X85402Y281322D01*
X85317Y281702D01*
X85261Y282097D01*
X85218Y282477D01*
X85204Y282647D01*
X85190Y282816D01*
Y282957D01*
X85176Y283084D01*
Y283182D01*
Y283253D01*
Y283309D01*
Y283323D01*
Y288962D01*
X86473D01*
Y283323D01*
Y282999D01*
X86501Y282689D01*
X86530Y282421D01*
X86572Y282167D01*
X86614Y281942D01*
X86671Y281730D01*
X86713Y281547D01*
X86769Y281392D01*
X86826Y281265D01*
X86882Y281138D01*
X86938Y281054D01*
X86981Y280969D01*
X87023Y280913D01*
X87051Y280870D01*
X87065Y280856D01*
X87079Y280842D01*
X87206Y280730D01*
X87347Y280631D01*
X87657Y280476D01*
X87982Y280363D01*
X88320Y280292D01*
X88630Y280236D01*
X88757Y280222D01*
X88884D01*
X88968Y280208D01*
X89109D01*
X89405Y280222D01*
X89673Y280264D01*
X89927Y280307D01*
X90124Y280377D01*
X90293Y280433D01*
X90420Y280476D01*
X90491Y280518D01*
X90519Y280532D01*
X90716Y280659D01*
X90885Y280814D01*
X91026Y280969D01*
X91125Y281110D01*
X91210Y281251D01*
X91280Y281350D01*
X91308Y281420D01*
X91322Y281448D01*
X91365Y281575D01*
X91393Y281702D01*
X91449Y281998D01*
X91492Y282308D01*
X91520Y282619D01*
X91534Y282886D01*
Y283013D01*
X91548Y283112D01*
Y283197D01*
Y283267D01*
Y283309D01*
Y283323D01*
Y288962D01*
X92845D01*
Y283323D01*
D02*
G37*
G36*
X83922Y282647D02*
Y281547D01*
X79678D01*
Y279207D01*
X78480D01*
Y281547D01*
X77155D01*
Y282647D01*
X78480D01*
Y288962D01*
X79453D01*
X83922Y282647D01*
D02*
G37*
G36*
X80884Y228955D02*
X81264Y228885D01*
X81588Y228772D01*
X81870Y228659D01*
X81997Y228589D01*
X82096Y228532D01*
X82195Y228476D01*
X82265Y228419D01*
X82322Y228377D01*
X82364Y228349D01*
X82392Y228335D01*
X82406Y228321D01*
X82674Y228053D01*
X82886Y227757D01*
X83055Y227447D01*
X83196Y227137D01*
X83280Y226869D01*
X83322Y226756D01*
X83351Y226657D01*
X83365Y226573D01*
X83379Y226516D01*
X83393Y226474D01*
Y226460D01*
X82195Y226248D01*
X82138Y226559D01*
X82054Y226826D01*
X81955Y227052D01*
X81856Y227235D01*
X81758Y227376D01*
X81673Y227475D01*
X81617Y227545D01*
X81603Y227560D01*
X81419Y227701D01*
X81222Y227813D01*
X81039Y227884D01*
X80856Y227940D01*
X80686Y227968D01*
X80560Y227997D01*
X80447D01*
X80193Y227982D01*
X79967Y227926D01*
X79770Y227856D01*
X79601Y227785D01*
X79474Y227701D01*
X79375Y227630D01*
X79305Y227574D01*
X79291Y227560D01*
X79136Y227390D01*
X79023Y227207D01*
X78952Y227024D01*
X78896Y226855D01*
X78868Y226700D01*
X78840Y226587D01*
Y226502D01*
Y226488D01*
Y226474D01*
Y226319D01*
X78868Y226178D01*
X78938Y225938D01*
X79037Y225727D01*
X79150Y225544D01*
X79262Y225417D01*
X79361Y225318D01*
X79432Y225262D01*
X79446Y225248D01*
X79460D01*
X79700Y225121D01*
X79925Y225022D01*
X80165Y224952D01*
X80376Y224909D01*
X80560Y224881D01*
X80715Y224853D01*
X80898D01*
X80954Y224867D01*
X81025D01*
X81166Y223810D01*
X80982Y223852D01*
X80813Y223880D01*
X80672Y223908D01*
X80545Y223923D01*
X80447Y223937D01*
X80320D01*
X80024Y223908D01*
X79756Y223852D01*
X79516Y223767D01*
X79319Y223669D01*
X79164Y223570D01*
X79051Y223486D01*
X78981Y223429D01*
X78952Y223401D01*
X78769Y223189D01*
X78628Y222964D01*
X78530Y222738D01*
X78473Y222513D01*
X78431Y222330D01*
X78417Y222174D01*
X78403Y222118D01*
Y222076D01*
Y222048D01*
Y222034D01*
X78431Y221723D01*
X78501Y221441D01*
X78586Y221202D01*
X78699Y220990D01*
X78811Y220821D01*
X78896Y220694D01*
X78966Y220610D01*
X78995Y220581D01*
X79220Y220384D01*
X79460Y220243D01*
X79700Y220145D01*
X79925Y220074D01*
X80122Y220032D01*
X80278Y220018D01*
X80334Y220004D01*
X80419D01*
X80672Y220018D01*
X80912Y220074D01*
X81123Y220145D01*
X81292Y220229D01*
X81433Y220300D01*
X81546Y220370D01*
X81603Y220426D01*
X81631Y220441D01*
X81800Y220638D01*
X81941Y220863D01*
X82068Y221103D01*
X82167Y221357D01*
X82237Y221568D01*
X82265Y221667D01*
X82279Y221752D01*
X82293Y221822D01*
X82308Y221878D01*
X82322Y221907D01*
Y221921D01*
X83520Y221766D01*
X83492Y221540D01*
X83449Y221329D01*
X83322Y220934D01*
X83167Y220596D01*
X83083Y220455D01*
X82998Y220314D01*
X82914Y220187D01*
X82829Y220088D01*
X82759Y219989D01*
X82688Y219919D01*
X82646Y219863D01*
X82604Y219820D01*
X82575Y219792D01*
X82561Y219778D01*
X82392Y219651D01*
X82223Y219524D01*
X82054Y219426D01*
X81870Y219341D01*
X81518Y219200D01*
X81180Y219115D01*
X81025Y219087D01*
X80884Y219059D01*
X80757Y219045D01*
X80644Y219031D01*
X80560Y219017D01*
X80433D01*
X80165Y219031D01*
X79925Y219059D01*
X79685Y219101D01*
X79460Y219158D01*
X79248Y219228D01*
X79065Y219299D01*
X78882Y219383D01*
X78727Y219468D01*
X78572Y219538D01*
X78445Y219623D01*
X78332Y219693D01*
X78247Y219764D01*
X78177Y219820D01*
X78121Y219863D01*
X78092Y219891D01*
X78078Y219905D01*
X77909Y220074D01*
X77768Y220257D01*
X77641Y220441D01*
X77529Y220624D01*
X77444Y220793D01*
X77359Y220976D01*
X77247Y221315D01*
X77218Y221470D01*
X77190Y221611D01*
X77162Y221737D01*
X77148Y221850D01*
X77134Y221935D01*
Y222005D01*
Y222048D01*
Y222062D01*
X77148Y222400D01*
X77204Y222710D01*
X77289Y222978D01*
X77373Y223204D01*
X77458Y223387D01*
X77543Y223528D01*
X77599Y223612D01*
X77613Y223640D01*
X77811Y223852D01*
X78022Y224035D01*
X78247Y224176D01*
X78473Y224289D01*
X78671Y224374D01*
X78825Y224430D01*
X78882Y224444D01*
X78924Y224458D01*
X78952Y224472D01*
X78966D01*
X78727Y224599D01*
X78530Y224726D01*
X78360Y224867D01*
X78219Y224994D01*
X78107Y225107D01*
X78022Y225205D01*
X77980Y225262D01*
X77966Y225290D01*
X77853Y225487D01*
X77768Y225685D01*
X77698Y225882D01*
X77656Y226065D01*
X77627Y226220D01*
X77613Y226333D01*
Y226418D01*
Y226446D01*
X77627Y226686D01*
X77670Y226925D01*
X77726Y227137D01*
X77796Y227320D01*
X77867Y227475D01*
X77923Y227602D01*
X77966Y227672D01*
X77980Y227701D01*
X78121Y227912D01*
X78290Y228095D01*
X78459Y228250D01*
X78628Y228391D01*
X78769Y228490D01*
X78896Y228575D01*
X78981Y228617D01*
X78995Y228631D01*
X79009D01*
X79262Y228744D01*
X79516Y228828D01*
X79770Y228899D01*
X79996Y228941D01*
X80179Y228969D01*
X80334Y228983D01*
X80686D01*
X80884Y228955D01*
D02*
G37*
G36*
X92866Y223302D02*
Y223020D01*
X92852Y222752D01*
X92838Y222499D01*
X92810Y222259D01*
X92782Y222048D01*
X92753Y221850D01*
X92711Y221667D01*
X92683Y221498D01*
X92655Y221343D01*
X92612Y221216D01*
X92584Y221103D01*
X92556Y221019D01*
X92528Y220948D01*
X92514Y220892D01*
X92500Y220863D01*
Y220849D01*
X92345Y220539D01*
X92147Y220257D01*
X91950Y220032D01*
X91738Y219834D01*
X91555Y219679D01*
X91400Y219566D01*
X91344Y219538D01*
X91301Y219510D01*
X91273Y219482D01*
X91259D01*
X90907Y219327D01*
X90540Y219214D01*
X90160Y219130D01*
X89807Y219073D01*
X89652Y219059D01*
X89497Y219045D01*
X89356Y219031D01*
X89243D01*
X89144Y219017D01*
X89018D01*
X88510Y219045D01*
X88285Y219073D01*
X88073Y219101D01*
X87862Y219144D01*
X87678Y219186D01*
X87509Y219228D01*
X87354Y219285D01*
X87213Y219341D01*
X87100Y219383D01*
X86988Y219426D01*
X86903Y219468D01*
X86833Y219510D01*
X86790Y219524D01*
X86762Y219552D01*
X86748D01*
X86438Y219764D01*
X86184Y220004D01*
X85987Y220229D01*
X85818Y220455D01*
X85691Y220652D01*
X85606Y220807D01*
X85578Y220863D01*
X85550Y220906D01*
X85536Y220934D01*
Y220948D01*
X85479Y221117D01*
X85423Y221300D01*
X85338Y221681D01*
X85282Y222076D01*
X85240Y222456D01*
X85226Y222626D01*
X85211Y222795D01*
Y222936D01*
X85197Y223063D01*
Y223161D01*
Y223232D01*
Y223288D01*
Y223302D01*
Y228941D01*
X86494D01*
Y223302D01*
Y222978D01*
X86523Y222668D01*
X86551Y222400D01*
X86593Y222146D01*
X86635Y221921D01*
X86692Y221709D01*
X86734Y221526D01*
X86790Y221371D01*
X86847Y221244D01*
X86903Y221117D01*
X86959Y221033D01*
X87002Y220948D01*
X87044Y220892D01*
X87072Y220849D01*
X87086Y220835D01*
X87100Y220821D01*
X87227Y220708D01*
X87368Y220610D01*
X87678Y220455D01*
X88003Y220342D01*
X88341Y220271D01*
X88651Y220215D01*
X88778Y220201D01*
X88905D01*
X88989Y220187D01*
X89130D01*
X89426Y220201D01*
X89694Y220243D01*
X89948Y220285D01*
X90145Y220356D01*
X90315Y220412D01*
X90441Y220455D01*
X90512Y220497D01*
X90540Y220511D01*
X90737Y220638D01*
X90907Y220793D01*
X91048Y220948D01*
X91146Y221089D01*
X91231Y221230D01*
X91301Y221329D01*
X91330Y221399D01*
X91344Y221427D01*
X91386Y221554D01*
X91414Y221681D01*
X91470Y221977D01*
X91513Y222287D01*
X91541Y222597D01*
X91555Y222865D01*
Y222992D01*
X91569Y223091D01*
Y223175D01*
Y223246D01*
Y223288D01*
Y223302D01*
Y228941D01*
X92866D01*
Y223302D01*
D02*
G37*
G36*
X182738Y398817D02*
X181611Y398662D01*
X181512Y398817D01*
X181385Y398944D01*
X181272Y399071D01*
X181159Y399169D01*
X181047Y399240D01*
X180962Y399310D01*
X180906Y399338D01*
X180892Y399352D01*
X180708Y399437D01*
X180525Y399507D01*
X180356Y399550D01*
X180187Y399592D01*
X180046Y399606D01*
X179933Y399620D01*
X179665D01*
X179496Y399592D01*
X179200Y399522D01*
X178946Y399423D01*
X178721Y399324D01*
X178552Y399211D01*
X178425Y399113D01*
X178354Y399042D01*
X178326Y399028D01*
Y399014D01*
X178129Y398774D01*
X177988Y398521D01*
X177889Y398253D01*
X177818Y397985D01*
X177776Y397760D01*
X177762Y397661D01*
Y397576D01*
X177748Y397506D01*
Y397449D01*
Y397421D01*
Y397407D01*
Y397210D01*
X177776Y397026D01*
X177847Y396674D01*
X177945Y396378D01*
X178044Y396138D01*
X178157Y395941D01*
X178255Y395786D01*
X178298Y395744D01*
X178326Y395701D01*
X178340Y395687D01*
X178354Y395673D01*
X178467Y395560D01*
X178580Y395462D01*
X178833Y395293D01*
X179073Y395180D01*
X179313Y395109D01*
X179510Y395053D01*
X179679Y395039D01*
X179736Y395025D01*
X179820D01*
X180088Y395039D01*
X180328Y395095D01*
X180539Y395166D01*
X180708Y395250D01*
X180863Y395335D01*
X180976Y395405D01*
X181033Y395462D01*
X181061Y395476D01*
X181230Y395673D01*
X181371Y395885D01*
X181484Y396124D01*
X181568Y396336D01*
X181625Y396547D01*
X181667Y396702D01*
X181681Y396773D01*
X181695Y396815D01*
Y396843D01*
Y396857D01*
X182950Y396759D01*
X182922Y396533D01*
X182879Y396322D01*
X182752Y395927D01*
X182597Y395588D01*
X182513Y395433D01*
X182428Y395307D01*
X182358Y395180D01*
X182273Y395067D01*
X182203Y394982D01*
X182132Y394912D01*
X182076Y394855D01*
X182048Y394799D01*
X182019Y394785D01*
X182005Y394771D01*
X181836Y394644D01*
X181667Y394531D01*
X181484Y394433D01*
X181300Y394348D01*
X180948Y394221D01*
X180595Y394137D01*
X180441Y394094D01*
X180285Y394080D01*
X180159Y394066D01*
X180046Y394052D01*
X179947Y394038D01*
X179820D01*
X179524Y394052D01*
X179242Y394094D01*
X178974Y394151D01*
X178735Y394221D01*
X178509Y394320D01*
X178298Y394418D01*
X178100Y394517D01*
X177931Y394630D01*
X177776Y394743D01*
X177635Y394841D01*
X177522Y394954D01*
X177424Y395039D01*
X177353Y395109D01*
X177297Y395166D01*
X177269Y395208D01*
X177255Y395222D01*
X177114Y395405D01*
X177001Y395603D01*
X176888Y395786D01*
X176803Y395983D01*
X176663Y396364D01*
X176578Y396730D01*
X176550Y396885D01*
X176521Y397040D01*
X176507Y397167D01*
X176493Y397280D01*
X176479Y397379D01*
Y397449D01*
Y397492D01*
Y397506D01*
X176493Y397760D01*
X176521Y397999D01*
X176564Y398239D01*
X176620Y398450D01*
X176691Y398648D01*
X176761Y398845D01*
X176846Y399014D01*
X176916Y399169D01*
X177001Y399310D01*
X177085Y399437D01*
X177156Y399536D01*
X177226Y399634D01*
X177283Y399705D01*
X177325Y399747D01*
X177353Y399775D01*
X177367Y399789D01*
X177537Y399944D01*
X177706Y400085D01*
X177889Y400198D01*
X178072Y400297D01*
X178255Y400396D01*
X178439Y400466D01*
X178777Y400565D01*
X178932Y400607D01*
X179073Y400635D01*
X179200Y400649D01*
X179313Y400663D01*
X179397Y400677D01*
X179707D01*
X179877Y400649D01*
X180215Y400579D01*
X180525Y400480D01*
X180807Y400367D01*
X181033Y400255D01*
X181131Y400198D01*
X181216Y400156D01*
X181286Y400114D01*
X181329Y400085D01*
X181357Y400071D01*
X181371Y400057D01*
X180849Y402693D01*
X176944D01*
Y403835D01*
X181794D01*
X182738Y398817D01*
D02*
G37*
G36*
X191521Y402806D02*
X188307D01*
Y394207D01*
X187010D01*
Y402806D01*
X183796D01*
Y403962D01*
X191521D01*
Y402806D01*
D02*
G37*
G36*
X192464Y344722D02*
X189250D01*
Y336122D01*
X187953D01*
Y344722D01*
X184739D01*
Y345878D01*
X192464D01*
Y344722D01*
D02*
G37*
G36*
X184302Y339562D02*
Y338462D01*
X180059D01*
Y336122D01*
X178861D01*
Y338462D01*
X177536D01*
Y339562D01*
X178861D01*
Y345878D01*
X179833D01*
X184302Y339562D01*
D02*
G37*
G36*
X175891Y284885D02*
X176130Y284870D01*
X176356Y284828D01*
X176567Y284786D01*
X176765Y284730D01*
X176948Y284673D01*
X177117Y284603D01*
X177272Y284532D01*
X177413Y284462D01*
X177526Y284391D01*
X177625Y284335D01*
X177709Y284279D01*
X177780Y284236D01*
X177822Y284194D01*
X177850Y284180D01*
X177864Y284166D01*
X178005Y284025D01*
X178132Y283870D01*
X178259Y283701D01*
X178358Y283531D01*
X178527Y283193D01*
X178640Y282855D01*
X178682Y282700D01*
X178724Y282544D01*
X178752Y282418D01*
X178781Y282305D01*
X178795Y282206D01*
Y282136D01*
X178809Y282093D01*
Y282079D01*
X177582Y281952D01*
X177554Y282277D01*
X177498Y282559D01*
X177413Y282812D01*
X177314Y283010D01*
X177230Y283179D01*
X177145Y283292D01*
X177089Y283362D01*
X177061Y283390D01*
X176849Y283559D01*
X176624Y283686D01*
X176384Y283785D01*
X176173Y283841D01*
X175975Y283884D01*
X175806Y283898D01*
X175750Y283912D01*
X175665D01*
X175369Y283898D01*
X175101Y283841D01*
X174876Y283757D01*
X174678Y283672D01*
X174523Y283574D01*
X174425Y283503D01*
X174354Y283447D01*
X174326Y283419D01*
X174157Y283221D01*
X174030Y283024D01*
X173931Y282826D01*
X173875Y282629D01*
X173832Y282474D01*
X173818Y282333D01*
X173804Y282248D01*
Y282234D01*
Y282220D01*
X173832Y281966D01*
X173889Y281699D01*
X173988Y281459D01*
X174086Y281234D01*
X174199Y281050D01*
X174298Y280895D01*
X174326Y280839D01*
X174354Y280797D01*
X174382Y280782D01*
Y280768D01*
X174495Y280613D01*
X174636Y280458D01*
X174791Y280289D01*
X174960Y280120D01*
X175313Y279781D01*
X175665Y279443D01*
X175848Y279288D01*
X176003Y279147D01*
X176159Y279020D01*
X176285Y278908D01*
X176384Y278823D01*
X176469Y278752D01*
X176525Y278710D01*
X176539Y278696D01*
X176892Y278400D01*
X177216Y278118D01*
X177484Y277864D01*
X177695Y277653D01*
X177878Y277470D01*
X178005Y277343D01*
X178076Y277258D01*
X178104Y277244D01*
Y277230D01*
X178301Y276990D01*
X178456Y276765D01*
X178597Y276539D01*
X178710Y276342D01*
X178795Y276173D01*
X178851Y276046D01*
X178879Y275961D01*
X178893Y275947D01*
Y275933D01*
X178950Y275778D01*
X178978Y275637D01*
X179006Y275496D01*
X179020Y275369D01*
X179034Y275256D01*
Y275172D01*
Y275115D01*
Y275101D01*
X172564D01*
Y276257D01*
X177371D01*
X177202Y276497D01*
X177117Y276596D01*
X177047Y276694D01*
X176976Y276779D01*
X176920Y276835D01*
X176877Y276877D01*
X176863Y276892D01*
X176793Y276962D01*
X176708Y277033D01*
X176511Y277216D01*
X176285Y277427D01*
X176046Y277639D01*
X175820Y277822D01*
X175721Y277907D01*
X175637Y277991D01*
X175567Y278048D01*
X175510Y278090D01*
X175482Y278118D01*
X175468Y278132D01*
X175242Y278330D01*
X175017Y278513D01*
X174819Y278696D01*
X174636Y278851D01*
X174467Y279006D01*
X174326Y279147D01*
X174185Y279274D01*
X174072Y279387D01*
X173959Y279500D01*
X173875Y279584D01*
X173804Y279655D01*
X173734Y279725D01*
X173663Y279810D01*
X173635Y279838D01*
X173438Y280077D01*
X173269Y280289D01*
X173128Y280501D01*
X173015Y280670D01*
X172930Y280825D01*
X172874Y280938D01*
X172846Y281008D01*
X172832Y281036D01*
X172747Y281248D01*
X172691Y281459D01*
X172634Y281656D01*
X172606Y281826D01*
X172592Y281981D01*
X172578Y282093D01*
Y282164D01*
Y282192D01*
X172592Y282404D01*
X172620Y282601D01*
X172648Y282798D01*
X172705Y282967D01*
X172846Y283306D01*
X172987Y283574D01*
X173071Y283701D01*
X173142Y283799D01*
X173212Y283898D01*
X173283Y283968D01*
X173339Y284025D01*
X173367Y284081D01*
X173396Y284095D01*
X173410Y284109D01*
X173565Y284250D01*
X173734Y284377D01*
X173917Y284476D01*
X174100Y284560D01*
X174467Y284701D01*
X174833Y284800D01*
X174988Y284828D01*
X175144Y284856D01*
X175285Y284870D01*
X175397Y284885D01*
X175496Y284899D01*
X175637D01*
X175891Y284885D01*
D02*
G37*
G36*
X187436Y283701D02*
X184222D01*
Y275101D01*
X182925D01*
Y283701D01*
X179711D01*
Y284856D01*
X187436D01*
Y283701D01*
D02*
G37*
G36*
X167375Y223659D02*
X167530Y223433D01*
X167714Y223208D01*
X167883Y223011D01*
X168052Y222841D01*
X168179Y222701D01*
X168235Y222658D01*
X168277Y222616D01*
X168292Y222602D01*
X168306Y222588D01*
X168602Y222348D01*
X168898Y222122D01*
X169180Y221925D01*
X169462Y221770D01*
X169701Y221629D01*
X169800Y221573D01*
X169885Y221530D01*
X169955Y221488D01*
X170011Y221474D01*
X170040Y221446D01*
X170054D01*
Y220290D01*
X169842Y220375D01*
X169631Y220473D01*
X169419Y220572D01*
X169222Y220671D01*
X169053Y220755D01*
X168912Y220826D01*
X168827Y220882D01*
X168813Y220896D01*
X168799D01*
X168545Y221051D01*
X168320Y221206D01*
X168122Y221347D01*
X167967Y221474D01*
X167826Y221573D01*
X167742Y221657D01*
X167671Y221714D01*
X167657Y221728D01*
Y214101D01*
X166459D01*
Y223899D01*
X167234D01*
X167375Y223659D01*
D02*
G37*
G36*
X179541Y222701D02*
X176327D01*
Y214101D01*
X175030D01*
Y222701D01*
X171816D01*
Y223856D01*
X179541D01*
Y222701D01*
D02*
G37*
G36*
X211814Y170576D02*
X207486D01*
Y168913D01*
X207500Y168758D01*
Y168645D01*
X207514Y168546D01*
X207529Y168476D01*
Y168419D01*
X207543Y168391D01*
Y168377D01*
X207613Y168152D01*
X207656Y168053D01*
X207698Y167968D01*
X207740Y167884D01*
X207768Y167827D01*
X207782Y167799D01*
X207796Y167785D01*
X207881Y167672D01*
X207980Y167560D01*
X208191Y167348D01*
X208290Y167249D01*
X208374Y167179D01*
X208431Y167137D01*
X208445Y167122D01*
X208642Y166982D01*
X208854Y166826D01*
X209079Y166671D01*
X209291Y166516D01*
X209488Y166389D01*
X209643Y166291D01*
X209700Y166248D01*
X209742Y166220D01*
X209770Y166192D01*
X209784D01*
X211814Y164909D01*
Y163302D01*
X209164Y164980D01*
X208882Y165177D01*
X208628Y165360D01*
X208417Y165544D01*
X208219Y165699D01*
X208078Y165840D01*
X207966Y165952D01*
X207895Y166023D01*
X207867Y166051D01*
X207782Y166164D01*
X207684Y166291D01*
X207529Y166544D01*
X207472Y166657D01*
X207416Y166742D01*
X207388Y166798D01*
X207374Y166826D01*
X207331Y166573D01*
X207289Y166333D01*
X207218Y166122D01*
X207162Y165910D01*
X207092Y165727D01*
X207007Y165558D01*
X206936Y165403D01*
X206866Y165262D01*
X206782Y165149D01*
X206711Y165036D01*
X206655Y164951D01*
X206598Y164881D01*
X206556Y164825D01*
X206514Y164782D01*
X206500Y164768D01*
X206485Y164754D01*
X206345Y164641D01*
X206203Y164529D01*
X205907Y164359D01*
X205611Y164247D01*
X205329Y164162D01*
X205090Y164106D01*
X204991Y164092D01*
X204893D01*
X204822Y164077D01*
X204766D01*
X204737D01*
X204723D01*
X204427Y164092D01*
X204159Y164134D01*
X203906Y164204D01*
X203694Y164275D01*
X203511Y164359D01*
X203370Y164416D01*
X203285Y164472D01*
X203271Y164486D01*
X203257D01*
X203032Y164655D01*
X202834Y164825D01*
X202665Y165008D01*
X202538Y165177D01*
X202440Y165332D01*
X202383Y165459D01*
X202341Y165544D01*
X202327Y165558D01*
Y165572D01*
X202285Y165699D01*
X202242Y165854D01*
X202172Y166164D01*
X202129Y166502D01*
X202087Y166812D01*
X202073Y167108D01*
Y167235D01*
X202059Y167348D01*
Y171873D01*
X211814D01*
Y170576D01*
D02*
G37*
G36*
X209234Y162541D02*
X209460Y162513D01*
X209671Y162470D01*
X209883Y162414D01*
X210235Y162273D01*
X210404Y162203D01*
X210545Y162118D01*
X210686Y162034D01*
X210799Y161963D01*
X210898Y161878D01*
X210982Y161822D01*
X211053Y161766D01*
X211095Y161723D01*
X211123Y161695D01*
X211137Y161681D01*
X211292Y161512D01*
X211419Y161329D01*
X211532Y161131D01*
X211631Y160934D01*
X211701Y160751D01*
X211772Y160553D01*
X211870Y160173D01*
X211913Y160004D01*
X211941Y159848D01*
X211955Y159707D01*
X211969Y159581D01*
X211983Y159482D01*
Y159341D01*
X211969Y159073D01*
X211941Y158833D01*
X211899Y158594D01*
X211856Y158368D01*
X211786Y158171D01*
X211715Y157973D01*
X211645Y157790D01*
X211560Y157635D01*
X211476Y157494D01*
X211405Y157367D01*
X211335Y157269D01*
X211264Y157170D01*
X211222Y157100D01*
X211180Y157057D01*
X211152Y157029D01*
X211137Y157015D01*
X210968Y156860D01*
X210799Y156719D01*
X210630Y156606D01*
X210447Y156507D01*
X210278Y156409D01*
X210094Y156338D01*
X209770Y156240D01*
X209615Y156197D01*
X209474Y156169D01*
X209347Y156155D01*
X209249Y156141D01*
X209164Y156127D01*
X209093D01*
X209051D01*
X209037D01*
X208713Y156141D01*
X208417Y156197D01*
X208149Y156282D01*
X207923Y156367D01*
X207740Y156451D01*
X207599Y156536D01*
X207514Y156592D01*
X207500Y156606D01*
X207486D01*
X207261Y156804D01*
X207063Y157015D01*
X206908Y157240D01*
X206767Y157452D01*
X206669Y157649D01*
X206598Y157818D01*
X206570Y157875D01*
X206556Y157917D01*
X206542Y157945D01*
Y157959D01*
X206429Y157706D01*
X206302Y157494D01*
X206175Y157311D01*
X206048Y157156D01*
X205936Y157043D01*
X205851Y156959D01*
X205795Y156902D01*
X205767Y156888D01*
X205569Y156761D01*
X205372Y156677D01*
X205174Y156606D01*
X204977Y156564D01*
X204822Y156536D01*
X204695Y156522D01*
X204611D01*
X204596D01*
X204582D01*
X204385Y156536D01*
X204202Y156550D01*
X203849Y156648D01*
X203539Y156775D01*
X203271Y156916D01*
X203060Y157057D01*
X202975Y157128D01*
X202891Y157184D01*
X202834Y157240D01*
X202792Y157283D01*
X202778Y157297D01*
X202764Y157311D01*
X202637Y157466D01*
X202510Y157621D01*
X202411Y157790D01*
X202327Y157959D01*
X202200Y158298D01*
X202115Y158636D01*
X202073Y158777D01*
X202059Y158918D01*
X202045Y159045D01*
X202031Y159158D01*
X202017Y159242D01*
Y159369D01*
X202031Y159595D01*
X202045Y159820D01*
X202129Y160215D01*
X202186Y160398D01*
X202242Y160567D01*
X202313Y160722D01*
X202383Y160863D01*
X202454Y160976D01*
X202524Y161089D01*
X202581Y161188D01*
X202637Y161258D01*
X202679Y161315D01*
X202722Y161357D01*
X202736Y161385D01*
X202750Y161399D01*
X202891Y161526D01*
X203032Y161653D01*
X203187Y161751D01*
X203342Y161836D01*
X203638Y161977D01*
X203920Y162062D01*
X204159Y162118D01*
X204272Y162132D01*
X204357Y162146D01*
X204441Y162160D01*
X204498D01*
X204526D01*
X204540D01*
X204794Y162146D01*
X205033Y162104D01*
X205245Y162048D01*
X205428Y161977D01*
X205569Y161921D01*
X205682Y161864D01*
X205738Y161822D01*
X205767Y161808D01*
X205936Y161653D01*
X206091Y161484D01*
X206232Y161300D01*
X206345Y161117D01*
X206429Y160948D01*
X206485Y160821D01*
X206514Y160765D01*
X206528Y160722D01*
X206542Y160708D01*
Y160694D01*
X206640Y161019D01*
X206767Y161286D01*
X206922Y161526D01*
X207063Y161723D01*
X207204Y161878D01*
X207317Y161991D01*
X207388Y162048D01*
X207402Y162076D01*
X207416D01*
X207670Y162231D01*
X207937Y162358D01*
X208191Y162442D01*
X208445Y162499D01*
X208671Y162527D01*
X208769Y162541D01*
X208854D01*
X208910Y162555D01*
X208967D01*
X208995D01*
X209009D01*
X209234Y162541D01*
D02*
G37*
G36*
X166597Y136852D02*
X166837Y136824D01*
X167077Y136782D01*
X167288Y136739D01*
X167486Y136669D01*
X167683Y136598D01*
X167852Y136528D01*
X168007Y136443D01*
X168148Y136359D01*
X168275Y136288D01*
X168374Y136218D01*
X168472Y136147D01*
X168543Y136105D01*
X168585Y136063D01*
X168613Y136034D01*
X168627Y136020D01*
X168782Y135865D01*
X168923Y135696D01*
X169036Y135513D01*
X169135Y135344D01*
X169233Y135175D01*
X169304Y135005D01*
X169403Y134681D01*
X169445Y134540D01*
X169473Y134399D01*
X169487Y134286D01*
X169501Y134174D01*
X169515Y134089D01*
Y133976D01*
X169501Y133722D01*
X169459Y133483D01*
X169417Y133257D01*
X169360Y133060D01*
X169290Y132891D01*
X169248Y132764D01*
X169205Y132679D01*
X169191Y132665D01*
Y132651D01*
X169050Y132426D01*
X168895Y132228D01*
X168740Y132045D01*
X168571Y131904D01*
X168430Y131777D01*
X168317Y131678D01*
X168233Y131622D01*
X168218Y131608D01*
X168472D01*
X168726Y131622D01*
X168952Y131636D01*
X169177Y131664D01*
X169375Y131678D01*
X169558Y131707D01*
X169727Y131735D01*
X169882Y131777D01*
X170023Y131805D01*
X170136Y131833D01*
X170234Y131862D01*
X170319Y131876D01*
X170375Y131904D01*
X170418Y131918D01*
X170446Y131932D01*
X170460D01*
X170742Y132073D01*
X170996Y132214D01*
X171193Y132369D01*
X171362Y132510D01*
X171503Y132637D01*
X171602Y132736D01*
X171658Y132806D01*
X171672Y132834D01*
X171785Y133004D01*
X171856Y133173D01*
X171912Y133342D01*
X171954Y133511D01*
X171982Y133638D01*
X171996Y133751D01*
Y133849D01*
X171968Y134103D01*
X171912Y134343D01*
X171827Y134540D01*
X171743Y134723D01*
X171644Y134864D01*
X171560Y134963D01*
X171503Y135019D01*
X171475Y135048D01*
X171348Y135146D01*
X171193Y135245D01*
X171024Y135330D01*
X170855Y135386D01*
X170700Y135442D01*
X170573Y135485D01*
X170488Y135499D01*
X170474Y135513D01*
X170460D01*
X170559Y136711D01*
X170953Y136627D01*
X171306Y136500D01*
X171616Y136359D01*
X171870Y136204D01*
X172067Y136048D01*
X172152Y135992D01*
X172222Y135922D01*
X172264Y135879D01*
X172307Y135837D01*
X172321Y135823D01*
X172335Y135809D01*
X172448Y135668D01*
X172546Y135513D01*
X172715Y135203D01*
X172828Y134893D01*
X172899Y134597D01*
X172955Y134329D01*
X172969Y134216D01*
Y134117D01*
X172983Y134033D01*
Y133920D01*
X172969Y133638D01*
X172941Y133370D01*
X172885Y133116D01*
X172814Y132877D01*
X172715Y132665D01*
X172631Y132454D01*
X172518Y132270D01*
X172419Y132101D01*
X172321Y131960D01*
X172208Y131819D01*
X172123Y131707D01*
X172039Y131622D01*
X171954Y131552D01*
X171898Y131495D01*
X171870Y131467D01*
X171856Y131453D01*
X171602Y131270D01*
X171306Y131115D01*
X170996Y130974D01*
X170671Y130847D01*
X170333Y130748D01*
X169995Y130663D01*
X169642Y130593D01*
X169318Y130537D01*
X168994Y130494D01*
X168698Y130466D01*
X168430Y130438D01*
X168204Y130424D01*
X168007D01*
X167866Y130410D01*
X167810D01*
X167767D01*
X167753D01*
X167739D01*
X167288Y130424D01*
X166865Y130452D01*
X166471Y130494D01*
X166104Y130565D01*
X165780Y130635D01*
X165484Y130706D01*
X165216Y130790D01*
X164976Y130889D01*
X164779Y130974D01*
X164596Y131058D01*
X164455Y131129D01*
X164328Y131213D01*
X164229Y131270D01*
X164173Y131312D01*
X164130Y131340D01*
X164116Y131354D01*
X163919Y131538D01*
X163750Y131735D01*
X163609Y131932D01*
X163482Y132129D01*
X163369Y132341D01*
X163285Y132538D01*
X163214Y132736D01*
X163158Y132933D01*
X163115Y133102D01*
X163073Y133271D01*
X163045Y133412D01*
X163031Y133539D01*
Y133652D01*
X163017Y133722D01*
Y133793D01*
X163031Y134117D01*
X163087Y134413D01*
X163144Y134681D01*
X163228Y134921D01*
X163299Y135104D01*
X163369Y135245D01*
X163383Y135301D01*
X163411Y135344D01*
X163426Y135358D01*
Y135372D01*
X163595Y135611D01*
X163792Y135837D01*
X163989Y136020D01*
X164187Y136175D01*
X164370Y136302D01*
X164511Y136387D01*
X164567Y136415D01*
X164610Y136443D01*
X164624Y136457D01*
X164638D01*
X164934Y136598D01*
X165244Y136697D01*
X165526Y136767D01*
X165794Y136810D01*
X166019Y136852D01*
X166104D01*
X166189Y136866D01*
X166259D01*
X166301D01*
X166329D01*
X166344D01*
X166597Y136852D01*
D02*
G37*
G36*
X165836Y128027D02*
X166118Y127830D01*
X166372Y127647D01*
X166583Y127463D01*
X166781Y127308D01*
X166922Y127167D01*
X167034Y127055D01*
X167105Y126984D01*
X167133Y126956D01*
X167218Y126843D01*
X167316Y126716D01*
X167471Y126462D01*
X167528Y126350D01*
X167584Y126265D01*
X167612Y126209D01*
X167626Y126181D01*
X167669Y126434D01*
X167711Y126674D01*
X167782Y126885D01*
X167838Y127097D01*
X167908Y127280D01*
X167993Y127449D01*
X168063Y127604D01*
X168134Y127745D01*
X168218Y127858D01*
X168289Y127971D01*
X168345Y128055D01*
X168402Y128126D01*
X168444Y128182D01*
X168486Y128225D01*
X168500Y128239D01*
X168514Y128253D01*
X168655Y128366D01*
X168797Y128478D01*
X169093Y128648D01*
X169389Y128760D01*
X169671Y128845D01*
X169910Y128901D01*
X170009Y128915D01*
X170107D01*
X170178Y128930D01*
X170234D01*
X170263D01*
X170277D01*
X170573Y128915D01*
X170841Y128873D01*
X171094Y128803D01*
X171306Y128732D01*
X171489Y128648D01*
X171630Y128591D01*
X171715Y128535D01*
X171729Y128521D01*
X171743D01*
X171968Y128351D01*
X172166Y128182D01*
X172335Y127999D01*
X172462Y127830D01*
X172560Y127675D01*
X172617Y127548D01*
X172659Y127463D01*
X172673Y127449D01*
Y127435D01*
X172715Y127308D01*
X172758Y127153D01*
X172828Y126843D01*
X172871Y126505D01*
X172913Y126195D01*
X172927Y125899D01*
Y125772D01*
X172941Y125659D01*
Y121134D01*
X163186D01*
Y122431D01*
X167514D01*
Y124094D01*
X167500Y124249D01*
Y124362D01*
X167486Y124461D01*
X167471Y124531D01*
Y124588D01*
X167457Y124616D01*
Y124630D01*
X167387Y124855D01*
X167344Y124954D01*
X167302Y125039D01*
X167260Y125123D01*
X167232Y125180D01*
X167218Y125208D01*
X167204Y125222D01*
X167119Y125335D01*
X167020Y125448D01*
X166809Y125659D01*
X166710Y125758D01*
X166625Y125828D01*
X166569Y125871D01*
X166555Y125885D01*
X166358Y126025D01*
X166146Y126181D01*
X165921Y126336D01*
X165709Y126491D01*
X165512Y126618D01*
X165357Y126716D01*
X165300Y126759D01*
X165258Y126787D01*
X165230Y126815D01*
X165216D01*
X163186Y128098D01*
Y129705D01*
X165836Y128027D01*
D02*
G37*
G36*
X42877Y381548D02*
X38550D01*
Y379885D01*
X38564Y379729D01*
Y379617D01*
X38578Y379518D01*
X38592Y379448D01*
Y379391D01*
X38606Y379363D01*
Y379349D01*
X38677Y379123D01*
X38719Y379025D01*
X38761Y378940D01*
X38804Y378856D01*
X38832Y378799D01*
X38846Y378771D01*
X38860Y378757D01*
X38944Y378644D01*
X39043Y378531D01*
X39255Y378320D01*
X39353Y378221D01*
X39438Y378151D01*
X39494Y378108D01*
X39508Y378094D01*
X39706Y377953D01*
X39917Y377798D01*
X40143Y377643D01*
X40354Y377488D01*
X40552Y377361D01*
X40707Y377262D01*
X40763Y377220D01*
X40805Y377192D01*
X40834Y377164D01*
X40848D01*
X42877Y375881D01*
Y374274D01*
X40227Y375951D01*
X39945Y376149D01*
X39692Y376332D01*
X39480Y376515D01*
X39283Y376670D01*
X39142Y376811D01*
X39029Y376924D01*
X38959Y376995D01*
X38930Y377023D01*
X38846Y377136D01*
X38747Y377262D01*
X38592Y377516D01*
X38536Y377629D01*
X38479Y377714D01*
X38451Y377770D01*
X38437Y377798D01*
X38395Y377545D01*
X38352Y377305D01*
X38282Y377093D01*
X38226Y376882D01*
X38155Y376699D01*
X38070Y376530D01*
X38000Y376374D01*
X37929Y376233D01*
X37845Y376121D01*
X37774Y376008D01*
X37718Y375923D01*
X37662Y375853D01*
X37619Y375797D01*
X37577Y375754D01*
X37563Y375740D01*
X37549Y375726D01*
X37408Y375613D01*
X37267Y375500D01*
X36971Y375331D01*
X36675Y375219D01*
X36393Y375134D01*
X36153Y375078D01*
X36055Y375063D01*
X35956D01*
X35885Y375049D01*
X35829D01*
X35801D01*
X35787D01*
X35491Y375063D01*
X35223Y375106D01*
X34969Y375176D01*
X34758Y375247D01*
X34574Y375331D01*
X34433Y375388D01*
X34349Y375444D01*
X34335Y375458D01*
X34321D01*
X34095Y375627D01*
X33898Y375797D01*
X33729Y375980D01*
X33602Y376149D01*
X33503Y376304D01*
X33447Y376431D01*
X33404Y376515D01*
X33390Y376530D01*
Y376544D01*
X33348Y376670D01*
X33306Y376825D01*
X33235Y377136D01*
X33193Y377474D01*
X33151Y377784D01*
X33136Y378080D01*
Y378207D01*
X33122Y378320D01*
Y382845D01*
X42877D01*
Y381548D01*
D02*
G37*
G36*
X40537Y369678D02*
X42877D01*
Y368480D01*
X40537D01*
Y367155D01*
X39438D01*
Y368480D01*
X33122D01*
Y369453D01*
X39438Y373922D01*
X40537D01*
Y369678D01*
D02*
G37*
G36*
X41814Y322569D02*
X37486D01*
Y320906D01*
X37500Y320751D01*
Y320638D01*
X37515Y320539D01*
X37529Y320469D01*
Y320412D01*
X37543Y320384D01*
Y320370D01*
X37613Y320145D01*
X37655Y320046D01*
X37698Y319961D01*
X37740Y319877D01*
X37768Y319820D01*
X37782Y319792D01*
X37796Y319778D01*
X37881Y319665D01*
X37980Y319552D01*
X38191Y319341D01*
X38290Y319242D01*
X38374Y319172D01*
X38431Y319130D01*
X38445Y319116D01*
X38642Y318974D01*
X38854Y318819D01*
X39079Y318664D01*
X39291Y318509D01*
X39488Y318382D01*
X39643Y318284D01*
X39699Y318242D01*
X39742Y318213D01*
X39770Y318185D01*
X39784D01*
X41814Y316902D01*
Y315295D01*
X39164Y316973D01*
X38882Y317170D01*
X38628Y317353D01*
X38417Y317537D01*
X38219Y317692D01*
X38078Y317833D01*
X37966Y317945D01*
X37895Y318016D01*
X37867Y318044D01*
X37782Y318157D01*
X37684Y318284D01*
X37529Y318538D01*
X37472Y318650D01*
X37416Y318735D01*
X37388Y318791D01*
X37373Y318819D01*
X37331Y318566D01*
X37289Y318326D01*
X37218Y318115D01*
X37162Y317903D01*
X37092Y317720D01*
X37007Y317551D01*
X36937Y317396D01*
X36866Y317255D01*
X36781Y317142D01*
X36711Y317029D01*
X36655Y316945D01*
X36598Y316874D01*
X36556Y316818D01*
X36514Y316775D01*
X36500Y316761D01*
X36485Y316747D01*
X36344Y316634D01*
X36203Y316522D01*
X35907Y316353D01*
X35611Y316240D01*
X35329Y316155D01*
X35090Y316099D01*
X34991Y316085D01*
X34892D01*
X34822Y316070D01*
X34766D01*
X34737D01*
X34723D01*
X34427Y316085D01*
X34159Y316127D01*
X33906Y316197D01*
X33694Y316268D01*
X33511Y316353D01*
X33370Y316409D01*
X33285Y316465D01*
X33271Y316479D01*
X33257D01*
X33032Y316649D01*
X32834Y316818D01*
X32665Y317001D01*
X32538Y317170D01*
X32440Y317325D01*
X32383Y317452D01*
X32341Y317537D01*
X32327Y317551D01*
Y317565D01*
X32285Y317692D01*
X32242Y317847D01*
X32172Y318157D01*
X32129Y318495D01*
X32087Y318805D01*
X32073Y319101D01*
Y319228D01*
X32059Y319341D01*
Y323866D01*
X41814D01*
Y322569D01*
D02*
G37*
G36*
X39460Y314492D02*
X39671Y314449D01*
X40066Y314322D01*
X40404Y314167D01*
X40545Y314083D01*
X40686Y313998D01*
X40813Y313914D01*
X40912Y313829D01*
X41011Y313759D01*
X41081Y313688D01*
X41137Y313646D01*
X41180Y313603D01*
X41208Y313575D01*
X41222Y313561D01*
X41349Y313392D01*
X41476Y313223D01*
X41574Y313054D01*
X41659Y312871D01*
X41800Y312518D01*
X41885Y312180D01*
X41913Y312025D01*
X41941Y311884D01*
X41955Y311757D01*
X41969Y311644D01*
X41983Y311560D01*
Y311433D01*
X41969Y311165D01*
X41941Y310925D01*
X41899Y310686D01*
X41842Y310460D01*
X41772Y310249D01*
X41701Y310065D01*
X41617Y309882D01*
X41532Y309727D01*
X41462Y309572D01*
X41377Y309445D01*
X41307Y309332D01*
X41236Y309248D01*
X41180Y309177D01*
X41137Y309121D01*
X41109Y309093D01*
X41095Y309078D01*
X40926Y308909D01*
X40743Y308768D01*
X40560Y308641D01*
X40376Y308529D01*
X40207Y308444D01*
X40024Y308360D01*
X39685Y308247D01*
X39530Y308218D01*
X39389Y308190D01*
X39262Y308162D01*
X39150Y308148D01*
X39065Y308134D01*
X38995D01*
X38952D01*
X38938D01*
X38600Y308148D01*
X38290Y308204D01*
X38022Y308289D01*
X37796Y308374D01*
X37613Y308458D01*
X37472Y308543D01*
X37388Y308599D01*
X37359Y308613D01*
X37148Y308811D01*
X36965Y309022D01*
X36824Y309248D01*
X36711Y309473D01*
X36626Y309671D01*
X36570Y309825D01*
X36556Y309882D01*
X36542Y309924D01*
X36528Y309952D01*
Y309967D01*
X36401Y309727D01*
X36274Y309529D01*
X36133Y309360D01*
X36006Y309219D01*
X35893Y309107D01*
X35795Y309022D01*
X35738Y308980D01*
X35710Y308966D01*
X35513Y308853D01*
X35315Y308768D01*
X35118Y308698D01*
X34935Y308655D01*
X34780Y308627D01*
X34667Y308613D01*
X34582D01*
X34554D01*
X34314Y308627D01*
X34075Y308670D01*
X33863Y308726D01*
X33680Y308797D01*
X33525Y308867D01*
X33398Y308923D01*
X33328Y308966D01*
X33300Y308980D01*
X33088Y309121D01*
X32905Y309290D01*
X32750Y309459D01*
X32609Y309628D01*
X32510Y309769D01*
X32425Y309896D01*
X32383Y309981D01*
X32369Y309995D01*
Y310009D01*
X32256Y310263D01*
X32172Y310516D01*
X32101Y310770D01*
X32059Y310996D01*
X32031Y311179D01*
X32017Y311334D01*
Y311686D01*
X32045Y311884D01*
X32115Y312264D01*
X32228Y312589D01*
X32341Y312871D01*
X32411Y312997D01*
X32468Y313096D01*
X32524Y313195D01*
X32581Y313265D01*
X32623Y313322D01*
X32651Y313364D01*
X32665Y313392D01*
X32679Y313406D01*
X32947Y313674D01*
X33243Y313885D01*
X33553Y314055D01*
X33863Y314196D01*
X34131Y314280D01*
X34244Y314322D01*
X34343Y314351D01*
X34427Y314365D01*
X34484Y314379D01*
X34526Y314393D01*
X34540D01*
X34752Y313195D01*
X34441Y313138D01*
X34174Y313054D01*
X33948Y312955D01*
X33765Y312856D01*
X33624Y312758D01*
X33525Y312673D01*
X33455Y312617D01*
X33440Y312603D01*
X33300Y312419D01*
X33187Y312222D01*
X33116Y312039D01*
X33060Y311856D01*
X33032Y311686D01*
X33003Y311560D01*
Y311447D01*
X33018Y311193D01*
X33074Y310967D01*
X33144Y310770D01*
X33215Y310601D01*
X33300Y310474D01*
X33370Y310375D01*
X33426Y310305D01*
X33440Y310291D01*
X33610Y310136D01*
X33793Y310023D01*
X33976Y309952D01*
X34145Y309896D01*
X34300Y309868D01*
X34413Y309840D01*
X34498D01*
X34512D01*
X34526D01*
X34681D01*
X34822Y309868D01*
X35062Y309938D01*
X35273Y310037D01*
X35456Y310150D01*
X35583Y310263D01*
X35682Y310361D01*
X35738Y310432D01*
X35752Y310446D01*
Y310460D01*
X35879Y310700D01*
X35978Y310925D01*
X36048Y311165D01*
X36091Y311376D01*
X36119Y311560D01*
X36147Y311714D01*
Y311898D01*
X36133Y311954D01*
Y312025D01*
X37190Y312166D01*
X37148Y311982D01*
X37120Y311813D01*
X37092Y311672D01*
X37078Y311545D01*
X37063Y311447D01*
Y311320D01*
X37092Y311024D01*
X37148Y310756D01*
X37233Y310516D01*
X37331Y310319D01*
X37430Y310164D01*
X37515Y310051D01*
X37571Y309981D01*
X37599Y309952D01*
X37810Y309769D01*
X38036Y309628D01*
X38262Y309529D01*
X38487Y309473D01*
X38670Y309431D01*
X38826Y309417D01*
X38882Y309403D01*
X38924D01*
X38952D01*
X38967D01*
X39277Y309431D01*
X39559Y309501D01*
X39798Y309586D01*
X40010Y309699D01*
X40179Y309811D01*
X40306Y309896D01*
X40390Y309967D01*
X40419Y309995D01*
X40616Y310220D01*
X40757Y310460D01*
X40855Y310700D01*
X40926Y310925D01*
X40968Y311122D01*
X40982Y311278D01*
X40996Y311334D01*
Y311418D01*
X40982Y311672D01*
X40926Y311912D01*
X40855Y312123D01*
X40771Y312292D01*
X40700Y312433D01*
X40630Y312546D01*
X40574Y312603D01*
X40560Y312631D01*
X40362Y312800D01*
X40136Y312941D01*
X39897Y313068D01*
X39643Y313167D01*
X39432Y313237D01*
X39333Y313265D01*
X39248Y313279D01*
X39178Y313293D01*
X39122Y313307D01*
X39093Y313322D01*
X39079D01*
X39234Y314520D01*
X39460Y314492D01*
D02*
G37*
G36*
X44899Y262520D02*
X40571D01*
Y260856D01*
X40585Y260701D01*
Y260589D01*
X40599Y260490D01*
X40613Y260419D01*
Y260363D01*
X40627Y260335D01*
Y260321D01*
X40698Y260095D01*
X40740Y259996D01*
X40782Y259912D01*
X40825Y259827D01*
X40853Y259771D01*
X40867Y259743D01*
X40881Y259729D01*
X40966Y259616D01*
X41064Y259503D01*
X41276Y259292D01*
X41374Y259193D01*
X41459Y259123D01*
X41515Y259080D01*
X41529Y259066D01*
X41727Y258925D01*
X41938Y258770D01*
X42164Y258615D01*
X42375Y258460D01*
X42573Y258333D01*
X42728Y258234D01*
X42784Y258192D01*
X42826Y258164D01*
X42855Y258136D01*
X42869D01*
X44899Y256853D01*
Y255246D01*
X42249Y256923D01*
X41967Y257121D01*
X41713Y257304D01*
X41501Y257487D01*
X41304Y257642D01*
X41163Y257783D01*
X41050Y257896D01*
X40980Y257966D01*
X40951Y257995D01*
X40867Y258107D01*
X40768Y258234D01*
X40613Y258488D01*
X40557Y258601D01*
X40500Y258685D01*
X40472Y258742D01*
X40458Y258770D01*
X40416Y258516D01*
X40374Y258277D01*
X40303Y258065D01*
X40247Y257854D01*
X40176Y257670D01*
X40092Y257501D01*
X40021Y257346D01*
X39951Y257205D01*
X39866Y257092D01*
X39796Y256980D01*
X39739Y256895D01*
X39683Y256825D01*
X39641Y256768D01*
X39598Y256726D01*
X39584Y256712D01*
X39570Y256698D01*
X39429Y256585D01*
X39288Y256472D01*
X38992Y256303D01*
X38696Y256190D01*
X38414Y256106D01*
X38174Y256049D01*
X38076Y256035D01*
X37977D01*
X37907Y256021D01*
X37850D01*
X37822D01*
X37808D01*
X37512Y256035D01*
X37244Y256077D01*
X36990Y256148D01*
X36779Y256218D01*
X36596Y256303D01*
X36455Y256360D01*
X36370Y256416D01*
X36356Y256430D01*
X36342D01*
X36116Y256599D01*
X35919Y256768D01*
X35750Y256952D01*
X35623Y257121D01*
X35524Y257276D01*
X35468Y257403D01*
X35426Y257487D01*
X35411Y257501D01*
Y257515D01*
X35369Y257642D01*
X35327Y257797D01*
X35256Y258107D01*
X35214Y258446D01*
X35172Y258756D01*
X35158Y259052D01*
Y259179D01*
X35144Y259292D01*
Y263817D01*
X44899D01*
Y262520D01*
D02*
G37*
G36*
Y248183D02*
X43743D01*
Y252990D01*
X43503Y252821D01*
X43404Y252736D01*
X43306Y252666D01*
X43221Y252596D01*
X43165Y252539D01*
X43123Y252497D01*
X43108Y252483D01*
X43038Y252412D01*
X42967Y252328D01*
X42784Y252130D01*
X42573Y251905D01*
X42361Y251665D01*
X42178Y251440D01*
X42093Y251341D01*
X42009Y251256D01*
X41952Y251186D01*
X41910Y251129D01*
X41882Y251101D01*
X41868Y251087D01*
X41670Y250862D01*
X41487Y250636D01*
X41304Y250439D01*
X41149Y250256D01*
X40994Y250086D01*
X40853Y249945D01*
X40726Y249804D01*
X40613Y249692D01*
X40500Y249579D01*
X40416Y249494D01*
X40345Y249424D01*
X40275Y249353D01*
X40190Y249283D01*
X40162Y249255D01*
X39922Y249057D01*
X39711Y248888D01*
X39499Y248747D01*
X39330Y248634D01*
X39175Y248550D01*
X39062Y248493D01*
X38992Y248465D01*
X38964Y248451D01*
X38752Y248367D01*
X38541Y248310D01*
X38344Y248254D01*
X38174Y248225D01*
X38019Y248211D01*
X37907Y248197D01*
X37836D01*
X37808D01*
X37596Y248211D01*
X37399Y248240D01*
X37202Y248268D01*
X37033Y248324D01*
X36694Y248465D01*
X36426Y248606D01*
X36300Y248691D01*
X36201Y248761D01*
X36102Y248832D01*
X36032Y248902D01*
X35975Y248958D01*
X35919Y248987D01*
X35905Y249015D01*
X35891Y249029D01*
X35750Y249184D01*
X35623Y249353D01*
X35524Y249536D01*
X35440Y249720D01*
X35299Y250086D01*
X35200Y250453D01*
X35172Y250608D01*
X35144Y250763D01*
X35129Y250904D01*
X35115Y251017D01*
X35101Y251115D01*
Y251256D01*
X35115Y251510D01*
X35129Y251750D01*
X35172Y251975D01*
X35214Y252187D01*
X35270Y252384D01*
X35327Y252567D01*
X35397Y252736D01*
X35468Y252892D01*
X35538Y253033D01*
X35609Y253145D01*
X35665Y253244D01*
X35721Y253329D01*
X35764Y253399D01*
X35806Y253441D01*
X35820Y253470D01*
X35834Y253484D01*
X35975Y253625D01*
X36130Y253752D01*
X36300Y253878D01*
X36469Y253977D01*
X36807Y254146D01*
X37145Y254259D01*
X37300Y254301D01*
X37455Y254344D01*
X37582Y254372D01*
X37695Y254400D01*
X37794Y254414D01*
X37864D01*
X37907Y254428D01*
X37921D01*
X38047Y253202D01*
X37723Y253174D01*
X37441Y253117D01*
X37188Y253033D01*
X36990Y252934D01*
X36821Y252849D01*
X36708Y252765D01*
X36638Y252708D01*
X36610Y252680D01*
X36440Y252469D01*
X36314Y252243D01*
X36215Y252003D01*
X36159Y251792D01*
X36116Y251595D01*
X36102Y251425D01*
X36088Y251369D01*
Y251285D01*
X36102Y250989D01*
X36159Y250721D01*
X36243Y250495D01*
X36328Y250298D01*
X36426Y250143D01*
X36497Y250044D01*
X36553Y249974D01*
X36581Y249945D01*
X36779Y249776D01*
X36976Y249649D01*
X37174Y249551D01*
X37371Y249494D01*
X37526Y249452D01*
X37667Y249438D01*
X37752Y249424D01*
X37766D01*
X37780D01*
X38033Y249452D01*
X38301Y249508D01*
X38541Y249607D01*
X38767Y249706D01*
X38950Y249818D01*
X39105Y249917D01*
X39161Y249945D01*
X39204Y249974D01*
X39218Y250002D01*
X39232D01*
X39387Y250114D01*
X39542Y250256D01*
X39711Y250410D01*
X39880Y250580D01*
X40219Y250932D01*
X40557Y251285D01*
X40712Y251468D01*
X40853Y251623D01*
X40980Y251778D01*
X41093Y251905D01*
X41177Y252003D01*
X41248Y252088D01*
X41290Y252145D01*
X41304Y252159D01*
X41600Y252511D01*
X41882Y252835D01*
X42136Y253103D01*
X42347Y253314D01*
X42530Y253498D01*
X42657Y253625D01*
X42742Y253695D01*
X42756Y253723D01*
X42770D01*
X43010Y253921D01*
X43235Y254076D01*
X43461Y254217D01*
X43658Y254329D01*
X43827Y254414D01*
X43954Y254471D01*
X44039Y254499D01*
X44053Y254513D01*
X44067D01*
X44222Y254569D01*
X44363Y254597D01*
X44504Y254625D01*
X44631Y254640D01*
X44744Y254654D01*
X44828D01*
X44885D01*
X44899D01*
Y248183D01*
D02*
G37*
G36*
Y198625D02*
X40571D01*
Y196961D01*
X40585Y196806D01*
Y196693D01*
X40599Y196595D01*
X40613Y196524D01*
Y196468D01*
X40627Y196440D01*
Y196426D01*
X40698Y196200D01*
X40740Y196101D01*
X40782Y196017D01*
X40825Y195932D01*
X40853Y195876D01*
X40867Y195848D01*
X40881Y195833D01*
X40966Y195721D01*
X41064Y195608D01*
X41276Y195396D01*
X41374Y195298D01*
X41459Y195227D01*
X41515Y195185D01*
X41529Y195171D01*
X41727Y195030D01*
X41938Y194875D01*
X42164Y194720D01*
X42375Y194565D01*
X42573Y194438D01*
X42728Y194339D01*
X42784Y194297D01*
X42826Y194269D01*
X42855Y194240D01*
X42869D01*
X44899Y192958D01*
Y191351D01*
X42249Y193028D01*
X41967Y193225D01*
X41713Y193409D01*
X41501Y193592D01*
X41304Y193747D01*
X41163Y193888D01*
X41050Y194001D01*
X40980Y194071D01*
X40951Y194100D01*
X40867Y194212D01*
X40768Y194339D01*
X40613Y194593D01*
X40557Y194706D01*
X40500Y194790D01*
X40472Y194847D01*
X40458Y194875D01*
X40416Y194621D01*
X40374Y194382D01*
X40303Y194170D01*
X40247Y193959D01*
X40176Y193775D01*
X40092Y193606D01*
X40021Y193451D01*
X39951Y193310D01*
X39866Y193197D01*
X39796Y193085D01*
X39739Y193000D01*
X39683Y192929D01*
X39641Y192873D01*
X39598Y192831D01*
X39584Y192817D01*
X39570Y192803D01*
X39429Y192690D01*
X39288Y192577D01*
X38992Y192408D01*
X38696Y192295D01*
X38414Y192211D01*
X38174Y192154D01*
X38076Y192140D01*
X37977D01*
X37907Y192126D01*
X37850D01*
X37822D01*
X37808D01*
X37512Y192140D01*
X37244Y192182D01*
X36990Y192253D01*
X36779Y192323D01*
X36596Y192408D01*
X36455Y192464D01*
X36370Y192521D01*
X36356Y192535D01*
X36342D01*
X36116Y192704D01*
X35919Y192873D01*
X35750Y193056D01*
X35623Y193225D01*
X35524Y193381D01*
X35468Y193507D01*
X35426Y193592D01*
X35411Y193606D01*
Y193620D01*
X35369Y193747D01*
X35327Y193902D01*
X35256Y194212D01*
X35214Y194551D01*
X35172Y194861D01*
X35158Y195157D01*
Y195284D01*
X35144Y195396D01*
Y199922D01*
X44899D01*
Y198625D01*
D02*
G37*
G36*
X38626Y189462D02*
X38527Y189250D01*
X38428Y189039D01*
X38330Y188841D01*
X38245Y188672D01*
X38174Y188531D01*
X38118Y188447D01*
X38104Y188433D01*
Y188419D01*
X37949Y188165D01*
X37794Y187939D01*
X37653Y187742D01*
X37526Y187587D01*
X37427Y187446D01*
X37343Y187361D01*
X37286Y187291D01*
X37272Y187277D01*
X44899D01*
Y186078D01*
X35101D01*
Y186854D01*
X35341Y186995D01*
X35566Y187150D01*
X35792Y187333D01*
X35989Y187502D01*
X36159Y187671D01*
X36300Y187798D01*
X36342Y187855D01*
X36384Y187897D01*
X36398Y187911D01*
X36412Y187925D01*
X36652Y188221D01*
X36878Y188517D01*
X37075Y188799D01*
X37230Y189081D01*
X37371Y189321D01*
X37427Y189419D01*
X37470Y189504D01*
X37512Y189574D01*
X37526Y189631D01*
X37554Y189659D01*
Y189673D01*
X38710D01*
X38626Y189462D01*
D02*
G37*
G36*
X46361Y144659D02*
X46516Y144433D01*
X46700Y144208D01*
X46869Y144011D01*
X47038Y143841D01*
X47165Y143701D01*
X47221Y143658D01*
X47263Y143616D01*
X47277Y143602D01*
X47292Y143588D01*
X47588Y143348D01*
X47884Y143123D01*
X48166Y142925D01*
X48448Y142770D01*
X48687Y142629D01*
X48786Y142573D01*
X48871Y142530D01*
X48941Y142488D01*
X48997Y142474D01*
X49026Y142446D01*
X49040D01*
Y141290D01*
X48828Y141375D01*
X48617Y141473D01*
X48405Y141572D01*
X48208Y141671D01*
X48039Y141755D01*
X47898Y141826D01*
X47813Y141882D01*
X47799Y141896D01*
X47785D01*
X47531Y142051D01*
X47306Y142206D01*
X47108Y142347D01*
X46953Y142474D01*
X46812Y142573D01*
X46728Y142657D01*
X46657Y142714D01*
X46643Y142728D01*
Y135101D01*
X45445D01*
Y144899D01*
X46220D01*
X46361Y144659D01*
D02*
G37*
G36*
X58555Y135101D02*
X57258D01*
Y139063D01*
X54763D01*
X54397Y139077D01*
X54044Y139105D01*
X53734Y139147D01*
X53452Y139204D01*
X53184Y139260D01*
X52959Y139330D01*
X52747Y139415D01*
X52564Y139500D01*
X52409Y139570D01*
X52268Y139655D01*
X52155Y139725D01*
X52070Y139796D01*
X52000Y139838D01*
X51958Y139880D01*
X51929Y139908D01*
X51915Y139923D01*
X51774Y140092D01*
X51648Y140261D01*
X51549Y140430D01*
X51450Y140613D01*
X51366Y140796D01*
X51309Y140966D01*
X51211Y141290D01*
X51182Y141445D01*
X51154Y141586D01*
X51140Y141713D01*
X51126Y141812D01*
X51112Y141910D01*
Y141966D01*
Y142009D01*
Y142023D01*
X51126Y142291D01*
X51154Y142544D01*
X51211Y142770D01*
X51253Y142967D01*
X51309Y143137D01*
X51366Y143264D01*
X51394Y143334D01*
X51408Y143362D01*
X51521Y143574D01*
X51662Y143757D01*
X51789Y143926D01*
X51915Y144053D01*
X52028Y144152D01*
X52113Y144236D01*
X52169Y144278D01*
X52197Y144292D01*
X52381Y144405D01*
X52592Y144504D01*
X52789Y144589D01*
X52973Y144659D01*
X53142Y144701D01*
X53269Y144730D01*
X53367Y144758D01*
X53396D01*
X53607Y144786D01*
X53847Y144814D01*
X54100Y144828D01*
X54340Y144842D01*
X54552Y144856D01*
X58555D01*
Y135101D01*
D02*
G37*
G36*
X114988Y105659D02*
X115143Y105434D01*
X115326Y105208D01*
X115495Y105011D01*
X115664Y104841D01*
X115791Y104700D01*
X115848Y104658D01*
X115890Y104616D01*
X115904Y104602D01*
X115918Y104588D01*
X116214Y104348D01*
X116510Y104122D01*
X116792Y103925D01*
X117074Y103770D01*
X117314Y103629D01*
X117412Y103573D01*
X117497Y103530D01*
X117567Y103488D01*
X117624Y103474D01*
X117652Y103446D01*
X117666D01*
Y102290D01*
X117455Y102374D01*
X117243Y102473D01*
X117032Y102572D01*
X116834Y102670D01*
X116665Y102755D01*
X116524Y102826D01*
X116440Y102882D01*
X116426Y102896D01*
X116411D01*
X116158Y103051D01*
X115932Y103206D01*
X115735Y103347D01*
X115580Y103474D01*
X115439Y103573D01*
X115354Y103657D01*
X115284Y103714D01*
X115270Y103728D01*
Y96101D01*
X114071D01*
Y105899D01*
X114847D01*
X114988Y105659D01*
D02*
G37*
G36*
X127929Y96101D02*
X124418D01*
X124094Y96115D01*
X123798Y96130D01*
X123530Y96158D01*
X123305Y96186D01*
X123108Y96214D01*
X122966Y96228D01*
X122924Y96242D01*
X122882Y96256D01*
X122854D01*
X122600Y96327D01*
X122374Y96411D01*
X122177Y96482D01*
X122008Y96566D01*
X121867Y96637D01*
X121768Y96693D01*
X121712Y96736D01*
X121684Y96750D01*
X121500Y96877D01*
X121345Y97032D01*
X121190Y97173D01*
X121063Y97314D01*
X120951Y97441D01*
X120866Y97539D01*
X120810Y97610D01*
X120796Y97638D01*
X120655Y97863D01*
X120514Y98103D01*
X120401Y98329D01*
X120316Y98554D01*
X120232Y98751D01*
X120175Y98907D01*
X120161Y98963D01*
X120147Y99005D01*
X120133Y99033D01*
Y99048D01*
X120049Y99386D01*
X119978Y99724D01*
X119936Y100049D01*
X119893Y100359D01*
X119879Y100626D01*
Y100739D01*
X119865Y100838D01*
Y100908D01*
Y100979D01*
Y101007D01*
Y101021D01*
X119879Y101501D01*
X119922Y101938D01*
X119992Y102332D01*
X120020Y102515D01*
X120063Y102670D01*
X120105Y102826D01*
X120133Y102952D01*
X120161Y103065D01*
X120204Y103164D01*
X120218Y103249D01*
X120246Y103305D01*
X120260Y103333D01*
Y103347D01*
X120415Y103714D01*
X120598Y104038D01*
X120796Y104320D01*
X120979Y104559D01*
X121148Y104757D01*
X121289Y104898D01*
X121345Y104940D01*
X121388Y104982D01*
X121402Y104997D01*
X121416Y105011D01*
X121641Y105194D01*
X121881Y105335D01*
X122121Y105462D01*
X122346Y105560D01*
X122544Y105631D01*
X122699Y105673D01*
X122755Y105701D01*
X122797D01*
X122826Y105716D01*
X122840D01*
X123079Y105758D01*
X123361Y105800D01*
X123643Y105828D01*
X123925Y105842D01*
X124179Y105856D01*
X127929D01*
Y96101D01*
D02*
G37*
G36*
X111534Y161680D02*
X111689Y161455D01*
X111872Y161229D01*
X112041Y161032D01*
X112211Y160863D01*
X112337Y160722D01*
X112394Y160679D01*
X112436Y160637D01*
X112450Y160623D01*
X112464Y160609D01*
X112760Y160369D01*
X113056Y160144D01*
X113338Y159946D01*
X113620Y159791D01*
X113860Y159650D01*
X113959Y159594D01*
X114043Y159551D01*
X114114Y159509D01*
X114170Y159495D01*
X114198Y159467D01*
X114212D01*
Y158311D01*
X114001Y158396D01*
X113789Y158494D01*
X113578Y158593D01*
X113381Y158692D01*
X113211Y158776D01*
X113070Y158847D01*
X112986Y158903D01*
X112972Y158917D01*
X112958D01*
X112704Y159072D01*
X112478Y159227D01*
X112281Y159368D01*
X112126Y159495D01*
X111985Y159594D01*
X111900Y159678D01*
X111830Y159735D01*
X111816Y159749D01*
Y152122D01*
X110618D01*
Y161920D01*
X111393D01*
X111534Y161680D01*
D02*
G37*
G36*
X104373Y161906D02*
X104641Y161878D01*
X104894Y161821D01*
X105134Y161751D01*
X105345Y161652D01*
X105557Y161567D01*
X105740Y161455D01*
X105909Y161356D01*
X106050Y161257D01*
X106191Y161145D01*
X106304Y161060D01*
X106389Y160975D01*
X106459Y160891D01*
X106515Y160834D01*
X106544Y160806D01*
X106558Y160792D01*
X106741Y160538D01*
X106896Y160242D01*
X107037Y159932D01*
X107164Y159608D01*
X107262Y159270D01*
X107347Y158931D01*
X107418Y158579D01*
X107474Y158255D01*
X107516Y157930D01*
X107544Y157634D01*
X107573Y157367D01*
X107587Y157141D01*
Y156944D01*
X107601Y156803D01*
Y156746D01*
Y156704D01*
Y156690D01*
Y156676D01*
X107587Y156225D01*
X107559Y155802D01*
X107516Y155407D01*
X107446Y155041D01*
X107375Y154716D01*
X107305Y154420D01*
X107220Y154152D01*
X107122Y153913D01*
X107037Y153715D01*
X106952Y153532D01*
X106882Y153391D01*
X106797Y153264D01*
X106741Y153166D01*
X106699Y153109D01*
X106670Y153067D01*
X106656Y153053D01*
X106473Y152856D01*
X106276Y152686D01*
X106078Y152545D01*
X105881Y152418D01*
X105670Y152306D01*
X105472Y152221D01*
X105275Y152151D01*
X105077Y152094D01*
X104908Y152052D01*
X104739Y152010D01*
X104598Y151981D01*
X104471Y151967D01*
X104359D01*
X104288Y151953D01*
X104218D01*
X103893Y151967D01*
X103597Y152024D01*
X103329Y152080D01*
X103090Y152165D01*
X102907Y152235D01*
X102766Y152306D01*
X102709Y152320D01*
X102667Y152348D01*
X102653Y152362D01*
X102639D01*
X102399Y152531D01*
X102174Y152729D01*
X101990Y152926D01*
X101835Y153123D01*
X101708Y153307D01*
X101624Y153448D01*
X101595Y153504D01*
X101567Y153546D01*
X101553Y153560D01*
Y153574D01*
X101412Y153870D01*
X101314Y154181D01*
X101243Y154462D01*
X101201Y154730D01*
X101159Y154956D01*
Y155041D01*
X101144Y155125D01*
Y155196D01*
Y155238D01*
Y155266D01*
Y155280D01*
X101159Y155534D01*
X101187Y155774D01*
X101229Y156013D01*
X101271Y156225D01*
X101342Y156422D01*
X101412Y156619D01*
X101483Y156789D01*
X101567Y156944D01*
X101652Y157085D01*
X101722Y157211D01*
X101793Y157310D01*
X101863Y157409D01*
X101906Y157479D01*
X101948Y157522D01*
X101976Y157550D01*
X101990Y157564D01*
X102145Y157719D01*
X102315Y157860D01*
X102498Y157973D01*
X102667Y158071D01*
X102836Y158170D01*
X103005Y158240D01*
X103329Y158339D01*
X103470Y158382D01*
X103611Y158410D01*
X103724Y158424D01*
X103837Y158438D01*
X103921Y158452D01*
X104034D01*
X104288Y158438D01*
X104528Y158396D01*
X104753Y158353D01*
X104951Y158297D01*
X105120Y158226D01*
X105247Y158184D01*
X105331Y158142D01*
X105345Y158128D01*
X105359D01*
X105585Y157987D01*
X105782Y157832D01*
X105966Y157677D01*
X106107Y157507D01*
X106233Y157367D01*
X106332Y157254D01*
X106389Y157169D01*
X106403Y157155D01*
Y157409D01*
X106389Y157662D01*
X106374Y157888D01*
X106346Y158114D01*
X106332Y158311D01*
X106304Y158494D01*
X106276Y158663D01*
X106233Y158819D01*
X106205Y158960D01*
X106177Y159072D01*
X106149Y159171D01*
X106135Y159256D01*
X106107Y159312D01*
X106093Y159354D01*
X106078Y159382D01*
Y159396D01*
X105937Y159678D01*
X105796Y159932D01*
X105641Y160130D01*
X105500Y160299D01*
X105373Y160440D01*
X105275Y160538D01*
X105204Y160595D01*
X105176Y160609D01*
X105007Y160722D01*
X104838Y160792D01*
X104669Y160849D01*
X104500Y160891D01*
X104373Y160919D01*
X104260Y160933D01*
X104161D01*
X103907Y160905D01*
X103668Y160849D01*
X103470Y160764D01*
X103287Y160679D01*
X103146Y160581D01*
X103048Y160496D01*
X102991Y160440D01*
X102963Y160411D01*
X102864Y160285D01*
X102766Y160130D01*
X102681Y159960D01*
X102625Y159791D01*
X102568Y159636D01*
X102526Y159509D01*
X102512Y159425D01*
X102498Y159411D01*
Y159396D01*
X101299Y159495D01*
X101384Y159890D01*
X101511Y160242D01*
X101652Y160552D01*
X101807Y160806D01*
X101962Y161003D01*
X102018Y161088D01*
X102089Y161159D01*
X102131Y161201D01*
X102174Y161243D01*
X102188Y161257D01*
X102202Y161271D01*
X102343Y161384D01*
X102498Y161483D01*
X102808Y161652D01*
X103118Y161765D01*
X103414Y161835D01*
X103682Y161892D01*
X103795Y161906D01*
X103893D01*
X103978Y161920D01*
X104091D01*
X104373Y161906D01*
D02*
G37*
G36*
X120725Y162019D02*
X121176Y161948D01*
X121571Y161863D01*
X121754Y161807D01*
X121923Y161751D01*
X122079Y161694D01*
X122219Y161638D01*
X122332Y161596D01*
X122445Y161553D01*
X122515Y161511D01*
X122572Y161483D01*
X122614Y161469D01*
X122628Y161455D01*
X123009Y161215D01*
X123333Y160933D01*
X123615Y160651D01*
X123855Y160369D01*
X124038Y160115D01*
X124108Y160003D01*
X124165Y159904D01*
X124221Y159833D01*
X124249Y159777D01*
X124263Y159735D01*
X124278Y159721D01*
X124475Y159284D01*
X124616Y158833D01*
X124715Y158382D01*
X124785Y157973D01*
X124813Y157789D01*
X124827Y157606D01*
X124841Y157465D01*
Y157324D01*
X124856Y157226D01*
Y157141D01*
Y157085D01*
Y157071D01*
X124827Y156563D01*
X124771Y156070D01*
X124700Y155633D01*
X124644Y155421D01*
X124602Y155238D01*
X124559Y155069D01*
X124503Y154914D01*
X124461Y154773D01*
X124433Y154660D01*
X124390Y154575D01*
X124376Y154505D01*
X124348Y154462D01*
Y154448D01*
X124137Y154025D01*
X123897Y153645D01*
X123643Y153321D01*
X123516Y153194D01*
X123404Y153067D01*
X123291Y152954D01*
X123178Y152856D01*
X123079Y152771D01*
X122995Y152715D01*
X122938Y152658D01*
X122882Y152616D01*
X122854Y152602D01*
X122840Y152588D01*
X122642Y152475D01*
X122445Y152376D01*
X122022Y152221D01*
X121599Y152108D01*
X121190Y152038D01*
X120993Y152010D01*
X120824Y151981D01*
X120669Y151967D01*
X120542D01*
X120429Y151953D01*
X120274D01*
X119992Y151967D01*
X119724Y151996D01*
X119471Y152024D01*
X119231Y152080D01*
X119005Y152151D01*
X118794Y152221D01*
X118596Y152292D01*
X118413Y152376D01*
X118258Y152447D01*
X118103Y152517D01*
X117990Y152588D01*
X117878Y152658D01*
X117807Y152715D01*
X117737Y152743D01*
X117708Y152771D01*
X117694Y152785D01*
X117497Y152954D01*
X117328Y153123D01*
X117173Y153321D01*
X117018Y153518D01*
X116764Y153913D01*
X116566Y154307D01*
X116482Y154491D01*
X116412Y154660D01*
X116355Y154815D01*
X116313Y154942D01*
X116271Y155055D01*
X116242Y155139D01*
X116228Y155196D01*
Y155210D01*
X117525Y155534D01*
X117582Y155308D01*
X117652Y155097D01*
X117723Y154900D01*
X117793Y154716D01*
X117878Y154547D01*
X117962Y154406D01*
X118061Y154265D01*
X118145Y154138D01*
X118216Y154025D01*
X118301Y153941D01*
X118371Y153856D01*
X118427Y153786D01*
X118484Y153744D01*
X118526Y153701D01*
X118540Y153687D01*
X118554Y153673D01*
X118695Y153560D01*
X118850Y153476D01*
X119160Y153321D01*
X119456Y153208D01*
X119753Y153137D01*
X120006Y153081D01*
X120105Y153067D01*
X120204D01*
X120288Y153053D01*
X120387D01*
X120711Y153067D01*
X121021Y153123D01*
X121303Y153194D01*
X121557Y153278D01*
X121754Y153363D01*
X121839Y153405D01*
X121909Y153433D01*
X121966Y153462D01*
X122008Y153490D01*
X122036Y153504D01*
X122050D01*
X122318Y153701D01*
X122544Y153913D01*
X122741Y154152D01*
X122896Y154378D01*
X123023Y154575D01*
X123108Y154745D01*
X123136Y154815D01*
X123164Y154857D01*
X123178Y154885D01*
Y154900D01*
X123291Y155266D01*
X123375Y155633D01*
X123446Y155999D01*
X123488Y156337D01*
X123502Y156493D01*
X123516Y156634D01*
Y156760D01*
X123531Y156859D01*
Y156944D01*
Y157014D01*
Y157056D01*
Y157071D01*
X123516Y157437D01*
X123488Y157775D01*
X123432Y158085D01*
X123375Y158367D01*
X123333Y158607D01*
X123305Y158706D01*
X123277Y158790D01*
X123263Y158861D01*
X123249Y158903D01*
X123234Y158931D01*
Y158945D01*
X123094Y159270D01*
X122938Y159566D01*
X122769Y159805D01*
X122586Y160017D01*
X122431Y160186D01*
X122304Y160299D01*
X122205Y160369D01*
X122191Y160397D01*
X122177D01*
X121881Y160581D01*
X121557Y160722D01*
X121247Y160820D01*
X120951Y160877D01*
X120683Y160919D01*
X120570Y160933D01*
X120471D01*
X120401Y160947D01*
X120288D01*
X119936Y160933D01*
X119612Y160877D01*
X119344Y160792D01*
X119104Y160707D01*
X118921Y160609D01*
X118780Y160538D01*
X118695Y160482D01*
X118667Y160454D01*
X118441Y160242D01*
X118230Y160003D01*
X118061Y159749D01*
X117920Y159495D01*
X117807Y159270D01*
X117765Y159157D01*
X117737Y159072D01*
X117708Y159002D01*
X117680Y158945D01*
X117666Y158917D01*
Y158903D01*
X116397Y159199D01*
X116482Y159453D01*
X116566Y159678D01*
X116679Y159890D01*
X116778Y160101D01*
X116891Y160285D01*
X117018Y160454D01*
X117130Y160623D01*
X117243Y160764D01*
X117356Y160877D01*
X117455Y160989D01*
X117553Y161088D01*
X117624Y161159D01*
X117694Y161229D01*
X117751Y161271D01*
X117779Y161285D01*
X117793Y161300D01*
X117990Y161426D01*
X118188Y161553D01*
X118385Y161652D01*
X118596Y161737D01*
X119019Y161863D01*
X119400Y161948D01*
X119583Y161990D01*
X119738Y162004D01*
X119893Y162019D01*
X120020Y162033D01*
X120119Y162047D01*
X120260D01*
X120725Y162019D01*
D02*
G37*
G36*
X159569Y404680D02*
X159724Y404455D01*
X159908Y404229D01*
X160077Y404032D01*
X160246Y403863D01*
X160373Y403722D01*
X160429Y403679D01*
X160471Y403637D01*
X160485Y403623D01*
X160500Y403609D01*
X160796Y403369D01*
X161092Y403144D01*
X161374Y402946D01*
X161656Y402791D01*
X161895Y402650D01*
X161994Y402594D01*
X162078Y402551D01*
X162149Y402509D01*
X162205Y402495D01*
X162234Y402467D01*
X162248D01*
Y401311D01*
X162036Y401396D01*
X161825Y401494D01*
X161613Y401593D01*
X161416Y401692D01*
X161247Y401776D01*
X161106Y401847D01*
X161021Y401903D01*
X161007Y401917D01*
X160993D01*
X160739Y402072D01*
X160514Y402227D01*
X160316Y402368D01*
X160161Y402495D01*
X160020Y402594D01*
X159936Y402678D01*
X159865Y402735D01*
X159851Y402749D01*
Y395122D01*
X158653D01*
Y404920D01*
X159428D01*
X159569Y404680D01*
D02*
G37*
G36*
X155368Y399732D02*
X154241Y399577D01*
X154142Y399732D01*
X154015Y399859D01*
X153902Y399986D01*
X153789Y400085D01*
X153677Y400155D01*
X153592Y400225D01*
X153536Y400254D01*
X153521Y400268D01*
X153338Y400352D01*
X153155Y400423D01*
X152986Y400465D01*
X152817Y400508D01*
X152676Y400522D01*
X152563Y400536D01*
X152295D01*
X152126Y400508D01*
X151830Y400437D01*
X151576Y400338D01*
X151351Y400240D01*
X151181Y400127D01*
X151055Y400028D01*
X150984Y399958D01*
X150956Y399944D01*
Y399930D01*
X150758Y399690D01*
X150618Y399436D01*
X150519Y399168D01*
X150448Y398900D01*
X150406Y398675D01*
X150392Y398576D01*
Y398492D01*
X150378Y398421D01*
Y398365D01*
Y398336D01*
Y398322D01*
Y398125D01*
X150406Y397942D01*
X150477Y397589D01*
X150575Y397293D01*
X150674Y397054D01*
X150787Y396856D01*
X150885Y396701D01*
X150928Y396659D01*
X150956Y396617D01*
X150970Y396603D01*
X150984Y396589D01*
X151097Y396476D01*
X151210Y396377D01*
X151463Y396208D01*
X151703Y396095D01*
X151943Y396025D01*
X152140Y395968D01*
X152309Y395954D01*
X152366Y395940D01*
X152450D01*
X152718Y395954D01*
X152958Y396011D01*
X153169Y396081D01*
X153338Y396166D01*
X153493Y396250D01*
X153606Y396321D01*
X153663Y396377D01*
X153691Y396391D01*
X153860Y396589D01*
X154001Y396800D01*
X154114Y397040D01*
X154198Y397251D01*
X154255Y397463D01*
X154297Y397618D01*
X154311Y397688D01*
X154325Y397730D01*
Y397759D01*
Y397773D01*
X155580Y397674D01*
X155552Y397448D01*
X155509Y397237D01*
X155382Y396842D01*
X155227Y396504D01*
X155143Y396349D01*
X155058Y396222D01*
X154988Y396095D01*
X154903Y395982D01*
X154833Y395898D01*
X154762Y395827D01*
X154706Y395771D01*
X154677Y395714D01*
X154649Y395700D01*
X154635Y395686D01*
X154466Y395559D01*
X154297Y395447D01*
X154114Y395348D01*
X153930Y395263D01*
X153578Y395136D01*
X153225Y395052D01*
X153070Y395010D01*
X152915Y394996D01*
X152788Y394981D01*
X152676Y394967D01*
X152577Y394953D01*
X152450D01*
X152154Y394967D01*
X151872Y395010D01*
X151604Y395066D01*
X151365Y395136D01*
X151139Y395235D01*
X150928Y395334D01*
X150730Y395433D01*
X150561Y395545D01*
X150406Y395658D01*
X150265Y395757D01*
X150152Y395870D01*
X150054Y395954D01*
X149983Y396025D01*
X149927Y396081D01*
X149899Y396123D01*
X149885Y396137D01*
X149743Y396321D01*
X149631Y396518D01*
X149518Y396701D01*
X149433Y396899D01*
X149292Y397279D01*
X149208Y397646D01*
X149180Y397801D01*
X149151Y397956D01*
X149137Y398083D01*
X149123Y398196D01*
X149109Y398294D01*
Y398365D01*
Y398407D01*
Y398421D01*
X149123Y398675D01*
X149151Y398914D01*
X149194Y399154D01*
X149250Y399366D01*
X149321Y399563D01*
X149391Y399760D01*
X149476Y399930D01*
X149546Y400085D01*
X149631Y400225D01*
X149715Y400352D01*
X149786Y400451D01*
X149856Y400550D01*
X149913Y400620D01*
X149955Y400662D01*
X149983Y400691D01*
X149997Y400705D01*
X150167Y400860D01*
X150336Y401001D01*
X150519Y401114D01*
X150702Y401212D01*
X150885Y401311D01*
X151069Y401381D01*
X151407Y401480D01*
X151562Y401522D01*
X151703Y401551D01*
X151830Y401565D01*
X151943Y401579D01*
X152027Y401593D01*
X152337D01*
X152507Y401565D01*
X152845Y401494D01*
X153155Y401396D01*
X153437Y401283D01*
X153663Y401170D01*
X153761Y401114D01*
X153846Y401071D01*
X153916Y401029D01*
X153959Y401001D01*
X153987Y400987D01*
X154001Y400973D01*
X153479Y403609D01*
X149574D01*
Y404751D01*
X154424D01*
X155368Y399732D01*
D02*
G37*
G36*
X168760Y405019D02*
X169212Y404948D01*
X169606Y404864D01*
X169790Y404807D01*
X169959Y404751D01*
X170114Y404694D01*
X170255Y404638D01*
X170368Y404596D01*
X170480Y404553D01*
X170551Y404511D01*
X170607Y404483D01*
X170649Y404469D01*
X170664Y404455D01*
X171044Y404215D01*
X171368Y403933D01*
X171650Y403651D01*
X171890Y403369D01*
X172073Y403115D01*
X172144Y403003D01*
X172200Y402904D01*
X172256Y402834D01*
X172285Y402777D01*
X172299Y402735D01*
X172313Y402721D01*
X172510Y402284D01*
X172651Y401833D01*
X172750Y401381D01*
X172820Y400973D01*
X172848Y400789D01*
X172863Y400606D01*
X172877Y400465D01*
Y400324D01*
X172891Y400225D01*
Y400141D01*
Y400085D01*
Y400070D01*
X172863Y399563D01*
X172806Y399070D01*
X172736Y398633D01*
X172679Y398421D01*
X172637Y398238D01*
X172595Y398069D01*
X172538Y397914D01*
X172496Y397773D01*
X172468Y397660D01*
X172426Y397575D01*
X172411Y397505D01*
X172383Y397463D01*
Y397448D01*
X172172Y397025D01*
X171932Y396645D01*
X171679Y396321D01*
X171552Y396194D01*
X171439Y396067D01*
X171326Y395954D01*
X171213Y395855D01*
X171115Y395771D01*
X171030Y395714D01*
X170974Y395658D01*
X170917Y395616D01*
X170889Y395602D01*
X170875Y395588D01*
X170678Y395475D01*
X170480Y395376D01*
X170057Y395221D01*
X169634Y395108D01*
X169226Y395038D01*
X169028Y395010D01*
X168859Y394981D01*
X168704Y394967D01*
X168577D01*
X168464Y394953D01*
X168309D01*
X168027Y394967D01*
X167759Y394996D01*
X167506Y395024D01*
X167266Y395080D01*
X167041Y395151D01*
X166829Y395221D01*
X166632Y395292D01*
X166448Y395376D01*
X166293Y395447D01*
X166138Y395517D01*
X166026Y395588D01*
X165913Y395658D01*
X165842Y395714D01*
X165772Y395743D01*
X165744Y395771D01*
X165730Y395785D01*
X165532Y395954D01*
X165363Y396123D01*
X165208Y396321D01*
X165053Y396518D01*
X164799Y396913D01*
X164602Y397308D01*
X164517Y397491D01*
X164447Y397660D01*
X164390Y397815D01*
X164348Y397942D01*
X164306Y398055D01*
X164277Y398139D01*
X164263Y398196D01*
Y398210D01*
X165560Y398534D01*
X165617Y398308D01*
X165687Y398097D01*
X165758Y397900D01*
X165828Y397716D01*
X165913Y397547D01*
X165997Y397406D01*
X166096Y397265D01*
X166181Y397138D01*
X166251Y397025D01*
X166336Y396941D01*
X166406Y396856D01*
X166463Y396786D01*
X166519Y396744D01*
X166561Y396701D01*
X166575Y396687D01*
X166590Y396673D01*
X166730Y396560D01*
X166886Y396476D01*
X167196Y396321D01*
X167492Y396208D01*
X167788Y396137D01*
X168041Y396081D01*
X168140Y396067D01*
X168239D01*
X168323Y396053D01*
X168422D01*
X168746Y396067D01*
X169056Y396123D01*
X169338Y396194D01*
X169592Y396278D01*
X169790Y396363D01*
X169874Y396405D01*
X169944Y396433D01*
X170001Y396462D01*
X170043Y396490D01*
X170071Y396504D01*
X170086D01*
X170353Y396701D01*
X170579Y396913D01*
X170776Y397152D01*
X170931Y397378D01*
X171058Y397575D01*
X171143Y397744D01*
X171171Y397815D01*
X171199Y397857D01*
X171213Y397885D01*
Y397900D01*
X171326Y398266D01*
X171411Y398633D01*
X171481Y398999D01*
X171523Y399337D01*
X171537Y399492D01*
X171552Y399633D01*
Y399760D01*
X171566Y399859D01*
Y399944D01*
Y400014D01*
Y400056D01*
Y400070D01*
X171552Y400437D01*
X171523Y400775D01*
X171467Y401086D01*
X171411Y401367D01*
X171368Y401607D01*
X171340Y401706D01*
X171312Y401790D01*
X171298Y401861D01*
X171284Y401903D01*
X171270Y401931D01*
Y401945D01*
X171129Y402270D01*
X170974Y402566D01*
X170805Y402805D01*
X170621Y403017D01*
X170466Y403186D01*
X170339Y403299D01*
X170241Y403369D01*
X170226Y403397D01*
X170212D01*
X169916Y403581D01*
X169592Y403722D01*
X169282Y403820D01*
X168986Y403877D01*
X168718Y403919D01*
X168605Y403933D01*
X168507D01*
X168436Y403947D01*
X168323D01*
X167971Y403933D01*
X167647Y403877D01*
X167379Y403792D01*
X167139Y403708D01*
X166956Y403609D01*
X166815Y403538D01*
X166730Y403482D01*
X166702Y403454D01*
X166477Y403242D01*
X166265Y403003D01*
X166096Y402749D01*
X165955Y402495D01*
X165842Y402270D01*
X165800Y402157D01*
X165772Y402072D01*
X165744Y402002D01*
X165715Y401945D01*
X165701Y401917D01*
Y401903D01*
X164433Y402199D01*
X164517Y402453D01*
X164602Y402678D01*
X164715Y402890D01*
X164813Y403101D01*
X164926Y403285D01*
X165053Y403454D01*
X165166Y403623D01*
X165278Y403764D01*
X165391Y403877D01*
X165490Y403989D01*
X165589Y404088D01*
X165659Y404159D01*
X165730Y404229D01*
X165786Y404271D01*
X165814Y404286D01*
X165828Y404300D01*
X166026Y404426D01*
X166223Y404553D01*
X166420Y404652D01*
X166632Y404737D01*
X167055Y404864D01*
X167435Y404948D01*
X167619Y404990D01*
X167774Y405004D01*
X167929Y405019D01*
X168055Y405033D01*
X168154Y405047D01*
X168295D01*
X168760Y405019D01*
D02*
G37*
G36*
X131513Y404680D02*
X131668Y404455D01*
X131851Y404229D01*
X132020Y404032D01*
X132189Y403863D01*
X132316Y403722D01*
X132373Y403679D01*
X132415Y403637D01*
X132429Y403623D01*
X132443Y403609D01*
X132739Y403369D01*
X133035Y403144D01*
X133317Y402946D01*
X133599Y402791D01*
X133839Y402650D01*
X133937Y402594D01*
X134022Y402551D01*
X134093Y402509D01*
X134149Y402495D01*
X134177Y402467D01*
X134191D01*
Y401311D01*
X133980Y401396D01*
X133768Y401494D01*
X133557Y401593D01*
X133359Y401692D01*
X133190Y401776D01*
X133049Y401847D01*
X132965Y401903D01*
X132951Y401917D01*
X132936D01*
X132683Y402072D01*
X132457Y402227D01*
X132260Y402368D01*
X132105Y402495D01*
X131964Y402594D01*
X131879Y402678D01*
X131809Y402735D01*
X131795Y402749D01*
Y395122D01*
X130596D01*
Y404920D01*
X131372D01*
X131513Y404680D01*
D02*
G37*
G36*
X140704Y405019D02*
X141155Y404948D01*
X141550Y404864D01*
X141733Y404807D01*
X141902Y404751D01*
X142057Y404694D01*
X142198Y404638D01*
X142311Y404596D01*
X142424Y404553D01*
X142494Y404511D01*
X142551Y404483D01*
X142593Y404469D01*
X142607Y404455D01*
X142988Y404215D01*
X143312Y403933D01*
X143594Y403651D01*
X143834Y403369D01*
X144017Y403115D01*
X144087Y403003D01*
X144144Y402904D01*
X144200Y402834D01*
X144228Y402777D01*
X144242Y402735D01*
X144256Y402721D01*
X144454Y402284D01*
X144595Y401833D01*
X144693Y401381D01*
X144764Y400973D01*
X144792Y400789D01*
X144806Y400606D01*
X144820Y400465D01*
Y400324D01*
X144834Y400225D01*
Y400141D01*
Y400085D01*
Y400070D01*
X144806Y399563D01*
X144750Y399070D01*
X144679Y398633D01*
X144623Y398421D01*
X144581Y398238D01*
X144538Y398069D01*
X144482Y397914D01*
X144440Y397773D01*
X144411Y397660D01*
X144369Y397575D01*
X144355Y397505D01*
X144327Y397463D01*
Y397448D01*
X144115Y397025D01*
X143876Y396645D01*
X143622Y396321D01*
X143495Y396194D01*
X143382Y396067D01*
X143270Y395954D01*
X143157Y395855D01*
X143058Y395771D01*
X142974Y395714D01*
X142917Y395658D01*
X142861Y395616D01*
X142833Y395602D01*
X142818Y395588D01*
X142621Y395475D01*
X142424Y395376D01*
X142001Y395221D01*
X141578Y395108D01*
X141169Y395038D01*
X140972Y395010D01*
X140803Y394981D01*
X140648Y394967D01*
X140521D01*
X140408Y394953D01*
X140253D01*
X139971Y394967D01*
X139703Y394996D01*
X139449Y395024D01*
X139210Y395080D01*
X138984Y395151D01*
X138773Y395221D01*
X138575Y395292D01*
X138392Y395376D01*
X138237Y395447D01*
X138082Y395517D01*
X137969Y395588D01*
X137856Y395658D01*
X137786Y395714D01*
X137715Y395743D01*
X137687Y395771D01*
X137673Y395785D01*
X137476Y395954D01*
X137307Y396123D01*
X137151Y396321D01*
X136996Y396518D01*
X136743Y396913D01*
X136545Y397308D01*
X136461Y397491D01*
X136390Y397660D01*
X136334Y397815D01*
X136292Y397942D01*
X136249Y398055D01*
X136221Y398139D01*
X136207Y398196D01*
Y398210D01*
X137504Y398534D01*
X137560Y398308D01*
X137631Y398097D01*
X137701Y397900D01*
X137772Y397716D01*
X137856Y397547D01*
X137941Y397406D01*
X138040Y397265D01*
X138124Y397138D01*
X138195Y397025D01*
X138279Y396941D01*
X138350Y396856D01*
X138406Y396786D01*
X138463Y396744D01*
X138505Y396701D01*
X138519Y396687D01*
X138533Y396673D01*
X138674Y396560D01*
X138829Y396476D01*
X139139Y396321D01*
X139435Y396208D01*
X139731Y396137D01*
X139985Y396081D01*
X140084Y396067D01*
X140182D01*
X140267Y396053D01*
X140366D01*
X140690Y396067D01*
X141000Y396123D01*
X141282Y396194D01*
X141536Y396278D01*
X141733Y396363D01*
X141818Y396405D01*
X141888Y396433D01*
X141945Y396462D01*
X141987Y396490D01*
X142015Y396504D01*
X142029D01*
X142297Y396701D01*
X142522Y396913D01*
X142720Y397152D01*
X142875Y397378D01*
X143002Y397575D01*
X143086Y397744D01*
X143115Y397815D01*
X143143Y397857D01*
X143157Y397885D01*
Y397900D01*
X143270Y398266D01*
X143354Y398633D01*
X143425Y398999D01*
X143467Y399337D01*
X143481Y399492D01*
X143495Y399633D01*
Y399760D01*
X143509Y399859D01*
Y399944D01*
Y400014D01*
Y400056D01*
Y400070D01*
X143495Y400437D01*
X143467Y400775D01*
X143411Y401086D01*
X143354Y401367D01*
X143312Y401607D01*
X143284Y401706D01*
X143256Y401790D01*
X143241Y401861D01*
X143227Y401903D01*
X143213Y401931D01*
Y401945D01*
X143072Y402270D01*
X142917Y402566D01*
X142748Y402805D01*
X142565Y403017D01*
X142410Y403186D01*
X142283Y403299D01*
X142184Y403369D01*
X142170Y403397D01*
X142156D01*
X141860Y403581D01*
X141536Y403722D01*
X141226Y403820D01*
X140929Y403877D01*
X140662Y403919D01*
X140549Y403933D01*
X140450D01*
X140380Y403947D01*
X140267D01*
X139915Y403933D01*
X139590Y403877D01*
X139323Y403792D01*
X139083Y403708D01*
X138900Y403609D01*
X138759Y403538D01*
X138674Y403482D01*
X138646Y403454D01*
X138420Y403242D01*
X138209Y403003D01*
X138040Y402749D01*
X137899Y402495D01*
X137786Y402270D01*
X137744Y402157D01*
X137715Y402072D01*
X137687Y402002D01*
X137659Y401945D01*
X137645Y401917D01*
Y401903D01*
X136376Y402199D01*
X136461Y402453D01*
X136545Y402678D01*
X136658Y402890D01*
X136757Y403101D01*
X136870Y403285D01*
X136996Y403454D01*
X137109Y403623D01*
X137222Y403764D01*
X137335Y403877D01*
X137434Y403989D01*
X137532Y404088D01*
X137603Y404159D01*
X137673Y404229D01*
X137730Y404271D01*
X137758Y404286D01*
X137772Y404300D01*
X137969Y404426D01*
X138167Y404553D01*
X138364Y404652D01*
X138575Y404737D01*
X138998Y404864D01*
X139379Y404948D01*
X139562Y404990D01*
X139717Y405004D01*
X139872Y405019D01*
X139999Y405033D01*
X140098Y405047D01*
X140239D01*
X140704Y405019D01*
D02*
G37*
G36*
X127932Y398562D02*
Y397463D01*
X123689D01*
Y395122D01*
X122491D01*
Y397463D01*
X121166D01*
Y398562D01*
X122491D01*
Y404878D01*
X123463D01*
X127932Y398562D01*
D02*
G37*
G36*
X147894Y344392D02*
X148275Y344321D01*
X148599Y344208D01*
X148881Y344096D01*
X149008Y344025D01*
X149107Y343969D01*
X149205Y343912D01*
X149276Y343856D01*
X149332Y343814D01*
X149374Y343786D01*
X149403Y343771D01*
X149417Y343757D01*
X149684Y343489D01*
X149896Y343193D01*
X150065Y342883D01*
X150206Y342573D01*
X150291Y342305D01*
X150333Y342192D01*
X150361Y342094D01*
X150375Y342009D01*
X150389Y341953D01*
X150403Y341911D01*
Y341897D01*
X149205Y341685D01*
X149149Y341995D01*
X149064Y342263D01*
X148966Y342489D01*
X148867Y342672D01*
X148768Y342813D01*
X148684Y342911D01*
X148627Y342982D01*
X148613Y342996D01*
X148430Y343137D01*
X148232Y343250D01*
X148049Y343320D01*
X147866Y343377D01*
X147697Y343405D01*
X147570Y343433D01*
X147457D01*
X147204Y343419D01*
X146978Y343363D01*
X146781Y343292D01*
X146611Y343222D01*
X146484Y343137D01*
X146386Y343066D01*
X146315Y343010D01*
X146301Y342996D01*
X146146Y342827D01*
X146033Y342644D01*
X145963Y342460D01*
X145906Y342291D01*
X145878Y342136D01*
X145850Y342023D01*
Y341939D01*
Y341925D01*
Y341911D01*
Y341755D01*
X145878Y341615D01*
X145949Y341375D01*
X146047Y341163D01*
X146160Y340980D01*
X146273Y340853D01*
X146372Y340755D01*
X146442Y340698D01*
X146456Y340684D01*
X146470D01*
X146710Y340557D01*
X146936Y340459D01*
X147175Y340388D01*
X147387Y340346D01*
X147570Y340318D01*
X147725Y340289D01*
X147908D01*
X147965Y340303D01*
X148035D01*
X148176Y339246D01*
X147993Y339289D01*
X147824Y339317D01*
X147683Y339345D01*
X147556Y339359D01*
X147457Y339373D01*
X147330D01*
X147034Y339345D01*
X146767Y339289D01*
X146527Y339204D01*
X146329Y339105D01*
X146174Y339007D01*
X146062Y338922D01*
X145991Y338866D01*
X145963Y338837D01*
X145780Y338626D01*
X145639Y338400D01*
X145540Y338175D01*
X145484Y337949D01*
X145441Y337766D01*
X145427Y337611D01*
X145413Y337555D01*
Y337512D01*
Y337484D01*
Y337470D01*
X145441Y337160D01*
X145512Y336878D01*
X145596Y336638D01*
X145709Y336427D01*
X145822Y336258D01*
X145906Y336131D01*
X145977Y336046D01*
X146005Y336018D01*
X146231Y335821D01*
X146470Y335680D01*
X146710Y335581D01*
X146936Y335511D01*
X147133Y335468D01*
X147288Y335454D01*
X147344Y335440D01*
X147429D01*
X147683Y335454D01*
X147922Y335511D01*
X148134Y335581D01*
X148303Y335666D01*
X148444Y335736D01*
X148557Y335807D01*
X148613Y335863D01*
X148641Y335877D01*
X148811Y336074D01*
X148952Y336300D01*
X149078Y336540D01*
X149177Y336793D01*
X149248Y337005D01*
X149276Y337104D01*
X149290Y337188D01*
X149304Y337259D01*
X149318Y337315D01*
X149332Y337343D01*
Y337357D01*
X150530Y337202D01*
X150502Y336977D01*
X150460Y336765D01*
X150333Y336371D01*
X150178Y336032D01*
X150093Y335891D01*
X150009Y335750D01*
X149924Y335623D01*
X149840Y335525D01*
X149769Y335426D01*
X149699Y335355D01*
X149656Y335299D01*
X149614Y335257D01*
X149586Y335229D01*
X149572Y335215D01*
X149403Y335088D01*
X149233Y334961D01*
X149064Y334862D01*
X148881Y334777D01*
X148529Y334636D01*
X148190Y334552D01*
X148035Y334524D01*
X147894Y334496D01*
X147767Y334482D01*
X147655Y334467D01*
X147570Y334453D01*
X147443D01*
X147175Y334467D01*
X146936Y334496D01*
X146696Y334538D01*
X146470Y334594D01*
X146259Y334665D01*
X146076Y334735D01*
X145892Y334820D01*
X145737Y334904D01*
X145582Y334975D01*
X145455Y335060D01*
X145343Y335130D01*
X145258Y335200D01*
X145188Y335257D01*
X145131Y335299D01*
X145103Y335327D01*
X145089Y335341D01*
X144920Y335511D01*
X144779Y335694D01*
X144652Y335877D01*
X144539Y336060D01*
X144454Y336230D01*
X144370Y336413D01*
X144257Y336751D01*
X144229Y336906D01*
X144201Y337047D01*
X144173Y337174D01*
X144158Y337287D01*
X144144Y337371D01*
Y337442D01*
Y337484D01*
Y337498D01*
X144158Y337837D01*
X144215Y338147D01*
X144299Y338414D01*
X144384Y338640D01*
X144469Y338823D01*
X144553Y338964D01*
X144610Y339049D01*
X144624Y339077D01*
X144821Y339289D01*
X145033Y339472D01*
X145258Y339613D01*
X145484Y339726D01*
X145681Y339810D01*
X145836Y339866D01*
X145892Y339881D01*
X145935Y339895D01*
X145963Y339909D01*
X145977D01*
X145737Y340036D01*
X145540Y340163D01*
X145371Y340303D01*
X145230Y340430D01*
X145117Y340543D01*
X145033Y340642D01*
X144990Y340698D01*
X144976Y340726D01*
X144863Y340924D01*
X144779Y341121D01*
X144708Y341319D01*
X144666Y341502D01*
X144638Y341657D01*
X144624Y341770D01*
Y341854D01*
Y341882D01*
X144638Y342122D01*
X144680Y342362D01*
X144736Y342573D01*
X144807Y342756D01*
X144878Y342911D01*
X144934Y343038D01*
X144976Y343109D01*
X144990Y343137D01*
X145131Y343349D01*
X145300Y343532D01*
X145470Y343687D01*
X145639Y343828D01*
X145780Y343927D01*
X145906Y344011D01*
X145991Y344053D01*
X146005Y344067D01*
X146019D01*
X146273Y344180D01*
X146527Y344265D01*
X146781Y344335D01*
X147006Y344378D01*
X147189Y344406D01*
X147344Y344420D01*
X147697D01*
X147894Y344392D01*
D02*
G37*
G36*
X154534Y344180D02*
X154689Y343955D01*
X154872Y343729D01*
X155041Y343532D01*
X155211Y343363D01*
X155337Y343222D01*
X155394Y343179D01*
X155436Y343137D01*
X155450Y343123D01*
X155464Y343109D01*
X155760Y342869D01*
X156056Y342644D01*
X156338Y342446D01*
X156620Y342291D01*
X156860Y342150D01*
X156959Y342094D01*
X157043Y342052D01*
X157114Y342009D01*
X157170Y341995D01*
X157198Y341967D01*
X157212D01*
Y340811D01*
X157001Y340896D01*
X156789Y340994D01*
X156578Y341093D01*
X156381Y341192D01*
X156211Y341276D01*
X156070Y341347D01*
X155986Y341403D01*
X155972Y341417D01*
X155958D01*
X155704Y341572D01*
X155478Y341727D01*
X155281Y341868D01*
X155126Y341995D01*
X154985Y342094D01*
X154900Y342178D01*
X154830Y342235D01*
X154816Y342249D01*
Y334622D01*
X153618D01*
Y344420D01*
X154393D01*
X154534Y344180D01*
D02*
G37*
G36*
X163725Y344519D02*
X164176Y344448D01*
X164571Y344364D01*
X164754Y344307D01*
X164923Y344251D01*
X165079Y344194D01*
X165219Y344138D01*
X165332Y344096D01*
X165445Y344053D01*
X165515Y344011D01*
X165572Y343983D01*
X165614Y343969D01*
X165628Y343955D01*
X166009Y343715D01*
X166333Y343433D01*
X166615Y343151D01*
X166855Y342869D01*
X167038Y342615D01*
X167108Y342503D01*
X167165Y342404D01*
X167221Y342333D01*
X167249Y342277D01*
X167264Y342235D01*
X167278Y342221D01*
X167475Y341784D01*
X167616Y341333D01*
X167715Y340882D01*
X167785Y340473D01*
X167813Y340289D01*
X167827Y340106D01*
X167841Y339965D01*
Y339824D01*
X167856Y339726D01*
Y339641D01*
Y339585D01*
Y339571D01*
X167827Y339063D01*
X167771Y338570D01*
X167701Y338133D01*
X167644Y337921D01*
X167602Y337738D01*
X167560Y337569D01*
X167503Y337414D01*
X167461Y337273D01*
X167433Y337160D01*
X167390Y337075D01*
X167376Y337005D01*
X167348Y336963D01*
Y336948D01*
X167137Y336525D01*
X166897Y336145D01*
X166643Y335821D01*
X166516Y335694D01*
X166404Y335567D01*
X166291Y335454D01*
X166178Y335355D01*
X166079Y335271D01*
X165995Y335215D01*
X165938Y335158D01*
X165882Y335116D01*
X165854Y335102D01*
X165840Y335088D01*
X165642Y334975D01*
X165445Y334876D01*
X165022Y334721D01*
X164599Y334608D01*
X164190Y334538D01*
X163993Y334510D01*
X163824Y334482D01*
X163669Y334467D01*
X163542D01*
X163429Y334453D01*
X163274D01*
X162992Y334467D01*
X162724Y334496D01*
X162470Y334524D01*
X162231Y334580D01*
X162005Y334651D01*
X161794Y334721D01*
X161597Y334792D01*
X161413Y334876D01*
X161258Y334947D01*
X161103Y335017D01*
X160990Y335088D01*
X160878Y335158D01*
X160807Y335215D01*
X160737Y335243D01*
X160708Y335271D01*
X160694Y335285D01*
X160497Y335454D01*
X160328Y335623D01*
X160173Y335821D01*
X160018Y336018D01*
X159764Y336413D01*
X159566Y336808D01*
X159482Y336991D01*
X159411Y337160D01*
X159355Y337315D01*
X159313Y337442D01*
X159270Y337555D01*
X159242Y337639D01*
X159228Y337696D01*
Y337710D01*
X160525Y338034D01*
X160581Y337808D01*
X160652Y337597D01*
X160723Y337400D01*
X160793Y337216D01*
X160878Y337047D01*
X160962Y336906D01*
X161061Y336765D01*
X161145Y336638D01*
X161216Y336525D01*
X161301Y336441D01*
X161371Y336356D01*
X161427Y336286D01*
X161484Y336244D01*
X161526Y336201D01*
X161540Y336187D01*
X161554Y336173D01*
X161695Y336060D01*
X161850Y335976D01*
X162160Y335821D01*
X162456Y335708D01*
X162752Y335637D01*
X163006Y335581D01*
X163105Y335567D01*
X163204D01*
X163288Y335553D01*
X163387D01*
X163711Y335567D01*
X164021Y335623D01*
X164303Y335694D01*
X164557Y335778D01*
X164754Y335863D01*
X164839Y335905D01*
X164909Y335933D01*
X164966Y335962D01*
X165008Y335990D01*
X165036Y336004D01*
X165050D01*
X165318Y336201D01*
X165544Y336413D01*
X165741Y336652D01*
X165896Y336878D01*
X166023Y337075D01*
X166108Y337244D01*
X166136Y337315D01*
X166164Y337357D01*
X166178Y337385D01*
Y337400D01*
X166291Y337766D01*
X166375Y338133D01*
X166446Y338499D01*
X166488Y338837D01*
X166502Y338993D01*
X166516Y339133D01*
Y339260D01*
X166530Y339359D01*
Y339444D01*
Y339514D01*
Y339556D01*
Y339571D01*
X166516Y339937D01*
X166488Y340275D01*
X166432Y340586D01*
X166375Y340867D01*
X166333Y341107D01*
X166305Y341206D01*
X166277Y341290D01*
X166263Y341361D01*
X166248Y341403D01*
X166234Y341431D01*
Y341445D01*
X166093Y341770D01*
X165938Y342066D01*
X165769Y342305D01*
X165586Y342517D01*
X165431Y342686D01*
X165304Y342799D01*
X165205Y342869D01*
X165191Y342897D01*
X165177D01*
X164881Y343081D01*
X164557Y343222D01*
X164247Y343320D01*
X163951Y343377D01*
X163683Y343419D01*
X163570Y343433D01*
X163471D01*
X163401Y343447D01*
X163288D01*
X162936Y343433D01*
X162612Y343377D01*
X162344Y343292D01*
X162104Y343208D01*
X161921Y343109D01*
X161780Y343038D01*
X161695Y342982D01*
X161667Y342954D01*
X161441Y342742D01*
X161230Y342503D01*
X161061Y342249D01*
X160920Y341995D01*
X160807Y341770D01*
X160765Y341657D01*
X160737Y341572D01*
X160708Y341502D01*
X160680Y341445D01*
X160666Y341417D01*
Y341403D01*
X159397Y341699D01*
X159482Y341953D01*
X159566Y342178D01*
X159679Y342390D01*
X159778Y342601D01*
X159891Y342785D01*
X160018Y342954D01*
X160130Y343123D01*
X160243Y343264D01*
X160356Y343377D01*
X160455Y343489D01*
X160553Y343588D01*
X160624Y343659D01*
X160694Y343729D01*
X160751Y343771D01*
X160779Y343786D01*
X160793Y343800D01*
X160990Y343927D01*
X161188Y344053D01*
X161385Y344152D01*
X161597Y344237D01*
X162019Y344364D01*
X162400Y344448D01*
X162583Y344490D01*
X162738Y344504D01*
X162893Y344519D01*
X163020Y344533D01*
X163119Y344547D01*
X163260D01*
X163725Y344519D01*
D02*
G37*
G36*
X122521Y344906D02*
X122760Y344892D01*
X122986Y344849D01*
X123197Y344807D01*
X123395Y344751D01*
X123578Y344694D01*
X123747Y344624D01*
X123902Y344553D01*
X124043Y344483D01*
X124156Y344412D01*
X124255Y344356D01*
X124339Y344300D01*
X124410Y344257D01*
X124452Y344215D01*
X124480Y344201D01*
X124494Y344187D01*
X124635Y344046D01*
X124762Y343891D01*
X124889Y343722D01*
X124988Y343552D01*
X125157Y343214D01*
X125269Y342876D01*
X125312Y342721D01*
X125354Y342566D01*
X125382Y342439D01*
X125410Y342326D01*
X125425Y342227D01*
Y342157D01*
X125439Y342115D01*
Y342100D01*
X124212Y341974D01*
X124184Y342298D01*
X124128Y342580D01*
X124043Y342834D01*
X123944Y343031D01*
X123860Y343200D01*
X123775Y343313D01*
X123719Y343383D01*
X123691Y343411D01*
X123479Y343581D01*
X123254Y343708D01*
X123014Y343806D01*
X122803Y343863D01*
X122605Y343905D01*
X122436Y343919D01*
X122380Y343933D01*
X122295D01*
X121999Y343919D01*
X121731Y343863D01*
X121506Y343778D01*
X121308Y343693D01*
X121153Y343595D01*
X121054Y343524D01*
X120984Y343468D01*
X120956Y343440D01*
X120787Y343242D01*
X120660Y343045D01*
X120561Y342848D01*
X120505Y342650D01*
X120463Y342495D01*
X120448Y342354D01*
X120434Y342270D01*
Y342256D01*
Y342241D01*
X120463Y341988D01*
X120519Y341720D01*
X120618Y341480D01*
X120716Y341255D01*
X120829Y341071D01*
X120928Y340916D01*
X120956Y340860D01*
X120984Y340818D01*
X121012Y340803D01*
Y340789D01*
X121125Y340634D01*
X121266Y340479D01*
X121421Y340310D01*
X121590Y340141D01*
X121943Y339803D01*
X122295Y339464D01*
X122478Y339309D01*
X122633Y339168D01*
X122788Y339041D01*
X122915Y338929D01*
X123014Y338844D01*
X123099Y338774D01*
X123155Y338731D01*
X123169Y338717D01*
X123521Y338421D01*
X123846Y338139D01*
X124114Y337886D01*
X124325Y337674D01*
X124508Y337491D01*
X124635Y337364D01*
X124706Y337279D01*
X124734Y337265D01*
Y337251D01*
X124931Y337011D01*
X125086Y336786D01*
X125227Y336560D01*
X125340Y336363D01*
X125425Y336194D01*
X125481Y336067D01*
X125509Y335982D01*
X125523Y335968D01*
Y335954D01*
X125580Y335799D01*
X125608Y335658D01*
X125636Y335517D01*
X125650Y335390D01*
X125664Y335277D01*
Y335193D01*
Y335136D01*
Y335122D01*
X119194D01*
Y336278D01*
X124001D01*
X123832Y336518D01*
X123747Y336617D01*
X123677Y336715D01*
X123606Y336800D01*
X123550Y336856D01*
X123507Y336899D01*
X123493Y336913D01*
X123423Y336983D01*
X123338Y337054D01*
X123141Y337237D01*
X122915Y337448D01*
X122676Y337660D01*
X122450Y337843D01*
X122352Y337928D01*
X122267Y338012D01*
X122196Y338069D01*
X122140Y338111D01*
X122112Y338139D01*
X122098Y338153D01*
X121872Y338351D01*
X121647Y338534D01*
X121449Y338717D01*
X121266Y338872D01*
X121097Y339027D01*
X120956Y339168D01*
X120815Y339295D01*
X120702Y339408D01*
X120589Y339521D01*
X120505Y339605D01*
X120434Y339676D01*
X120364Y339746D01*
X120293Y339831D01*
X120265Y339859D01*
X120068Y340099D01*
X119899Y340310D01*
X119758Y340522D01*
X119645Y340691D01*
X119560Y340846D01*
X119504Y340959D01*
X119476Y341029D01*
X119462Y341057D01*
X119377Y341269D01*
X119321Y341480D01*
X119264Y341678D01*
X119236Y341847D01*
X119222Y342002D01*
X119208Y342115D01*
Y342185D01*
Y342213D01*
X119222Y342425D01*
X119250Y342622D01*
X119278Y342819D01*
X119335Y342989D01*
X119476Y343327D01*
X119617Y343595D01*
X119701Y343722D01*
X119772Y343820D01*
X119842Y343919D01*
X119913Y343989D01*
X119969Y344046D01*
X119997Y344102D01*
X120026Y344116D01*
X120040Y344130D01*
X120195Y344271D01*
X120364Y344398D01*
X120547Y344497D01*
X120730Y344581D01*
X121097Y344723D01*
X121463Y344821D01*
X121618Y344849D01*
X121774Y344878D01*
X121915Y344892D01*
X122027Y344906D01*
X122126Y344920D01*
X122267D01*
X122521Y344906D01*
D02*
G37*
G36*
X129485Y344680D02*
X129640Y344455D01*
X129823Y344229D01*
X129992Y344032D01*
X130161Y343863D01*
X130288Y343722D01*
X130344Y343679D01*
X130387Y343637D01*
X130401Y343623D01*
X130415Y343609D01*
X130711Y343369D01*
X131007Y343144D01*
X131289Y342946D01*
X131571Y342791D01*
X131811Y342650D01*
X131909Y342594D01*
X131994Y342552D01*
X132064Y342509D01*
X132121Y342495D01*
X132149Y342467D01*
X132163D01*
Y341311D01*
X131952Y341396D01*
X131740Y341494D01*
X131529Y341593D01*
X131331Y341692D01*
X131162Y341776D01*
X131021Y341847D01*
X130936Y341903D01*
X130922Y341917D01*
X130908D01*
X130655Y342072D01*
X130429Y342227D01*
X130232Y342368D01*
X130077Y342495D01*
X129936Y342594D01*
X129851Y342678D01*
X129781Y342735D01*
X129767Y342749D01*
Y335122D01*
X128568D01*
Y344920D01*
X129344D01*
X129485Y344680D01*
D02*
G37*
G36*
X138676Y345019D02*
X139127Y344948D01*
X139522Y344864D01*
X139705Y344807D01*
X139874Y344751D01*
X140029Y344694D01*
X140170Y344638D01*
X140283Y344596D01*
X140396Y344553D01*
X140466Y344511D01*
X140522Y344483D01*
X140565Y344469D01*
X140579Y344455D01*
X140960Y344215D01*
X141284Y343933D01*
X141566Y343651D01*
X141805Y343369D01*
X141989Y343115D01*
X142059Y343003D01*
X142115Y342904D01*
X142172Y342834D01*
X142200Y342777D01*
X142214Y342735D01*
X142228Y342721D01*
X142426Y342284D01*
X142567Y341833D01*
X142665Y341381D01*
X142736Y340973D01*
X142764Y340789D01*
X142778Y340606D01*
X142792Y340465D01*
Y340324D01*
X142806Y340226D01*
Y340141D01*
Y340085D01*
Y340070D01*
X142778Y339563D01*
X142722Y339070D01*
X142651Y338633D01*
X142595Y338421D01*
X142552Y338238D01*
X142510Y338069D01*
X142454Y337914D01*
X142411Y337773D01*
X142383Y337660D01*
X142341Y337575D01*
X142327Y337505D01*
X142299Y337463D01*
Y337448D01*
X142087Y337025D01*
X141848Y336645D01*
X141594Y336321D01*
X141467Y336194D01*
X141354Y336067D01*
X141241Y335954D01*
X141129Y335855D01*
X141030Y335771D01*
X140945Y335714D01*
X140889Y335658D01*
X140833Y335616D01*
X140804Y335602D01*
X140790Y335588D01*
X140593Y335475D01*
X140396Y335376D01*
X139973Y335221D01*
X139550Y335108D01*
X139141Y335038D01*
X138944Y335010D01*
X138774Y334981D01*
X138619Y334967D01*
X138492D01*
X138380Y334953D01*
X138225D01*
X137943Y334967D01*
X137675Y334996D01*
X137421Y335024D01*
X137182Y335080D01*
X136956Y335151D01*
X136744Y335221D01*
X136547Y335292D01*
X136364Y335376D01*
X136209Y335447D01*
X136054Y335517D01*
X135941Y335588D01*
X135828Y335658D01*
X135758Y335714D01*
X135687Y335743D01*
X135659Y335771D01*
X135645Y335785D01*
X135448Y335954D01*
X135278Y336123D01*
X135123Y336321D01*
X134968Y336518D01*
X134714Y336913D01*
X134517Y337308D01*
X134433Y337491D01*
X134362Y337660D01*
X134306Y337815D01*
X134263Y337942D01*
X134221Y338055D01*
X134193Y338139D01*
X134179Y338196D01*
Y338210D01*
X135476Y338534D01*
X135532Y338308D01*
X135603Y338097D01*
X135673Y337900D01*
X135744Y337716D01*
X135828Y337547D01*
X135913Y337406D01*
X136011Y337265D01*
X136096Y337138D01*
X136166Y337025D01*
X136251Y336941D01*
X136322Y336856D01*
X136378Y336786D01*
X136434Y336744D01*
X136477Y336701D01*
X136491Y336687D01*
X136505Y336673D01*
X136646Y336560D01*
X136801Y336476D01*
X137111Y336321D01*
X137407Y336208D01*
X137703Y336137D01*
X137957Y336081D01*
X138055Y336067D01*
X138154D01*
X138239Y336053D01*
X138337D01*
X138662Y336067D01*
X138972Y336123D01*
X139254Y336194D01*
X139508Y336278D01*
X139705Y336363D01*
X139789Y336405D01*
X139860Y336433D01*
X139916Y336462D01*
X139959Y336490D01*
X139987Y336504D01*
X140001D01*
X140269Y336701D01*
X140494Y336913D01*
X140692Y337152D01*
X140847Y337378D01*
X140974Y337575D01*
X141058Y337744D01*
X141086Y337815D01*
X141115Y337857D01*
X141129Y337886D01*
Y337900D01*
X141241Y338266D01*
X141326Y338633D01*
X141397Y338999D01*
X141439Y339337D01*
X141453Y339492D01*
X141467Y339633D01*
Y339760D01*
X141481Y339859D01*
Y339944D01*
Y340014D01*
Y340056D01*
Y340070D01*
X141467Y340437D01*
X141439Y340775D01*
X141382Y341086D01*
X141326Y341367D01*
X141284Y341607D01*
X141256Y341706D01*
X141227Y341790D01*
X141213Y341861D01*
X141199Y341903D01*
X141185Y341931D01*
Y341945D01*
X141044Y342270D01*
X140889Y342566D01*
X140720Y342805D01*
X140537Y343017D01*
X140381Y343186D01*
X140255Y343299D01*
X140156Y343369D01*
X140142Y343397D01*
X140128D01*
X139832Y343581D01*
X139508Y343722D01*
X139197Y343820D01*
X138901Y343877D01*
X138633Y343919D01*
X138521Y343933D01*
X138422D01*
X138352Y343947D01*
X138239D01*
X137886Y343933D01*
X137562Y343877D01*
X137294Y343792D01*
X137055Y343708D01*
X136871Y343609D01*
X136730Y343538D01*
X136646Y343482D01*
X136618Y343454D01*
X136392Y343242D01*
X136181Y343003D01*
X136011Y342749D01*
X135871Y342495D01*
X135758Y342270D01*
X135715Y342157D01*
X135687Y342072D01*
X135659Y342002D01*
X135631Y341945D01*
X135617Y341917D01*
Y341903D01*
X134348Y342199D01*
X134433Y342453D01*
X134517Y342678D01*
X134630Y342890D01*
X134729Y343101D01*
X134841Y343285D01*
X134968Y343454D01*
X135081Y343623D01*
X135194Y343764D01*
X135307Y343877D01*
X135405Y343989D01*
X135504Y344088D01*
X135575Y344159D01*
X135645Y344229D01*
X135701Y344271D01*
X135730Y344286D01*
X135744Y344300D01*
X135941Y344426D01*
X136138Y344553D01*
X136336Y344652D01*
X136547Y344737D01*
X136970Y344864D01*
X137351Y344948D01*
X137534Y344990D01*
X137689Y345004D01*
X137844Y345019D01*
X137971Y345033D01*
X138070Y345047D01*
X138211D01*
X138676Y345019D01*
D02*
G37*
G36*
X151520Y283680D02*
X151675Y283455D01*
X151858Y283229D01*
X152027Y283032D01*
X152197Y282863D01*
X152323Y282722D01*
X152380Y282679D01*
X152422Y282637D01*
X152436Y282623D01*
X152450Y282609D01*
X152746Y282369D01*
X153042Y282144D01*
X153324Y281946D01*
X153606Y281791D01*
X153846Y281650D01*
X153945Y281594D01*
X154029Y281552D01*
X154100Y281509D01*
X154156Y281495D01*
X154184Y281467D01*
X154198D01*
Y280311D01*
X153987Y280396D01*
X153775Y280494D01*
X153564Y280593D01*
X153366Y280692D01*
X153197Y280776D01*
X153056Y280847D01*
X152972Y280903D01*
X152958Y280917D01*
X152944D01*
X152690Y281072D01*
X152464Y281227D01*
X152267Y281368D01*
X152112Y281495D01*
X151971Y281594D01*
X151886Y281678D01*
X151816Y281735D01*
X151802Y281749D01*
Y274122D01*
X150604D01*
Y283920D01*
X151379D01*
X151520Y283680D01*
D02*
G37*
G36*
X160711Y284018D02*
X161162Y283948D01*
X161557Y283864D01*
X161740Y283807D01*
X161909Y283751D01*
X162064Y283694D01*
X162205Y283638D01*
X162318Y283596D01*
X162431Y283553D01*
X162501Y283511D01*
X162558Y283483D01*
X162600Y283469D01*
X162614Y283455D01*
X162995Y283215D01*
X163319Y282933D01*
X163601Y282651D01*
X163841Y282369D01*
X164024Y282115D01*
X164094Y282003D01*
X164151Y281904D01*
X164207Y281833D01*
X164235Y281777D01*
X164249Y281735D01*
X164263Y281721D01*
X164461Y281284D01*
X164602Y280833D01*
X164701Y280382D01*
X164771Y279973D01*
X164799Y279789D01*
X164813Y279606D01*
X164827Y279465D01*
Y279324D01*
X164841Y279226D01*
Y279141D01*
Y279085D01*
Y279070D01*
X164813Y278563D01*
X164757Y278070D01*
X164686Y277633D01*
X164630Y277421D01*
X164588Y277238D01*
X164545Y277069D01*
X164489Y276914D01*
X164447Y276773D01*
X164419Y276660D01*
X164376Y276575D01*
X164362Y276505D01*
X164334Y276462D01*
Y276448D01*
X164123Y276026D01*
X163883Y275645D01*
X163629Y275321D01*
X163502Y275194D01*
X163389Y275067D01*
X163277Y274954D01*
X163164Y274855D01*
X163065Y274771D01*
X162981Y274715D01*
X162924Y274658D01*
X162868Y274616D01*
X162840Y274602D01*
X162826Y274588D01*
X162628Y274475D01*
X162431Y274376D01*
X162008Y274221D01*
X161585Y274108D01*
X161176Y274038D01*
X160979Y274010D01*
X160810Y273981D01*
X160655Y273967D01*
X160528D01*
X160415Y273953D01*
X160260D01*
X159978Y273967D01*
X159710Y273996D01*
X159456Y274024D01*
X159217Y274080D01*
X158991Y274151D01*
X158780Y274221D01*
X158582Y274292D01*
X158399Y274376D01*
X158244Y274447D01*
X158089Y274517D01*
X157976Y274588D01*
X157864Y274658D01*
X157793Y274715D01*
X157723Y274743D01*
X157694Y274771D01*
X157680Y274785D01*
X157483Y274954D01*
X157314Y275123D01*
X157159Y275321D01*
X157003Y275518D01*
X156750Y275913D01*
X156552Y276308D01*
X156468Y276491D01*
X156397Y276660D01*
X156341Y276815D01*
X156299Y276942D01*
X156256Y277055D01*
X156228Y277139D01*
X156214Y277196D01*
Y277210D01*
X157511Y277534D01*
X157567Y277308D01*
X157638Y277097D01*
X157708Y276900D01*
X157779Y276716D01*
X157864Y276547D01*
X157948Y276406D01*
X158047Y276265D01*
X158131Y276138D01*
X158202Y276026D01*
X158286Y275941D01*
X158357Y275856D01*
X158413Y275786D01*
X158470Y275744D01*
X158512Y275701D01*
X158526Y275687D01*
X158540Y275673D01*
X158681Y275560D01*
X158836Y275476D01*
X159146Y275321D01*
X159442Y275208D01*
X159738Y275137D01*
X159992Y275081D01*
X160091Y275067D01*
X160189D01*
X160274Y275053D01*
X160373D01*
X160697Y275067D01*
X161007Y275123D01*
X161289Y275194D01*
X161543Y275278D01*
X161740Y275363D01*
X161825Y275405D01*
X161895Y275434D01*
X161952Y275462D01*
X161994Y275490D01*
X162022Y275504D01*
X162036D01*
X162304Y275701D01*
X162530Y275913D01*
X162727Y276152D01*
X162882Y276378D01*
X163009Y276575D01*
X163093Y276744D01*
X163122Y276815D01*
X163150Y276857D01*
X163164Y276886D01*
Y276900D01*
X163277Y277266D01*
X163361Y277633D01*
X163432Y277999D01*
X163474Y278337D01*
X163488Y278493D01*
X163502Y278633D01*
Y278760D01*
X163516Y278859D01*
Y278944D01*
Y279014D01*
Y279056D01*
Y279070D01*
X163502Y279437D01*
X163474Y279775D01*
X163418Y280086D01*
X163361Y280367D01*
X163319Y280607D01*
X163291Y280706D01*
X163263Y280790D01*
X163249Y280861D01*
X163234Y280903D01*
X163220Y280931D01*
Y280945D01*
X163079Y281270D01*
X162924Y281566D01*
X162755Y281805D01*
X162572Y282017D01*
X162417Y282186D01*
X162290Y282299D01*
X162191Y282369D01*
X162177Y282397D01*
X162163D01*
X161867Y282581D01*
X161543Y282722D01*
X161233Y282820D01*
X160937Y282877D01*
X160669Y282919D01*
X160556Y282933D01*
X160457D01*
X160387Y282947D01*
X160274D01*
X159922Y282933D01*
X159597Y282877D01*
X159330Y282792D01*
X159090Y282708D01*
X158907Y282609D01*
X158766Y282538D01*
X158681Y282482D01*
X158653Y282454D01*
X158427Y282242D01*
X158216Y282003D01*
X158047Y281749D01*
X157906Y281495D01*
X157793Y281270D01*
X157751Y281157D01*
X157723Y281072D01*
X157694Y281002D01*
X157666Y280945D01*
X157652Y280917D01*
Y280903D01*
X156383Y281199D01*
X156468Y281453D01*
X156552Y281678D01*
X156665Y281890D01*
X156764Y282101D01*
X156877Y282285D01*
X157003Y282454D01*
X157116Y282623D01*
X157229Y282764D01*
X157342Y282877D01*
X157441Y282990D01*
X157539Y283088D01*
X157610Y283159D01*
X157680Y283229D01*
X157737Y283271D01*
X157765Y283286D01*
X157779Y283300D01*
X157976Y283426D01*
X158174Y283553D01*
X158371Y283652D01*
X158582Y283737D01*
X159005Y283864D01*
X159386Y283948D01*
X159569Y283990D01*
X159724Y284004D01*
X159879Y284018D01*
X160006Y284033D01*
X160105Y284047D01*
X160246D01*
X160711Y284018D01*
D02*
G37*
G36*
X144725Y283892D02*
X145077Y283835D01*
X145373Y283737D01*
X145627Y283638D01*
X145839Y283525D01*
X145923Y283483D01*
X145994Y283426D01*
X146050Y283398D01*
X146093Y283370D01*
X146107Y283342D01*
X146121D01*
X146374Y283116D01*
X146586Y282848D01*
X146769Y282581D01*
X146910Y282327D01*
X147023Y282087D01*
X147079Y281989D01*
X147107Y281890D01*
X147136Y281819D01*
X147164Y281763D01*
X147178Y281735D01*
Y281721D01*
X147234Y281509D01*
X147291Y281298D01*
X147375Y280833D01*
X147446Y280367D01*
X147488Y279930D01*
X147502Y279719D01*
X147516Y279536D01*
Y279366D01*
X147530Y279212D01*
Y279099D01*
Y279000D01*
Y278944D01*
Y278930D01*
X147516Y278436D01*
X147488Y277971D01*
X147446Y277548D01*
X147375Y277153D01*
X147305Y276787D01*
X147220Y276462D01*
X147136Y276166D01*
X147051Y275913D01*
X146966Y275687D01*
X146868Y275490D01*
X146797Y275321D01*
X146727Y275194D01*
X146656Y275081D01*
X146614Y275011D01*
X146586Y274968D01*
X146572Y274954D01*
X146417Y274785D01*
X146248Y274630D01*
X146064Y274489D01*
X145881Y274376D01*
X145698Y274277D01*
X145514Y274193D01*
X145331Y274137D01*
X145162Y274080D01*
X144993Y274038D01*
X144838Y274010D01*
X144697Y273981D01*
X144584Y273967D01*
X144485Y273953D01*
X144344D01*
X143964Y273981D01*
X143611Y274038D01*
X143315Y274137D01*
X143062Y274235D01*
X142850Y274334D01*
X142780Y274390D01*
X142709Y274433D01*
X142653Y274461D01*
X142611Y274489D01*
X142596Y274517D01*
X142582D01*
X142329Y274757D01*
X142117Y275011D01*
X141934Y275292D01*
X141793Y275546D01*
X141680Y275786D01*
X141624Y275885D01*
X141595Y275983D01*
X141567Y276054D01*
X141539Y276110D01*
X141525Y276138D01*
Y276152D01*
X141455Y276364D01*
X141398Y276575D01*
X141314Y277026D01*
X141243Y277492D01*
X141201Y277943D01*
X141187Y278140D01*
X141173Y278323D01*
Y278493D01*
X141159Y278648D01*
Y278760D01*
Y278859D01*
Y278915D01*
Y278930D01*
Y279197D01*
X141173Y279451D01*
Y279677D01*
X141187Y279902D01*
X141215Y280100D01*
X141229Y280297D01*
X141243Y280466D01*
X141271Y280621D01*
X141285Y280762D01*
X141314Y280889D01*
X141328Y280988D01*
X141342Y281072D01*
X141356Y281143D01*
X141370Y281185D01*
X141384Y281213D01*
Y281227D01*
X141469Y281537D01*
X141567Y281819D01*
X141680Y282059D01*
X141765Y282271D01*
X141863Y282454D01*
X141920Y282581D01*
X141976Y282651D01*
X141990Y282679D01*
X142145Y282891D01*
X142300Y283074D01*
X142470Y283229D01*
X142625Y283370D01*
X142766Y283469D01*
X142878Y283539D01*
X142949Y283582D01*
X142963Y283596D01*
X142977D01*
X143203Y283708D01*
X143442Y283779D01*
X143668Y283835D01*
X143879Y283878D01*
X144062Y283906D01*
X144218Y283920D01*
X144344D01*
X144725Y283892D01*
D02*
G37*
G36*
X126524Y283906D02*
X126750Y283878D01*
X126975Y283835D01*
X127173Y283779D01*
X127553Y283624D01*
X127722Y283553D01*
X127863Y283469D01*
X128004Y283370D01*
X128117Y283300D01*
X128230Y283215D01*
X128315Y283144D01*
X128385Y283088D01*
X128427Y283046D01*
X128455Y283018D01*
X128470Y283004D01*
X128625Y282834D01*
X128751Y282637D01*
X128878Y282454D01*
X128977Y282256D01*
X129062Y282045D01*
X129132Y281848D01*
X129231Y281481D01*
X129273Y281298D01*
X129301Y281143D01*
X129315Y280988D01*
X129330Y280861D01*
X129344Y280762D01*
Y280692D01*
Y280635D01*
Y280621D01*
X129330Y280353D01*
X129301Y280114D01*
X129273Y279874D01*
X129217Y279648D01*
X129146Y279451D01*
X129076Y279254D01*
X129005Y279085D01*
X128921Y278930D01*
X128850Y278789D01*
X128780Y278662D01*
X128709Y278563D01*
X128639Y278464D01*
X128582Y278394D01*
X128554Y278351D01*
X128526Y278323D01*
X128512Y278309D01*
X128357Y278154D01*
X128188Y278027D01*
X128019Y277900D01*
X127835Y277802D01*
X127666Y277717D01*
X127497Y277647D01*
X127173Y277548D01*
X127032Y277506D01*
X126891Y277477D01*
X126778Y277463D01*
X126665Y277449D01*
X126581Y277435D01*
X126468D01*
X126200Y277449D01*
X125946Y277492D01*
X125721Y277548D01*
X125509Y277619D01*
X125354Y277675D01*
X125227Y277731D01*
X125143Y277774D01*
X125114Y277788D01*
X124889Y277929D01*
X124692Y278084D01*
X124522Y278239D01*
X124381Y278380D01*
X124283Y278521D01*
X124198Y278619D01*
X124142Y278690D01*
X124128Y278718D01*
Y278605D01*
Y278535D01*
Y278493D01*
Y278478D01*
X124142Y278197D01*
X124156Y277929D01*
X124184Y277689D01*
X124212Y277463D01*
X124255Y277280D01*
X124283Y277139D01*
X124297Y277083D01*
Y277041D01*
X124311Y277026D01*
Y277012D01*
X124381Y276759D01*
X124452Y276533D01*
X124522Y276336D01*
X124593Y276166D01*
X124649Y276040D01*
X124706Y275941D01*
X124734Y275870D01*
X124748Y275856D01*
X124861Y275701D01*
X124973Y275574D01*
X125086Y275462D01*
X125199Y275363D01*
X125284Y275278D01*
X125368Y275222D01*
X125425Y275194D01*
X125439Y275180D01*
X125594Y275095D01*
X125763Y275039D01*
X125918Y274996D01*
X126073Y274968D01*
X126200Y274954D01*
X126299Y274940D01*
X126397D01*
X126623Y274954D01*
X126834Y274996D01*
X127018Y275053D01*
X127173Y275123D01*
X127285Y275180D01*
X127384Y275236D01*
X127441Y275278D01*
X127455Y275292D01*
X127596Y275448D01*
X127708Y275631D01*
X127807Y275828D01*
X127878Y276026D01*
X127934Y276195D01*
X127976Y276350D01*
X127990Y276406D01*
Y276434D01*
X128004Y276462D01*
Y276477D01*
X129160Y276378D01*
X129076Y275969D01*
X128963Y275617D01*
X128822Y275307D01*
X128681Y275053D01*
X128540Y274855D01*
X128470Y274771D01*
X128413Y274700D01*
X128371Y274658D01*
X128329Y274616D01*
X128315Y274602D01*
X128300Y274588D01*
X128159Y274475D01*
X128004Y274376D01*
X127694Y274221D01*
X127384Y274108D01*
X127088Y274038D01*
X126820Y273981D01*
X126707Y273967D01*
X126609D01*
X126538Y273953D01*
X126426D01*
X126031Y273981D01*
X125678Y274038D01*
X125354Y274137D01*
X125086Y274249D01*
X124973Y274292D01*
X124861Y274348D01*
X124776Y274404D01*
X124692Y274447D01*
X124635Y274475D01*
X124593Y274503D01*
X124565Y274531D01*
X124551D01*
X124269Y274771D01*
X124015Y275039D01*
X123818Y275321D01*
X123648Y275588D01*
X123507Y275828D01*
X123451Y275941D01*
X123409Y276026D01*
X123381Y276110D01*
X123352Y276166D01*
X123338Y276195D01*
Y276209D01*
X123268Y276420D01*
X123197Y276660D01*
X123099Y277139D01*
X123028Y277647D01*
X122986Y278126D01*
X122958Y278337D01*
X122943Y278549D01*
Y278732D01*
X122929Y278887D01*
Y279014D01*
Y279113D01*
Y279183D01*
Y279197D01*
Y279522D01*
X122943Y279832D01*
X122972Y280114D01*
X123000Y280382D01*
X123028Y280621D01*
X123056Y280847D01*
X123099Y281058D01*
X123141Y281241D01*
X123183Y281397D01*
X123211Y281537D01*
X123254Y281664D01*
X123282Y281763D01*
X123310Y281833D01*
X123338Y281890D01*
X123352Y281918D01*
Y281932D01*
X123521Y282271D01*
X123705Y282567D01*
X123916Y282820D01*
X124100Y283032D01*
X124283Y283187D01*
X124424Y283300D01*
X124480Y283342D01*
X124522Y283370D01*
X124537Y283398D01*
X124551D01*
X124847Y283567D01*
X125143Y283694D01*
X125439Y283793D01*
X125707Y283849D01*
X125946Y283892D01*
X126045Y283906D01*
X126115D01*
X126186Y283920D01*
X126285D01*
X126524Y283906D01*
D02*
G37*
G36*
X134940Y284018D02*
X135391Y283948D01*
X135786Y283864D01*
X135969Y283807D01*
X136138Y283751D01*
X136293Y283694D01*
X136434Y283638D01*
X136547Y283596D01*
X136660Y283553D01*
X136730Y283511D01*
X136787Y283483D01*
X136829Y283469D01*
X136843Y283455D01*
X137224Y283215D01*
X137548Y282933D01*
X137830Y282651D01*
X138070Y282369D01*
X138253Y282115D01*
X138323Y282003D01*
X138380Y281904D01*
X138436Y281833D01*
X138464Y281777D01*
X138478Y281735D01*
X138492Y281721D01*
X138690Y281284D01*
X138831Y280833D01*
X138930Y280382D01*
X139000Y279973D01*
X139028Y279789D01*
X139042Y279606D01*
X139056Y279465D01*
Y279324D01*
X139071Y279226D01*
Y279141D01*
Y279085D01*
Y279070D01*
X139042Y278563D01*
X138986Y278070D01*
X138915Y277633D01*
X138859Y277421D01*
X138817Y277238D01*
X138774Y277069D01*
X138718Y276914D01*
X138676Y276773D01*
X138648Y276660D01*
X138605Y276575D01*
X138591Y276505D01*
X138563Y276462D01*
Y276448D01*
X138352Y276026D01*
X138112Y275645D01*
X137858Y275321D01*
X137731Y275194D01*
X137619Y275067D01*
X137506Y274954D01*
X137393Y274855D01*
X137294Y274771D01*
X137210Y274715D01*
X137153Y274658D01*
X137097Y274616D01*
X137069Y274602D01*
X137055Y274588D01*
X136857Y274475D01*
X136660Y274376D01*
X136237Y274221D01*
X135814Y274108D01*
X135405Y274038D01*
X135208Y274010D01*
X135039Y273981D01*
X134884Y273967D01*
X134757D01*
X134644Y273953D01*
X134489D01*
X134207Y273967D01*
X133939Y273996D01*
X133686Y274024D01*
X133446Y274080D01*
X133220Y274151D01*
X133009Y274221D01*
X132811Y274292D01*
X132628Y274376D01*
X132473Y274447D01*
X132318Y274517D01*
X132205Y274588D01*
X132093Y274658D01*
X132022Y274715D01*
X131952Y274743D01*
X131923Y274771D01*
X131909Y274785D01*
X131712Y274954D01*
X131543Y275123D01*
X131388Y275321D01*
X131233Y275518D01*
X130979Y275913D01*
X130781Y276308D01*
X130697Y276491D01*
X130626Y276660D01*
X130570Y276815D01*
X130528Y276942D01*
X130485Y277055D01*
X130457Y277139D01*
X130443Y277196D01*
Y277210D01*
X131740Y277534D01*
X131797Y277308D01*
X131867Y277097D01*
X131937Y276900D01*
X132008Y276716D01*
X132093Y276547D01*
X132177Y276406D01*
X132276Y276265D01*
X132360Y276138D01*
X132431Y276026D01*
X132515Y275941D01*
X132586Y275856D01*
X132642Y275786D01*
X132699Y275744D01*
X132741Y275701D01*
X132755Y275687D01*
X132769Y275673D01*
X132910Y275560D01*
X133065Y275476D01*
X133375Y275321D01*
X133671Y275208D01*
X133967Y275137D01*
X134221Y275081D01*
X134320Y275067D01*
X134418D01*
X134503Y275053D01*
X134602D01*
X134926Y275067D01*
X135236Y275123D01*
X135518Y275194D01*
X135772Y275278D01*
X135969Y275363D01*
X136054Y275405D01*
X136124Y275434D01*
X136181Y275462D01*
X136223Y275490D01*
X136251Y275504D01*
X136265D01*
X136533Y275701D01*
X136759Y275913D01*
X136956Y276152D01*
X137111Y276378D01*
X137238Y276575D01*
X137323Y276744D01*
X137351Y276815D01*
X137379Y276857D01*
X137393Y276886D01*
Y276900D01*
X137506Y277266D01*
X137590Y277633D01*
X137661Y277999D01*
X137703Y278337D01*
X137717Y278493D01*
X137731Y278633D01*
Y278760D01*
X137745Y278859D01*
Y278944D01*
Y279014D01*
Y279056D01*
Y279070D01*
X137731Y279437D01*
X137703Y279775D01*
X137647Y280086D01*
X137590Y280367D01*
X137548Y280607D01*
X137520Y280706D01*
X137492Y280790D01*
X137478Y280861D01*
X137464Y280903D01*
X137449Y280931D01*
Y280945D01*
X137308Y281270D01*
X137153Y281566D01*
X136984Y281805D01*
X136801Y282017D01*
X136646Y282186D01*
X136519Y282299D01*
X136420Y282369D01*
X136406Y282397D01*
X136392D01*
X136096Y282581D01*
X135772Y282722D01*
X135462Y282820D01*
X135166Y282877D01*
X134898Y282919D01*
X134785Y282933D01*
X134686D01*
X134616Y282947D01*
X134503D01*
X134151Y282933D01*
X133826Y282877D01*
X133559Y282792D01*
X133319Y282708D01*
X133136Y282609D01*
X132995Y282538D01*
X132910Y282482D01*
X132882Y282454D01*
X132656Y282242D01*
X132445Y282003D01*
X132276Y281749D01*
X132135Y281495D01*
X132022Y281270D01*
X131980Y281157D01*
X131952Y281072D01*
X131923Y281002D01*
X131895Y280945D01*
X131881Y280917D01*
Y280903D01*
X130612Y281199D01*
X130697Y281453D01*
X130781Y281678D01*
X130894Y281890D01*
X130993Y282101D01*
X131106Y282285D01*
X131233Y282454D01*
X131345Y282623D01*
X131458Y282764D01*
X131571Y282877D01*
X131670Y282990D01*
X131768Y283088D01*
X131839Y283159D01*
X131909Y283229D01*
X131966Y283271D01*
X131994Y283286D01*
X132008Y283300D01*
X132205Y283426D01*
X132403Y283553D01*
X132600Y283652D01*
X132811Y283737D01*
X133234Y283864D01*
X133615Y283948D01*
X133798Y283990D01*
X133953Y284004D01*
X134108Y284018D01*
X134235Y284033D01*
X134334Y284047D01*
X134475D01*
X134940Y284018D01*
D02*
G37*
G36*
X149165Y222906D02*
X149433Y222878D01*
X149686Y222821D01*
X149926Y222751D01*
X150137Y222652D01*
X150349Y222567D01*
X150532Y222455D01*
X150701Y222356D01*
X150842Y222257D01*
X150983Y222145D01*
X151096Y222060D01*
X151181Y221975D01*
X151251Y221891D01*
X151307Y221834D01*
X151336Y221806D01*
X151350Y221792D01*
X151533Y221538D01*
X151688Y221242D01*
X151829Y220932D01*
X151956Y220608D01*
X152055Y220270D01*
X152139Y219931D01*
X152210Y219579D01*
X152266Y219255D01*
X152308Y218930D01*
X152337Y218634D01*
X152365Y218367D01*
X152379Y218141D01*
Y217944D01*
X152393Y217803D01*
Y217746D01*
Y217704D01*
Y217690D01*
Y217676D01*
X152379Y217225D01*
X152351Y216802D01*
X152308Y216407D01*
X152238Y216040D01*
X152167Y215716D01*
X152097Y215420D01*
X152012Y215152D01*
X151914Y214913D01*
X151829Y214715D01*
X151744Y214532D01*
X151674Y214391D01*
X151589Y214264D01*
X151533Y214166D01*
X151491Y214109D01*
X151462Y214067D01*
X151448Y214053D01*
X151265Y213855D01*
X151068Y213686D01*
X150871Y213545D01*
X150673Y213419D01*
X150462Y213306D01*
X150264Y213221D01*
X150067Y213151D01*
X149870Y213094D01*
X149700Y213052D01*
X149531Y213010D01*
X149390Y212981D01*
X149263Y212967D01*
X149151D01*
X149080Y212953D01*
X149010D01*
X148685Y212967D01*
X148389Y213024D01*
X148122Y213080D01*
X147882Y213165D01*
X147699Y213235D01*
X147558Y213306D01*
X147501Y213320D01*
X147459Y213348D01*
X147445Y213362D01*
X147431D01*
X147191Y213531D01*
X146966Y213729D01*
X146782Y213926D01*
X146627Y214123D01*
X146500Y214307D01*
X146416Y214448D01*
X146388Y214504D01*
X146359Y214546D01*
X146345Y214560D01*
Y214574D01*
X146204Y214870D01*
X146106Y215181D01*
X146035Y215462D01*
X145993Y215730D01*
X145951Y215956D01*
Y216040D01*
X145936Y216125D01*
Y216196D01*
Y216238D01*
Y216266D01*
Y216280D01*
X145951Y216534D01*
X145979Y216774D01*
X146021Y217013D01*
X146063Y217225D01*
X146134Y217422D01*
X146204Y217619D01*
X146275Y217789D01*
X146359Y217944D01*
X146444Y218085D01*
X146515Y218211D01*
X146585Y218310D01*
X146656Y218409D01*
X146698Y218479D01*
X146740Y218522D01*
X146768Y218550D01*
X146782Y218564D01*
X146937Y218719D01*
X147107Y218860D01*
X147290Y218973D01*
X147459Y219071D01*
X147628Y219170D01*
X147797Y219240D01*
X148122Y219339D01*
X148263Y219382D01*
X148404Y219410D01*
X148516Y219424D01*
X148629Y219438D01*
X148714Y219452D01*
X148826D01*
X149080Y219438D01*
X149320Y219396D01*
X149545Y219353D01*
X149743Y219297D01*
X149912Y219226D01*
X150039Y219184D01*
X150123Y219142D01*
X150137Y219128D01*
X150152D01*
X150377Y218987D01*
X150574Y218832D01*
X150758Y218677D01*
X150899Y218507D01*
X151025Y218367D01*
X151124Y218254D01*
X151181Y218169D01*
X151195Y218155D01*
Y218409D01*
X151181Y218663D01*
X151166Y218888D01*
X151138Y219114D01*
X151124Y219311D01*
X151096Y219494D01*
X151068Y219663D01*
X151025Y219818D01*
X150997Y219960D01*
X150969Y220072D01*
X150941Y220171D01*
X150927Y220256D01*
X150899Y220312D01*
X150885Y220354D01*
X150871Y220382D01*
Y220396D01*
X150730Y220678D01*
X150589Y220932D01*
X150434Y221129D01*
X150293Y221299D01*
X150166Y221440D01*
X150067Y221538D01*
X149996Y221595D01*
X149968Y221609D01*
X149799Y221722D01*
X149630Y221792D01*
X149461Y221849D01*
X149292Y221891D01*
X149165Y221919D01*
X149052Y221933D01*
X148953D01*
X148700Y221905D01*
X148460Y221849D01*
X148263Y221764D01*
X148079Y221679D01*
X147938Y221581D01*
X147840Y221496D01*
X147783Y221440D01*
X147755Y221411D01*
X147656Y221285D01*
X147558Y221129D01*
X147473Y220960D01*
X147417Y220791D01*
X147360Y220636D01*
X147318Y220509D01*
X147304Y220425D01*
X147290Y220411D01*
Y220396D01*
X146092Y220495D01*
X146176Y220890D01*
X146303Y221242D01*
X146444Y221552D01*
X146599Y221806D01*
X146754Y222003D01*
X146811Y222088D01*
X146881Y222159D01*
X146923Y222201D01*
X146966Y222243D01*
X146980Y222257D01*
X146994Y222271D01*
X147135Y222384D01*
X147290Y222483D01*
X147600Y222652D01*
X147910Y222765D01*
X148206Y222835D01*
X148474Y222892D01*
X148587Y222906D01*
X148685D01*
X148770Y222920D01*
X148883D01*
X149165Y222906D01*
D02*
G37*
G36*
X157933Y223018D02*
X158384Y222948D01*
X158779Y222864D01*
X158962Y222807D01*
X159131Y222751D01*
X159286Y222694D01*
X159427Y222638D01*
X159540Y222596D01*
X159653Y222553D01*
X159723Y222511D01*
X159780Y222483D01*
X159822Y222469D01*
X159836Y222455D01*
X160217Y222215D01*
X160541Y221933D01*
X160823Y221651D01*
X161063Y221369D01*
X161246Y221115D01*
X161316Y221003D01*
X161373Y220904D01*
X161429Y220833D01*
X161457Y220777D01*
X161471Y220735D01*
X161486Y220721D01*
X161683Y220284D01*
X161824Y219833D01*
X161922Y219382D01*
X161993Y218973D01*
X162021Y218789D01*
X162035Y218606D01*
X162049Y218465D01*
Y218324D01*
X162064Y218225D01*
Y218141D01*
Y218085D01*
Y218071D01*
X162035Y217563D01*
X161979Y217070D01*
X161908Y216633D01*
X161852Y216421D01*
X161810Y216238D01*
X161767Y216069D01*
X161711Y215914D01*
X161669Y215773D01*
X161641Y215660D01*
X161598Y215575D01*
X161584Y215505D01*
X161556Y215462D01*
Y215448D01*
X161345Y215026D01*
X161105Y214645D01*
X160851Y214321D01*
X160724Y214194D01*
X160611Y214067D01*
X160499Y213954D01*
X160386Y213855D01*
X160287Y213771D01*
X160203Y213715D01*
X160146Y213658D01*
X160090Y213616D01*
X160062Y213602D01*
X160048Y213588D01*
X159850Y213475D01*
X159653Y213376D01*
X159230Y213221D01*
X158807Y213108D01*
X158398Y213038D01*
X158201Y213010D01*
X158032Y212981D01*
X157877Y212967D01*
X157750D01*
X157637Y212953D01*
X157482D01*
X157200Y212967D01*
X156932Y212996D01*
X156678Y213024D01*
X156439Y213080D01*
X156213Y213151D01*
X156002Y213221D01*
X155804Y213292D01*
X155621Y213376D01*
X155466Y213447D01*
X155311Y213517D01*
X155198Y213588D01*
X155085Y213658D01*
X155015Y213715D01*
X154944Y213743D01*
X154916Y213771D01*
X154902Y213785D01*
X154705Y213954D01*
X154536Y214123D01*
X154381Y214321D01*
X154226Y214518D01*
X153972Y214913D01*
X153774Y215308D01*
X153690Y215491D01*
X153619Y215660D01*
X153563Y215815D01*
X153521Y215942D01*
X153478Y216055D01*
X153450Y216139D01*
X153436Y216196D01*
Y216210D01*
X154733Y216534D01*
X154789Y216308D01*
X154860Y216097D01*
X154930Y215900D01*
X155001Y215716D01*
X155085Y215547D01*
X155170Y215406D01*
X155269Y215265D01*
X155353Y215138D01*
X155424Y215026D01*
X155508Y214941D01*
X155579Y214856D01*
X155635Y214786D01*
X155692Y214744D01*
X155734Y214701D01*
X155748Y214687D01*
X155762Y214673D01*
X155903Y214560D01*
X156058Y214476D01*
X156368Y214321D01*
X156664Y214208D01*
X156960Y214137D01*
X157214Y214081D01*
X157313Y214067D01*
X157411D01*
X157496Y214053D01*
X157595D01*
X157919Y214067D01*
X158229Y214123D01*
X158511Y214194D01*
X158765Y214278D01*
X158962Y214363D01*
X159047Y214405D01*
X159117Y214433D01*
X159174Y214462D01*
X159216Y214490D01*
X159244Y214504D01*
X159258D01*
X159526Y214701D01*
X159752Y214913D01*
X159949Y215152D01*
X160104Y215378D01*
X160231Y215575D01*
X160315Y215744D01*
X160344Y215815D01*
X160372Y215857D01*
X160386Y215885D01*
Y215900D01*
X160499Y216266D01*
X160583Y216633D01*
X160654Y216999D01*
X160696Y217337D01*
X160710Y217493D01*
X160724Y217633D01*
Y217760D01*
X160738Y217859D01*
Y217944D01*
Y218014D01*
Y218056D01*
Y218071D01*
X160724Y218437D01*
X160696Y218775D01*
X160640Y219086D01*
X160583Y219367D01*
X160541Y219607D01*
X160513Y219706D01*
X160485Y219790D01*
X160471Y219861D01*
X160456Y219903D01*
X160442Y219931D01*
Y219945D01*
X160301Y220270D01*
X160146Y220566D01*
X159977Y220805D01*
X159794Y221017D01*
X159639Y221186D01*
X159512Y221299D01*
X159413Y221369D01*
X159399Y221397D01*
X159385D01*
X159089Y221581D01*
X158765Y221722D01*
X158455Y221820D01*
X158159Y221877D01*
X157891Y221919D01*
X157778Y221933D01*
X157679D01*
X157609Y221947D01*
X157496D01*
X157144Y221933D01*
X156819Y221877D01*
X156552Y221792D01*
X156312Y221707D01*
X156129Y221609D01*
X155988Y221538D01*
X155903Y221482D01*
X155875Y221454D01*
X155649Y221242D01*
X155438Y221003D01*
X155269Y220749D01*
X155128Y220495D01*
X155015Y220270D01*
X154973Y220157D01*
X154944Y220072D01*
X154916Y220002D01*
X154888Y219945D01*
X154874Y219917D01*
Y219903D01*
X153605Y220199D01*
X153690Y220453D01*
X153774Y220678D01*
X153887Y220890D01*
X153986Y221101D01*
X154099Y221285D01*
X154226Y221454D01*
X154338Y221623D01*
X154451Y221764D01*
X154564Y221877D01*
X154663Y221989D01*
X154761Y222088D01*
X154832Y222159D01*
X154902Y222229D01*
X154959Y222271D01*
X154987Y222285D01*
X155001Y222300D01*
X155198Y222426D01*
X155396Y222553D01*
X155593Y222652D01*
X155804Y222737D01*
X156227Y222864D01*
X156608Y222948D01*
X156791Y222990D01*
X156946Y223004D01*
X157101Y223018D01*
X157228Y223033D01*
X157327Y223047D01*
X157468D01*
X157933Y223018D01*
D02*
G37*
G36*
X128160Y218732D02*
X127033Y218577D01*
X126934Y218732D01*
X126807Y218859D01*
X126694Y218986D01*
X126581Y219085D01*
X126469Y219155D01*
X126384Y219226D01*
X126328Y219254D01*
X126314Y219268D01*
X126130Y219352D01*
X125947Y219423D01*
X125778Y219465D01*
X125609Y219508D01*
X125468Y219522D01*
X125355Y219536D01*
X125087D01*
X124918Y219508D01*
X124622Y219437D01*
X124368Y219338D01*
X124143Y219240D01*
X123974Y219127D01*
X123847Y219028D01*
X123776Y218958D01*
X123748Y218944D01*
Y218930D01*
X123551Y218690D01*
X123410Y218436D01*
X123311Y218168D01*
X123240Y217900D01*
X123198Y217675D01*
X123184Y217576D01*
Y217492D01*
X123170Y217421D01*
Y217365D01*
Y217337D01*
Y217323D01*
Y217125D01*
X123198Y216942D01*
X123269Y216589D01*
X123367Y216293D01*
X123466Y216054D01*
X123579Y215856D01*
X123678Y215701D01*
X123720Y215659D01*
X123748Y215617D01*
X123762Y215603D01*
X123776Y215588D01*
X123889Y215476D01*
X124002Y215377D01*
X124256Y215208D01*
X124495Y215095D01*
X124735Y215025D01*
X124932Y214968D01*
X125101Y214954D01*
X125158Y214940D01*
X125242D01*
X125510Y214954D01*
X125750Y215011D01*
X125961Y215081D01*
X126130Y215166D01*
X126285Y215250D01*
X126398Y215321D01*
X126455Y215377D01*
X126483Y215391D01*
X126652Y215588D01*
X126793Y215800D01*
X126906Y216040D01*
X126990Y216251D01*
X127047Y216462D01*
X127089Y216618D01*
X127103Y216688D01*
X127117Y216730D01*
Y216759D01*
Y216773D01*
X128372Y216674D01*
X128344Y216448D01*
X128301Y216237D01*
X128174Y215842D01*
X128019Y215504D01*
X127935Y215349D01*
X127850Y215222D01*
X127780Y215095D01*
X127695Y214982D01*
X127625Y214898D01*
X127554Y214827D01*
X127498Y214771D01*
X127470Y214715D01*
X127441Y214700D01*
X127427Y214686D01*
X127258Y214559D01*
X127089Y214447D01*
X126906Y214348D01*
X126722Y214263D01*
X126370Y214137D01*
X126018Y214052D01*
X125863Y214010D01*
X125707Y213996D01*
X125581Y213981D01*
X125468Y213967D01*
X125369Y213953D01*
X125242D01*
X124946Y213967D01*
X124664Y214010D01*
X124396Y214066D01*
X124157Y214137D01*
X123931Y214235D01*
X123720Y214334D01*
X123522Y214433D01*
X123353Y214545D01*
X123198Y214658D01*
X123057Y214757D01*
X122944Y214870D01*
X122846Y214954D01*
X122775Y215025D01*
X122719Y215081D01*
X122691Y215123D01*
X122677Y215137D01*
X122536Y215321D01*
X122423Y215518D01*
X122310Y215701D01*
X122226Y215899D01*
X122085Y216279D01*
X122000Y216646D01*
X121972Y216801D01*
X121944Y216956D01*
X121929Y217083D01*
X121915Y217196D01*
X121901Y217294D01*
Y217365D01*
Y217407D01*
Y217421D01*
X121915Y217675D01*
X121944Y217915D01*
X121986Y218154D01*
X122042Y218366D01*
X122113Y218563D01*
X122183Y218760D01*
X122268Y218930D01*
X122338Y219085D01*
X122423Y219226D01*
X122507Y219352D01*
X122578Y219451D01*
X122648Y219550D01*
X122705Y219620D01*
X122747Y219663D01*
X122775Y219691D01*
X122789Y219705D01*
X122958Y219860D01*
X123128Y220001D01*
X123311Y220114D01*
X123494Y220212D01*
X123678Y220311D01*
X123861Y220382D01*
X124199Y220480D01*
X124354Y220522D01*
X124495Y220551D01*
X124622Y220565D01*
X124735Y220579D01*
X124819Y220593D01*
X125129D01*
X125299Y220565D01*
X125637Y220494D01*
X125947Y220396D01*
X126229Y220283D01*
X126455Y220170D01*
X126553Y220114D01*
X126638Y220071D01*
X126708Y220029D01*
X126751Y220001D01*
X126779Y219987D01*
X126793Y219973D01*
X126271Y222609D01*
X122367D01*
Y223751D01*
X127216D01*
X128160Y218732D01*
D02*
G37*
G36*
X133968Y224018D02*
X134419Y223948D01*
X134814Y223864D01*
X134997Y223807D01*
X135167Y223751D01*
X135322Y223694D01*
X135463Y223638D01*
X135575Y223596D01*
X135688Y223553D01*
X135759Y223511D01*
X135815Y223483D01*
X135857Y223469D01*
X135871Y223455D01*
X136252Y223215D01*
X136576Y222933D01*
X136858Y222651D01*
X137098Y222369D01*
X137281Y222115D01*
X137352Y222003D01*
X137408Y221904D01*
X137464Y221833D01*
X137493Y221777D01*
X137507Y221735D01*
X137521Y221721D01*
X137718Y221284D01*
X137859Y220833D01*
X137958Y220382D01*
X138028Y219973D01*
X138056Y219789D01*
X138070Y219606D01*
X138085Y219465D01*
Y219324D01*
X138099Y219226D01*
Y219141D01*
Y219085D01*
Y219070D01*
X138070Y218563D01*
X138014Y218070D01*
X137944Y217633D01*
X137887Y217421D01*
X137845Y217238D01*
X137803Y217069D01*
X137746Y216914D01*
X137704Y216773D01*
X137676Y216660D01*
X137633Y216575D01*
X137619Y216505D01*
X137591Y216462D01*
Y216448D01*
X137380Y216026D01*
X137140Y215645D01*
X136886Y215321D01*
X136760Y215194D01*
X136647Y215067D01*
X136534Y214954D01*
X136421Y214855D01*
X136322Y214771D01*
X136238Y214715D01*
X136181Y214658D01*
X136125Y214616D01*
X136097Y214602D01*
X136083Y214588D01*
X135885Y214475D01*
X135688Y214376D01*
X135265Y214221D01*
X134842Y214108D01*
X134433Y214038D01*
X134236Y214010D01*
X134067Y213981D01*
X133912Y213967D01*
X133785D01*
X133672Y213953D01*
X133517D01*
X133235Y213967D01*
X132967Y213996D01*
X132714Y214024D01*
X132474Y214080D01*
X132248Y214151D01*
X132037Y214221D01*
X131840Y214292D01*
X131656Y214376D01*
X131501Y214447D01*
X131346Y214517D01*
X131234Y214588D01*
X131121Y214658D01*
X131050Y214715D01*
X130980Y214743D01*
X130951Y214771D01*
X130937Y214785D01*
X130740Y214954D01*
X130571Y215123D01*
X130416Y215321D01*
X130261Y215518D01*
X130007Y215913D01*
X129810Y216308D01*
X129725Y216491D01*
X129655Y216660D01*
X129598Y216815D01*
X129556Y216942D01*
X129514Y217055D01*
X129485Y217139D01*
X129471Y217196D01*
Y217210D01*
X130768Y217534D01*
X130825Y217308D01*
X130895Y217097D01*
X130966Y216900D01*
X131036Y216716D01*
X131121Y216547D01*
X131205Y216406D01*
X131304Y216265D01*
X131389Y216138D01*
X131459Y216026D01*
X131544Y215941D01*
X131614Y215856D01*
X131671Y215786D01*
X131727Y215744D01*
X131769Y215701D01*
X131783Y215687D01*
X131797Y215673D01*
X131938Y215560D01*
X132093Y215476D01*
X132403Y215321D01*
X132700Y215208D01*
X132996Y215137D01*
X133249Y215081D01*
X133348Y215067D01*
X133447D01*
X133531Y215053D01*
X133630D01*
X133954Y215067D01*
X134264Y215123D01*
X134546Y215194D01*
X134800Y215278D01*
X134997Y215363D01*
X135082Y215405D01*
X135152Y215434D01*
X135209Y215462D01*
X135251Y215490D01*
X135279Y215504D01*
X135293D01*
X135561Y215701D01*
X135787Y215913D01*
X135984Y216152D01*
X136139Y216378D01*
X136266Y216575D01*
X136351Y216744D01*
X136379Y216815D01*
X136407Y216857D01*
X136421Y216885D01*
Y216900D01*
X136534Y217266D01*
X136618Y217633D01*
X136689Y217999D01*
X136731Y218337D01*
X136745Y218493D01*
X136760Y218633D01*
Y218760D01*
X136774Y218859D01*
Y218944D01*
Y219014D01*
Y219056D01*
Y219070D01*
X136760Y219437D01*
X136731Y219775D01*
X136675Y220086D01*
X136618Y220367D01*
X136576Y220607D01*
X136548Y220706D01*
X136520Y220790D01*
X136506Y220861D01*
X136492Y220903D01*
X136478Y220931D01*
Y220945D01*
X136337Y221270D01*
X136181Y221566D01*
X136012Y221805D01*
X135829Y222017D01*
X135674Y222186D01*
X135547Y222299D01*
X135449Y222369D01*
X135434Y222397D01*
X135420D01*
X135124Y222581D01*
X134800Y222722D01*
X134490Y222820D01*
X134194Y222877D01*
X133926Y222919D01*
X133813Y222933D01*
X133715D01*
X133644Y222947D01*
X133531D01*
X133179Y222933D01*
X132855Y222877D01*
X132587Y222792D01*
X132347Y222708D01*
X132164Y222609D01*
X132023Y222538D01*
X131938Y222482D01*
X131910Y222454D01*
X131685Y222242D01*
X131473Y222003D01*
X131304Y221749D01*
X131163Y221495D01*
X131050Y221270D01*
X131008Y221157D01*
X130980Y221072D01*
X130951Y221002D01*
X130923Y220945D01*
X130909Y220917D01*
Y220903D01*
X129641Y221199D01*
X129725Y221453D01*
X129810Y221678D01*
X129922Y221890D01*
X130021Y222101D01*
X130134Y222285D01*
X130261Y222454D01*
X130374Y222623D01*
X130486Y222764D01*
X130599Y222877D01*
X130698Y222989D01*
X130796Y223088D01*
X130867Y223159D01*
X130937Y223229D01*
X130994Y223271D01*
X131022Y223286D01*
X131036Y223300D01*
X131234Y223426D01*
X131431Y223553D01*
X131628Y223652D01*
X131840Y223737D01*
X132262Y223864D01*
X132643Y223948D01*
X132826Y223990D01*
X132982Y224004D01*
X133137Y224018D01*
X133263Y224033D01*
X133362Y224047D01*
X133503D01*
X133968Y224018D01*
D02*
G37*
%LPC*%
G36*
X79454Y406996D02*
X79341D01*
X79101Y406982D01*
X78876Y406926D01*
X78692Y406856D01*
X78523Y406771D01*
X78396Y406686D01*
X78298Y406616D01*
X78227Y406559D01*
X78213Y406545D01*
X78058Y406362D01*
X77945Y406179D01*
X77861Y405996D01*
X77804Y405826D01*
X77776Y405671D01*
X77748Y405545D01*
Y405460D01*
Y405446D01*
Y405432D01*
X77762Y405206D01*
X77818Y404995D01*
X77889Y404812D01*
X77973Y404656D01*
X78058Y404529D01*
X78129Y404445D01*
X78185Y404375D01*
X78199Y404360D01*
X78368Y404219D01*
X78566Y404107D01*
X78749Y404036D01*
X78932Y403980D01*
X79101Y403952D01*
X79228Y403937D01*
X79313Y403923D01*
X79341D01*
X79595Y403937D01*
X79820Y403994D01*
X80018Y404064D01*
X80187Y404149D01*
X80314Y404219D01*
X80412Y404290D01*
X80483Y404346D01*
X80497Y404360D01*
X80638Y404529D01*
X80751Y404727D01*
X80821Y404910D01*
X80878Y405093D01*
X80906Y405248D01*
X80920Y405375D01*
X80934Y405460D01*
Y405474D01*
Y405488D01*
X80920Y405714D01*
X80863Y405911D01*
X80793Y406094D01*
X80708Y406249D01*
X80638Y406376D01*
X80567Y406475D01*
X80511Y406531D01*
X80497Y406545D01*
X80314Y406701D01*
X80130Y406813D01*
X79933Y406884D01*
X79750Y406940D01*
X79581Y406968D01*
X79454Y406996D01*
D02*
G37*
G36*
X79468Y402951D02*
X79383D01*
X79073Y402923D01*
X78791Y402866D01*
X78537Y402767D01*
X78326Y402669D01*
X78157Y402556D01*
X78030Y402457D01*
X77959Y402401D01*
X77931Y402373D01*
X77734Y402147D01*
X77593Y401908D01*
X77494Y401668D01*
X77424Y401456D01*
X77382Y401245D01*
X77367Y401090D01*
X77353Y401034D01*
Y400991D01*
Y400963D01*
Y400949D01*
X77382Y400653D01*
X77438Y400371D01*
X77537Y400131D01*
X77635Y399934D01*
X77734Y399779D01*
X77833Y399652D01*
X77889Y399581D01*
X77917Y399553D01*
X78143Y399370D01*
X78368Y399229D01*
X78608Y399145D01*
X78833Y399074D01*
X79031Y399032D01*
X79200Y399018D01*
X79256Y399003D01*
X79341D01*
X79538Y399018D01*
X79736Y399046D01*
X79919Y399088D01*
X80074Y399130D01*
X80201Y399173D01*
X80300Y399215D01*
X80356Y399243D01*
X80384Y399257D01*
X80553Y399370D01*
X80694Y399483D01*
X80821Y399610D01*
X80920Y399737D01*
X81004Y399835D01*
X81061Y399920D01*
X81089Y399990D01*
X81103Y400004D01*
X81173Y400188D01*
X81230Y400357D01*
X81272Y400526D01*
X81300Y400681D01*
X81314Y400808D01*
X81329Y400907D01*
Y400963D01*
Y400991D01*
X81300Y401287D01*
X81244Y401555D01*
X81159Y401795D01*
X81047Y402006D01*
X80948Y402161D01*
X80863Y402288D01*
X80807Y402359D01*
X80779Y402387D01*
X80567Y402570D01*
X80328Y402711D01*
X80102Y402810D01*
X79877Y402880D01*
X79679Y402923D01*
X79524Y402937D01*
X79468Y402951D01*
D02*
G37*
G36*
X79678Y287017D02*
Y282647D01*
X82752D01*
X79678Y287017D01*
D02*
G37*
G36*
X180059Y343932D02*
Y339562D01*
X183132D01*
X180059Y343932D01*
D02*
G37*
G36*
X206373Y170576D02*
X203144D01*
Y167503D01*
X203158Y167122D01*
X203215Y166798D01*
X203285Y166516D01*
X203370Y166305D01*
X203455Y166122D01*
X203525Y166009D01*
X203582Y165938D01*
X203596Y165910D01*
X203779Y165741D01*
X203962Y165614D01*
X204159Y165529D01*
X204329Y165459D01*
X204498Y165431D01*
X204625Y165417D01*
X204709Y165403D01*
X204723D01*
X204737D01*
X204907Y165417D01*
X205076Y165445D01*
X205217Y165487D01*
X205344Y165529D01*
X205456Y165586D01*
X205541Y165628D01*
X205597Y165656D01*
X205611Y165671D01*
X205752Y165769D01*
X205879Y165896D01*
X205978Y166023D01*
X206063Y166150D01*
X206119Y166263D01*
X206161Y166347D01*
X206189Y166404D01*
X206203Y166432D01*
X206260Y166629D01*
X206302Y166855D01*
X206330Y167080D01*
X206345Y167306D01*
X206359Y167503D01*
X206373Y167672D01*
Y170576D01*
D02*
G37*
G36*
X204540Y160934D02*
X204526D01*
X204512D01*
X204286Y160920D01*
X204089Y160863D01*
X203906Y160793D01*
X203751Y160708D01*
X203624Y160638D01*
X203525Y160567D01*
X203469Y160511D01*
X203455Y160497D01*
X203300Y160314D01*
X203187Y160130D01*
X203116Y159933D01*
X203060Y159750D01*
X203032Y159581D01*
X203004Y159454D01*
Y159341D01*
X203018Y159101D01*
X203074Y158876D01*
X203144Y158693D01*
X203229Y158523D01*
X203314Y158396D01*
X203384Y158298D01*
X203440Y158227D01*
X203455Y158213D01*
X203638Y158058D01*
X203821Y157945D01*
X204004Y157861D01*
X204174Y157804D01*
X204329Y157776D01*
X204456Y157748D01*
X204540D01*
X204554D01*
X204568D01*
X204794Y157762D01*
X205005Y157818D01*
X205189Y157889D01*
X205344Y157973D01*
X205471Y158058D01*
X205555Y158129D01*
X205625Y158185D01*
X205640Y158199D01*
X205781Y158368D01*
X205893Y158566D01*
X205964Y158749D01*
X206020Y158932D01*
X206048Y159101D01*
X206063Y159228D01*
X206077Y159313D01*
Y159341D01*
X206063Y159595D01*
X206006Y159820D01*
X205936Y160018D01*
X205851Y160187D01*
X205781Y160314D01*
X205710Y160412D01*
X205654Y160483D01*
X205640Y160497D01*
X205471Y160638D01*
X205273Y160751D01*
X205090Y160821D01*
X204907Y160877D01*
X204751Y160906D01*
X204625Y160920D01*
X204540Y160934D01*
D02*
G37*
G36*
X209093Y161329D02*
X209037D01*
X209009D01*
X208713Y161300D01*
X208445Y161244D01*
X208205Y161159D01*
X207994Y161047D01*
X207839Y160948D01*
X207712Y160863D01*
X207641Y160807D01*
X207613Y160779D01*
X207430Y160567D01*
X207289Y160328D01*
X207190Y160102D01*
X207120Y159877D01*
X207078Y159679D01*
X207063Y159524D01*
X207049Y159468D01*
Y159383D01*
X207078Y159073D01*
X207134Y158791D01*
X207233Y158537D01*
X207331Y158326D01*
X207444Y158157D01*
X207543Y158030D01*
X207599Y157959D01*
X207627Y157931D01*
X207853Y157734D01*
X208092Y157593D01*
X208332Y157494D01*
X208544Y157424D01*
X208755Y157381D01*
X208910Y157367D01*
X208967Y157353D01*
X209009D01*
X209037D01*
X209051D01*
X209347Y157381D01*
X209629Y157438D01*
X209869Y157536D01*
X210066Y157635D01*
X210221Y157734D01*
X210348Y157833D01*
X210418Y157889D01*
X210447Y157917D01*
X210630Y158143D01*
X210771Y158368D01*
X210856Y158608D01*
X210926Y158833D01*
X210968Y159031D01*
X210982Y159200D01*
X210996Y159256D01*
Y159341D01*
X210982Y159538D01*
X210954Y159736D01*
X210912Y159919D01*
X210870Y160074D01*
X210827Y160201D01*
X210785Y160299D01*
X210757Y160356D01*
X210743Y160384D01*
X210630Y160553D01*
X210517Y160694D01*
X210390Y160821D01*
X210263Y160920D01*
X210165Y161004D01*
X210080Y161061D01*
X210010Y161089D01*
X209996Y161103D01*
X209812Y161173D01*
X209643Y161230D01*
X209474Y161272D01*
X209319Y161300D01*
X209192Y161315D01*
X209093Y161329D01*
D02*
G37*
G36*
X166372Y135640D02*
X166315D01*
X166287D01*
X166273D01*
X165893Y135611D01*
X165568Y135555D01*
X165286Y135471D01*
X165047Y135372D01*
X164863Y135259D01*
X164722Y135175D01*
X164638Y135118D01*
X164624Y135090D01*
X164610D01*
X164497Y134991D01*
X164412Y134878D01*
X164257Y134653D01*
X164159Y134427D01*
X164074Y134230D01*
X164032Y134047D01*
X164018Y133906D01*
X164004Y133849D01*
Y133779D01*
X164018Y133581D01*
X164046Y133398D01*
X164102Y133229D01*
X164159Y133088D01*
X164201Y132961D01*
X164257Y132863D01*
X164285Y132806D01*
X164300Y132778D01*
X164426Y132609D01*
X164553Y132468D01*
X164708Y132341D01*
X164835Y132242D01*
X164962Y132158D01*
X165061Y132101D01*
X165131Y132059D01*
X165159Y132045D01*
X165371Y131960D01*
X165582Y131904D01*
X165780Y131848D01*
X165963Y131819D01*
X166118Y131805D01*
X166245Y131791D01*
X166315D01*
X166344D01*
X166682Y131819D01*
X166978Y131876D01*
X167246Y131974D01*
X167457Y132073D01*
X167640Y132172D01*
X167767Y132270D01*
X167838Y132327D01*
X167866Y132355D01*
X168063Y132581D01*
X168204Y132806D01*
X168317Y133046D01*
X168388Y133257D01*
X168430Y133455D01*
X168444Y133596D01*
X168458Y133652D01*
Y133737D01*
X168430Y134033D01*
X168360Y134300D01*
X168275Y134526D01*
X168162Y134723D01*
X168049Y134878D01*
X167965Y134991D01*
X167894Y135062D01*
X167866Y135090D01*
X167626Y135273D01*
X167373Y135414D01*
X167105Y135513D01*
X166851Y135569D01*
X166625Y135611D01*
X166527Y135626D01*
X166442D01*
X166372Y135640D01*
D02*
G37*
G36*
X170291Y127604D02*
X170277D01*
X170263D01*
X170093Y127590D01*
X169924Y127562D01*
X169783Y127520D01*
X169656Y127478D01*
X169544Y127421D01*
X169459Y127379D01*
X169403Y127351D01*
X169389Y127337D01*
X169248Y127238D01*
X169121Y127111D01*
X169022Y126984D01*
X168937Y126857D01*
X168881Y126744D01*
X168839Y126660D01*
X168811Y126603D01*
X168797Y126575D01*
X168740Y126378D01*
X168698Y126152D01*
X168670Y125927D01*
X168655Y125701D01*
X168641Y125504D01*
X168627Y125335D01*
Y122431D01*
X171856D01*
Y125504D01*
X171841Y125885D01*
X171785Y126209D01*
X171715Y126491D01*
X171630Y126702D01*
X171545Y126885D01*
X171475Y126998D01*
X171418Y127069D01*
X171404Y127097D01*
X171221Y127266D01*
X171038Y127393D01*
X170841Y127478D01*
X170671Y127548D01*
X170502Y127576D01*
X170375Y127590D01*
X170291Y127604D01*
D02*
G37*
G36*
X37436Y381548D02*
X34208D01*
Y378475D01*
X34222Y378094D01*
X34278Y377770D01*
X34349Y377488D01*
X34433Y377277D01*
X34518Y377093D01*
X34588Y376981D01*
X34645Y376910D01*
X34659Y376882D01*
X34842Y376713D01*
X35025Y376586D01*
X35223Y376501D01*
X35392Y376431D01*
X35561Y376403D01*
X35688Y376389D01*
X35773Y376374D01*
X35787D01*
X35801D01*
X35970Y376389D01*
X36139Y376417D01*
X36280Y376459D01*
X36407Y376501D01*
X36520Y376558D01*
X36604Y376600D01*
X36661Y376628D01*
X36675Y376642D01*
X36816Y376741D01*
X36943Y376868D01*
X37041Y376995D01*
X37126Y377122D01*
X37182Y377234D01*
X37225Y377319D01*
X37253Y377375D01*
X37267Y377403D01*
X37323Y377601D01*
X37366Y377826D01*
X37394Y378052D01*
X37408Y378278D01*
X37422Y378475D01*
X37436Y378644D01*
Y381548D01*
D02*
G37*
G36*
X39438Y372752D02*
X35068Y369678D01*
X39438D01*
Y372752D01*
D02*
G37*
G36*
X36373Y322569D02*
X33144D01*
Y319496D01*
X33159Y319116D01*
X33215Y318791D01*
X33285Y318509D01*
X33370Y318298D01*
X33455Y318115D01*
X33525Y318002D01*
X33581Y317931D01*
X33595Y317903D01*
X33779Y317734D01*
X33962Y317607D01*
X34159Y317523D01*
X34329Y317452D01*
X34498Y317424D01*
X34625Y317410D01*
X34709Y317396D01*
X34723D01*
X34737D01*
X34907Y317410D01*
X35076Y317438D01*
X35217Y317480D01*
X35344Y317523D01*
X35456Y317579D01*
X35541Y317621D01*
X35597Y317649D01*
X35611Y317663D01*
X35752Y317762D01*
X35879Y317889D01*
X35978Y318016D01*
X36063Y318143D01*
X36119Y318256D01*
X36161Y318340D01*
X36189Y318396D01*
X36203Y318425D01*
X36260Y318622D01*
X36302Y318848D01*
X36330Y319073D01*
X36344Y319299D01*
X36359Y319496D01*
X36373Y319665D01*
Y322569D01*
D02*
G37*
G36*
X39457Y262520D02*
X36229D01*
Y259447D01*
X36243Y259066D01*
X36300Y258742D01*
X36370Y258460D01*
X36455Y258249D01*
X36539Y258065D01*
X36610Y257952D01*
X36666Y257882D01*
X36680Y257854D01*
X36863Y257685D01*
X37047Y257558D01*
X37244Y257473D01*
X37413Y257403D01*
X37582Y257374D01*
X37709Y257360D01*
X37794Y257346D01*
X37808D01*
X37822D01*
X37991Y257360D01*
X38160Y257388D01*
X38301Y257431D01*
X38428Y257473D01*
X38541Y257530D01*
X38626Y257572D01*
X38682Y257600D01*
X38696Y257614D01*
X38837Y257713D01*
X38964Y257840D01*
X39062Y257966D01*
X39147Y258093D01*
X39204Y258206D01*
X39246Y258291D01*
X39274Y258347D01*
X39288Y258375D01*
X39344Y258573D01*
X39387Y258798D01*
X39415Y259024D01*
X39429Y259249D01*
X39443Y259447D01*
X39457Y259616D01*
Y262520D01*
D02*
G37*
G36*
Y198625D02*
X36229D01*
Y195552D01*
X36243Y195171D01*
X36300Y194847D01*
X36370Y194565D01*
X36455Y194353D01*
X36539Y194170D01*
X36610Y194057D01*
X36666Y193987D01*
X36680Y193959D01*
X36863Y193789D01*
X37047Y193663D01*
X37244Y193578D01*
X37413Y193507D01*
X37582Y193479D01*
X37709Y193465D01*
X37794Y193451D01*
X37808D01*
X37822D01*
X37991Y193465D01*
X38160Y193493D01*
X38301Y193536D01*
X38428Y193578D01*
X38541Y193634D01*
X38626Y193677D01*
X38682Y193705D01*
X38696Y193719D01*
X38837Y193818D01*
X38964Y193944D01*
X39062Y194071D01*
X39147Y194198D01*
X39204Y194311D01*
X39246Y194396D01*
X39274Y194452D01*
X39288Y194480D01*
X39344Y194678D01*
X39387Y194903D01*
X39415Y195129D01*
X39429Y195354D01*
X39443Y195552D01*
X39457Y195721D01*
Y198625D01*
D02*
G37*
G36*
X57258Y143701D02*
X54467D01*
X54213Y143686D01*
X54002Y143672D01*
X53833Y143658D01*
X53720Y143630D01*
X53635Y143616D01*
X53579Y143602D01*
X53565D01*
X53382Y143531D01*
X53226Y143447D01*
X53085Y143362D01*
X52959Y143264D01*
X52874Y143165D01*
X52804Y143094D01*
X52761Y143038D01*
X52747Y143024D01*
X52649Y142855D01*
X52564Y142685D01*
X52508Y142502D01*
X52479Y142347D01*
X52451Y142206D01*
X52437Y142079D01*
Y142009D01*
Y141995D01*
Y141981D01*
X52465Y141685D01*
X52522Y141431D01*
X52606Y141205D01*
X52705Y141022D01*
X52804Y140881D01*
X52888Y140768D01*
X52944Y140712D01*
X52973Y140684D01*
X53071Y140599D01*
X53198Y140529D01*
X53466Y140416D01*
X53762Y140331D01*
X54058Y140275D01*
X54326Y140247D01*
X54439Y140233D01*
X54538D01*
X54636Y140218D01*
X57258D01*
Y143701D01*
D02*
G37*
G36*
X126632Y104700D02*
X124376D01*
X124193Y104686D01*
X124010D01*
X123841Y104672D01*
X123559Y104630D01*
X123333Y104602D01*
X123150Y104559D01*
X123023Y104517D01*
X122952Y104503D01*
X122924Y104489D01*
X122670Y104362D01*
X122431Y104207D01*
X122219Y104024D01*
X122036Y103841D01*
X121895Y103671D01*
X121782Y103530D01*
X121754Y103474D01*
X121726Y103432D01*
X121698Y103404D01*
Y103390D01*
X121613Y103234D01*
X121529Y103051D01*
X121402Y102685D01*
X121317Y102290D01*
X121247Y101909D01*
X121233Y101740D01*
X121219Y101571D01*
X121204Y101430D01*
Y101303D01*
X121190Y101190D01*
Y101120D01*
Y101063D01*
Y101049D01*
X121204Y100655D01*
X121233Y100288D01*
X121275Y99964D01*
X121317Y99682D01*
X121345Y99569D01*
X121374Y99471D01*
X121402Y99372D01*
X121416Y99301D01*
X121430Y99245D01*
X121444Y99203D01*
X121458Y99174D01*
Y99160D01*
X121557Y98892D01*
X121670Y98653D01*
X121797Y98441D01*
X121909Y98258D01*
X122008Y98117D01*
X122093Y98019D01*
X122149Y97962D01*
X122163Y97934D01*
X122304Y97821D01*
X122445Y97723D01*
X122586Y97638D01*
X122727Y97553D01*
X122854Y97497D01*
X122952Y97455D01*
X123023Y97441D01*
X123051Y97426D01*
X123263Y97370D01*
X123516Y97328D01*
X123770Y97300D01*
X124010Y97285D01*
X124221Y97271D01*
X124320Y97257D01*
X126632D01*
Y104700D01*
D02*
G37*
G36*
X104359Y157395D02*
X104274D01*
X103978Y157367D01*
X103710Y157296D01*
X103484Y157211D01*
X103287Y157099D01*
X103132Y156986D01*
X103019Y156901D01*
X102949Y156831D01*
X102921Y156803D01*
X102737Y156563D01*
X102596Y156309D01*
X102498Y156041D01*
X102441Y155788D01*
X102399Y155562D01*
X102385Y155463D01*
Y155379D01*
X102371Y155308D01*
Y155252D01*
Y155224D01*
Y155210D01*
X102399Y154829D01*
X102455Y154505D01*
X102540Y154223D01*
X102639Y153983D01*
X102752Y153800D01*
X102836Y153659D01*
X102893Y153574D01*
X102921Y153560D01*
Y153546D01*
X103019Y153433D01*
X103132Y153349D01*
X103358Y153194D01*
X103583Y153095D01*
X103781Y153011D01*
X103964Y152968D01*
X104105Y152954D01*
X104161Y152940D01*
X104232D01*
X104429Y152954D01*
X104612Y152982D01*
X104782Y153039D01*
X104922Y153095D01*
X105049Y153137D01*
X105148Y153194D01*
X105204Y153222D01*
X105233Y153236D01*
X105402Y153363D01*
X105543Y153490D01*
X105670Y153645D01*
X105768Y153772D01*
X105853Y153899D01*
X105909Y153997D01*
X105951Y154068D01*
X105966Y154096D01*
X106050Y154307D01*
X106107Y154519D01*
X106163Y154716D01*
X106191Y154900D01*
X106205Y155055D01*
X106219Y155182D01*
Y155252D01*
Y155280D01*
X106191Y155618D01*
X106135Y155914D01*
X106036Y156182D01*
X105937Y156394D01*
X105839Y156577D01*
X105740Y156704D01*
X105684Y156774D01*
X105655Y156803D01*
X105430Y157000D01*
X105204Y157141D01*
X104965Y157254D01*
X104753Y157324D01*
X104556Y157367D01*
X104415Y157381D01*
X104359Y157395D01*
D02*
G37*
G36*
X123689Y402932D02*
Y398562D01*
X126762D01*
X123689Y402932D01*
D02*
G37*
G36*
X144443Y282933D02*
X144359D01*
X144204Y282919D01*
X144048Y282905D01*
X143907Y282863D01*
X143781Y282806D01*
X143541Y282679D01*
X143329Y282538D01*
X143174Y282383D01*
X143048Y282256D01*
X143005Y282200D01*
X142977Y282158D01*
X142949Y282144D01*
Y282129D01*
X142850Y281960D01*
X142766Y281763D01*
X142681Y281537D01*
X142625Y281298D01*
X142568Y281044D01*
X142526Y280776D01*
X142455Y280240D01*
X142427Y279973D01*
X142413Y279733D01*
X142399Y279508D01*
Y279324D01*
X142385Y279155D01*
Y279028D01*
Y278958D01*
Y278944D01*
Y278930D01*
Y278493D01*
X142413Y278098D01*
X142441Y277745D01*
X142470Y277407D01*
X142512Y277125D01*
X142568Y276857D01*
X142625Y276632D01*
X142667Y276420D01*
X142723Y276251D01*
X142780Y276110D01*
X142822Y275983D01*
X142878Y275885D01*
X142907Y275814D01*
X142935Y275772D01*
X142963Y275744D01*
Y275730D01*
X143076Y275588D01*
X143188Y275476D01*
X143301Y275363D01*
X143414Y275278D01*
X143654Y275137D01*
X143865Y275039D01*
X144062Y274982D01*
X144204Y274954D01*
X144260Y274940D01*
X144344D01*
X144500Y274954D01*
X144641Y274968D01*
X144908Y275067D01*
X145148Y275194D01*
X145359Y275335D01*
X145514Y275476D01*
X145641Y275603D01*
X145712Y275701D01*
X145740Y275715D01*
Y275730D01*
X145839Y275899D01*
X145923Y276096D01*
X146008Y276322D01*
X146064Y276561D01*
X146121Y276815D01*
X146163Y277083D01*
X146233Y277633D01*
X146262Y277886D01*
X146276Y278126D01*
X146290Y278351D01*
Y278535D01*
X146304Y278704D01*
Y278831D01*
Y278901D01*
Y278930D01*
X146290Y279366D01*
X146276Y279761D01*
X146248Y280128D01*
X146205Y280466D01*
X146163Y280762D01*
X146107Y281030D01*
X146050Y281270D01*
X145994Y281481D01*
X145937Y281664D01*
X145895Y281819D01*
X145839Y281946D01*
X145796Y282059D01*
X145754Y282129D01*
X145726Y282186D01*
X145698Y282214D01*
Y282228D01*
X145599Y282355D01*
X145500Y282468D01*
X145388Y282552D01*
X145275Y282637D01*
X145049Y282764D01*
X144838Y282848D01*
X144655Y282891D01*
X144500Y282919D01*
X144443Y282933D01*
D02*
G37*
G36*
X126214D02*
X125989D01*
X125848Y282905D01*
X125594Y282834D01*
X125368Y282736D01*
X125171Y282637D01*
X125016Y282524D01*
X124903Y282426D01*
X124832Y282355D01*
X124804Y282341D01*
Y282327D01*
X124621Y282087D01*
X124480Y281819D01*
X124381Y281537D01*
X124325Y281270D01*
X124283Y281044D01*
X124269Y280945D01*
Y280847D01*
X124255Y280776D01*
Y280720D01*
Y280692D01*
Y280678D01*
X124283Y280311D01*
X124339Y279987D01*
X124424Y279719D01*
X124522Y279493D01*
X124635Y279310D01*
X124720Y279183D01*
X124776Y279099D01*
X124804Y279070D01*
X125016Y278873D01*
X125241Y278732D01*
X125467Y278633D01*
X125693Y278563D01*
X125876Y278521D01*
X126031Y278507D01*
X126087Y278493D01*
X126172D01*
X126468Y278521D01*
X126736Y278577D01*
X126975Y278676D01*
X127187Y278789D01*
X127342Y278887D01*
X127469Y278986D01*
X127539Y279042D01*
X127567Y279070D01*
X127751Y279296D01*
X127892Y279550D01*
X127976Y279804D01*
X128047Y280043D01*
X128089Y280255D01*
X128103Y280339D01*
Y280424D01*
X128117Y280494D01*
Y280537D01*
Y280565D01*
Y280579D01*
X128089Y280945D01*
X128033Y281284D01*
X127934Y281580D01*
X127821Y281819D01*
X127722Y282017D01*
X127624Y282158D01*
X127596Y282200D01*
X127567Y282242D01*
X127539Y282256D01*
Y282271D01*
X127426Y282383D01*
X127314Y282496D01*
X127074Y282651D01*
X126834Y282778D01*
X126609Y282848D01*
X126426Y282905D01*
X126270Y282919D01*
X126214Y282933D01*
D02*
G37*
G36*
X149151Y218395D02*
X149066D01*
X148770Y218367D01*
X148502Y218296D01*
X148277Y218211D01*
X148079Y218099D01*
X147924Y217986D01*
X147811Y217901D01*
X147741Y217831D01*
X147713Y217803D01*
X147529Y217563D01*
X147388Y217309D01*
X147290Y217041D01*
X147233Y216788D01*
X147191Y216562D01*
X147177Y216463D01*
Y216379D01*
X147163Y216308D01*
Y216252D01*
Y216224D01*
Y216210D01*
X147191Y215829D01*
X147247Y215505D01*
X147332Y215223D01*
X147431Y214983D01*
X147544Y214800D01*
X147628Y214659D01*
X147684Y214574D01*
X147713Y214560D01*
Y214546D01*
X147811Y214433D01*
X147924Y214349D01*
X148150Y214194D01*
X148375Y214095D01*
X148573Y214011D01*
X148756Y213968D01*
X148897Y213954D01*
X148953Y213940D01*
X149024D01*
X149221Y213954D01*
X149404Y213982D01*
X149573Y214039D01*
X149714Y214095D01*
X149841Y214137D01*
X149940Y214194D01*
X149996Y214222D01*
X150025Y214236D01*
X150194Y214363D01*
X150335Y214490D01*
X150462Y214645D01*
X150560Y214772D01*
X150645Y214899D01*
X150701Y214997D01*
X150744Y215068D01*
X150758Y215096D01*
X150842Y215308D01*
X150899Y215519D01*
X150955Y215716D01*
X150983Y215900D01*
X150997Y216055D01*
X151011Y216182D01*
Y216252D01*
Y216280D01*
X150983Y216618D01*
X150927Y216915D01*
X150828Y217182D01*
X150730Y217394D01*
X150631Y217577D01*
X150532Y217704D01*
X150476Y217774D01*
X150448Y217803D01*
X150222Y218000D01*
X149996Y218141D01*
X149757Y218254D01*
X149545Y218324D01*
X149348Y218367D01*
X149207Y218381D01*
X149151Y218395D01*
D02*
G37*
%LPD*%
D10*
X143000Y210000D02*
X163000D01*
Y180000D02*
Y210000D01*
X143000Y180000D02*
X163000D01*
X143000D02*
Y210000D01*
X325400Y477000D02*
X358600D01*
X299500D02*
Y513000D01*
X384500Y477000D02*
Y513000D01*
X299500D02*
X333200D01*
X350800D02*
X384500D01*
X123650Y481900D02*
X200900D01*
X123650Y415900D02*
X200900D01*
X123650D02*
Y481900D01*
X200900Y415900D02*
Y481900D01*
X97000Y470000D02*
X117000D01*
Y440000D02*
Y470000D01*
X97000Y440000D02*
X117000D01*
X97000D02*
Y470000D01*
X216000Y444200D02*
X242000D01*
X216000Y415800D02*
X220800D01*
X237200D02*
X242000D01*
X288400Y418000D02*
X321600D01*
X262500D02*
Y454000D01*
X347500Y418000D02*
Y454000D01*
X262500D02*
X296200D01*
X313800D02*
X347500D01*
X226000Y396500D02*
X246000D01*
Y366500D02*
Y396500D01*
X226000Y366500D02*
X246000D01*
X226000D02*
Y396500D01*
X264000Y503000D02*
X294000D01*
X264000Y483000D02*
Y503000D01*
Y483000D02*
X294000D01*
Y503000D01*
X305000Y365500D02*
X325000D01*
X305000D02*
Y395500D01*
X325000D01*
Y365500D02*
Y395500D01*
X329000Y365000D02*
X349000D01*
X329000D02*
Y395000D01*
X349000D01*
Y365000D02*
Y395000D01*
X214000Y176000D02*
X244000D01*
X214000Y156000D02*
Y176000D01*
Y156000D02*
X244000D01*
Y176000D01*
X145000Y331500D02*
X165000D01*
Y301500D02*
Y331500D01*
X145000Y301500D02*
X165000D01*
X145000D02*
Y331500D01*
X122000Y332000D02*
X142000D01*
Y302000D02*
Y332000D01*
X122000Y302000D02*
X142000D01*
X122000D02*
Y332000D01*
X142000Y272000D02*
X162000D01*
Y242000D02*
Y272000D01*
X142000Y242000D02*
X162000D01*
X142000D02*
Y272000D01*
X120000D02*
X140000D01*
Y242000D02*
Y272000D01*
X120000Y242000D02*
X140000D01*
X120000D02*
Y272000D01*
Y210000D02*
X140000D01*
Y180000D02*
Y210000D01*
X120000Y180000D02*
X140000D01*
X120000D02*
Y210000D01*
X149000Y392000D02*
X169000D01*
Y362000D02*
Y392000D01*
X149000Y362000D02*
X169000D01*
X149000D02*
Y392000D01*
X123000D02*
X143000D01*
Y362000D02*
Y392000D01*
X123000Y362000D02*
X143000D01*
X123000D02*
Y392000D01*
X45000Y363000D02*
Y393000D01*
Y363000D02*
X65000D01*
Y393000D01*
X45000D02*
X65000D01*
X45000Y303000D02*
Y333000D01*
Y303000D02*
X65000D01*
Y333000D01*
X45000D02*
X65000D01*
X47000Y241000D02*
Y271000D01*
Y241000D02*
X67000D01*
Y271000D01*
X47000D02*
X67000D01*
X47000Y179000D02*
Y209000D01*
Y179000D02*
X67000D01*
Y209000D01*
X47000D02*
X67000D01*
X105000Y130000D02*
Y150000D01*
X135000D01*
Y130000D02*
Y150000D01*
X105000Y130000D02*
X135000D01*
X141000Y113000D02*
Y143000D01*
Y113000D02*
X161000D01*
Y143000D01*
X141000D02*
X161000D01*
D11*
X368414Y470000D02*
G03*
X368414Y470000I-1414J0D01*
G01*
X331414Y411000D02*
G03*
X331414Y411000I-1414J0D01*
G01*
D13*
X230000Y404000D02*
G03*
X230000Y404000I-1000J0D01*
G01*
D14*
X74000Y357000D02*
X118000D01*
Y396000D01*
X107000D02*
X118000D01*
X85000D02*
X107000D01*
X74000Y357000D02*
Y396000D01*
X85000D01*
X73000Y298000D02*
X117000D01*
Y337000D01*
X106000D02*
X117000D01*
X84000D02*
X106000D01*
X73000Y298000D02*
Y337000D01*
X84000D01*
X73000Y238000D02*
X117000D01*
Y277000D01*
X106000D02*
X117000D01*
X84000D02*
X106000D01*
X73000Y238000D02*
Y277000D01*
X84000D01*
X73000Y177000D02*
X117000D01*
Y216000D01*
X106000D02*
X117000D01*
X84000D02*
X106000D01*
X73000Y177000D02*
Y216000D01*
X84000D01*
D16*
X382000Y180500D02*
Y360500D01*
X202000Y180500D02*
X382000D01*
X202000D02*
Y360500D01*
X382000D01*
X222696Y382617D02*
Y369922D01*
X220157Y367383D01*
X215078D01*
X212539Y369922D01*
Y382617D01*
X207461D02*
X197304D01*
Y380078D01*
X207461Y369922D01*
Y367383D01*
X317539Y531078D02*
X320078Y533618D01*
X325157D01*
X327696Y531078D01*
Y528539D01*
X325157Y526000D01*
X320078D01*
X317539Y523461D01*
Y520922D01*
X320078Y518382D01*
X325157D01*
X327696Y520922D01*
X304843Y518382D02*
Y533618D01*
X312461Y526000D01*
X302304D01*
X367539Y449078D02*
X370078Y451618D01*
X375157D01*
X377696Y449078D01*
Y446539D01*
X375157Y444000D01*
X370078D01*
X367539Y441461D01*
Y438922D01*
X370078Y436382D01*
X375157D01*
X377696Y438922D01*
X362461Y449078D02*
X359922Y451618D01*
X354843D01*
X352304Y449078D01*
Y446539D01*
X354843Y444000D01*
X357383D01*
X354843D01*
X352304Y441461D01*
Y438922D01*
X354843Y436382D01*
X359922D01*
X362461Y438922D01*
X291338Y511302D02*
Y526537D01*
X283720D01*
X281181Y523998D01*
Y518919D01*
X283720Y516380D01*
X291338D01*
X286260D02*
X281181Y511302D01*
X265946Y526537D02*
X276103D01*
Y518919D01*
X271025Y521459D01*
X268485D01*
X265946Y518919D01*
Y513841D01*
X268485Y511302D01*
X273564D01*
X276103Y513841D01*
X173157Y501618D02*
Y486382D01*
X163000D01*
X157922D02*
X152843D01*
X155382D01*
Y501618D01*
X157922Y499078D01*
X248000Y463618D02*
X253078D01*
X250539D01*
Y450922D01*
X253078Y448382D01*
X255618D01*
X258157Y450922D01*
X242922Y448382D02*
X237843D01*
X240382D01*
Y463618D01*
X242922Y461078D01*
X355922Y394887D02*
X353382Y397426D01*
Y402505D01*
X355922Y405044D01*
X366078D01*
X368618Y402505D01*
Y397426D01*
X366078Y394887D01*
X368618Y389809D02*
Y384730D01*
Y387270D01*
X353382D01*
X355922Y389809D01*
X366078Y377113D02*
X368618Y374574D01*
Y369495D01*
X366078Y366956D01*
X355922D01*
X353382Y369495D01*
Y374574D01*
X355922Y377113D01*
X358461D01*
X361000Y374574D01*
Y366956D01*
X287922Y395887D02*
X285382Y398426D01*
Y403505D01*
X287922Y406044D01*
X298078D01*
X300618Y403505D01*
Y398426D01*
X298078Y395887D01*
X300618Y390809D02*
Y385730D01*
Y388270D01*
X285382D01*
X287922Y390809D01*
Y378113D02*
X285382Y375574D01*
Y370495D01*
X287922Y367956D01*
X290461D01*
X293000Y370495D01*
X295539Y367956D01*
X298078D01*
X300618Y370495D01*
Y375574D01*
X298078Y378113D01*
X295539D01*
X293000Y375574D01*
X290461Y378113D01*
X287922D01*
X293000Y375574D02*
Y370495D01*
X212539Y401078D02*
X215078Y403618D01*
X220157D01*
X222696Y401078D01*
Y390922D01*
X220157Y388382D01*
X215078D01*
X212539Y390922D01*
X207461Y401078D02*
X204922Y403618D01*
X199843D01*
X197304Y401078D01*
Y398539D01*
X199843Y396000D01*
X197304Y393461D01*
Y390922D01*
X199843Y388382D01*
X204922D01*
X207461Y390922D01*
Y393461D01*
X204922Y396000D01*
X207461Y398539D01*
Y401078D01*
X204922Y396000D02*
X199843D01*
X106539Y432078D02*
X109078Y434618D01*
X114157D01*
X116696Y432078D01*
Y421922D01*
X114157Y419383D01*
X109078D01*
X106539Y421922D01*
X93843Y419383D02*
Y434618D01*
X101461Y427000D01*
X91304D01*
M02*
