G04*
G04 #@! TF.GenerationSoftware,Altium Limited,Altium Designer,22.7.1 (60)*
G04*
G04 Layer_Color=32896*
%FSLAX44Y44*%
%MOMM*%
G71*
G04*
G04 #@! TF.SameCoordinates,8A5828DB-0F62-4D68-8539-0FC61A56A6C0*
G04*
G04*
G04 #@! TF.FilePolarity,Positive*
G04*
G01*
G75*
%ADD10C,0.2500*%
%ADD11C,0.2000*%
%ADD13C,0.1270*%
%ADD14C,0.1500*%
%ADD44C,0.2540*%
%ADD58C,0.2032*%
D10*
X93250Y373400D02*
G03*
X93250Y373400I-1250J0D01*
G01*
D11*
X421700Y91900D02*
Y498300D01*
X79450Y282000D02*
X84450D01*
X81910Y279540D02*
Y284540D01*
X43500Y294500D02*
Y401500D01*
X38500Y294500D02*
Y401500D01*
X85500Y294500D02*
Y401500D01*
X38500D02*
X85500D01*
X38500Y294500D02*
X85500D01*
D13*
X95000Y349500D02*
Y379500D01*
Y349500D02*
X115000D01*
Y379500D01*
X95000D02*
X115000D01*
X65500Y246000D02*
Y266000D01*
X35500Y246000D02*
X65500D01*
X35500D02*
Y266000D01*
X65500D01*
X174000Y327500D02*
Y357500D01*
X154000D02*
X174000D01*
X154000Y327500D02*
Y357500D01*
Y327500D02*
X174000D01*
Y297500D02*
Y327500D01*
X154000D02*
X174000D01*
X154000Y297500D02*
Y327500D01*
Y297500D02*
X174000D01*
X114000Y313500D02*
Y343500D01*
X94000D02*
X114000D01*
X94000Y313500D02*
Y343500D01*
Y313500D02*
X114000D01*
X444000Y444500D02*
Y474500D01*
X424000D02*
X444000D01*
X424000Y444500D02*
Y474500D01*
Y444500D02*
X444000D01*
D14*
X109166Y307333D02*
X110333Y308499D01*
X112665D01*
X113832Y307333D01*
Y302667D01*
X112665Y301501D01*
X110333D01*
X109166Y302667D01*
X102169Y308499D02*
X106834D01*
Y305000D01*
X104501Y306166D01*
X103335D01*
X102169Y305000D01*
Y302667D01*
X103335Y301501D01*
X105667D01*
X106834Y302667D01*
X74665Y413499D02*
Y407667D01*
X73499Y406501D01*
X71166D01*
X70000Y407667D01*
Y413499D01*
X67667Y406501D02*
X65335D01*
X66501D01*
Y413499D01*
X67667Y412333D01*
X27164Y287499D02*
Y280501D01*
X23665D01*
X22499Y281667D01*
Y286333D01*
X23665Y287499D01*
X27164D01*
X15501Y286333D02*
X16667Y287499D01*
X19000D01*
X20166Y286333D01*
Y285166D01*
X19000Y284000D01*
X16667D01*
X15501Y282834D01*
Y281667D01*
X16667Y280501D01*
X19000D01*
X20166Y281667D01*
X13168Y280501D02*
X10836D01*
X12002D01*
Y287499D01*
X13168Y286333D01*
X140831Y307499D02*
X136166D01*
X138499D01*
Y300501D01*
X129169D02*
X133834D01*
X129169Y305166D01*
Y306333D01*
X130335Y307499D01*
X132667D01*
X133834Y306333D01*
X458831Y435501D02*
Y442499D01*
X455333D01*
X454166Y441333D01*
Y439000D01*
X455333Y437834D01*
X458831D01*
X456499D02*
X454166Y435501D01*
X451834Y436667D02*
X450667Y435501D01*
X448335D01*
X447169Y436667D01*
Y441333D01*
X448335Y442499D01*
X450667D01*
X451834Y441333D01*
Y440166D01*
X450667Y439000D01*
X447169D01*
X84831Y253501D02*
Y260499D01*
X81333D01*
X80166Y259333D01*
Y257000D01*
X81333Y255834D01*
X84831D01*
X82499D02*
X80166Y253501D01*
X73169Y260499D02*
X75501Y259333D01*
X77834Y257000D01*
Y254667D01*
X76667Y253501D01*
X74335D01*
X73169Y254667D01*
Y255834D01*
X74335Y257000D01*
X77834D01*
X171831Y364501D02*
Y371499D01*
X168333D01*
X167166Y370333D01*
Y368000D01*
X168333Y366834D01*
X171831D01*
X169499D02*
X167166Y364501D01*
X160168Y371499D02*
X164834D01*
Y368000D01*
X162501Y369166D01*
X161335D01*
X160168Y368000D01*
Y365667D01*
X161335Y364501D01*
X163667D01*
X164834Y365667D01*
X170832Y282501D02*
Y289499D01*
X167333D01*
X166166Y288333D01*
Y286000D01*
X167333Y284834D01*
X170832D01*
X168499D02*
X166166Y282501D01*
X159169D02*
X163834D01*
X159169Y287166D01*
Y288333D01*
X160335Y289499D01*
X162667D01*
X163834Y288333D01*
X162560Y78486D02*
Y85484D01*
X159061D01*
X157895Y84318D01*
Y81985D01*
X159061Y80819D01*
X162560D01*
X150897Y85484D02*
X155562D01*
Y81985D01*
X153230Y83151D01*
X152063D01*
X150897Y81985D01*
Y79652D01*
X152063Y78486D01*
X154396D01*
X155562Y79652D01*
X409832Y519501D02*
Y526499D01*
X406333D01*
X405166Y525333D01*
Y523000D01*
X406333Y521834D01*
X409832D01*
X399335Y519501D02*
Y526499D01*
X402834Y523000D01*
X398168D01*
X140831Y390501D02*
Y397499D01*
X137333D01*
X136166Y396333D01*
Y394000D01*
X137333Y392834D01*
X140831D01*
X133834Y396333D02*
X132667Y397499D01*
X130335D01*
X129169Y396333D01*
Y395166D01*
X130335Y394000D01*
X131501D01*
X130335D01*
X129169Y392834D01*
Y391667D01*
X130335Y390501D01*
X132667D01*
X133834Y391667D01*
X126665Y241501D02*
Y248499D01*
X123166D01*
X122000Y247333D01*
Y245000D01*
X123166Y243834D01*
X126665D01*
X119667Y241501D02*
X117335D01*
X118501D01*
Y248499D01*
X119667Y247333D01*
X106166Y390333D02*
X107333Y391499D01*
X109665D01*
X110831Y390333D01*
Y385667D01*
X109665Y384501D01*
X107333D01*
X106166Y385667D01*
X100335Y384501D02*
Y391499D01*
X103834Y388000D01*
X99169D01*
D44*
X185480Y91900D02*
Y498300D01*
D58*
X414080Y89360D02*
Y85128D01*
Y87244D01*
X401384D01*
X403500Y89360D01*
X401384Y78780D02*
Y70316D01*
X403500D01*
X411964Y78780D01*
X414080D01*
Y511000D02*
Y506768D01*
Y508884D01*
X401384D01*
X403500Y511000D01*
M02*
