G04*
G04 #@! TF.GenerationSoftware,Altium Limited,Altium Designer,22.7.1 (60)*
G04*
G04 Layer_Color=65535*
%FSLAX44Y44*%
%MOMM*%
G71*
G04*
G04 #@! TF.SameCoordinates,8A5828DB-0F62-4D68-8539-0FC61A56A6C0*
G04*
G04*
G04 #@! TF.FilePolarity,Positive*
G04*
G01*
G75*
%ADD10C,0.2500*%
%ADD11C,0.2000*%
%ADD12C,0.3810*%
%ADD13C,0.1270*%
%ADD14C,0.1500*%
D10*
X293250Y239500D02*
G03*
X293250Y239500I-1250J0D01*
G01*
D11*
X333250Y100750D02*
X374750D01*
Y143500D01*
X333250D02*
X374750D01*
X333250Y100750D02*
Y143500D01*
X341510Y165460D02*
Y170460D01*
X339050Y168000D02*
X344050D01*
X251300Y188900D02*
Y392100D01*
Y188900D02*
X276700D01*
Y392100D01*
X251300D02*
X276700D01*
D12*
X429850Y308250D02*
Y416200D01*
Y162200D02*
Y270150D01*
Y416200D02*
X518750D01*
X429850Y162200D02*
X518750D01*
Y416200D01*
X392000Y239500D02*
Y324500D01*
X282000D02*
X392000D01*
X299500Y239500D02*
X392000D01*
X284500Y239500D02*
X284500Y239500D01*
X282000D02*
Y324500D01*
X282000Y239500D02*
X282000Y239500D01*
X282000Y239500D02*
X284500D01*
D13*
X258500Y158000D02*
X288500D01*
X258500D02*
Y178000D01*
X288500D01*
Y158000D02*
Y178000D01*
X345000Y333000D02*
X365000D01*
Y363000D01*
X345000D02*
X365000D01*
X345000Y333000D02*
Y363000D01*
X369000Y333000D02*
X389000D01*
Y363000D01*
X369000D02*
X389000D01*
X369000Y333000D02*
Y363000D01*
X242900Y111500D02*
X248500D01*
X217500D02*
X223100D01*
X242900Y142500D02*
X248500D01*
X217500D02*
X223100D01*
X298500Y232000D02*
X328500D01*
Y212000D02*
Y232000D01*
X298500Y212000D02*
X328500D01*
X298500D02*
Y232000D01*
Y210000D02*
X328500D01*
Y190000D02*
Y210000D01*
X298500Y190000D02*
X328500D01*
X298500D02*
Y210000D01*
X397000Y107500D02*
Y137500D01*
X377000Y107500D02*
X397000D01*
X377000D02*
Y137500D01*
X397000D01*
X287000Y64000D02*
Y94000D01*
X307000D01*
Y64000D02*
Y94000D01*
X287000Y64000D02*
X307000D01*
X265000D02*
Y94000D01*
X285000D01*
Y64000D02*
Y94000D01*
X265000Y64000D02*
X285000D01*
X264000D02*
Y94000D01*
X244000Y64000D02*
X264000D01*
X244000D02*
Y94000D01*
X264000D01*
X236000Y64500D02*
Y94500D01*
X216000Y64500D02*
X236000D01*
X216000D02*
Y94500D01*
X236000D01*
X307000Y140000D02*
X327000D01*
X307000Y110000D02*
Y140000D01*
Y110000D02*
X327000D01*
Y140000D01*
X285000D02*
X305000D01*
X285000Y110000D02*
Y140000D01*
Y110000D02*
X305000D01*
Y140000D01*
X397000Y177500D02*
Y207500D01*
X377000Y177500D02*
X397000D01*
X377000D02*
Y207500D01*
X397000D01*
X354000Y177000D02*
X374000D01*
Y207000D01*
X354000D02*
X374000D01*
X354000Y177000D02*
Y207000D01*
X321000Y333000D02*
X341000D01*
Y363000D01*
X321000D02*
X341000D01*
X321000Y333000D02*
Y363000D01*
D14*
X304645Y153431D02*
X304695Y146433D01*
X308194Y146459D01*
X309352Y147634D01*
X309318Y152299D01*
X308143Y153456D01*
X304645Y153431D01*
X316316Y152350D02*
X315141Y153507D01*
X312808Y153490D01*
X311651Y152316D01*
X311659Y151149D01*
X312834Y149992D01*
X315166Y150008D01*
X316341Y148851D01*
X316350Y147684D01*
X315192Y146510D01*
X312859Y146493D01*
X311684Y147651D01*
X323355Y146569D02*
X318690Y146535D01*
X323322Y151234D01*
X323313Y152400D01*
X322138Y153558D01*
X319806Y153541D01*
X318648Y152366D01*
X286168Y337499D02*
Y331667D01*
X287335Y330501D01*
X289667D01*
X290834Y331667D01*
Y337499D01*
X293166Y331667D02*
X294333Y330501D01*
X296665D01*
X297831Y331667D01*
Y336333D01*
X296665Y337499D01*
X294333D01*
X293166Y336333D01*
Y335166D01*
X294333Y334000D01*
X297831D01*
X350168Y156499D02*
Y150667D01*
X351335Y149501D01*
X353667D01*
X354834Y150667D01*
Y156499D01*
X361832D02*
X359499Y155333D01*
X357166Y153000D01*
Y150667D01*
X358333Y149501D01*
X360665D01*
X361832Y150667D01*
Y151834D01*
X360665Y153000D01*
X357166D01*
X225168Y154499D02*
Y148667D01*
X226335Y147501D01*
X228667D01*
X229834Y148667D01*
Y154499D01*
X236831Y147501D02*
X232166D01*
X236831Y152166D01*
Y153333D01*
X235665Y154499D01*
X233333D01*
X232166Y153333D01*
X260168Y153499D02*
X264834D01*
X262501D01*
Y146501D01*
X267166Y153499D02*
X271831D01*
Y152333D01*
X267166Y147667D01*
Y146501D01*
X271002Y103999D02*
X275000D01*
X273001D01*
Y98001D01*
X280998Y103999D02*
X278999Y102999D01*
X277000Y101000D01*
Y99001D01*
X277999Y98001D01*
X279999D01*
X280998Y99001D01*
Y100000D01*
X279999Y101000D01*
X277000D01*
X351253Y522501D02*
Y529499D01*
X354752D01*
X355918Y528333D01*
Y526000D01*
X354752Y524834D01*
X351253D01*
X353585D02*
X355918Y522501D01*
X358251D02*
X360583D01*
X359417D01*
Y529499D01*
X358251Y528333D01*
X368747Y522501D02*
X364082D01*
X368747Y527166D01*
Y528333D01*
X367581Y529499D01*
X365248D01*
X364082Y528333D01*
X302607Y105441D02*
X302554Y98443D01*
X299055Y98470D01*
X297898Y99645D01*
X297916Y101978D01*
X299091Y103135D01*
X302590Y103108D01*
X300257Y103126D02*
X297943Y105476D01*
X295610Y105494D02*
X293277Y105512D01*
X294444Y105503D01*
X294390Y98506D01*
X295565Y99663D01*
X289779Y105539D02*
X287446Y105557D01*
X288612Y105548D01*
X288559Y98550D01*
X289734Y99708D01*
X324747Y104999D02*
Y98001D01*
X321248D01*
X320082Y99167D01*
Y101500D01*
X321248Y102666D01*
X324747D01*
X322415D02*
X320082Y104999D01*
X317749D02*
X315417D01*
X316583D01*
Y98001D01*
X317749Y99167D01*
X311918D02*
X310752Y98001D01*
X308419D01*
X307253Y99167D01*
Y103833D01*
X308419Y104999D01*
X310752D01*
X311918Y103833D01*
Y99167D01*
X240168Y169501D02*
Y176499D01*
X243667D01*
X244834Y175333D01*
Y173000D01*
X243667Y171834D01*
X240168D01*
X242501D02*
X244834Y169501D01*
X247166Y175333D02*
X248333Y176499D01*
X250665D01*
X251831Y175333D01*
Y174166D01*
X250665Y173000D01*
X251831Y171834D01*
Y170667D01*
X250665Y169501D01*
X248333D01*
X247166Y170667D01*
Y171834D01*
X248333Y173000D01*
X247166Y174166D01*
Y175333D01*
X248333Y173000D02*
X250665D01*
X359169Y212501D02*
Y219499D01*
X362667D01*
X363834Y218333D01*
Y216000D01*
X362667Y214834D01*
X359169D01*
X361501D02*
X363834Y212501D01*
X366166Y219499D02*
X370831D01*
Y218333D01*
X366166Y213667D01*
Y212501D01*
X349169Y367501D02*
Y374499D01*
X352667D01*
X353834Y373333D01*
Y371000D01*
X352667Y369834D01*
X349169D01*
X351501D02*
X353834Y367501D01*
X359665D02*
Y374499D01*
X356166Y371000D01*
X360831D01*
X326169Y367501D02*
Y374499D01*
X329667D01*
X330834Y373333D01*
Y371000D01*
X329667Y369834D01*
X326169D01*
X328501D02*
X330834Y367501D01*
X333166Y373333D02*
X334333Y374499D01*
X336665D01*
X337831Y373333D01*
Y372166D01*
X336665Y371000D01*
X335499D01*
X336665D01*
X337831Y369834D01*
Y368667D01*
X336665Y367501D01*
X334333D01*
X333166Y368667D01*
X373335Y367501D02*
Y374499D01*
X376834D01*
X378000Y373333D01*
Y371000D01*
X376834Y369834D01*
X373335D01*
X375667D02*
X378000Y367501D01*
X380333D02*
X382665D01*
X381499D01*
Y374499D01*
X380333Y373333D01*
X429838Y423501D02*
Y430499D01*
X433337D01*
X434503Y429333D01*
Y427000D01*
X433337Y425834D01*
X429838D01*
X436836Y423501D02*
Y430499D01*
X440335D01*
X441501Y429333D01*
Y427000D01*
X440335Y425834D01*
X436836D01*
X439169D02*
X441501Y423501D01*
X447333Y430499D02*
X445000D01*
X443834Y429333D01*
Y424667D01*
X445000Y423501D01*
X447333D01*
X448499Y424667D01*
Y429333D01*
X447333Y430499D01*
X455497Y429333D02*
X454330Y430499D01*
X451998D01*
X450831Y429333D01*
Y424667D01*
X451998Y423501D01*
X454330D01*
X455497Y424667D01*
Y427000D01*
X453164D01*
X457829Y423501D02*
X460162D01*
X458996D01*
Y430499D01*
X457829Y429333D01*
X251714Y399796D02*
Y406794D01*
X255213D01*
X256379Y405628D01*
Y403295D01*
X255213Y402129D01*
X251714D01*
X263377Y399796D02*
X258712D01*
X263377Y404461D01*
Y405628D01*
X262211Y406794D01*
X259878D01*
X258712Y405628D01*
X351836Y554499D02*
Y547501D01*
X356501D01*
X363499Y553333D02*
X362333Y554499D01*
X360000D01*
X358834Y553333D01*
Y552166D01*
X360000Y551000D01*
X362333D01*
X363499Y549834D01*
Y548667D01*
X362333Y547501D01*
X360000D01*
X358834Y548667D01*
X365831Y547501D02*
X368164D01*
X366998D01*
Y554499D01*
X365831Y553333D01*
X354501Y411169D02*
X361499D01*
Y414667D01*
X360333Y415834D01*
X355667D01*
X354501Y414667D01*
Y411169D01*
X361499Y422831D02*
Y418166D01*
X356834Y422831D01*
X355667D01*
X354501Y421665D01*
Y419333D01*
X355667Y418166D01*
X337512Y229348D02*
X336351Y230520D01*
X334018Y230530D01*
X332847Y229369D01*
X332826Y224704D01*
X333987Y223533D01*
X336319Y223522D01*
X337491Y224683D01*
X344483Y223485D02*
X339818Y223506D01*
X344504Y228151D01*
X344509Y229317D01*
X343348Y230488D01*
X341016Y230499D01*
X339844Y229338D01*
X346816Y223475D02*
X349148Y223464D01*
X347982Y223470D01*
X348013Y230467D01*
X346842Y229306D01*
X333318Y184299D02*
X332143Y185456D01*
X329811Y185439D01*
X328653Y184265D01*
X328687Y179600D01*
X329862Y178442D01*
X332194Y178459D01*
X333352Y179634D01*
X340358Y178518D02*
X335693Y178484D01*
X340324Y183183D01*
X340316Y184349D01*
X339141Y185507D01*
X336808Y185490D01*
X335651Y184316D01*
X342648Y184366D02*
X343806Y185541D01*
X346138Y185558D01*
X347313Y184400D01*
X347347Y179735D01*
X346189Y178561D01*
X343857Y178544D01*
X342682Y179701D01*
X342648Y184366D01*
X382918Y218333D02*
X381752Y219499D01*
X379419D01*
X378253Y218333D01*
Y213667D01*
X379419Y212501D01*
X381752D01*
X382918Y213667D01*
X385251Y212501D02*
X387583D01*
X386417D01*
Y219499D01*
X385251Y218333D01*
X391082Y219499D02*
X395747D01*
Y218333D01*
X391082Y213667D01*
Y212501D01*
X384084Y148833D02*
X382918Y149999D01*
X380585D01*
X379419Y148833D01*
Y144167D01*
X380585Y143001D01*
X382918D01*
X384084Y144167D01*
X386417Y143001D02*
X388749D01*
X387583D01*
Y149999D01*
X386417Y148833D01*
X392248Y143001D02*
X394581D01*
X393415D01*
Y149999D01*
X392248Y148833D01*
X224834Y104833D02*
X223667Y105999D01*
X221335D01*
X220168Y104833D01*
Y100167D01*
X221335Y99001D01*
X223667D01*
X224834Y100167D01*
X227166Y105999D02*
X231831D01*
Y104833D01*
X227166Y100167D01*
Y99001D01*
X298166Y53667D02*
X299333Y52501D01*
X301665D01*
X302831Y53667D01*
Y58333D01*
X301665Y59499D01*
X299333D01*
X298166Y58333D01*
X295834Y53667D02*
X294667Y52501D01*
X292335D01*
X291168Y53667D01*
Y54834D01*
X292335Y56000D01*
X293501D01*
X292335D01*
X291168Y57166D01*
Y58333D01*
X292335Y59499D01*
X294667D01*
X295834Y58333D01*
X275166Y53667D02*
X276332Y52501D01*
X278665D01*
X279831Y53667D01*
Y58333D01*
X278665Y59499D01*
X276332D01*
X275166Y58333D01*
X268169Y59499D02*
X272834D01*
X268169Y54834D01*
Y53667D01*
X269335Y52501D01*
X271667D01*
X272834Y53667D01*
X251000Y104333D02*
X249834Y105499D01*
X247501D01*
X246335Y104333D01*
Y99667D01*
X247501Y98501D01*
X249834D01*
X251000Y99667D01*
X253333Y98501D02*
X255665D01*
X254499D01*
Y105499D01*
X253333Y104333D01*
M02*
