G04*
G04 #@! TF.GenerationSoftware,Altium Limited,Altium Designer,22.7.1 (60)*
G04*
G04 Layer_Color=8421504*
%FSLAX44Y44*%
%MOMM*%
G71*
G04*
G04 #@! TF.SameCoordinates,8A5828DB-0F62-4D68-8539-0FC61A56A6C0*
G04*
G04*
G04 #@! TF.FilePolarity,Positive*
G04*
G01*
G75*
%ADD15R,1.3000X1.3000*%
%ADD16R,1.3000X1.3000*%
%ADD17R,0.5500X0.8000*%
%ADD18R,0.6000X0.9000*%
%ADD19R,0.9000X0.6000*%
%ADD20R,0.2500X1.5500*%
%ADD21R,0.4900X0.3500*%
%ADD22R,0.3500X0.4900*%
%ADD23R,0.4900X0.3000*%
D15*
X364000Y113000D02*
D03*
X344000Y133000D02*
D03*
X364000D02*
D03*
D16*
X344000Y113000D02*
D03*
D17*
X353500Y401000D02*
D03*
Y385000D02*
D03*
X362500D02*
D03*
Y401000D02*
D03*
D18*
X266000Y168000D02*
D03*
X281000D02*
D03*
X321000Y222000D02*
D03*
X306000D02*
D03*
X321000Y200000D02*
D03*
X306000D02*
D03*
D19*
X355000Y340500D02*
D03*
Y355500D02*
D03*
X379000Y340500D02*
D03*
Y355500D02*
D03*
X387000Y115000D02*
D03*
Y130000D02*
D03*
X297000Y86500D02*
D03*
Y71500D02*
D03*
X275000Y86500D02*
D03*
Y71500D02*
D03*
X254000D02*
D03*
Y86500D02*
D03*
X226000Y72000D02*
D03*
Y87000D02*
D03*
X317000Y132500D02*
D03*
Y117500D02*
D03*
X295000Y132500D02*
D03*
Y117500D02*
D03*
X387000Y185000D02*
D03*
Y200000D02*
D03*
X364000Y184500D02*
D03*
Y199500D02*
D03*
X331000Y340500D02*
D03*
Y355500D02*
D03*
D20*
X292000Y310000D02*
D03*
X297000D02*
D03*
X302000D02*
D03*
X307000D02*
D03*
X312000D02*
D03*
X332000D02*
D03*
X327000D02*
D03*
X322000D02*
D03*
X317000D02*
D03*
X352000D02*
D03*
X347000D02*
D03*
X342000D02*
D03*
X337000D02*
D03*
X372000D02*
D03*
X367000D02*
D03*
X362000D02*
D03*
X357000D02*
D03*
X382000D02*
D03*
X377000D02*
D03*
Y254000D02*
D03*
X382000D02*
D03*
X357000D02*
D03*
X362000D02*
D03*
X367000D02*
D03*
X372000D02*
D03*
X337000D02*
D03*
X342000D02*
D03*
X347000D02*
D03*
X352000D02*
D03*
X317000D02*
D03*
X322000D02*
D03*
X327000D02*
D03*
X332000D02*
D03*
X312000D02*
D03*
X307000D02*
D03*
X302000D02*
D03*
X297000D02*
D03*
X292000D02*
D03*
D21*
X245600Y117000D02*
D03*
Y122000D02*
D03*
Y127000D02*
D03*
Y132000D02*
D03*
Y137000D02*
D03*
X220400D02*
D03*
Y132000D02*
D03*
Y127000D02*
D03*
Y122000D02*
D03*
D22*
X238000Y139600D02*
D03*
X233000D02*
D03*
X228000D02*
D03*
Y114400D02*
D03*
X233000D02*
D03*
X238000D02*
D03*
D23*
X220400Y117000D02*
D03*
M02*
