G04*
G04 #@! TF.GenerationSoftware,Altium Limited,Altium Designer,22.7.1 (60)*
G04*
G04 Layer_Color=8388736*
%FSLAX44Y44*%
%MOMM*%
G71*
G04*
G04 #@! TF.SameCoordinates,8A5828DB-0F62-4D68-8539-0FC61A56A6C0*
G04*
G04*
G04 #@! TF.FilePolarity,Negative*
G04*
G01*
G75*
%ADD15R,1.3000X1.3000*%
%ADD24R,1.5032X1.5032*%
%ADD25R,1.5032X1.5032*%
%ADD26R,0.7532X1.0032*%
%ADD27R,0.7000X1.0000*%
%ADD28R,1.0000X0.7000*%
%ADD29R,0.4000X1.7000*%
%ADD30R,0.6932X0.5532*%
%ADD31R,0.5532X0.6932*%
%ADD32R,0.6932X0.5032*%
%ADD33R,1.7032X1.7032*%
%ADD34C,1.7032*%
%ADD35C,1.3000*%
%ADD36C,1.7532*%
%ADD37C,1.4032*%
%ADD38C,1.6012*%
%ADD39R,1.8032X1.8032*%
%ADD40C,1.8032*%
%ADD41C,1.4732*%
%ADD42C,0.8032*%
D15*
X461600Y365400D02*
D03*
D24*
X364000Y113000D02*
D03*
X344000Y133000D02*
D03*
X364000D02*
D03*
D25*
X344000Y113000D02*
D03*
D26*
X353500Y401000D02*
D03*
Y385000D02*
D03*
X362500D02*
D03*
Y401000D02*
D03*
D27*
X266000Y168000D02*
D03*
X281000D02*
D03*
X321000Y222000D02*
D03*
X306000D02*
D03*
X321000Y200000D02*
D03*
X306000D02*
D03*
D28*
X355000Y340500D02*
D03*
Y355500D02*
D03*
X379000Y340500D02*
D03*
Y355500D02*
D03*
X387000Y115000D02*
D03*
Y130000D02*
D03*
X297000Y86500D02*
D03*
Y71500D02*
D03*
X275000Y86500D02*
D03*
Y71500D02*
D03*
X254000D02*
D03*
Y86500D02*
D03*
X226000Y72000D02*
D03*
Y87000D02*
D03*
X317000Y132500D02*
D03*
Y117500D02*
D03*
X295000Y132500D02*
D03*
Y117500D02*
D03*
X387000Y185000D02*
D03*
Y200000D02*
D03*
X364000Y184500D02*
D03*
Y199500D02*
D03*
X331000Y340500D02*
D03*
Y355500D02*
D03*
D29*
X292000Y310000D02*
D03*
X297000D02*
D03*
X302000D02*
D03*
X307000D02*
D03*
X312000D02*
D03*
X332000D02*
D03*
X327000D02*
D03*
X322000D02*
D03*
X317000D02*
D03*
X352000D02*
D03*
X347000D02*
D03*
X342000D02*
D03*
X337000D02*
D03*
X372000D02*
D03*
X367000D02*
D03*
X362000D02*
D03*
X357000D02*
D03*
X382000D02*
D03*
X377000D02*
D03*
Y254000D02*
D03*
X382000D02*
D03*
X357000D02*
D03*
X362000D02*
D03*
X367000D02*
D03*
X372000D02*
D03*
X337000D02*
D03*
X342000D02*
D03*
X347000D02*
D03*
X352000D02*
D03*
X317000D02*
D03*
X322000D02*
D03*
X327000D02*
D03*
X332000D02*
D03*
X312000D02*
D03*
X307000D02*
D03*
X302000D02*
D03*
X297000D02*
D03*
X292000D02*
D03*
D30*
X245600Y117000D02*
D03*
Y122000D02*
D03*
Y127000D02*
D03*
Y132000D02*
D03*
Y137000D02*
D03*
X220400D02*
D03*
Y132000D02*
D03*
Y127000D02*
D03*
Y122000D02*
D03*
D31*
X238000Y139600D02*
D03*
X233000D02*
D03*
X228000D02*
D03*
Y114400D02*
D03*
X233000D02*
D03*
X238000D02*
D03*
D32*
X220400Y117000D02*
D03*
D33*
X409000Y485600D02*
D03*
X135000Y375000D02*
D03*
X264000Y201600D02*
D03*
D34*
X409000Y460200D02*
D03*
Y434800D02*
D03*
Y409400D02*
D03*
Y384000D02*
D03*
Y358600D02*
D03*
Y333200D02*
D03*
Y307800D02*
D03*
Y282400D02*
D03*
Y257000D02*
D03*
Y231600D02*
D03*
Y206200D02*
D03*
Y180800D02*
D03*
Y155400D02*
D03*
Y130000D02*
D03*
Y104600D02*
D03*
X204530Y231600D02*
D03*
Y257000D02*
D03*
Y206200D02*
D03*
Y384000D02*
D03*
Y333200D02*
D03*
Y282400D02*
D03*
Y307800D02*
D03*
Y358600D02*
D03*
Y155400D02*
D03*
Y130000D02*
D03*
Y104600D02*
D03*
Y180800D02*
D03*
X135000Y349600D02*
D03*
Y322000D02*
D03*
X264000Y379400D02*
D03*
Y354000D02*
D03*
Y328600D02*
D03*
Y303200D02*
D03*
Y277800D02*
D03*
Y252400D02*
D03*
Y227000D02*
D03*
X266000Y135000D02*
D03*
Y115000D02*
D03*
D35*
X487000Y365400D02*
D03*
Y340000D02*
D03*
X461600D02*
D03*
X487000Y314600D02*
D03*
X461600D02*
D03*
X487000Y289200D02*
D03*
X461600D02*
D03*
X487000Y263800D02*
D03*
X461600D02*
D03*
X487000Y238400D02*
D03*
X461600D02*
D03*
X487000Y213000D02*
D03*
X461600D02*
D03*
D36*
X299600Y168000D02*
D03*
X325000D02*
D03*
X65400Y282000D02*
D03*
X40000D02*
D03*
D37*
X439000Y493000D02*
D03*
X287000D02*
D03*
X157000Y65000D02*
D03*
D38*
X384000Y472000D02*
D03*
X334000D02*
D03*
D39*
X67000Y373400D02*
D03*
D40*
Y348000D02*
D03*
Y322600D02*
D03*
D41*
X342000Y90000D02*
D03*
X175000Y132000D02*
D03*
X285000Y150000D02*
D03*
X111000Y182000D02*
D03*
D42*
X182000Y327000D02*
D03*
M02*
