M48
;Layer_Color=9474304
;FILE_FORMAT=2:4
METRIC,LZ
;TYPE=PLATED
T1F00S00C0.4000
T2F00S00C0.8900
T3F00S00C0.9000
T4F00S00C2.0000
%
T01
X202Y084
X191Y214
X134Y249
X093Y219
X252Y28646
X341247Y320627
X349Y326
X341Y244
X338Y215
X298Y168
X37492Y123
X382Y058
X436Y129
X421Y175
T02
X229Y47
X279
T03
X137Y161
X162Y162
X170885Y2
X179Y2316
Y257
Y2824
Y3078
X268Y372
X4506Y3562
X476
Y3308
X4506
Y3054
X476
Y28
X4506
Y2546
X476
Y2292
X4506
Y2038
X476
T04
X18327Y04527
X13727Y38027
X42278Y470336
M30
