M48
;Layer_Color=9474304
;FILE_FORMAT=2:4
METRIC,LZ
;TYPE=PLATED
T1F00S00C0.7112
T2F00S00C0.8900
T3F00S00C0.9000
T4F00S00C1.0160
T5F00S00C2.0000
%
T01
X241Y114
X264Y163
X33Y321
X342Y309
T02
X229Y47
X279
T03
X137Y161
X162Y162
X193Y178
Y2034
X169Y203
X193Y2288
Y2542
X169Y265
X174Y325
Y385
X268Y372
X4506Y3562
X476
Y3308
X4506
Y3054
X476
Y28
X4506
Y2546
X476
Y2292
X4506
Y2038
X476
T04
X2135Y0332
X2389
X2643
X2897
X3151
X3405
Y1348
X3151
X2897
X2643
X2389
X2135
T05
X42278Y470336
M30
