M48
;Layer_Color=9474304
;FILE_FORMAT=4:4
METRIC,LZ
;TYPE=PLATED
T1F00S00C0.4000
T2F00S00C0.6000
T3F00S00C0.7112
T4F00S00C0.8000
T5F00S00C0.8900
T6F00S00C0.9000
T7F00S00C1.0000
T8F00S00C1.0500
%
T01
X00182Y00327
X00377Y00325
X00386
X003595Y002305
X0035Y00231
T02
X00157Y00065
T03
X00111Y00182
X00175Y00132
X00285Y0015
X00342Y0009
X00094Y00295
T04
X00439Y00493
X00287
T05
X00334Y00472
X00384
T06
X0020453Y001046
Y0013
Y001554
Y001808
Y002062
Y002316
Y00257
Y002824
Y003078
Y003332
Y003586
Y00384
X00264Y003794
Y00354
Y003286
Y003032
Y002778
Y002524
Y00227
Y002016
X00266Y00135
Y00115
X00135Y00322
Y003496
Y00375
X00409Y00384
Y003586
Y003332
Y003078
Y002824
Y00257
Y002316
Y002062
Y001808
Y001554
Y0013
Y001046
X004616Y00213
Y002384
Y002638
Y002892
Y003146
Y0034
Y003654
X00487
Y0034
Y003146
Y002892
Y002638
Y002384
Y00213
X00409Y004094
Y004348
Y004602
Y004856
T07
X00067Y003226
Y00348
Y003734
T08
X0004Y00282
X000654
X002996Y00168
X00325
M30
